<?xml version="1.0" encoding="UTF-8" standalone="no"?><svg xmlns="http://www.w3.org/2000/svg" xmlns:xlink="http://www.w3.org/1999/xlink" contentStyleType="text/css" height="667px" preserveAspectRatio="none" style="width:997px;height:667px;background:#FFFFFF;" version="1.1" viewBox="0 0 997 667" width="997px" zoomAndPan="magnify"><defs/><g><rect fill="none" height="26.2969" id="_title" style="stroke:none;stroke-width:1.0;" width="148" x="423.75" y="10"/><text fill="#000000" font-family="sans-serif" font-size="14" font-weight="bold" lengthAdjust="spacing" textLength="138" x="428.75" y="27.9951">Create Campaign</text><line style="stroke:#181818;stroke-width:0.5;stroke-dasharray:5.0,5.0;" x1="33" x2="33" y1="73.5938" y2="632.1172"/><line style="stroke:#181818;stroke-width:0.5;stroke-dasharray:5.0,5.0;" x1="264" x2="264" y1="73.5938" y2="632.1172"/><line style="stroke:#181818;stroke-width:0.5;stroke-dasharray:5.0,5.0;" x1="371" x2="371" y1="73.5938" y2="632.1172"/><line style="stroke:#181818;stroke-width:0.5;stroke-dasharray:5.0,5.0;" x1="496" x2="496" y1="73.5938" y2="632.1172"/><line style="stroke:#181818;stroke-width:0.5;stroke-dasharray:5.0,5.0;" x1="575" x2="575" y1="73.5938" y2="632.1172"/><line style="stroke:#181818;stroke-width:0.5;stroke-dasharray:5.0,5.0;" x1="874.5" x2="874.5" y1="73.5938" y2="632.1172"/><line style="stroke:#181818;stroke-width:0.5;stroke-dasharray:5.0,5.0;" x1="957.5" x2="957.5" y1="73.5938" y2="632.1172"/><rect fill="#E2E2F0" height="30.2969" rx="2.5" ry="2.5" style="stroke:#181818;stroke-width:0.5;" width="57" x="5" y="42.2969"/><text fill="#000000" font-family="sans-serif" font-size="14" lengthAdjust="spacing" textLength="43" x="12" y="62.292">Client</text><rect fill="#E2E2F0" height="30.2969" rx="2.5" ry="2.5" style="stroke:#181818;stroke-width:0.5;" width="57" x="5" y="631.1172"/><text fill="#000000" font-family="sans-serif" font-size="14" lengthAdjust="spacing" textLength="43" x="12" y="651.1123">Client</text><rect fill="#E2E2F0" height="30.2969" rx="2.5" ry="2.5" style="stroke:#181818;stroke-width:0.5;" width="111" x="209" y="42.2969"/><text fill="#000000" font-family="sans-serif" font-size="14" lengthAdjust="spacing" textLength="97" x="216" y="62.292">CampaignSvc</text><rect fill="#E2E2F0" height="30.2969" rx="2.5" ry="2.5" style="stroke:#181818;stroke-width:0.5;" width="111" x="209" y="631.1172"/><text fill="#000000" font-family="sans-serif" font-size="14" lengthAdjust="spacing" textLength="97" x="216" y="651.1123">CampaignSvc</text><rect fill="#E2E2F0" height="30.2969" rx="2.5" ry="2.5" style="stroke:#181818;stroke-width:0.5;" width="83" x="330" y="42.2969"/><text fill="#000000" font-family="sans-serif" font-size="14" lengthAdjust="spacing" textLength="69" x="337" y="62.292">MDMSSvc</text><rect fill="#E2E2F0" height="30.2969" rx="2.5" ry="2.5" style="stroke:#181818;stroke-width:0.5;" width="83" x="330" y="631.1172"/><text fill="#000000" font-family="sans-serif" font-size="14" lengthAdjust="spacing" textLength="69" x="337" y="651.1123">MDMSSvc</text><rect fill="#E2E2F0" height="30.2969" rx="2.5" ry="2.5" style="stroke:#181818;stroke-width:0.5;" width="83" x="455" y="42.2969"/><text fill="#000000" font-family="sans-serif" font-size="14" lengthAdjust="spacing" textLength="69" x="462" y="62.292">IDGenSvc</text><rect fill="#E2E2F0" height="30.2969" rx="2.5" ry="2.5" style="stroke:#181818;stroke-width:0.5;" width="83" x="455" y="631.1172"/><text fill="#000000" font-family="sans-serif" font-size="14" lengthAdjust="spacing" textLength="69" x="462" y="651.1123">IDGenSvc</text><rect fill="#E2E2F0" height="30.2969" rx="2.5" ry="2.5" style="stroke:#181818;stroke-width:0.5;" width="55" x="548" y="42.2969"/><text fill="#000000" font-family="sans-serif" font-size="14" lengthAdjust="spacing" textLength="41" x="555" y="62.292">Kafka</text><rect fill="#E2E2F0" height="30.2969" rx="2.5" ry="2.5" style="stroke:#181818;stroke-width:0.5;" width="55" x="548" y="631.1172"/><text fill="#000000" font-family="sans-serif" font-size="14" lengthAdjust="spacing" textLength="41" x="555" y="651.1123">Kafka</text><rect fill="#E2E2F0" height="30.2969" rx="2.5" ry="2.5" style="stroke:#181818;stroke-width:0.5;" width="78" x="835.5" y="42.2969"/><text fill="#000000" font-family="sans-serif" font-size="14" lengthAdjust="spacing" textLength="64" x="842.5" y="62.292">Persister</text><rect fill="#E2E2F0" height="30.2969" rx="2.5" ry="2.5" style="stroke:#181818;stroke-width:0.5;" width="78" x="835.5" y="631.1172"/><text fill="#000000" font-family="sans-serif" font-size="14" lengthAdjust="spacing" textLength="64" x="842.5" y="651.1123">Persister</text><rect fill="#E2E2F0" height="30.2969" rx="2.5" ry="2.5" style="stroke:#181818;stroke-width:0.5;" width="68" x="923.5" y="42.2969"/><text fill="#000000" font-family="sans-serif" font-size="14" lengthAdjust="spacing" textLength="54" x="930.5" y="62.292">Indexer</text><rect fill="#E2E2F0" height="30.2969" rx="2.5" ry="2.5" style="stroke:#181818;stroke-width:0.5;" width="68" x="923.5" y="631.1172"/><text fill="#000000" font-family="sans-serif" font-size="14" lengthAdjust="spacing" textLength="54" x="930.5" y="651.1123">Indexer</text><polygon fill="#181818" points="252.5,100.7266,262.5,104.7266,252.5,108.7266,256.5,104.7266" style="stroke:#181818;stroke-width:1.0;"/><line style="stroke:#181818;stroke-width:1.0;" x1="33.5" x2="258.5" y1="104.7266" y2="104.7266"/><text fill="#000000" font-family="sans-serif" font-size="13" lengthAdjust="spacing" textLength="112" x="40.5" y="99.6606">Create Campaign</text><polygon fill="#181818" points="359.5,129.8594,369.5,133.8594,359.5,137.8594,363.5,133.8594" style="stroke:#181818;stroke-width:1.0;"/><line style="stroke:#181818;stroke-width:1.0;" x1="264.5" x2="365.5" y1="133.8594" y2="133.8594"/><text fill="#000000" font-family="sans-serif" font-size="13" lengthAdjust="spacing" textLength="80" x="271.5" y="128.7935">Fetch Config</text><polygon fill="#181818" points="275.5,158.9922,265.5,162.9922,275.5,166.9922,271.5,162.9922" style="stroke:#181818;stroke-width:1.0;"/><line style="stroke:#181818;stroke-width:1.0;stroke-dasharray:2.0,2.0;" x1="269.5" x2="370.5" y1="162.9922" y2="162.9922"/><text fill="#000000" font-family="sans-serif" font-size="13" lengthAdjust="spacing" textLength="74" x="281.5" y="157.9263">mdms data</text><line style="stroke:#181818;stroke-width:1.0;" x1="264.5" x2="306.5" y1="207.2578" y2="207.2578"/><line style="stroke:#181818;stroke-width:1.0;" x1="306.5" x2="306.5" y1="207.2578" y2="220.2578"/><line style="stroke:#181818;stroke-width:1.0;" x1="265.5" x2="306.5" y1="220.2578" y2="220.2578"/><polygon fill="#181818" points="275.5,216.2578,265.5,220.2578,275.5,224.2578,271.5,220.2578" style="stroke:#181818;stroke-width:1.0;"/><text fill="#000000" font-family="sans-serif" font-size="13" lengthAdjust="spacing" textLength="52" x="271.5" y="187.0591">Validate</text><text fill="#000000" font-family="sans-serif" font-size="13" lengthAdjust="spacing" textLength="53" x="271.5" y="202.1919">Request</text><polygon fill="#181818" points="484.5,245.3906,494.5,249.3906,484.5,253.3906,488.5,249.3906" style="stroke:#181818;stroke-width:1.0;"/><line style="stroke:#181818;stroke-width:1.0;" x1="264.5" x2="490.5" y1="249.3906" y2="249.3906"/><text fill="#000000" font-family="sans-serif" font-size="13" lengthAdjust="spacing" textLength="146" x="271.5" y="244.3247">Generate Campaign ID</text><polygon fill="#181818" points="484.5,274.5234,494.5,278.5234,484.5,282.5234,488.5,278.5234" style="stroke:#181818;stroke-width:1.0;"/><line style="stroke:#181818;stroke-width:1.0;" x1="264.5" x2="490.5" y1="278.5234" y2="278.5234"/><text fill="#000000" font-family="sans-serif" font-size="13" lengthAdjust="spacing" textLength="208" x="271.5" y="273.4575">Generate Campaign Schedule ID</text><polygon fill="#181818" points="484.5,303.6563,494.5,307.6563,484.5,311.6563,488.5,307.6563" style="stroke:#181818;stroke-width:1.0;"/><line style="stroke:#181818;stroke-width:1.0;" x1="264.5" x2="490.5" y1="307.6563" y2="307.6563"/><text fill="#000000" font-family="sans-serif" font-size="13" lengthAdjust="spacing" textLength="208" x="271.5" y="302.5903">Generate Campaign Round ID(s)</text><polygon fill="#181818" points="563.5,332.7891,573.5,336.7891,563.5,340.7891,567.5,336.7891" style="stroke:#181818;stroke-width:1.0;"/><line style="stroke:#181818;stroke-width:1.0;" x1="264.5" x2="569.5" y1="336.7891" y2="336.7891"/><text fill="#000000" font-family="sans-serif" font-size="13" lengthAdjust="spacing" textLength="208" x="271.5" y="331.7231">(async) Produce Campaign Data</text><polygon fill="#181818" points="563.5,361.9219,573.5,365.9219,563.5,369.9219,567.5,365.9219" style="stroke:#181818;stroke-width:1.0;"/><line style="stroke:#181818;stroke-width:1.0;" x1="264.5" x2="569.5" y1="365.9219" y2="365.9219"/><text fill="#000000" font-family="sans-serif" font-size="13" lengthAdjust="spacing" textLength="270" x="271.5" y="360.856">(async) Produce Campaign Schedule Data</text><polygon fill="#181818" points="563.5,391.0547,573.5,395.0547,563.5,399.0547,567.5,395.0547" style="stroke:#181818;stroke-width:1.0;"/><line style="stroke:#181818;stroke-width:1.0;" x1="264.5" x2="569.5" y1="395.0547" y2="395.0547"/><text fill="#000000" font-family="sans-serif" font-size="13" lengthAdjust="spacing" textLength="253" x="271.5" y="389.9888">(async) Produce Campaign Round Data</text><polygon fill="#181818" points="586.5,420.1875,576.5,424.1875,586.5,428.1875,582.5,424.1875" style="stroke:#181818;stroke-width:1.0;"/><line style="stroke:#181818;stroke-width:1.0;" x1="580.5" x2="873.5" y1="424.1875" y2="424.1875"/><text fill="#000000" font-family="sans-serif" font-size="13" lengthAdjust="spacing" textLength="213" x="592.5" y="419.1216">(async)Consume Campaign Data</text><polygon fill="#181818" points="586.5,449.3203,576.5,453.3203,586.5,457.3203,582.5,453.3203" style="stroke:#181818;stroke-width:1.0;"/><line style="stroke:#181818;stroke-width:1.0;" x1="580.5" x2="873.5" y1="453.3203" y2="453.3203"/><text fill="#000000" font-family="sans-serif" font-size="13" lengthAdjust="spacing" textLength="275" x="592.5" y="448.2544">(async)Consume Campaign Schedule Data</text><polygon fill="#181818" points="586.5,478.4531,576.5,482.4531,586.5,486.4531,582.5,482.4531" style="stroke:#181818;stroke-width:1.0;"/><line style="stroke:#181818;stroke-width:1.0;" x1="580.5" x2="873.5" y1="482.4531" y2="482.4531"/><text fill="#000000" font-family="sans-serif" font-size="13" lengthAdjust="spacing" textLength="258" x="592.5" y="477.3872">(async)Consume Campaign Round Data</text><polygon fill="#181818" points="586.5,507.5859,576.5,511.5859,586.5,515.5859,582.5,511.5859" style="stroke:#181818;stroke-width:1.0;"/><line style="stroke:#181818;stroke-width:1.0;" x1="580.5" x2="956.5" y1="511.5859" y2="511.5859"/><text fill="#000000" font-family="sans-serif" font-size="13" lengthAdjust="spacing" textLength="217" x="592.5" y="506.52">(async) Consume Campaign Data</text><polygon fill="#181818" points="586.5,536.7188,576.5,540.7188,586.5,544.7188,582.5,540.7188" style="stroke:#181818;stroke-width:1.0;"/><line style="stroke:#181818;stroke-width:1.0;" x1="580.5" x2="956.5" y1="540.7188" y2="540.7188"/><text fill="#000000" font-family="sans-serif" font-size="13" lengthAdjust="spacing" textLength="279" x="592.5" y="535.6528">(async) Consume Campaign Schedule Data</text><polygon fill="#181818" points="586.5,565.8516,576.5,569.8516,586.5,573.8516,582.5,569.8516" style="stroke:#181818;stroke-width:1.0;"/><line style="stroke:#181818;stroke-width:1.0;" x1="580.5" x2="956.5" y1="569.8516" y2="569.8516"/><text fill="#000000" font-family="sans-serif" font-size="13" lengthAdjust="spacing" textLength="262" x="592.5" y="564.7856">(async) Consume Campaign Round Data</text><polygon fill="#181818" points="44.5,610.1172,34.5,614.1172,44.5,618.1172,40.5,614.1172" style="stroke:#181818;stroke-width:1.0;"/><line style="stroke:#181818;stroke-width:1.0;" x1="38.5" x2="263.5" y1="614.1172" y2="614.1172"/><text fill="#000000" font-family="sans-serif" font-size="13" lengthAdjust="spacing" textLength="100" x="50.5" y="593.9185">HTTP Status OK</text><text fill="#000000" font-family="sans-serif" font-size="13" lengthAdjust="spacing" textLength="207" x="50.5" y="609.0513">Return Payload with campaignId</text><!--MD5=[5da4ec31869a32c499955d34d720e00f]
@startuml
title Create Campaign

Client->CampaignSvc:Create Campaign
CampaignSvc->MDMSSvc: Fetch Config
MDMSSvc- ->CampaignSvc: mdms data
CampaignSvc->CampaignSvc: Validate\nRequest
CampaignSvc->IDGenSvc: Generate Campaign ID
CampaignSvc->IDGenSvc: Generate Campaign Schedule ID
CampaignSvc->IDGenSvc: Generate Campaign Round ID(s)
CampaignSvc->Kafka: (async) Produce Campaign Data
CampaignSvc->Kafka: (async) Produce Campaign Schedule Data
CampaignSvc->Kafka: (async) Produce Campaign Round Data
Kafka<-Persister: (async)Consume Campaign Data
Kafka<-Persister: (async)Consume Campaign Schedule Data
Kafka<-Persister: (async)Consume Campaign Round Data
Kafka<-Indexer: (async) Consume Campaign Data
Kafka<-Indexer: (async) Consume Campaign Schedule Data
Kafka<-Indexer: (async) Consume Campaign Round Data
CampaignSvc->Client: HTTP Status OK\nReturn Payload with campaignId
@enduml

PlantUML version 1.2022.8beta8(Unknown compile time)
(GPL source distribution)
Java Runtime: Java(TM) SE Runtime Environment
JVM: Java HotSpot(TM) 64-Bit Server VM
Default Encoding: UTF-8
Language: en
Country: US
--></g></svg>