<?xml version="1.0" encoding="UTF-8" standalone="no"?><svg xmlns="http://www.w3.org/2000/svg" xmlns:xlink="http://www.w3.org/1999/xlink" contentStyleType="text/css" height="334px" preserveAspectRatio="none" style="width:363px;height:334px;background:#FFFFFF;" version="1.1" viewBox="0 0 363 334" width="363px" zoomAndPan="magnify"><defs/><g><rect fill="none" height="26.2969" id="_title" style="stroke:none;stroke-width:1.0;" width="150" x="100.25" y="10"/><text fill="#000000" font-family="sans-serif" font-size="14" font-weight="bold" lengthAdjust="spacing" textLength="140" x="105.25" y="27.9951">Search Campaign</text><line style="stroke:#181818;stroke-width:0.5;stroke-dasharray:5.0,5.0;" x1="33" x2="33" y1="104.5938" y2="256.2578"/><line style="stroke:#181818;stroke-width:0.5;stroke-dasharray:5.0,5.0;" x1="170" x2="170" y1="104.5938" y2="256.2578"/><line style="stroke:#181818;stroke-width:0.5;stroke-dasharray:5.0,5.0;" x1="328.5" x2="328.5" y1="104.5938" y2="256.2578"/><rect fill="#E2E2F0" height="30.2969" rx="2.5" ry="2.5" style="stroke:#181818;stroke-width:0.5;" width="57" x="5" y="73.2969"/><text fill="#000000" font-family="sans-serif" font-size="14" lengthAdjust="spacing" textLength="43" x="12" y="93.292">Client</text><rect fill="#E2E2F0" height="30.2969" rx="2.5" ry="2.5" style="stroke:#181818;stroke-width:0.5;" width="57" x="5" y="255.2578"/><text fill="#000000" font-family="sans-serif" font-size="14" lengthAdjust="spacing" textLength="43" x="12" y="275.2529">Client</text><rect fill="#E2E2F0" height="30.2969" rx="2.5" ry="2.5" style="stroke:#181818;stroke-width:0.5;" width="111" x="115" y="73.2969"/><text fill="#000000" font-family="sans-serif" font-size="14" lengthAdjust="spacing" textLength="97" x="122" y="93.292">CampaignSvc</text><rect fill="#E2E2F0" height="30.2969" rx="2.5" ry="2.5" style="stroke:#181818;stroke-width:0.5;" width="111" x="115" y="255.2578"/><text fill="#000000" font-family="sans-serif" font-size="14" lengthAdjust="spacing" textLength="97" x="122" y="275.2529">CampaignSvc</text><text fill="#000000" font-family="sans-serif" font-size="14" lengthAdjust="spacing" textLength="21" x="315" y="101.292">DB</text><path d="M310.5,52.2969 C310.5,42.2969 328.5,42.2969 328.5,42.2969 C328.5,42.2969 346.5,42.2969 346.5,52.2969 L346.5,78.2969 C346.5,88.2969 328.5,88.2969 328.5,88.2969 C328.5,88.2969 310.5,88.2969 310.5,78.2969 L310.5,52.2969 " fill="#E2E2F0" style="stroke:#181818;stroke-width:1.5;"/><path d="M310.5,52.2969 C310.5,62.2969 328.5,62.2969 328.5,62.2969 C328.5,62.2969 346.5,62.2969 346.5,52.2969 " fill="none" style="stroke:#181818;stroke-width:1.5;"/><text fill="#000000" font-family="sans-serif" font-size="14" lengthAdjust="spacing" textLength="21" x="315" y="268.2529">DB</text><path d="M310.5,281.5547 C310.5,271.5547 328.5,271.5547 328.5,271.5547 C328.5,271.5547 346.5,271.5547 346.5,281.5547 L346.5,307.5547 C346.5,317.5547 328.5,317.5547 328.5,317.5547 C328.5,317.5547 310.5,317.5547 310.5,307.5547 L310.5,281.5547 " fill="#E2E2F0" style="stroke:#181818;stroke-width:1.5;"/><path d="M310.5,281.5547 C310.5,291.5547 328.5,291.5547 328.5,291.5547 C328.5,291.5547 346.5,291.5547 346.5,281.5547 " fill="none" style="stroke:#181818;stroke-width:1.5;"/><polygon fill="#181818" points="158.5,131.7266,168.5,135.7266,158.5,139.7266,162.5,135.7266" style="stroke:#181818;stroke-width:1.0;"/><line style="stroke:#181818;stroke-width:1.0;" x1="33.5" x2="164.5" y1="135.7266" y2="135.7266"/><text fill="#000000" font-family="sans-serif" font-size="13" lengthAdjust="spacing" textLength="113" x="40.5" y="130.6606">Search Campaign</text><polygon fill="#181818" points="316.5,160.8594,326.5,164.8594,316.5,168.8594,320.5,164.8594" style="stroke:#181818;stroke-width:1.0;"/><line style="stroke:#181818;stroke-width:1.0;" x1="170.5" x2="322.5" y1="164.8594" y2="164.8594"/><text fill="#000000" font-family="sans-serif" font-size="13" lengthAdjust="spacing" textLength="134" x="177.5" y="159.7935">Fetch record if exists</text><polygon fill="#181818" points="181.5,189.9922,171.5,193.9922,181.5,197.9922,177.5,193.9922" style="stroke:#181818;stroke-width:1.0;"/><line style="stroke:#181818;stroke-width:1.0;" x1="175.5" x2="327.5" y1="193.9922" y2="193.9922"/><text fill="#000000" font-family="sans-serif" font-size="13" lengthAdjust="spacing" textLength="45" x="187.5" y="188.9263">Record</text><polygon fill="#181818" points="44.5,234.2578,34.5,238.2578,44.5,242.2578,40.5,238.2578" style="stroke:#181818;stroke-width:1.0;"/><line style="stroke:#181818;stroke-width:1.0;" x1="38.5" x2="169.5" y1="238.2578" y2="238.2578"/><text fill="#000000" font-family="sans-serif" font-size="13" lengthAdjust="spacing" textLength="100" x="50.5" y="218.0591">HTTP Status OK</text><text fill="#000000" font-family="sans-serif" font-size="13" lengthAdjust="spacing" textLength="98" x="50.5" y="233.1919">Return Payload</text><!--MD5=[66e3043fe4fff5450936206eba80c648]
@startuml
title Search Campaign

Client->CampaignSvc:Search Campaign
database DB
CampaignSvc->DB: Fetch record if exists
DB->CampaignSvc: Record
CampaignSvc->Client: HTTP Status OK\nReturn Payload
@enduml

PlantUML version 1.2022.8beta8(Unknown compile time)
(GPL source distribution)
Java Runtime: Java(TM) SE Runtime Environment
JVM: Java HotSpot(TM) 64-Bit Server VM
Default Encoding: UTF-8
Language: en
Country: US
--></g></svg>