<?xml version="1.0" encoding="UTF-8" standalone="no"?><svg xmlns="http://www.w3.org/2000/svg" xmlns:xlink="http://www.w3.org/1999/xlink" contentStyleType="text/css" height="706px" preserveAspectRatio="none" style="width:1394px;height:706px;background:#FFFFFF;" version="1.1" viewBox="0 0 1394 706" width="1394px" zoomAndPan="magnify"><defs/><g><rect fill="none" height="26.2969" id="_title" style="stroke:none;stroke-width:1.0;" width="259" x="566.75" y="10"/><text fill="#000000" font-family="sans-serif" font-size="14" font-weight="bold" lengthAdjust="spacing" textLength="249" x="571.75" y="27.9951">Update Individual Registration</text><rect fill="#FFFFFF" height="548.3906" style="stroke:#181818;stroke-width:1.0;" width="10" x="338.5" y="104.7266"/><line style="stroke:#181818;stroke-width:0.5;stroke-dasharray:5.0,5.0;" x1="33" x2="33" y1="73.5938" y2="671.1172"/><line style="stroke:#181818;stroke-width:0.5;stroke-dasharray:5.0,5.0;" x1="343.5" x2="343.5" y1="73.5938" y2="671.1172"/><line style="stroke:#181818;stroke-width:0.5;stroke-dasharray:5.0,5.0;" x1="609" x2="609" y1="73.5938" y2="671.1172"/><line style="stroke:#181818;stroke-width:0.5;stroke-dasharray:5.0,5.0;" x1="731" x2="731" y1="73.5938" y2="671.1172"/><line style="stroke:#181818;stroke-width:0.5;stroke-dasharray:5.0,5.0;" x1="958" x2="958" y1="73.5938" y2="671.1172"/><line style="stroke:#181818;stroke-width:0.5;stroke-dasharray:5.0,5.0;" x1="1271.5" x2="1271.5" y1="73.5938" y2="671.1172"/><line style="stroke:#181818;stroke-width:0.5;stroke-dasharray:5.0,5.0;" x1="1354.5" x2="1354.5" y1="73.5938" y2="671.1172"/><rect fill="#E2E2F0" height="30.2969" rx="2.5" ry="2.5" style="stroke:#181818;stroke-width:0.5;" width="57" x="5" y="42.2969"/><text fill="#000000" font-family="sans-serif" font-size="14" lengthAdjust="spacing" textLength="43" x="12" y="62.292">Client</text><rect fill="#E2E2F0" height="30.2969" rx="2.5" ry="2.5" style="stroke:#181818;stroke-width:0.5;" width="57" x="5" y="670.1172"/><text fill="#000000" font-family="sans-serif" font-size="14" lengthAdjust="spacing" textLength="43" x="12" y="690.1123">Client</text><rect fill="#E2E2F0" height="30.2969" rx="2.5" ry="2.5" style="stroke:#181818;stroke-width:0.5;" width="128" x="279.5" y="42.2969"/><text fill="#000000" font-family="sans-serif" font-size="14" lengthAdjust="spacing" textLength="114" x="286.5" y="62.292">RegistrationSvc</text><rect fill="#E2E2F0" height="30.2969" rx="2.5" ry="2.5" style="stroke:#181818;stroke-width:0.5;" width="128" x="279.5" y="670.1172"/><text fill="#000000" font-family="sans-serif" font-size="14" lengthAdjust="spacing" textLength="114" x="286.5" y="690.1123">RegistrationSvc</text><rect fill="#E2E2F0" height="30.2969" rx="2.5" ry="2.5" style="stroke:#181818;stroke-width:0.5;" width="83" x="568" y="42.2969"/><text fill="#000000" font-family="sans-serif" font-size="14" lengthAdjust="spacing" textLength="69" x="575" y="62.292">MDMSSvc</text><rect fill="#E2E2F0" height="30.2969" rx="2.5" ry="2.5" style="stroke:#181818;stroke-width:0.5;" width="83" x="568" y="670.1172"/><text fill="#000000" font-family="sans-serif" font-size="14" lengthAdjust="spacing" textLength="69" x="575" y="690.1123">MDMSSvc</text><rect fill="#E2E2F0" height="30.2969" rx="2.5" ry="2.5" style="stroke:#181818;stroke-width:0.5;" width="141" x="661" y="42.2969"/><text fill="#000000" font-family="sans-serif" font-size="14" lengthAdjust="spacing" textLength="127" x="668" y="62.292">IndividualRegistry</text><rect fill="#E2E2F0" height="30.2969" rx="2.5" ry="2.5" style="stroke:#181818;stroke-width:0.5;" width="141" x="661" y="670.1172"/><text fill="#000000" font-family="sans-serif" font-size="14" lengthAdjust="spacing" textLength="127" x="668" y="690.1123">IndividualRegistry</text><rect fill="#E2E2F0" height="30.2969" rx="2.5" ry="2.5" style="stroke:#181818;stroke-width:0.5;" width="55" x="931" y="42.2969"/><text fill="#000000" font-family="sans-serif" font-size="14" lengthAdjust="spacing" textLength="41" x="938" y="62.292">Kafka</text><rect fill="#E2E2F0" height="30.2969" rx="2.5" ry="2.5" style="stroke:#181818;stroke-width:0.5;" width="55" x="931" y="670.1172"/><text fill="#000000" font-family="sans-serif" font-size="14" lengthAdjust="spacing" textLength="41" x="938" y="690.1123">Kafka</text><rect fill="#E2E2F0" height="30.2969" rx="2.5" ry="2.5" style="stroke:#181818;stroke-width:0.5;" width="78" x="1232.5" y="42.2969"/><text fill="#000000" font-family="sans-serif" font-size="14" lengthAdjust="spacing" textLength="64" x="1239.5" y="62.292">Persister</text><rect fill="#E2E2F0" height="30.2969" rx="2.5" ry="2.5" style="stroke:#181818;stroke-width:0.5;" width="78" x="1232.5" y="670.1172"/><text fill="#000000" font-family="sans-serif" font-size="14" lengthAdjust="spacing" textLength="64" x="1239.5" y="690.1123">Persister</text><rect fill="#E2E2F0" height="30.2969" rx="2.5" ry="2.5" style="stroke:#181818;stroke-width:0.5;" width="68" x="1320.5" y="42.2969"/><text fill="#000000" font-family="sans-serif" font-size="14" lengthAdjust="spacing" textLength="54" x="1327.5" y="62.292">Indexer</text><rect fill="#E2E2F0" height="30.2969" rx="2.5" ry="2.5" style="stroke:#181818;stroke-width:0.5;" width="68" x="1320.5" y="670.1172"/><text fill="#000000" font-family="sans-serif" font-size="14" lengthAdjust="spacing" textLength="54" x="1327.5" y="690.1123">Indexer</text><rect fill="#FFFFFF" height="548.3906" style="stroke:#181818;stroke-width:1.0;" width="10" x="338.5" y="104.7266"/><polygon fill="#181818" points="326.5,100.7266,336.5,104.7266,326.5,108.7266,330.5,104.7266" style="stroke:#181818;stroke-width:1.0;"/><line style="stroke:#181818;stroke-width:1.0;" x1="33.5" x2="332.5" y1="104.7266" y2="104.7266"/><text fill="#000000" font-family="sans-serif" font-size="13" lengthAdjust="spacing" textLength="191" x="40.5" y="99.6606">Update Individual Registration</text><polygon fill="#181818" points="597.5,129.8594,607.5,133.8594,597.5,137.8594,601.5,133.8594" style="stroke:#181818;stroke-width:1.0;"/><line style="stroke:#181818;stroke-width:1.0;" x1="348.5" x2="603.5" y1="133.8594" y2="133.8594"/><text fill="#000000" font-family="sans-serif" font-size="13" lengthAdjust="spacing" textLength="80" x="355.5" y="128.7935">Fetch Config</text><polygon fill="#181818" points="359.5,158.9922,349.5,162.9922,359.5,166.9922,355.5,162.9922" style="stroke:#181818;stroke-width:1.0;"/><line style="stroke:#181818;stroke-width:1.0;stroke-dasharray:2.0,2.0;" x1="353.5" x2="608.5" y1="162.9922" y2="162.9922"/><text fill="#000000" font-family="sans-serif" font-size="13" lengthAdjust="spacing" textLength="74" x="365.5" y="157.9263">mdms data</text><line style="stroke:#181818;stroke-width:1.0;" x1="348.5" x2="390.5" y1="207.2578" y2="207.2578"/><line style="stroke:#181818;stroke-width:1.0;" x1="390.5" x2="390.5" y1="207.2578" y2="220.2578"/><line style="stroke:#181818;stroke-width:1.0;" x1="349.5" x2="390.5" y1="220.2578" y2="220.2578"/><polygon fill="#181818" points="359.5,216.2578,349.5,220.2578,359.5,224.2578,355.5,220.2578" style="stroke:#181818;stroke-width:1.0;"/><text fill="#000000" font-family="sans-serif" font-size="13" lengthAdjust="spacing" textLength="52" x="355.5" y="187.0591">Validate</text><text fill="#000000" font-family="sans-serif" font-size="13" lengthAdjust="spacing" textLength="53" x="355.5" y="202.1919">Request</text><polygon fill="#181818" points="719.5,245.3906,729.5,249.3906,719.5,253.3906,723.5,249.3906" style="stroke:#181818;stroke-width:1.0;"/><line style="stroke:#181818;stroke-width:1.0;" x1="348.5" x2="725.5" y1="249.3906" y2="249.3906"/><text fill="#000000" font-family="sans-serif" font-size="13" lengthAdjust="spacing" textLength="165" x="355.5" y="244.3247">Fetch individual to update</text><polygon fill="#181818" points="359.5,274.5234,349.5,278.5234,359.5,282.5234,355.5,278.5234" style="stroke:#181818;stroke-width:1.0;"/><line style="stroke:#181818;stroke-width:1.0;stroke-dasharray:2.0,2.0;" x1="353.5" x2="730.5" y1="278.5234" y2="278.5234"/><text fill="#000000" font-family="sans-serif" font-size="13" lengthAdjust="spacing" textLength="60" x="365.5" y="273.4575">Individual</text><line style="stroke:#181818;stroke-width:1.0;" x1="348.5" x2="390.5" y1="307.6563" y2="307.6563"/><line style="stroke:#181818;stroke-width:1.0;" x1="390.5" x2="390.5" y1="307.6563" y2="320.6563"/><line style="stroke:#181818;stroke-width:1.0;" x1="349.5" x2="390.5" y1="320.6563" y2="320.6563"/><polygon fill="#181818" points="359.5,316.6563,349.5,320.6563,359.5,324.6563,355.5,320.6563" style="stroke:#181818;stroke-width:1.0;"/><text fill="#000000" font-family="sans-serif" font-size="13" lengthAdjust="spacing" textLength="110" x="355.5" y="302.5903">Update individual</text><polygon fill="#181818" points="719.5,345.7891,729.5,349.7891,719.5,353.7891,723.5,349.7891" style="stroke:#181818;stroke-width:1.0;"/><line style="stroke:#181818;stroke-width:1.0;" x1="348.5" x2="725.5" y1="349.7891" y2="349.7891"/><text fill="#000000" font-family="sans-serif" font-size="13" lengthAdjust="spacing" textLength="110" x="355.5" y="344.7231">Update individual</text><polygon fill="#181818" points="946.5,374.9219,956.5,378.9219,946.5,382.9219,950.5,378.9219" style="stroke:#181818;stroke-width:1.0;"/><line style="stroke:#181818;stroke-width:1.0;" x1="731.5" x2="952.5" y1="378.9219" y2="378.9219"/><text fill="#000000" font-family="sans-serif" font-size="13" lengthAdjust="spacing" textLength="203" x="738.5" y="373.856">(async) Produce Individual Data</text><polygon fill="#181818" points="969.5,404.0547,959.5,408.0547,969.5,412.0547,965.5,408.0547" style="stroke:#181818;stroke-width:1.0;"/><line style="stroke:#181818;stroke-width:1.0;" x1="963.5" x2="1270.5" y1="408.0547" y2="408.0547"/><text fill="#000000" font-family="sans-serif" font-size="13" lengthAdjust="spacing" textLength="212" x="975.5" y="402.9888">(async) Consume Individual Data</text><polygon fill="#181818" points="969.5,433.1875,959.5,437.1875,969.5,441.1875,965.5,437.1875" style="stroke:#181818;stroke-width:1.0;"/><line style="stroke:#181818;stroke-width:1.0;" x1="963.5" x2="1353.5" y1="437.1875" y2="437.1875"/><text fill="#000000" font-family="sans-serif" font-size="13" lengthAdjust="spacing" textLength="212" x="975.5" y="432.1216">(async) Consume Individual Data</text><line style="stroke:#181818;stroke-width:1.0;" x1="348.5" x2="390.5" y1="466.3203" y2="466.3203"/><line style="stroke:#181818;stroke-width:1.0;" x1="390.5" x2="390.5" y1="466.3203" y2="479.3203"/><line style="stroke:#181818;stroke-width:1.0;" x1="349.5" x2="390.5" y1="479.3203" y2="479.3203"/><polygon fill="#181818" points="359.5,475.3203,349.5,479.3203,359.5,483.3203,355.5,479.3203" style="stroke:#181818;stroke-width:1.0;"/><text fill="#000000" font-family="sans-serif" font-size="13" lengthAdjust="spacing" textLength="242" x="355.5" y="461.2544">Fetch individual registration to update</text><line style="stroke:#181818;stroke-width:1.0;" x1="348.5" x2="390.5" y1="508.4531" y2="508.4531"/><line style="stroke:#181818;stroke-width:1.0;" x1="390.5" x2="390.5" y1="508.4531" y2="521.4531"/><line style="stroke:#181818;stroke-width:1.0;" x1="349.5" x2="390.5" y1="521.4531" y2="521.4531"/><polygon fill="#181818" points="359.5,517.4531,349.5,521.4531,359.5,525.4531,355.5,521.4531" style="stroke:#181818;stroke-width:1.0;"/><text fill="#000000" font-family="sans-serif" font-size="13" lengthAdjust="spacing" textLength="187" x="355.5" y="503.3872">Update individual registration</text><polygon fill="#181818" points="946.5,546.5859,956.5,550.5859,946.5,554.5859,950.5,550.5859" style="stroke:#181818;stroke-width:1.0;"/><line style="stroke:#181818;stroke-width:1.0;" x1="348.5" x2="952.5" y1="550.5859" y2="550.5859"/><text fill="#000000" font-family="sans-serif" font-size="13" lengthAdjust="spacing" textLength="278" x="355.5" y="545.52">(async) Produce Individual registration data</text><polygon fill="#181818" points="969.5,575.7188,959.5,579.7188,969.5,583.7188,965.5,579.7188" style="stroke:#181818;stroke-width:1.0;"/><line style="stroke:#181818;stroke-width:1.0;" x1="963.5" x2="1270.5" y1="579.7188" y2="579.7188"/><text fill="#000000" font-family="sans-serif" font-size="13" lengthAdjust="spacing" textLength="289" x="975.5" y="574.6528">(async) Consume Individual registration Data</text><polygon fill="#181818" points="969.5,604.8516,959.5,608.8516,969.5,612.8516,965.5,608.8516" style="stroke:#181818;stroke-width:1.0;"/><line style="stroke:#181818;stroke-width:1.0;" x1="963.5" x2="1353.5" y1="608.8516" y2="608.8516"/><text fill="#000000" font-family="sans-serif" font-size="13" lengthAdjust="spacing" textLength="289" x="975.5" y="603.7856">(async) Consume Individual registration Data</text><polygon fill="#181818" points="44.5,649.1172,34.5,653.1172,44.5,657.1172,40.5,653.1172" style="stroke:#181818;stroke-width:1.0;"/><line style="stroke:#181818;stroke-width:1.0;" x1="38.5" x2="342.5" y1="653.1172" y2="653.1172"/><text fill="#000000" font-family="sans-serif" font-size="13" lengthAdjust="spacing" textLength="100" x="50.5" y="632.9185">HTTP Status OK</text><text fill="#000000" font-family="sans-serif" font-size="13" lengthAdjust="spacing" textLength="281" x="50.5" y="648.0513">Return Payload with individualRegistrationId</text><!--MD5=[887a98e4b6f589adcad65a80098e02f0]
@startuml
title Update Individual Registration

Client->RegistrationSvc ++:Update Individual Registration
RegistrationSvc->MDMSSvc: Fetch Config
MDMSSvc- ->RegistrationSvc: mdms data
RegistrationSvc->RegistrationSvc: Validate\nRequest
RegistrationSvc->IndividualRegistry: Fetch individual to update
RegistrationSvc<- -IndividualRegistry: Individual
RegistrationSvc->RegistrationSvc: Update individual
RegistrationSvc->IndividualRegistry: Update individual
IndividualRegistry->Kafka: (async) Produce Individual Data
Kafka<-Persister: (async) Consume Individual Data
Kafka<-Indexer: (async) Consume Individual Data

RegistrationSvc->RegistrationSvc: Fetch individual registration to update
RegistrationSvc->RegistrationSvc: Update individual registration
RegistrationSvc->Kafka: (async) Produce Individual registration data
Kafka<-Persister: (async) Consume Individual registration Data
Kafka<-Indexer: (async) Consume Individual registration Data
RegistrationSvc->Client - -: HTTP Status OK\nReturn Payload with individualRegistrationId
@enduml

PlantUML version 1.2022.8beta8(Unknown compile time)
(GPL source distribution)
Java Runtime: Java(TM) SE Runtime Environment
JVM: Java HotSpot(TM) 64-Bit Server VM
Default Encoding: UTF-8
Language: en
Country: US
--></g></svg>