<?xml version="1.0" encoding="UTF-8" standalone="no"?><svg xmlns="http://www.w3.org/2000/svg" xmlns:xlink="http://www.w3.org/1999/xlink" contentStyleType="text/css" height="334px" preserveAspectRatio="none" style="width:439px;height:334px;background:#FFFFFF;" version="1.1" viewBox="0 0 439 334" width="439px" zoomAndPan="magnify"><defs/><g><rect fill="none" height="26.2969" id="_title" style="stroke:none;stroke-width:1.0;" width="256" x="85.25" y="10"/><text fill="#000000" font-family="sans-serif" font-size="14" font-weight="bold" lengthAdjust="spacing" textLength="246" x="90.25" y="27.9951">Search Individual Registration</text><line style="stroke:#181818;stroke-width:0.5;stroke-dasharray:5.0,5.0;" x1="33" x2="33" y1="104.5938" y2="256.2578"/><line style="stroke:#181818;stroke-width:0.5;stroke-dasharray:5.0,5.0;" x1="246.5" x2="246.5" y1="104.5938" y2="256.2578"/><line style="stroke:#181818;stroke-width:0.5;stroke-dasharray:5.0,5.0;" x1="404.5" x2="404.5" y1="104.5938" y2="256.2578"/><rect fill="#E2E2F0" height="30.2969" rx="2.5" ry="2.5" style="stroke:#181818;stroke-width:0.5;" width="57" x="5" y="73.2969"/><text fill="#000000" font-family="sans-serif" font-size="14" lengthAdjust="spacing" textLength="43" x="12" y="93.292">Client</text><rect fill="#E2E2F0" height="30.2969" rx="2.5" ry="2.5" style="stroke:#181818;stroke-width:0.5;" width="57" x="5" y="255.2578"/><text fill="#000000" font-family="sans-serif" font-size="14" lengthAdjust="spacing" textLength="43" x="12" y="275.2529">Client</text><rect fill="#E2E2F0" height="30.2969" rx="2.5" ry="2.5" style="stroke:#181818;stroke-width:0.5;" width="128" x="182.5" y="73.2969"/><text fill="#000000" font-family="sans-serif" font-size="14" lengthAdjust="spacing" textLength="114" x="189.5" y="93.292">RegistrationSvc</text><rect fill="#E2E2F0" height="30.2969" rx="2.5" ry="2.5" style="stroke:#181818;stroke-width:0.5;" width="128" x="182.5" y="255.2578"/><text fill="#000000" font-family="sans-serif" font-size="14" lengthAdjust="spacing" textLength="114" x="189.5" y="275.2529">RegistrationSvc</text><text fill="#000000" font-family="sans-serif" font-size="14" lengthAdjust="spacing" textLength="21" x="391" y="101.292">DB</text><path d="M386.5,52.2969 C386.5,42.2969 404.5,42.2969 404.5,42.2969 C404.5,42.2969 422.5,42.2969 422.5,52.2969 L422.5,78.2969 C422.5,88.2969 404.5,88.2969 404.5,88.2969 C404.5,88.2969 386.5,88.2969 386.5,78.2969 L386.5,52.2969 " fill="#E2E2F0" style="stroke:#181818;stroke-width:1.5;"/><path d="M386.5,52.2969 C386.5,62.2969 404.5,62.2969 404.5,62.2969 C404.5,62.2969 422.5,62.2969 422.5,52.2969 " fill="none" style="stroke:#181818;stroke-width:1.5;"/><text fill="#000000" font-family="sans-serif" font-size="14" lengthAdjust="spacing" textLength="21" x="391" y="268.2529">DB</text><path d="M386.5,281.5547 C386.5,271.5547 404.5,271.5547 404.5,271.5547 C404.5,271.5547 422.5,271.5547 422.5,281.5547 L422.5,307.5547 C422.5,317.5547 404.5,317.5547 404.5,317.5547 C404.5,317.5547 386.5,317.5547 386.5,307.5547 L386.5,281.5547 " fill="#E2E2F0" style="stroke:#181818;stroke-width:1.5;"/><path d="M386.5,281.5547 C386.5,291.5547 404.5,291.5547 404.5,291.5547 C404.5,291.5547 422.5,291.5547 422.5,281.5547 " fill="none" style="stroke:#181818;stroke-width:1.5;"/><polygon fill="#181818" points="234.5,131.7266,244.5,135.7266,234.5,139.7266,238.5,135.7266" style="stroke:#181818;stroke-width:1.0;"/><line style="stroke:#181818;stroke-width:1.0;" x1="33.5" x2="240.5" y1="135.7266" y2="135.7266"/><text fill="#000000" font-family="sans-serif" font-size="13" lengthAdjust="spacing" textLength="189" x="40.5" y="130.6606">Search Individual Registration</text><polygon fill="#181818" points="392.5,160.8594,402.5,164.8594,392.5,168.8594,396.5,164.8594" style="stroke:#181818;stroke-width:1.0;"/><line style="stroke:#181818;stroke-width:1.0;" x1="246.5" x2="398.5" y1="164.8594" y2="164.8594"/><text fill="#000000" font-family="sans-serif" font-size="13" lengthAdjust="spacing" textLength="134" x="253.5" y="159.7935">Fetch record if exists</text><polygon fill="#181818" points="257.5,189.9922,247.5,193.9922,257.5,197.9922,253.5,193.9922" style="stroke:#181818;stroke-width:1.0;"/><line style="stroke:#181818;stroke-width:1.0;" x1="251.5" x2="403.5" y1="193.9922" y2="193.9922"/><text fill="#000000" font-family="sans-serif" font-size="13" lengthAdjust="spacing" textLength="45" x="263.5" y="188.9263">Record</text><polygon fill="#181818" points="44.5,234.2578,34.5,238.2578,44.5,242.2578,40.5,238.2578" style="stroke:#181818;stroke-width:1.0;"/><line style="stroke:#181818;stroke-width:1.0;" x1="38.5" x2="245.5" y1="238.2578" y2="238.2578"/><text fill="#000000" font-family="sans-serif" font-size="13" lengthAdjust="spacing" textLength="100" x="50.5" y="218.0591">HTTP Status OK</text><text fill="#000000" font-family="sans-serif" font-size="13" lengthAdjust="spacing" textLength="98" x="50.5" y="233.1919">Return Payload</text><!--MD5=[f3681d7dcebd38a99ceffc88efc0da42]
@startuml
title Search Individual Registration

Client->RegistrationSvc:Search Individual Registration
database DB
RegistrationSvc->DB: Fetch record if exists
DB->RegistrationSvc: Record
RegistrationSvc->Client: HTTP Status OK\nReturn Payload
@enduml

PlantUML version 1.2022.8beta8(Unknown compile time)
(GPL source distribution)
Java Runtime: Java(TM) SE Runtime Environment
JVM: Java HotSpot(TM) 64-Bit Server VM
Default Encoding: UTF-8
Language: en
Country: US
--></g></svg>