<?xml version="1.0" encoding="UTF-8" standalone="no"?><svg xmlns="http://www.w3.org/2000/svg" xmlns:xlink="http://www.w3.org/1999/xlink" contentStyleType="text/css" height="520px" preserveAspectRatio="none" style="width:1084px;height:520px;background:#FFFFFF;" version="1.1" viewBox="0 0 1084 520" width="1084px" zoomAndPan="magnify"><defs/><g><rect fill="none" height="26.2969" id="_title" style="stroke:none;stroke-width:1.0;" width="184" x="449.25" y="10"/><text fill="#000000" font-family="sans-serif" font-size="14" font-weight="bold" lengthAdjust="spacing" textLength="174" x="454.25" y="27.9951">Update Inventory Log</text><line style="stroke:#181818;stroke-width:0.5;stroke-dasharray:5.0,5.0;" x1="33" x2="33" y1="104.5938" y2="441.9219"/><line style="stroke:#181818;stroke-width:0.5;stroke-dasharray:5.0,5.0;" x1="322.5" x2="322.5" y1="104.5938" y2="441.9219"/><line style="stroke:#181818;stroke-width:0.5;stroke-dasharray:5.0,5.0;" x1="492.5" x2="492.5" y1="104.5938" y2="441.9219"/><line style="stroke:#181818;stroke-width:0.5;stroke-dasharray:5.0,5.0;" x1="548.5" x2="548.5" y1="104.5938" y2="441.9219"/><line style="stroke:#181818;stroke-width:0.5;stroke-dasharray:5.0,5.0;" x1="628" x2="628" y1="104.5938" y2="441.9219"/><line style="stroke:#181818;stroke-width:0.5;stroke-dasharray:5.0,5.0;" x1="961.5" x2="961.5" y1="104.5938" y2="441.9219"/><line style="stroke:#181818;stroke-width:0.5;stroke-dasharray:5.0,5.0;" x1="1044.5" x2="1044.5" y1="104.5938" y2="441.9219"/><rect fill="#E2E2F0" height="30.2969" rx="2.5" ry="2.5" style="stroke:#181818;stroke-width:0.5;" width="57" x="5" y="73.2969"/><text fill="#000000" font-family="sans-serif" font-size="14" lengthAdjust="spacing" textLength="43" x="12" y="93.292">Client</text><rect fill="#E2E2F0" height="30.2969" rx="2.5" ry="2.5" style="stroke:#181818;stroke-width:0.5;" width="57" x="5" y="440.9219"/><text fill="#000000" font-family="sans-serif" font-size="14" lengthAdjust="spacing" textLength="43" x="12" y="460.917">Client</text><rect fill="#E2E2F0" height="30.2969" rx="2.5" ry="2.5" style="stroke:#181818;stroke-width:0.5;" width="108" x="268.5" y="73.2969"/><text fill="#000000" font-family="sans-serif" font-size="14" lengthAdjust="spacing" textLength="94" x="275.5" y="93.292">InventorySvc</text><rect fill="#E2E2F0" height="30.2969" rx="2.5" ry="2.5" style="stroke:#181818;stroke-width:0.5;" width="108" x="268.5" y="440.9219"/><text fill="#000000" font-family="sans-serif" font-size="14" lengthAdjust="spacing" textLength="94" x="275.5" y="460.917">InventorySvc</text><rect fill="#E2E2F0" height="30.2969" rx="2.5" ry="2.5" style="stroke:#181818;stroke-width:0.5;" width="56" x="464.5" y="73.2969"/><text fill="#000000" font-family="sans-serif" font-size="14" lengthAdjust="spacing" textLength="42" x="471.5" y="93.292">Mdms</text><rect fill="#E2E2F0" height="30.2969" rx="2.5" ry="2.5" style="stroke:#181818;stroke-width:0.5;" width="56" x="464.5" y="440.9219"/><text fill="#000000" font-family="sans-serif" font-size="14" lengthAdjust="spacing" textLength="42" x="471.5" y="460.917">Mdms</text><text fill="#000000" font-family="sans-serif" font-size="14" lengthAdjust="spacing" textLength="21" x="535" y="101.292">DB</text><path d="M530.5,52.2969 C530.5,42.2969 548.5,42.2969 548.5,42.2969 C548.5,42.2969 566.5,42.2969 566.5,52.2969 L566.5,78.2969 C566.5,88.2969 548.5,88.2969 548.5,88.2969 C548.5,88.2969 530.5,88.2969 530.5,78.2969 L530.5,52.2969 " fill="#E2E2F0" style="stroke:#181818;stroke-width:1.5;"/><path d="M530.5,52.2969 C530.5,62.2969 548.5,62.2969 548.5,62.2969 C548.5,62.2969 566.5,62.2969 566.5,52.2969 " fill="none" style="stroke:#181818;stroke-width:1.5;"/><text fill="#000000" font-family="sans-serif" font-size="14" lengthAdjust="spacing" textLength="21" x="535" y="453.917">DB</text><path d="M530.5,467.2188 C530.5,457.2188 548.5,457.2188 548.5,457.2188 C548.5,457.2188 566.5,457.2188 566.5,467.2188 L566.5,493.2188 C566.5,503.2188 548.5,503.2188 548.5,503.2188 C548.5,503.2188 530.5,503.2188 530.5,493.2188 L530.5,467.2188 " fill="#E2E2F0" style="stroke:#181818;stroke-width:1.5;"/><path d="M530.5,467.2188 C530.5,477.2188 548.5,477.2188 548.5,477.2188 C548.5,477.2188 566.5,477.2188 566.5,467.2188 " fill="none" style="stroke:#181818;stroke-width:1.5;"/><rect fill="#E2E2F0" height="30.2969" rx="2.5" ry="2.5" style="stroke:#181818;stroke-width:0.5;" width="55" x="601" y="73.2969"/><text fill="#000000" font-family="sans-serif" font-size="14" lengthAdjust="spacing" textLength="41" x="608" y="93.292">Kafka</text><rect fill="#E2E2F0" height="30.2969" rx="2.5" ry="2.5" style="stroke:#181818;stroke-width:0.5;" width="55" x="601" y="440.9219"/><text fill="#000000" font-family="sans-serif" font-size="14" lengthAdjust="spacing" textLength="41" x="608" y="460.917">Kafka</text><rect fill="#E2E2F0" height="30.2969" rx="2.5" ry="2.5" style="stroke:#181818;stroke-width:0.5;" width="78" x="922.5" y="73.2969"/><text fill="#000000" font-family="sans-serif" font-size="14" lengthAdjust="spacing" textLength="64" x="929.5" y="93.292">Persister</text><rect fill="#E2E2F0" height="30.2969" rx="2.5" ry="2.5" style="stroke:#181818;stroke-width:0.5;" width="78" x="922.5" y="440.9219"/><text fill="#000000" font-family="sans-serif" font-size="14" lengthAdjust="spacing" textLength="64" x="929.5" y="460.917">Persister</text><rect fill="#E2E2F0" height="30.2969" rx="2.5" ry="2.5" style="stroke:#181818;stroke-width:0.5;" width="68" x="1010.5" y="73.2969"/><text fill="#000000" font-family="sans-serif" font-size="14" lengthAdjust="spacing" textLength="54" x="1017.5" y="93.292">Indexer</text><rect fill="#E2E2F0" height="30.2969" rx="2.5" ry="2.5" style="stroke:#181818;stroke-width:0.5;" width="68" x="1010.5" y="440.9219"/><text fill="#000000" font-family="sans-serif" font-size="14" lengthAdjust="spacing" textLength="54" x="1017.5" y="460.917">Indexer</text><polygon fill="#181818" points="310.5,131.7266,320.5,135.7266,310.5,139.7266,314.5,135.7266" style="stroke:#181818;stroke-width:1.0;"/><line style="stroke:#181818;stroke-width:1.0;" x1="33.5" x2="316.5" y1="135.7266" y2="135.7266"/><text fill="#000000" font-family="sans-serif" font-size="13" lengthAdjust="spacing" textLength="88" x="40.5" y="130.6606">Inventory Log</text><polygon fill="#181818" points="480.5,160.8594,490.5,164.8594,480.5,168.8594,484.5,164.8594" style="stroke:#181818;stroke-width:1.0;"/><line style="stroke:#181818;stroke-width:1.0;" x1="322.5" x2="486.5" y1="164.8594" y2="164.8594"/><text fill="#000000" font-family="sans-serif" font-size="13" lengthAdjust="spacing" textLength="146" x="329.5" y="159.7935">Get config from mdms</text><line style="stroke:#181818;stroke-width:1.0;" x1="322.5" x2="364.5" y1="193.9922" y2="193.9922"/><line style="stroke:#181818;stroke-width:1.0;" x1="364.5" x2="364.5" y1="193.9922" y2="206.9922"/><line style="stroke:#181818;stroke-width:1.0;" x1="323.5" x2="364.5" y1="206.9922" y2="206.9922"/><polygon fill="#181818" points="333.5,202.9922,323.5,206.9922,333.5,210.9922,329.5,206.9922" style="stroke:#181818;stroke-width:1.0;"/><text fill="#000000" font-family="sans-serif" font-size="13" lengthAdjust="spacing" textLength="105" x="329.5" y="188.9263">Validate request</text><polygon fill="#181818" points="536.5,232.125,546.5,236.125,536.5,240.125,540.5,236.125" style="stroke:#181818;stroke-width:1.0;"/><line style="stroke:#181818;stroke-width:1.0;" x1="322.5" x2="542.5" y1="236.125" y2="236.125"/><text fill="#000000" font-family="sans-serif" font-size="13" lengthAdjust="spacing" textLength="177" x="329.5" y="231.0591">Fetch inventory log if exists</text><polygon fill="#181818" points="333.5,261.2578,323.5,265.2578,333.5,269.2578,329.5,265.2578" style="stroke:#181818;stroke-width:1.0;"/><line style="stroke:#181818;stroke-width:1.0;stroke-dasharray:2.0,2.0;" x1="327.5" x2="547.5" y1="265.2578" y2="265.2578"/><text fill="#000000" font-family="sans-serif" font-size="13" lengthAdjust="spacing" textLength="178" x="339.5" y="260.1919">Inventory log to be updated</text><line style="stroke:#181818;stroke-width:1.0;" x1="322.5" x2="364.5" y1="294.3906" y2="294.3906"/><line style="stroke:#181818;stroke-width:1.0;" x1="364.5" x2="364.5" y1="294.3906" y2="307.3906"/><line style="stroke:#181818;stroke-width:1.0;" x1="323.5" x2="364.5" y1="307.3906" y2="307.3906"/><polygon fill="#181818" points="333.5,303.3906,323.5,307.3906,333.5,311.3906,329.5,307.3906" style="stroke:#181818;stroke-width:1.0;"/><text fill="#000000" font-family="sans-serif" font-size="13" lengthAdjust="spacing" textLength="138" x="329.5" y="289.3247">Update Inventory Log</text><polygon fill="#181818" points="616.5,332.5234,626.5,336.5234,616.5,340.5234,620.5,336.5234" style="stroke:#181818;stroke-width:1.0;"/><line style="stroke:#181818;stroke-width:1.0;" x1="322.5" x2="622.5" y1="336.5234" y2="336.5234"/><text fill="#000000" font-family="sans-serif" font-size="13" lengthAdjust="spacing" textLength="282" x="329.5" y="331.4575">(async) Produce inventory log data to Kafka</text><polygon fill="#181818" points="639.5,361.6563,629.5,365.6563,639.5,369.6563,635.5,365.6563" style="stroke:#181818;stroke-width:1.0;"/><line style="stroke:#181818;stroke-width:1.0;" x1="633.5" x2="960.5" y1="365.6563" y2="365.6563"/><text fill="#000000" font-family="sans-serif" font-size="13" lengthAdjust="spacing" textLength="309" x="645.5" y="360.5903">(async) Consume inventory log data from Kafka</text><polygon fill="#181818" points="639.5,390.7891,629.5,394.7891,639.5,398.7891,635.5,394.7891" style="stroke:#181818;stroke-width:1.0;"/><line style="stroke:#181818;stroke-width:1.0;" x1="633.5" x2="1043.5" y1="394.7891" y2="394.7891"/><text fill="#000000" font-family="sans-serif" font-size="13" lengthAdjust="spacing" textLength="309" x="645.5" y="389.7231">(async) Consume inventory log data from Kafka</text><polygon fill="#181818" points="44.5,419.9219,34.5,423.9219,44.5,427.9219,40.5,423.9219" style="stroke:#181818;stroke-width:1.0;"/><line style="stroke:#181818;stroke-width:1.0;stroke-dasharray:2.0,2.0;" x1="38.5" x2="321.5" y1="423.9219" y2="423.9219"/><text fill="#000000" font-family="sans-serif" font-size="13" lengthAdjust="spacing" textLength="265" x="50.5" y="418.856">HttpStatus Ok - inventory log data with Id</text><!--MD5=[28110372d9eead402f5fdf20c35a1817]
@startuml
title Update Inventory Log

Client -> InventorySvc : Inventory Log
InventorySvc -> Mdms : Get config from mdms
InventorySvc -> InventorySvc : Validate request
database DB
InventorySvc -> DB : Fetch inventory log if exists
InventorySvc <- - DB : Inventory log to be updated
InventorySvc -> InventorySvc: Update Inventory Log
InventorySvc -> Kafka: (async) Produce inventory log data to Kafka
Kafka <- Persister: (async) Consume inventory log data from Kafka
Kafka <- Indexer: (async) Consume inventory log data from Kafka
Client <- - InventorySvc : HttpStatus Ok - inventory log data with Id
@enduml

PlantUML version 1.2022.8beta8(Unknown compile time)
(GPL source distribution)
Java Runtime: Java(TM) SE Runtime Environment
JVM: Java HotSpot(TM) 64-Bit Server VM
Default Encoding: UTF-8
Language: en
Country: US
--></g></svg>