<?xml version="1.0" encoding="UTF-8" standalone="no"?><svg xmlns="http://www.w3.org/2000/svg" xmlns:xlink="http://www.w3.org/1999/xlink" contentStyleType="text/css" height="319px" preserveAspectRatio="none" style="width:461px;height:319px;background:#FFFFFF;" version="1.1" viewBox="0 0 461 319" width="461px" zoomAndPan="magnify"><defs/><g><rect fill="none" height="26.2969" id="_title" style="stroke:none;stroke-width:1.0;" width="181" x="133.75" y="10"/><text fill="#000000" font-family="sans-serif" font-size="14" font-weight="bold" lengthAdjust="spacing" textLength="171" x="138.75" y="27.9951">Search Inventory Log</text><line style="stroke:#181818;stroke-width:0.5;stroke-dasharray:5.0,5.0;" x1="33" x2="33" y1="104.5938" y2="241.125"/><line style="stroke:#181818;stroke-width:0.5;stroke-dasharray:5.0,5.0;" x1="268.5" x2="268.5" y1="104.5938" y2="241.125"/><line style="stroke:#181818;stroke-width:0.5;stroke-dasharray:5.0,5.0;" x1="426.5" x2="426.5" y1="104.5938" y2="241.125"/><rect fill="#E2E2F0" height="30.2969" rx="2.5" ry="2.5" style="stroke:#181818;stroke-width:0.5;" width="57" x="5" y="73.2969"/><text fill="#000000" font-family="sans-serif" font-size="14" lengthAdjust="spacing" textLength="43" x="12" y="93.292">Client</text><rect fill="#E2E2F0" height="30.2969" rx="2.5" ry="2.5" style="stroke:#181818;stroke-width:0.5;" width="57" x="5" y="240.125"/><text fill="#000000" font-family="sans-serif" font-size="14" lengthAdjust="spacing" textLength="43" x="12" y="260.1201">Client</text><rect fill="#E2E2F0" height="30.2969" rx="2.5" ry="2.5" style="stroke:#181818;stroke-width:0.5;" width="108" x="214.5" y="73.2969"/><text fill="#000000" font-family="sans-serif" font-size="14" lengthAdjust="spacing" textLength="94" x="221.5" y="93.292">InventorySvc</text><rect fill="#E2E2F0" height="30.2969" rx="2.5" ry="2.5" style="stroke:#181818;stroke-width:0.5;" width="108" x="214.5" y="240.125"/><text fill="#000000" font-family="sans-serif" font-size="14" lengthAdjust="spacing" textLength="94" x="221.5" y="260.1201">InventorySvc</text><text fill="#000000" font-family="sans-serif" font-size="14" lengthAdjust="spacing" textLength="21" x="413" y="101.292">DB</text><path d="M408.5,52.2969 C408.5,42.2969 426.5,42.2969 426.5,42.2969 C426.5,42.2969 444.5,42.2969 444.5,52.2969 L444.5,78.2969 C444.5,88.2969 426.5,88.2969 426.5,88.2969 C426.5,88.2969 408.5,88.2969 408.5,78.2969 L408.5,52.2969 " fill="#E2E2F0" style="stroke:#181818;stroke-width:1.5;"/><path d="M408.5,52.2969 C408.5,62.2969 426.5,62.2969 426.5,62.2969 C426.5,62.2969 444.5,62.2969 444.5,52.2969 " fill="none" style="stroke:#181818;stroke-width:1.5;"/><text fill="#000000" font-family="sans-serif" font-size="14" lengthAdjust="spacing" textLength="21" x="413" y="253.1201">DB</text><path d="M408.5,266.4219 C408.5,256.4219 426.5,256.4219 426.5,256.4219 C426.5,256.4219 444.5,256.4219 444.5,266.4219 L444.5,292.4219 C444.5,302.4219 426.5,302.4219 426.5,302.4219 C426.5,302.4219 408.5,302.4219 408.5,292.4219 L408.5,266.4219 " fill="#E2E2F0" style="stroke:#181818;stroke-width:1.5;"/><path d="M408.5,266.4219 C408.5,276.4219 426.5,276.4219 426.5,276.4219 C426.5,276.4219 444.5,276.4219 444.5,266.4219 " fill="none" style="stroke:#181818;stroke-width:1.5;"/><polygon fill="#181818" points="256.5,131.7266,266.5,135.7266,256.5,139.7266,260.5,135.7266" style="stroke:#181818;stroke-width:1.0;"/><line style="stroke:#181818;stroke-width:1.0;" x1="33.5" x2="262.5" y1="135.7266" y2="135.7266"/><text fill="#000000" font-family="sans-serif" font-size="13" lengthAdjust="spacing" textLength="99" x="40.5" y="130.6606">Inventory log id</text><polygon fill="#181818" points="414.5,160.8594,424.5,164.8594,414.5,168.8594,418.5,164.8594" style="stroke:#181818;stroke-width:1.0;"/><line style="stroke:#181818;stroke-width:1.0;" x1="268.5" x2="420.5" y1="164.8594" y2="164.8594"/><text fill="#000000" font-family="sans-serif" font-size="13" lengthAdjust="spacing" textLength="134" x="275.5" y="159.7935">Fetch record if exists</text><polygon fill="#181818" points="279.5,189.9922,269.5,193.9922,279.5,197.9922,275.5,193.9922" style="stroke:#181818;stroke-width:1.0;"/><line style="stroke:#181818;stroke-width:1.0;" x1="273.5" x2="425.5" y1="193.9922" y2="193.9922"/><text fill="#000000" font-family="sans-serif" font-size="13" lengthAdjust="spacing" textLength="45" x="285.5" y="188.9263">Record</text><polygon fill="#181818" points="44.5,219.125,34.5,223.125,44.5,227.125,40.5,223.125" style="stroke:#181818;stroke-width:1.0;"/><line style="stroke:#181818;stroke-width:1.0;stroke-dasharray:2.0,2.0;" x1="38.5" x2="267.5" y1="223.125" y2="223.125"/><text fill="#000000" font-family="sans-serif" font-size="13" lengthAdjust="spacing" textLength="211" x="50.5" y="218.0591">HTTP Status OK - Return Payload</text><!--MD5=[2eb90f6da8cacdd6e3d2bb85be41aa33]
@startuml
title Search Inventory Log

Client->InventorySvc: Inventory log id
database DB
InventorySvc->DB: Fetch record if exists
DB->InventorySvc: Record
Client<- -InventorySvc: HTTP Status OK - Return Payload
@enduml

PlantUML version 1.2022.8beta8(Unknown compile time)
(GPL source distribution)
Java Runtime: Java(TM) SE Runtime Environment
JVM: Java HotSpot(TM) 64-Bit Server VM
Default Encoding: UTF-8
Language: en
Country: US
--></g></svg>