<?xml version="1.0" encoding="UTF-8" standalone="no"?><svg xmlns="http://www.w3.org/2000/svg" xmlns:xlink="http://www.w3.org/1999/xlink" contentStyleType="text/css" height="404px" preserveAspectRatio="none" style="width:1214px;height:404px;background:#FFFFFF;" version="1.1" viewBox="0 0 1214 404" width="1214px" zoomAndPan="magnify"><defs/><g><rect fill="none" height="26.2969" id="_title" style="stroke:none;stroke-width:1.0;" width="266" x="473.25" y="10"/><text fill="#000000" font-family="sans-serif" font-size="14" font-weight="bold" lengthAdjust="spacing" textLength="256" x="478.25" y="27.9951">Create Inventory Reconciliation</text><line style="stroke:#181818;stroke-width:0.5;stroke-dasharray:5.0,5.0;" x1="33" x2="33" y1="73.5938" y2="368.7891"/><line style="stroke:#181818;stroke-width:0.5;stroke-dasharray:5.0,5.0;" x1="322.5" x2="322.5" y1="73.5938" y2="368.7891"/><line style="stroke:#181818;stroke-width:0.5;stroke-dasharray:5.0,5.0;" x1="492.5" x2="492.5" y1="73.5938" y2="368.7891"/><line style="stroke:#181818;stroke-width:0.5;stroke-dasharray:5.0,5.0;" x1="582.5" x2="582.5" y1="73.5938" y2="368.7891"/><line style="stroke:#181818;stroke-width:0.5;stroke-dasharray:5.0,5.0;" x1="693" x2="693" y1="73.5938" y2="368.7891"/><line style="stroke:#181818;stroke-width:0.5;stroke-dasharray:5.0,5.0;" x1="1091.5" x2="1091.5" y1="73.5938" y2="368.7891"/><line style="stroke:#181818;stroke-width:0.5;stroke-dasharray:5.0,5.0;" x1="1174.5" x2="1174.5" y1="73.5938" y2="368.7891"/><rect fill="#E2E2F0" height="30.2969" rx="2.5" ry="2.5" style="stroke:#181818;stroke-width:0.5;" width="57" x="5" y="42.2969"/><text fill="#000000" font-family="sans-serif" font-size="14" lengthAdjust="spacing" textLength="43" x="12" y="62.292">Client</text><rect fill="#E2E2F0" height="30.2969" rx="2.5" ry="2.5" style="stroke:#181818;stroke-width:0.5;" width="57" x="5" y="367.7891"/><text fill="#000000" font-family="sans-serif" font-size="14" lengthAdjust="spacing" textLength="43" x="12" y="387.7842">Client</text><rect fill="#E2E2F0" height="30.2969" rx="2.5" ry="2.5" style="stroke:#181818;stroke-width:0.5;" width="108" x="268.5" y="42.2969"/><text fill="#000000" font-family="sans-serif" font-size="14" lengthAdjust="spacing" textLength="94" x="275.5" y="62.292">InventorySvc</text><rect fill="#E2E2F0" height="30.2969" rx="2.5" ry="2.5" style="stroke:#181818;stroke-width:0.5;" width="108" x="268.5" y="367.7891"/><text fill="#000000" font-family="sans-serif" font-size="14" lengthAdjust="spacing" textLength="94" x="275.5" y="387.7842">InventorySvc</text><rect fill="#E2E2F0" height="30.2969" rx="2.5" ry="2.5" style="stroke:#181818;stroke-width:0.5;" width="56" x="464.5" y="42.2969"/><text fill="#000000" font-family="sans-serif" font-size="14" lengthAdjust="spacing" textLength="42" x="471.5" y="62.292">Mdms</text><rect fill="#E2E2F0" height="30.2969" rx="2.5" ry="2.5" style="stroke:#181818;stroke-width:0.5;" width="56" x="464.5" y="367.7891"/><text fill="#000000" font-family="sans-serif" font-size="14" lengthAdjust="spacing" textLength="42" x="471.5" y="387.7842">Mdms</text><rect fill="#E2E2F0" height="30.2969" rx="2.5" ry="2.5" style="stroke:#181818;stroke-width:0.5;" width="56" x="554.5" y="42.2969"/><text fill="#000000" font-family="sans-serif" font-size="14" lengthAdjust="spacing" textLength="42" x="561.5" y="62.292">IdGen</text><rect fill="#E2E2F0" height="30.2969" rx="2.5" ry="2.5" style="stroke:#181818;stroke-width:0.5;" width="56" x="554.5" y="367.7891"/><text fill="#000000" font-family="sans-serif" font-size="14" lengthAdjust="spacing" textLength="42" x="561.5" y="387.7842">IdGen</text><rect fill="#E2E2F0" height="30.2969" rx="2.5" ry="2.5" style="stroke:#181818;stroke-width:0.5;" width="55" x="666" y="42.2969"/><text fill="#000000" font-family="sans-serif" font-size="14" lengthAdjust="spacing" textLength="41" x="673" y="62.292">Kafka</text><rect fill="#E2E2F0" height="30.2969" rx="2.5" ry="2.5" style="stroke:#181818;stroke-width:0.5;" width="55" x="666" y="367.7891"/><text fill="#000000" font-family="sans-serif" font-size="14" lengthAdjust="spacing" textLength="41" x="673" y="387.7842">Kafka</text><rect fill="#E2E2F0" height="30.2969" rx="2.5" ry="2.5" style="stroke:#181818;stroke-width:0.5;" width="78" x="1052.5" y="42.2969"/><text fill="#000000" font-family="sans-serif" font-size="14" lengthAdjust="spacing" textLength="64" x="1059.5" y="62.292">Persister</text><rect fill="#E2E2F0" height="30.2969" rx="2.5" ry="2.5" style="stroke:#181818;stroke-width:0.5;" width="78" x="1052.5" y="367.7891"/><text fill="#000000" font-family="sans-serif" font-size="14" lengthAdjust="spacing" textLength="64" x="1059.5" y="387.7842">Persister</text><rect fill="#E2E2F0" height="30.2969" rx="2.5" ry="2.5" style="stroke:#181818;stroke-width:0.5;" width="68" x="1140.5" y="42.2969"/><text fill="#000000" font-family="sans-serif" font-size="14" lengthAdjust="spacing" textLength="54" x="1147.5" y="62.292">Indexer</text><rect fill="#E2E2F0" height="30.2969" rx="2.5" ry="2.5" style="stroke:#181818;stroke-width:0.5;" width="68" x="1140.5" y="367.7891"/><text fill="#000000" font-family="sans-serif" font-size="14" lengthAdjust="spacing" textLength="54" x="1147.5" y="387.7842">Indexer</text><polygon fill="#181818" points="310.5,100.7266,320.5,104.7266,310.5,108.7266,314.5,104.7266" style="stroke:#181818;stroke-width:1.0;"/><line style="stroke:#181818;stroke-width:1.0;" x1="33.5" x2="316.5" y1="104.7266" y2="104.7266"/><text fill="#000000" font-family="sans-serif" font-size="13" lengthAdjust="spacing" textLength="153" x="40.5" y="99.6606">Inventory Reconciliation</text><polygon fill="#181818" points="480.5,129.8594,490.5,133.8594,480.5,137.8594,484.5,133.8594" style="stroke:#181818;stroke-width:1.0;"/><line style="stroke:#181818;stroke-width:1.0;" x1="322.5" x2="486.5" y1="133.8594" y2="133.8594"/><text fill="#000000" font-family="sans-serif" font-size="13" lengthAdjust="spacing" textLength="146" x="329.5" y="128.7935">Get config from mdms</text><line style="stroke:#181818;stroke-width:1.0;" x1="322.5" x2="364.5" y1="162.9922" y2="162.9922"/><line style="stroke:#181818;stroke-width:1.0;" x1="364.5" x2="364.5" y1="162.9922" y2="175.9922"/><line style="stroke:#181818;stroke-width:1.0;" x1="323.5" x2="364.5" y1="175.9922" y2="175.9922"/><polygon fill="#181818" points="333.5,171.9922,323.5,175.9922,333.5,179.9922,329.5,175.9922" style="stroke:#181818;stroke-width:1.0;"/><text fill="#000000" font-family="sans-serif" font-size="13" lengthAdjust="spacing" textLength="105" x="329.5" y="157.9263">Validate request</text><polygon fill="#181818" points="570.5,201.125,580.5,205.125,570.5,209.125,574.5,205.125" style="stroke:#181818;stroke-width:1.0;"/><line style="stroke:#181818;stroke-width:1.0;" x1="322.5" x2="576.5" y1="205.125" y2="205.125"/><text fill="#000000" font-family="sans-serif" font-size="13" lengthAdjust="spacing" textLength="228" x="329.5" y="200.0591">Generate inventory reconciliation id</text><polygon fill="#181818" points="333.5,230.2578,323.5,234.2578,333.5,238.2578,329.5,234.2578" style="stroke:#181818;stroke-width:1.0;"/><line style="stroke:#181818;stroke-width:1.0;stroke-dasharray:2.0,2.0;" x1="327.5" x2="581.5" y1="234.2578" y2="234.2578"/><text fill="#000000" font-family="sans-serif" font-size="13" lengthAdjust="spacing" textLength="236" x="339.5" y="229.1919">Generated inventory reconciliation id</text><polygon fill="#181818" points="681.5,259.3906,691.5,263.3906,681.5,267.3906,685.5,263.3906" style="stroke:#181818;stroke-width:1.0;"/><line style="stroke:#181818;stroke-width:1.0;" x1="322.5" x2="687.5" y1="263.3906" y2="263.3906"/><text fill="#000000" font-family="sans-serif" font-size="13" lengthAdjust="spacing" textLength="347" x="329.5" y="258.3247">(async) Produce inventory reconciliation data to Kafka</text><polygon fill="#181818" points="704.5,288.5234,694.5,292.5234,704.5,296.5234,700.5,292.5234" style="stroke:#181818;stroke-width:1.0;"/><line style="stroke:#181818;stroke-width:1.0;" x1="698.5" x2="1090.5" y1="292.5234" y2="292.5234"/><text fill="#000000" font-family="sans-serif" font-size="13" lengthAdjust="spacing" textLength="374" x="710.5" y="287.4575">(async) Consume inventory reconciliation data from Kafka</text><polygon fill="#181818" points="704.5,317.6563,694.5,321.6563,704.5,325.6563,700.5,321.6563" style="stroke:#181818;stroke-width:1.0;"/><line style="stroke:#181818;stroke-width:1.0;" x1="698.5" x2="1173.5" y1="321.6563" y2="321.6563"/><text fill="#000000" font-family="sans-serif" font-size="13" lengthAdjust="spacing" textLength="374" x="710.5" y="316.5903">(async) Consume inventory reconciliation data from Kafka</text><polygon fill="#181818" points="44.5,346.7891,34.5,350.7891,44.5,354.7891,40.5,350.7891" style="stroke:#181818;stroke-width:1.0;"/><line style="stroke:#181818;stroke-width:1.0;stroke-dasharray:2.0,2.0;" x1="38.5" x2="321.5" y1="350.7891" y2="350.7891"/><text fill="#000000" font-family="sans-serif" font-size="13" lengthAdjust="spacing" textLength="265" x="50.5" y="345.7231">HttpStatus Ok - reconciliation data with Id</text><!--MD5=[bebe4b9842321115ffba8fd0546a71fb]
@startuml
title Create Inventory Reconciliation

Client -> InventorySvc : Inventory Reconciliation
InventorySvc -> Mdms : Get config from mdms
InventorySvc -> InventorySvc : Validate request
InventorySvc -> IdGen : Generate inventory reconciliation id
InventorySvc <- - IdGen : Generated inventory reconciliation id
InventorySvc -> Kafka: (async) Produce inventory reconciliation data to Kafka
Kafka <- Persister: (async) Consume inventory reconciliation data from Kafka
Kafka <- Indexer: (async) Consume inventory reconciliation data from Kafka
Client <- - InventorySvc : HttpStatus Ok - reconciliation data with Id
@enduml

PlantUML version 1.2022.8beta8(Unknown compile time)
(GPL source distribution)
Java Runtime: Java(TM) SE Runtime Environment
JVM: Java HotSpot(TM) 64-Bit Server VM
Default Encoding: UTF-8
Language: en
Country: US
--></g></svg>