<?xml version="1.0" encoding="UTF-8" standalone="no"?><svg xmlns="http://www.w3.org/2000/svg" xmlns:xlink="http://www.w3.org/1999/xlink" contentStyleType="text/css" height="1141px" preserveAspectRatio="none" style="width:1834px;height:1141px;background:#FFFFFF;" version="1.1" viewBox="0 0 1834 1141" width="1834px" zoomAndPan="magnify"><defs/><g><text fill="#000000" font-family="sans-serif" font-size="14" font-weight="bold" lengthAdjust="spacing" textLength="194" x="821" y="27.9951">Household - Bulk Create</text><rect fill="#FFFFFF" height="702.4609" style="stroke:#696969;stroke-width:1.0;" width="10" x="362.5" y="135.7266"/><rect fill="#FFFFFF" height="30" style="stroke:#696969;stroke-width:1.0;" width="10" x="775" y="793.1875"/><rect fill="#FFFFFF" height="288.7969" style="stroke:#696969;stroke-width:1.0;" width="10" x="864" y="764.0547"/><rect fill="#FFFFFF" height="147.3984" style="stroke:#696969;stroke-width:1.0;" width="10" x="1062" y="883.4531"/><rect fill="#FFFFFF" height="59.1328" style="stroke:#696969;stroke-width:1.0;" width="10" x="1196.5" y="912.5859"/><rect fill="#FFFFFF" height="30" style="stroke:#696969;stroke-width:1.0;" width="10" x="1435" y="941.7188"/><rect fill="#FFFFFF" height="30" style="stroke:#696969;stroke-width:1.0;" width="10" x="1537" y="1000.8516"/><rect fill="#FFFFFF" height="30" style="stroke:#696969;stroke-width:1.0;" width="10" x="1661" y="312.957"/><rect fill="#FFFFFF" height="30" style="stroke:#696969;stroke-width:1.0;" width="10" x="1661" y="539.8867"/><rect fill="#FFFFFF" height="29.1328" style="stroke:#696969;stroke-width:1.0;" width="10" x="1775" y="455.9219"/><rect fill="#FFFFFF" height="29.1328" style="stroke:#696969;stroke-width:1.0;" width="10" x="1775" y="663.6563"/><rect fill="none" height="139.5313" rx="3.5" ry="3.5" style="stroke:#696969;stroke-width:1.0;" width="1744" x="9" y="221.9922"/><rect fill="none" height="628.1953" rx="3.5" ry="3.5" style="stroke:#696969;stroke-width:1.0;" width="1773" x="54" y="417.6563"/><rect fill="none" height="205.7969" rx="3.5" ry="3.5" style="stroke:#696969;stroke-width:1.0;" width="1533.5" x="283.5" y="625.3906"/><rect fill="none" height="193.6641" rx="3.5" ry="3.5" style="stroke:#696969;stroke-width:1.0;" width="760" x="829" y="845.1875"/><line style="stroke:#696969;stroke-width:0.5;stroke-dasharray:5.0,5.0;" x1="168" x2="168" y1="104.5938" y2="1062.8516"/><line style="stroke:#696969;stroke-width:0.5;stroke-dasharray:5.0,5.0;" x1="367.5" x2="367.5" y1="104.5938" y2="1062.8516"/><line style="stroke:#696969;stroke-width:0.5;stroke-dasharray:5.0,5.0;" x1="650" x2="650" y1="104.5938" y2="1062.8516"/><line style="stroke:#696969;stroke-width:0.5;stroke-dasharray:5.0,5.0;" x1="780" x2="780" y1="104.5938" y2="1062.8516"/><line style="stroke:#696969;stroke-width:0.5;stroke-dasharray:5.0,5.0;" x1="869" x2="869" y1="104.5938" y2="1062.8516"/><line style="stroke:#696969;stroke-width:0.5;stroke-dasharray:5.0,5.0;" x1="1067" x2="1067" y1="104.5938" y2="1062.8516"/><line style="stroke:#696969;stroke-width:0.5;stroke-dasharray:5.0,5.0;" x1="1201" x2="1201" y1="104.5938" y2="1062.8516"/><line style="stroke:#696969;stroke-width:0.5;stroke-dasharray:5.0,5.0;" x1="1323" x2="1323" y1="104.5938" y2="1062.8516"/><line style="stroke:#696969;stroke-width:0.5;stroke-dasharray:5.0,5.0;" x1="1440" x2="1440" y1="104.5938" y2="1062.8516"/><line style="stroke:#696969;stroke-width:0.5;stroke-dasharray:5.0,5.0;" x1="1542" x2="1542" y1="104.5938" y2="1062.8516"/><line style="stroke:#696969;stroke-width:0.5;stroke-dasharray:5.0,5.0;" x1="1666" x2="1666" y1="104.5938" y2="1062.8516"/><line style="stroke:#696969;stroke-width:0.5;stroke-dasharray:5.0,5.0;" x1="1780" x2="1780" y1="104.5938" y2="1062.8516"/><rect fill="#FF6347" height="30.2969" rx="3.5" ry="3.5" style="stroke:#454645;stroke-width:1.5;" width="55" x="141" y="73.2969"/><text fill="#FFFFFF" font-family="sans-serif" font-size="14" lengthAdjust="spacing" textLength="41" x="148" y="93.292">Client</text><rect fill="#FF6347" height="30.2969" rx="3.5" ry="3.5" style="stroke:#454645;stroke-width:1.5;" width="55" x="141" y="1061.8516"/><text fill="#FFFFFF" font-family="sans-serif" font-size="14" lengthAdjust="spacing" textLength="41" x="148" y="1081.8467">Client</text><rect fill="#FF6347" height="30.2969" rx="3.5" ry="3.5" style="stroke:#454645;stroke-width:1.5;" width="148" x="293.5" y="73.2969"/><text fill="#FFFFFF" font-family="sans-serif" font-size="14" lengthAdjust="spacing" textLength="134" x="300.5" y="93.292">HouseholdRegistry</text><rect fill="#FF6347" height="30.2969" rx="3.5" ry="3.5" style="stroke:#454645;stroke-width:1.5;" width="148" x="293.5" y="1061.8516"/><text fill="#FFFFFF" font-family="sans-serif" font-size="14" lengthAdjust="spacing" textLength="134" x="300.5" y="1081.8467">HouseholdRegistry</text><rect fill="#FF6347" height="30.2969" rx="3.5" ry="3.5" style="stroke:#454645;stroke-width:1.5;" width="141" x="580" y="73.2969"/><text fill="#FFFFFF" font-family="sans-serif" font-size="14" lengthAdjust="spacing" textLength="127" x="587" y="93.292">IndividualRegistry</text><rect fill="#FF6347" height="30.2969" rx="3.5" ry="3.5" style="stroke:#454645;stroke-width:1.5;" width="141" x="580" y="1061.8516"/><text fill="#FFFFFF" font-family="sans-serif" font-size="14" lengthAdjust="spacing" textLength="127" x="587" y="1081.8467">IndividualRegistry</text><rect fill="#FF6347" height="30.2969" rx="3.5" ry="3.5" style="stroke:#454645;stroke-width:1.5;" width="98" x="731" y="73.2969"/><text fill="#FFFFFF" font-family="sans-serif" font-size="14" lengthAdjust="spacing" textLength="84" x="738" y="93.292">RedisCache</text><rect fill="#FF6347" height="30.2969" rx="3.5" ry="3.5" style="stroke:#454645;stroke-width:1.5;" width="98" x="731" y="1061.8516"/><text fill="#FFFFFF" font-family="sans-serif" font-size="14" lengthAdjust="spacing" textLength="84" x="738" y="1081.8467">RedisCache</text><path d="M844,78.2969 L894,78.2969 C899,78.2969 899,91.4453 899,91.4453 C899,91.4453 899,104.5938 894,104.5938 L844,104.5938 C839,104.5938 839,91.4453 839,91.4453 C839,91.4453 839,78.2969 844,78.2969 " fill="#FF6347" style="stroke:#454645;stroke-width:1.5;"/><path d="M894,78.2969 C889,78.2969 889,91.4453 889,91.4453 C889,104.5938 894,104.5938 894,104.5938 " fill="none" style="stroke:#454645;stroke-width:1.5;"/><text fill="#FFFFFF" font-family="sans-serif" font-size="14" lengthAdjust="spacing" textLength="40" x="844" y="96.292">Kafka</text><path d="M844,1061.8516 L894,1061.8516 C899,1061.8516 899,1075 899,1075 C899,1075 899,1088.1484 894,1088.1484 L844,1088.1484 C839,1088.1484 839,1075 839,1075 C839,1075 839,1061.8516 844,1061.8516 " fill="#FF6347" style="stroke:#454645;stroke-width:1.5;"/><path d="M894,1061.8516 C889,1061.8516 889,1075 889,1075 C889,1088.1484 894,1088.1484 894,1088.1484 " fill="none" style="stroke:#454645;stroke-width:1.5;"/><text fill="#FFFFFF" font-family="sans-serif" font-size="14" lengthAdjust="spacing" textLength="40" x="844" y="1079.8467">Kafka</text><rect fill="#FF6347" height="30.2969" rx="3.5" ry="3.5" style="stroke:#454645;stroke-width:1.5;" width="128" x="1003" y="73.2969"/><text fill="#FFFFFF" font-family="sans-serif" font-size="14" lengthAdjust="spacing" textLength="114" x="1010" y="93.292">PersisterService</text><rect fill="#FF6347" height="30.2969" rx="3.5" ry="3.5" style="stroke:#454645;stroke-width:1.5;" width="128" x="1003" y="1061.8516"/><text fill="#FFFFFF" font-family="sans-serif" font-size="14" lengthAdjust="spacing" textLength="114" x="1010" y="1081.8467">PersisterService</text><rect fill="#FF6347" height="30.2969" rx="3.5" ry="3.5" style="stroke:#454645;stroke-width:1.5;" width="121" x="1141" y="73.2969"/><text fill="#FFFFFF" font-family="sans-serif" font-size="14" lengthAdjust="spacing" textLength="107" x="1148" y="93.292">IndexerService</text><rect fill="#FF6347" height="30.2969" rx="3.5" ry="3.5" style="stroke:#454645;stroke-width:1.5;" width="121" x="1141" y="1061.8516"/><text fill="#FFFFFF" font-family="sans-serif" font-size="14" lengthAdjust="spacing" textLength="107" x="1148" y="1081.8467">IndexerService</text><rect fill="#FF6347" height="30.2969" rx="3.5" ry="3.5" style="stroke:#454645;stroke-width:1.5;" width="103" x="1272" y="73.2969"/><text fill="#FFFFFF" font-family="sans-serif" font-size="14" lengthAdjust="spacing" textLength="89" x="1279" y="93.292">ErrorService</text><rect fill="#FF6347" height="30.2969" rx="3.5" ry="3.5" style="stroke:#454645;stroke-width:1.5;" width="103" x="1272" y="1061.8516"/><text fill="#FFFFFF" font-family="sans-serif" font-size="14" lengthAdjust="spacing" textLength="89" x="1279" y="1081.8467">ErrorService</text><rect fill="#FF6347" height="30.2969" rx="3.5" ry="3.5" style="stroke:#454645;stroke-width:1.5;" width="110" x="1385" y="73.2969"/><text fill="#FFFFFF" font-family="sans-serif" font-size="14" lengthAdjust="spacing" textLength="96" x="1392" y="93.292">ElasticSearch</text><rect fill="#FF6347" height="30.2969" rx="3.5" ry="3.5" style="stroke:#454645;stroke-width:1.5;" width="110" x="1385" y="1061.8516"/><text fill="#FFFFFF" font-family="sans-serif" font-size="14" lengthAdjust="spacing" textLength="96" x="1392" y="1081.8467">ElasticSearch</text><text fill="#454645" font-family="sans-serif" font-size="14" lengthAdjust="spacing" textLength="68" x="1505" y="101.292">Database</text><path d="M1524,52.2969 C1524,42.2969 1542,42.2969 1542,42.2969 C1542,42.2969 1560,42.2969 1560,52.2969 L1560,78.2969 C1560,88.2969 1542,88.2969 1542,88.2969 C1542,88.2969 1524,88.2969 1524,78.2969 L1524,52.2969 " fill="#00FFFF" style="stroke:#454645;stroke-width:1.5;"/><path d="M1524,52.2969 C1524,62.2969 1542,62.2969 1542,62.2969 C1542,62.2969 1560,62.2969 1560,52.2969 " fill="none" style="stroke:#454645;stroke-width:1.5;"/><text fill="#454645" font-family="sans-serif" font-size="14" lengthAdjust="spacing" textLength="68" x="1505" y="1074.8467">Database</text><path d="M1524,1088.1484 C1524,1078.1484 1542,1078.1484 1542,1078.1484 C1542,1078.1484 1560,1078.1484 1560,1088.1484 L1560,1114.1484 C1560,1124.1484 1542,1124.1484 1542,1124.1484 C1542,1124.1484 1524,1124.1484 1524,1114.1484 L1524,1088.1484 " fill="#00FFFF" style="stroke:#454645;stroke-width:1.5;"/><path d="M1524,1088.1484 C1524,1098.1484 1542,1098.1484 1542,1098.1484 C1542,1098.1484 1560,1098.1484 1560,1088.1484 " fill="none" style="stroke:#454645;stroke-width:1.5;"/><rect fill="#FF6347" height="30.2969" rx="3.5" ry="3.5" style="stroke:#454645;stroke-width:1.5;" width="154" x="1589" y="73.2969"/><text fill="#FFFFFF" font-family="sans-serif" font-size="14" lengthAdjust="spacing" textLength="140" x="1596" y="93.292">HandleErrorMethod</text><rect fill="#FF6347" height="30.2969" rx="3.5" ry="3.5" style="stroke:#454645;stroke-width:1.5;" width="154" x="1589" y="1061.8516"/><text fill="#FFFFFF" font-family="sans-serif" font-size="14" lengthAdjust="spacing" textLength="140" x="1596" y="1081.8467">HandleErrorMethod</text><rect fill="#FF6347" height="30.2969" rx="3.5" ry="3.5" style="stroke:#454645;stroke-width:1.5;" width="54" x="1753" y="73.2969"/><text fill="#FFFFFF" font-family="sans-serif" font-size="14" lengthAdjust="spacing" textLength="40" x="1760" y="93.292">idgen</text><rect fill="#FF6347" height="30.2969" rx="3.5" ry="3.5" style="stroke:#454645;stroke-width:1.5;" width="54" x="1753" y="1061.8516"/><text fill="#FFFFFF" font-family="sans-serif" font-size="14" lengthAdjust="spacing" textLength="40" x="1760" y="1081.8467">idgen</text><rect fill="#FFFFFF" height="702.4609" style="stroke:#696969;stroke-width:1.0;" width="10" x="362.5" y="135.7266"/><rect fill="#FFFFFF" height="30" style="stroke:#696969;stroke-width:1.0;" width="10" x="775" y="793.1875"/><rect fill="#FFFFFF" height="288.7969" style="stroke:#696969;stroke-width:1.0;" width="10" x="864" y="764.0547"/><rect fill="#FFFFFF" height="147.3984" style="stroke:#696969;stroke-width:1.0;" width="10" x="1062" y="883.4531"/><rect fill="#FFFFFF" height="59.1328" style="stroke:#696969;stroke-width:1.0;" width="10" x="1196.5" y="912.5859"/><rect fill="#FFFFFF" height="30" style="stroke:#696969;stroke-width:1.0;" width="10" x="1435" y="941.7188"/><rect fill="#FFFFFF" height="30" style="stroke:#696969;stroke-width:1.0;" width="10" x="1537" y="1000.8516"/><rect fill="#FFFFFF" height="30" style="stroke:#696969;stroke-width:1.0;" width="10" x="1661" y="312.957"/><rect fill="#FFFFFF" height="30" style="stroke:#696969;stroke-width:1.0;" width="10" x="1661" y="539.8867"/><rect fill="#FFFFFF" height="29.1328" style="stroke:#696969;stroke-width:1.0;" width="10" x="1775" y="455.9219"/><rect fill="#FFFFFF" height="29.1328" style="stroke:#696969;stroke-width:1.0;" width="10" x="1775" y="663.6563"/><polygon fill="#454645" points="350.5,131.7266,360.5,135.7266,350.5,139.7266,354.5,135.7266" style="stroke:#454645;stroke-width:1.0;"/><line style="stroke:#454645;stroke-width:1.0;" x1="168.5" x2="356.5" y1="135.7266" y2="135.7266"/><text fill="#000000" font-family="sans-serif" font-size="13" lengthAdjust="spacing" textLength="175" x="175.5" y="130.6606">/household/v1/bulk/_create</text><polygon fill="#454645" points="179.5,160.8594,169.5,164.8594,179.5,168.8594,175.5,164.8594" style="stroke:#454645;stroke-width:1.0;"/><line style="stroke:#454645;stroke-width:1.0;" x1="173.5" x2="361.5" y1="164.8594" y2="164.8594"/><text fill="#000000" font-family="sans-serif" font-size="13" lengthAdjust="spacing" textLength="164" x="185.5" y="159.7935">HttpStatus: 202 accepted</text><line style="stroke:#454645;stroke-width:1.0;" x1="372.5" x2="414.5" y1="193.9922" y2="193.9922"/><line style="stroke:#454645;stroke-width:1.0;" x1="414.5" x2="414.5" y1="193.9922" y2="206.9922"/><line style="stroke:#454645;stroke-width:1.0;" x1="373.5" x2="414.5" y1="206.9922" y2="206.9922"/><polygon fill="#454645" points="383.5,202.9922,373.5,206.9922,383.5,210.9922,379.5,206.9922" style="stroke:#454645;stroke-width:1.0;"/><text fill="#000000" font-family="sans-serif" font-size="13" lengthAdjust="spacing" textLength="143" x="379.5" y="188.9263">Validate request body</text><path d="M12.5,221.9922 L73,221.9922 L73,229.125 L63,239.125 L9,239.125 L9,225.4922 A3.5,3.5 0 0 1 12.5,221.9922 " fill="#EEEEEE" style="stroke:#696969;stroke-width:1.5;"/><rect fill="none" height="139.5313" rx="3.5" ry="3.5" style="stroke:#696969;stroke-width:1.0;" width="1744" x="9" y="221.9922"/><text fill="#454645" font-family="sans-serif" font-size="13" font-weight="bold" lengthAdjust="spacing" textLength="19" x="24" y="235.0591">alt</text><text fill="#696969" font-family="sans-serif" font-size="11" font-weight="bold" lengthAdjust="spacing" textLength="154" x="88" y="234.2026">[request validation fails]</text><line style="stroke:#454645;stroke-width:1.0;" x1="372.5" x2="414.5" y1="260.2578" y2="260.2578"/><line style="stroke:#454645;stroke-width:1.0;" x1="414.5" x2="414.5" y1="260.2578" y2="273.2578"/><line style="stroke:#454645;stroke-width:1.0;" x1="373.5" x2="414.5" y1="273.2578" y2="273.2578"/><polygon fill="#454645" points="383.5,269.2578,373.5,273.2578,383.5,277.2578,379.5,273.2578" style="stroke:#454645;stroke-width:1.0;"/><text fill="#000000" font-family="sans-serif" font-size="13" lengthAdjust="spacing" textLength="163" x="379.5" y="255.1919">Request validation failed</text><polygon fill="#454645" points="1649,308.957,1659,312.957,1649,316.957,1653,312.957" style="stroke:#454645;stroke-width:1.0;"/><line style="stroke:#454645;stroke-width:1.0;" x1="372.5" x2="1655" y1="312.957" y2="312.957"/><text fill="#000000" font-family="sans-serif" font-size="13" lengthAdjust="spacing" textLength="231" x="379.5" y="307.8911">call handleError HandleErrorMethod</text><path d="M19,289.7578 L19,322.7578 A3.5,3.5 0 0 0 22.5,326.2578 L353.5,326.2578 A3.5,3.5 0 0 0 357,322.7578 L357,296.2578 L347,286.2578 L22.5,286.2578 A3.5,3.5 0 0 0 19,289.7578 " fill="#7FFFD4" style="stroke:#454645;stroke-width:1.5;"/><path d="M347,286.2578 L347,294.5078 A1.75,1.75 0 0 0 348.75,296.2578 L357,296.2578 L347,286.2578 " fill="#7FFFD4" style="stroke:#454645;stroke-width:1.5;"/><text fill="#454645" font-family="sans-serif" font-size="13" lengthAdjust="spacing" textLength="317" x="25" y="303.3247">This will be marked as unrecoverable right away</text><text fill="#454645" font-family="sans-serif" font-size="13" lengthAdjust="spacing" textLength="210" x="25" y="318.4575">and require manual intervention</text><line style="stroke:#454645;stroke-width:1.0;" x1="372.5" x2="414.5" y1="389.6563" y2="389.6563"/><line style="stroke:#454645;stroke-width:1.0;" x1="414.5" x2="414.5" y1="389.6563" y2="402.6563"/><line style="stroke:#454645;stroke-width:1.0;" x1="373.5" x2="414.5" y1="402.6563" y2="402.6563"/><polygon fill="#454645" points="383.5,398.6563,373.5,402.6563,383.5,406.6563,379.5,402.6563" style="stroke:#454645;stroke-width:1.0;"/><text fill="#000000" font-family="sans-serif" font-size="13" lengthAdjust="spacing" textLength="194" x="379.5" y="384.5903">Request validation successful</text><path d="M57.5,417.6563 L118,417.6563 L118,424.7891 L108,434.7891 L54,434.7891 L54,421.1563 A3.5,3.5 0 0 1 57.5,417.6563 " fill="#EEEEEE" style="stroke:#696969;stroke-width:1.5;"/><rect fill="none" height="628.1953" rx="3.5" ry="3.5" style="stroke:#696969;stroke-width:1.0;" width="1773" x="54" y="417.6563"/><text fill="#454645" font-family="sans-serif" font-size="13" font-weight="bold" lengthAdjust="spacing" textLength="19" x="69" y="430.7231">alt</text><text fill="#696969" font-family="sans-serif" font-size="11" font-weight="bold" lengthAdjust="spacing" textLength="124" x="133" y="429.8667">[id generation fails]</text><polygon fill="#454645" points="1763,451.9219,1773,455.9219,1763,459.9219,1767,455.9219" style="stroke:#454645;stroke-width:1.0;"/><line style="stroke:#454645;stroke-width:1.0;" x1="372.5" x2="1769" y1="455.9219" y2="455.9219"/><text fill="#000000" font-family="sans-serif" font-size="13" lengthAdjust="spacing" textLength="85" x="379.5" y="450.856">/id/_generate</text><polygon fill="#454645" points="383.5,481.0547,373.5,485.0547,383.5,489.0547,379.5,485.0547" style="stroke:#454645;stroke-width:1.0;"/><line style="stroke:#454645;stroke-width:1.0;" x1="377.5" x2="1779" y1="485.0547" y2="485.0547"/><text fill="#000000" font-family="sans-serif" font-size="13" lengthAdjust="spacing" textLength="101" x="389.5" y="479.9888">HttpStatus: 400</text><polygon fill="#454645" points="1649,535.8867,1659,539.8867,1649,543.8867,1653,539.8867" style="stroke:#454645;stroke-width:1.0;"/><line style="stroke:#454645;stroke-width:1.0;" x1="372.5" x2="1655" y1="539.8867" y2="539.8867"/><text fill="#000000" font-family="sans-serif" font-size="13" lengthAdjust="spacing" textLength="231" x="379.5" y="534.8208">call handleError HandleErrorMethod</text><path d="M64,501.5547 L64,564.5547 A3.5,3.5 0 0 0 67.5,568.0547 L353.5,568.0547 A3.5,3.5 0 0 0 357,564.5547 L357,508.0547 L347,498.0547 L67.5,498.0547 A3.5,3.5 0 0 0 64,501.5547 " fill="#7FFFD4" style="stroke:#454645;stroke-width:1.5;"/><path d="M347,498.0547 L347,506.3047 A1.75,1.75 0 0 0 348.75,508.0547 L357,508.0547 L347,498.0547 " fill="#7FFFD4" style="stroke:#454645;stroke-width:1.5;"/><text fill="#454645" font-family="sans-serif" font-size="13" lengthAdjust="spacing" textLength="256" x="86" y="515.1216">This will be marked as recoverable and</text><text fill="#454645" font-family="sans-serif" font-size="13" lengthAdjust="spacing" textLength="124" x="86" y="530.2544">will be retried later</text><text fill="#454645" font-family="sans-serif" font-size="13" lengthAdjust="spacing" textLength="55" x="70" y="545.3872">note left</text><text fill="#454645" font-family="sans-serif" font-size="13" lengthAdjust="spacing" textLength="235" x="78" y="560.52">Error Code: ID_GENERATION_FAILED</text><line style="stroke:#696969;stroke-width:1.0;stroke-dasharray:2.0,2.0;" x1="54" x2="1827" y1="604.5859" y2="604.5859"/><text fill="#696969" font-family="sans-serif" font-size="11" font-weight="bold" lengthAdjust="spacing" textLength="164" x="59" y="614.7964">[id generation successful]</text><path d="M287,625.3906 L368.5,625.3906 L368.5,632.5234 L358.5,642.5234 L283.5,642.5234 L283.5,628.8906 A3.5,3.5 0 0 1 287,625.3906 " fill="#EEEEEE" style="stroke:#696969;stroke-width:1.5;"/><rect fill="none" height="205.7969" rx="3.5" ry="3.5" style="stroke:#696969;stroke-width:1.0;" width="1533.5" x="283.5" y="625.3906"/><text fill="#454645" font-family="sans-serif" font-size="13" font-weight="bold" lengthAdjust="spacing" textLength="40" x="298.5" y="638.4575">idgen</text><polygon fill="#454645" points="1763,659.6563,1773,663.6563,1763,667.6563,1767,663.6563" style="stroke:#454645;stroke-width:1.0;"/><line style="stroke:#454645;stroke-width:1.0;" x1="372.5" x2="1769" y1="663.6563" y2="663.6563"/><text fill="#000000" font-family="sans-serif" font-size="13" lengthAdjust="spacing" textLength="78" x="379.5" y="658.5903">Generate ID</text><polygon fill="#454645" points="383.5,688.7891,373.5,692.7891,383.5,696.7891,379.5,692.7891" style="stroke:#454645;stroke-width:1.0;"/><line style="stroke:#454645;stroke-width:1.0;" x1="377.5" x2="1779" y1="692.7891" y2="692.7891"/><text fill="#000000" font-family="sans-serif" font-size="13" lengthAdjust="spacing" textLength="86" x="389.5" y="687.7231">Generated ID</text><line style="stroke:#454645;stroke-width:1.0;" x1="372.5" x2="414.5" y1="721.9219" y2="721.9219"/><line style="stroke:#454645;stroke-width:1.0;" x1="414.5" x2="414.5" y1="721.9219" y2="734.9219"/><line style="stroke:#454645;stroke-width:1.0;" x1="373.5" x2="414.5" y1="734.9219" y2="734.9219"/><polygon fill="#454645" points="383.5,730.9219,373.5,734.9219,383.5,738.9219,379.5,734.9219" style="stroke:#454645;stroke-width:1.0;"/><text fill="#000000" font-family="sans-serif" font-size="13" lengthAdjust="spacing" textLength="259" x="379.5" y="716.856">Update generated ID in Household Data</text><polygon fill="#454645" points="852,760.0547,862,764.0547,852,768.0547,856,764.0547" style="stroke:#454645;stroke-width:1.0;"/><line style="stroke:#454645;stroke-width:1.0;" x1="372.5" x2="858" y1="764.0547" y2="764.0547"/><text fill="#000000" font-family="sans-serif" font-size="13" lengthAdjust="spacing" textLength="195" x="379.5" y="758.9888">Household Data /persist_topic</text><polygon fill="#454645" points="763,789.1875,773,793.1875,763,797.1875,767,793.1875" style="stroke:#454645;stroke-width:1.0;"/><line style="stroke:#454645;stroke-width:1.0;" x1="372.5" x2="769" y1="793.1875" y2="793.1875"/><text fill="#000000" font-family="sans-serif" font-size="13" lengthAdjust="spacing" textLength="364" x="379.5" y="788.1216">Put Household Data against serverGeneratedId in cache</text><path d="M832.5,845.1875 L916,845.1875 L916,852.3203 L906,862.3203 L829,862.3203 L829,848.6875 A3.5,3.5 0 0 1 832.5,845.1875 " fill="#EEEEEE" style="stroke:#696969;stroke-width:1.5;"/><rect fill="none" height="193.6641" rx="3.5" ry="3.5" style="stroke:#696969;stroke-width:1.0;" width="760" x="829" y="845.1875"/><text fill="#454645" font-family="sans-serif" font-size="13" font-weight="bold" lengthAdjust="spacing" textLength="42" x="844" y="858.2544">async</text><polygon fill="#454645" points="885,879.4531,875,883.4531,885,887.4531,881,883.4531" style="stroke:#454645;stroke-width:1.0;"/><line style="stroke:#454645;stroke-width:1.0;" x1="879" x2="1061" y1="883.4531" y2="883.4531"/><text fill="#000000" font-family="sans-serif" font-size="13" lengthAdjust="spacing" textLength="169" x="891" y="878.3872">Consume Household Data</text><polygon fill="#454645" points="885,908.5859,875,912.5859,885,916.5859,881,912.5859" style="stroke:#454645;stroke-width:1.0;"/><line style="stroke:#454645;stroke-width:1.0;" x1="879" x2="1195.5" y1="912.5859" y2="912.5859"/><text fill="#000000" font-family="sans-serif" font-size="13" lengthAdjust="spacing" textLength="169" x="891" y="907.52">Consume Household Data</text><polygon fill="#454645" points="1423,937.7188,1433,941.7188,1423,945.7188,1427,941.7188" style="stroke:#454645;stroke-width:1.0;"/><line style="stroke:#454645;stroke-width:1.0;" x1="1206.5" x2="1429" y1="941.7188" y2="941.7188"/><text fill="#000000" font-family="sans-serif" font-size="13" lengthAdjust="spacing" textLength="142" x="1213.5" y="936.6528">Store Household Data</text><polygon fill="#454645" points="1525,996.8516,1535,1000.8516,1525,1004.8516,1529,1000.8516" style="stroke:#454645;stroke-width:1.0;"/><line style="stroke:#454645;stroke-width:1.0;" x1="1072" x2="1531" y1="1000.8516" y2="1000.8516"/><text fill="#000000" font-family="sans-serif" font-size="13" lengthAdjust="spacing" textLength="152" x="1079" y="995.7856">Persist Household Data</text><!--SRC=[jLLDRzim3BtxLt0_e4XNxEJ3W2xDsc1RLoJThW4jCR5WrV8asMt-_IZvexOJ5EjXlaIctYFrdcZ6Awy9xapjA3TQmWLygNK1IqleAVdWSteYQ5HciVH9XTOheIfUmr8huXzq82Rn8TM63ifvUmmGDu6iIwaQ9MlK4ypL1BGXgTmIHKvXquhaJqqrmJVS5nWYnGJzGDPn9h9RieqIaLFPaxBqCa4e-J91hAmrutsQ9bXfTFoo9RGYZ_iwaUWnGqTmqoyuBhEf9LXAJJ7v3_AvaG6JKoBWuZCuI66HzwOjce-BZ2zWiHFj3Q3mgk45M-W2NAHmvtsrzUXhbyBLvHMW45HvaYs0WxzHAnaubjWqvo4pyfYWzaEWQH7AbB17fLq2_FJqpNaG5nXGEQKWK6l8NwMToepuGG0B3k-Ivf7Iy5hJtiUty3pcoi6pulmPmHFQWg9bTMb9c8OiPjopLXroxhzdF0uyFa2Kg6oWbTnWe4fkYeOxbML4734cL4nuaIJ96w9TpSOwjwzrz4v9E539nS_PfYJlyKKgkTXrA9hAZuWOYgkkxFWkFrrUpXrgIV_1z_SPFxQTYmtm7cd9MyLGpTdjsTJjIPT6ie3rpUvsTR_QN3-kVzxllbwllwzkPbUZ7Sty7bt6mPgwEh6cku7RpdokyY_-zt3Puq_C7tyPlwhuMHr696wmqVGCG-2LKQIpBLXKxPpQULCfCJrWyKgq_9K_r7xEnWEgadlKXOwsmz7NCXn2X54vpMZ5N197GjkF8gwp4zsnRE4yDhl3BqtfwYSwfs_WXo7Rclho3bOOl2CMwHIstjYtIJnjPt9E8ttYJeJCqlwluStKFB1dYKuZGMamRsPWaVm5]--></g></svg>