<?xml version="1.0" encoding="UTF-8" standalone="no"?><svg xmlns="http://www.w3.org/2000/svg" xmlns:xlink="http://www.w3.org/1999/xlink" contentStyleType="text/css" height="1568px" preserveAspectRatio="none" style="width:1748px;height:1568px;background:#FFFFFF;" version="1.1" viewBox="0 0 1748 1568" width="1748px" zoomAndPan="magnify"><defs/><g><text fill="#000000" font-family="sans-serif" font-size="14" font-weight="bold" lengthAdjust="spacing" textLength="191" x="780.25" y="27.9951">Individual - Bulk Update</text><rect fill="#FFFFFF" height="1121.9844" style="stroke:#696969;stroke-width:1.0;" width="10" x="372.5" y="135.7266"/><rect fill="#FFFFFF" height="29.1328" style="stroke:#696969;stroke-width:1.0;" width="10" x="759.5" y="480.0547"/><rect fill="#FFFFFF" height="29.1328" style="stroke:#696969;stroke-width:1.0;" width="10" x="759.5" y="692.8516"/><rect fill="#FFFFFF" height="30" style="stroke:#696969;stroke-width:1.0;" width="10" x="759.5" y="809.3828"/><rect fill="#FFFFFF" height="29.1328" style="stroke:#696969;stroke-width:1.0;" width="10" x="759.5" y="875.5156"/><rect fill="#FFFFFF" height="30" style="stroke:#696969;stroke-width:1.0;" width="10" x="759.5" y="1227.7109"/><rect fill="#FFFFFF" height="274.7969" style="stroke:#696969;stroke-width:1.0;" width="10" x="848.5" y="1198.5781"/><rect fill="#FFFFFF" height="147.3984" style="stroke:#696969;stroke-width:1.0;" width="10" x="1041.5" y="1310.9766"/><rect fill="#FFFFFF" height="59.1328" style="stroke:#696969;stroke-width:1.0;" width="10" x="1176" y="1340.1094"/><rect fill="#FFFFFF" height="30" style="stroke:#696969;stroke-width:1.0;" width="10" x="1414.5" y="1369.2422"/><rect fill="#FFFFFF" height="30" style="stroke:#696969;stroke-width:1.0;" width="10" x="1556.5" y="337.0898"/><rect fill="#FFFFFF" height="30" style="stroke:#696969;stroke-width:1.0;" width="10" x="1556.5" y="599.5859"/><rect fill="#FFFFFF" height="30" style="stroke:#696969;stroke-width:1.0;" width="10" x="1556.5" y="1045.1797"/><rect fill="#FFFFFF" height="29.1328" style="stroke:#696969;stroke-width:1.0;" width="10" x="1680.5" y="538.3203"/><rect fill="#FFFFFF" height="29.1328" style="stroke:#696969;stroke-width:1.0;" width="10" x="1680.5" y="751.1172"/><rect fill="#FFFFFF" height="30" style="stroke:#696969;stroke-width:1.0;" width="10" x="1680.5" y="1428.375"/><rect fill="none" height="1293.5156" rx="3.5" ry="3.5" style="stroke:#696969;stroke-width:1.0;" width="1733.5" x="9" y="179.8594"/><rect fill="none" height="139.5313" rx="3.5" ry="3.5" style="stroke:#696969;stroke-width:1.0;" width="1629.5" x="19" y="246.125"/><rect fill="none" height="198.7969" rx="3.5" ry="3.5" style="stroke:#696969;stroke-width:1.0;" width="1616.5" x="116" y="441.7891"/><rect fill="none" height="192.7969" rx="3.5" ry="3.5" style="stroke:#696969;stroke-width:1.0;" width="1435.5" x="297" y="654.5859"/><rect fill="none" height="166.5313" rx="3.5" ry="3.5" style="stroke:#696969;stroke-width:1.0;" width="1484.5" x="164" y="919.6484"/><rect fill="none" height="193.6641" rx="3.5" ry="3.5" style="stroke:#696969;stroke-width:1.0;" width="919" x="813.5" y="1272.7109"/><line style="stroke:#696969;stroke-width:0.5;stroke-dasharray:5.0,5.0;" x1="174" x2="174" y1="104.5938" y2="1490.375"/><line style="stroke:#696969;stroke-width:0.5;stroke-dasharray:5.0,5.0;" x1="377" x2="377" y1="104.5938" y2="1490.375"/><line style="stroke:#696969;stroke-width:0.5;stroke-dasharray:5.0,5.0;" x1="764.5" x2="764.5" y1="104.5938" y2="1490.375"/><line style="stroke:#696969;stroke-width:0.5;stroke-dasharray:5.0,5.0;" x1="853.5" x2="853.5" y1="104.5938" y2="1490.375"/><line style="stroke:#696969;stroke-width:0.5;stroke-dasharray:5.0,5.0;" x1="1046.5" x2="1046.5" y1="104.5938" y2="1490.375"/><line style="stroke:#696969;stroke-width:0.5;stroke-dasharray:5.0,5.0;" x1="1180.5" x2="1180.5" y1="104.5938" y2="1490.375"/><line style="stroke:#696969;stroke-width:0.5;stroke-dasharray:5.0,5.0;" x1="1302.5" x2="1302.5" y1="104.5938" y2="1490.375"/><line style="stroke:#696969;stroke-width:0.5;stroke-dasharray:5.0,5.0;" x1="1419.5" x2="1419.5" y1="104.5938" y2="1490.375"/><line style="stroke:#696969;stroke-width:0.5;stroke-dasharray:5.0,5.0;" x1="1561.5" x2="1561.5" y1="104.5938" y2="1490.375"/><line style="stroke:#696969;stroke-width:0.5;stroke-dasharray:5.0,5.0;" x1="1685.5" x2="1685.5" y1="104.5938" y2="1490.375"/><rect fill="#FF6347" height="30.2969" rx="3.5" ry="3.5" style="stroke:#454645;stroke-width:1.5;" width="55" x="147" y="73.2969"/><text fill="#FFFFFF" font-family="sans-serif" font-size="14" lengthAdjust="spacing" textLength="41" x="154" y="93.292">Client</text><rect fill="#FF6347" height="30.2969" rx="3.5" ry="3.5" style="stroke:#454645;stroke-width:1.5;" width="55" x="147" y="1489.375"/><text fill="#FFFFFF" font-family="sans-serif" font-size="14" lengthAdjust="spacing" textLength="41" x="154" y="1509.3701">Client</text><rect fill="#FF6347" height="30.2969" rx="3.5" ry="3.5" style="stroke:#454645;stroke-width:1.5;" width="141" x="307" y="73.2969"/><text fill="#FFFFFF" font-family="sans-serif" font-size="14" lengthAdjust="spacing" textLength="127" x="314" y="93.292">IndividualRegistry</text><rect fill="#FF6347" height="30.2969" rx="3.5" ry="3.5" style="stroke:#454645;stroke-width:1.5;" width="141" x="307" y="1489.375"/><text fill="#FFFFFF" font-family="sans-serif" font-size="14" lengthAdjust="spacing" textLength="127" x="314" y="1509.3701">IndividualRegistry</text><rect fill="#FF6347" height="30.2969" rx="3.5" ry="3.5" style="stroke:#454645;stroke-width:1.5;" width="98" x="715.5" y="73.2969"/><text fill="#FFFFFF" font-family="sans-serif" font-size="14" lengthAdjust="spacing" textLength="84" x="722.5" y="93.292">RedisCache</text><rect fill="#FF6347" height="30.2969" rx="3.5" ry="3.5" style="stroke:#454645;stroke-width:1.5;" width="98" x="715.5" y="1489.375"/><text fill="#FFFFFF" font-family="sans-serif" font-size="14" lengthAdjust="spacing" textLength="84" x="722.5" y="1509.3701">RedisCache</text><path d="M828.5,78.2969 L878.5,78.2969 C883.5,78.2969 883.5,91.4453 883.5,91.4453 C883.5,91.4453 883.5,104.5938 878.5,104.5938 L828.5,104.5938 C823.5,104.5938 823.5,91.4453 823.5,91.4453 C823.5,91.4453 823.5,78.2969 828.5,78.2969 " fill="#FF6347" style="stroke:#454645;stroke-width:1.5;"/><path d="M878.5,78.2969 C873.5,78.2969 873.5,91.4453 873.5,91.4453 C873.5,104.5938 878.5,104.5938 878.5,104.5938 " fill="none" style="stroke:#454645;stroke-width:1.5;"/><text fill="#FFFFFF" font-family="sans-serif" font-size="14" lengthAdjust="spacing" textLength="40" x="828.5" y="96.292">Kafka</text><path d="M828.5,1489.375 L878.5,1489.375 C883.5,1489.375 883.5,1502.5234 883.5,1502.5234 C883.5,1502.5234 883.5,1515.6719 878.5,1515.6719 L828.5,1515.6719 C823.5,1515.6719 823.5,1502.5234 823.5,1502.5234 C823.5,1502.5234 823.5,1489.375 828.5,1489.375 " fill="#FF6347" style="stroke:#454645;stroke-width:1.5;"/><path d="M878.5,1489.375 C873.5,1489.375 873.5,1502.5234 873.5,1502.5234 C873.5,1515.6719 878.5,1515.6719 878.5,1515.6719 " fill="none" style="stroke:#454645;stroke-width:1.5;"/><text fill="#FFFFFF" font-family="sans-serif" font-size="14" lengthAdjust="spacing" textLength="40" x="828.5" y="1507.3701">Kafka</text><rect fill="#FF6347" height="30.2969" rx="3.5" ry="3.5" style="stroke:#454645;stroke-width:1.5;" width="128" x="982.5" y="73.2969"/><text fill="#FFFFFF" font-family="sans-serif" font-size="14" lengthAdjust="spacing" textLength="114" x="989.5" y="93.292">PersisterService</text><rect fill="#FF6347" height="30.2969" rx="3.5" ry="3.5" style="stroke:#454645;stroke-width:1.5;" width="128" x="982.5" y="1489.375"/><text fill="#FFFFFF" font-family="sans-serif" font-size="14" lengthAdjust="spacing" textLength="114" x="989.5" y="1509.3701">PersisterService</text><rect fill="#FF6347" height="30.2969" rx="3.5" ry="3.5" style="stroke:#454645;stroke-width:1.5;" width="121" x="1120.5" y="73.2969"/><text fill="#FFFFFF" font-family="sans-serif" font-size="14" lengthAdjust="spacing" textLength="107" x="1127.5" y="93.292">IndexerService</text><rect fill="#FF6347" height="30.2969" rx="3.5" ry="3.5" style="stroke:#454645;stroke-width:1.5;" width="121" x="1120.5" y="1489.375"/><text fill="#FFFFFF" font-family="sans-serif" font-size="14" lengthAdjust="spacing" textLength="107" x="1127.5" y="1509.3701">IndexerService</text><rect fill="#FF6347" height="30.2969" rx="3.5" ry="3.5" style="stroke:#454645;stroke-width:1.5;" width="103" x="1251.5" y="73.2969"/><text fill="#FFFFFF" font-family="sans-serif" font-size="14" lengthAdjust="spacing" textLength="89" x="1258.5" y="93.292">ErrorService</text><rect fill="#FF6347" height="30.2969" rx="3.5" ry="3.5" style="stroke:#454645;stroke-width:1.5;" width="103" x="1251.5" y="1489.375"/><text fill="#FFFFFF" font-family="sans-serif" font-size="14" lengthAdjust="spacing" textLength="89" x="1258.5" y="1509.3701">ErrorService</text><rect fill="#FF6347" height="30.2969" rx="3.5" ry="3.5" style="stroke:#454645;stroke-width:1.5;" width="110" x="1364.5" y="73.2969"/><text fill="#FFFFFF" font-family="sans-serif" font-size="14" lengthAdjust="spacing" textLength="96" x="1371.5" y="93.292">ElasticSearch</text><rect fill="#FF6347" height="30.2969" rx="3.5" ry="3.5" style="stroke:#454645;stroke-width:1.5;" width="110" x="1364.5" y="1489.375"/><text fill="#FFFFFF" font-family="sans-serif" font-size="14" lengthAdjust="spacing" textLength="96" x="1371.5" y="1509.3701">ElasticSearch</text><rect fill="#FF6347" height="30.2969" rx="3.5" ry="3.5" style="stroke:#454645;stroke-width:1.5;" width="154" x="1484.5" y="73.2969"/><text fill="#FFFFFF" font-family="sans-serif" font-size="14" lengthAdjust="spacing" textLength="140" x="1491.5" y="93.292">HandleErrorMethod</text><rect fill="#FF6347" height="30.2969" rx="3.5" ry="3.5" style="stroke:#454645;stroke-width:1.5;" width="154" x="1484.5" y="1489.375"/><text fill="#FFFFFF" font-family="sans-serif" font-size="14" lengthAdjust="spacing" textLength="140" x="1491.5" y="1509.3701">HandleErrorMethod</text><text fill="#454645" font-family="sans-serif" font-size="14" lengthAdjust="spacing" textLength="68" x="1648.5" y="101.292">Database</text><path d="M1667.5,52.2969 C1667.5,42.2969 1685.5,42.2969 1685.5,42.2969 C1685.5,42.2969 1703.5,42.2969 1703.5,52.2969 L1703.5,78.2969 C1703.5,88.2969 1685.5,88.2969 1685.5,88.2969 C1685.5,88.2969 1667.5,88.2969 1667.5,78.2969 L1667.5,52.2969 " fill="#00FFFF" style="stroke:#454645;stroke-width:1.5;"/><path d="M1667.5,52.2969 C1667.5,62.2969 1685.5,62.2969 1685.5,62.2969 C1685.5,62.2969 1703.5,62.2969 1703.5,52.2969 " fill="none" style="stroke:#454645;stroke-width:1.5;"/><text fill="#454645" font-family="sans-serif" font-size="14" lengthAdjust="spacing" textLength="68" x="1648.5" y="1502.3701">Database</text><path d="M1667.5,1515.6719 C1667.5,1505.6719 1685.5,1505.6719 1685.5,1505.6719 C1685.5,1505.6719 1703.5,1505.6719 1703.5,1515.6719 L1703.5,1541.6719 C1703.5,1551.6719 1685.5,1551.6719 1685.5,1551.6719 C1685.5,1551.6719 1667.5,1551.6719 1667.5,1541.6719 L1667.5,1515.6719 " fill="#00FFFF" style="stroke:#454645;stroke-width:1.5;"/><path d="M1667.5,1515.6719 C1667.5,1525.6719 1685.5,1525.6719 1685.5,1525.6719 C1685.5,1525.6719 1703.5,1525.6719 1703.5,1515.6719 " fill="none" style="stroke:#454645;stroke-width:1.5;"/><rect fill="#FFFFFF" height="1121.9844" style="stroke:#696969;stroke-width:1.0;" width="10" x="372.5" y="135.7266"/><rect fill="#FFFFFF" height="29.1328" style="stroke:#696969;stroke-width:1.0;" width="10" x="759.5" y="480.0547"/><rect fill="#FFFFFF" height="29.1328" style="stroke:#696969;stroke-width:1.0;" width="10" x="759.5" y="692.8516"/><rect fill="#FFFFFF" height="30" style="stroke:#696969;stroke-width:1.0;" width="10" x="759.5" y="809.3828"/><rect fill="#FFFFFF" height="29.1328" style="stroke:#696969;stroke-width:1.0;" width="10" x="759.5" y="875.5156"/><rect fill="#FFFFFF" height="30" style="stroke:#696969;stroke-width:1.0;" width="10" x="759.5" y="1227.7109"/><rect fill="#FFFFFF" height="274.7969" style="stroke:#696969;stroke-width:1.0;" width="10" x="848.5" y="1198.5781"/><rect fill="#FFFFFF" height="147.3984" style="stroke:#696969;stroke-width:1.0;" width="10" x="1041.5" y="1310.9766"/><rect fill="#FFFFFF" height="59.1328" style="stroke:#696969;stroke-width:1.0;" width="10" x="1176" y="1340.1094"/><rect fill="#FFFFFF" height="30" style="stroke:#696969;stroke-width:1.0;" width="10" x="1414.5" y="1369.2422"/><rect fill="#FFFFFF" height="30" style="stroke:#696969;stroke-width:1.0;" width="10" x="1556.5" y="337.0898"/><rect fill="#FFFFFF" height="30" style="stroke:#696969;stroke-width:1.0;" width="10" x="1556.5" y="599.5859"/><rect fill="#FFFFFF" height="30" style="stroke:#696969;stroke-width:1.0;" width="10" x="1556.5" y="1045.1797"/><rect fill="#FFFFFF" height="29.1328" style="stroke:#696969;stroke-width:1.0;" width="10" x="1680.5" y="538.3203"/><rect fill="#FFFFFF" height="29.1328" style="stroke:#696969;stroke-width:1.0;" width="10" x="1680.5" y="751.1172"/><rect fill="#FFFFFF" height="30" style="stroke:#696969;stroke-width:1.0;" width="10" x="1680.5" y="1428.375"/><polygon fill="#454645" points="360.5,131.7266,370.5,135.7266,360.5,139.7266,364.5,135.7266" style="stroke:#454645;stroke-width:1.0;"/><line style="stroke:#454645;stroke-width:1.0;" x1="174.5" x2="366.5" y1="135.7266" y2="135.7266"/><text fill="#000000" font-family="sans-serif" font-size="13" lengthAdjust="spacing" textLength="176" x="181.5" y="130.6606">/individual/v1/bulk/_update</text><polygon fill="#454645" points="185.5,160.8594,175.5,164.8594,185.5,168.8594,181.5,164.8594" style="stroke:#454645;stroke-width:1.0;"/><line style="stroke:#454645;stroke-width:1.0;" x1="179.5" x2="371.5" y1="164.8594" y2="164.8594"/><text fill="#000000" font-family="sans-serif" font-size="13" lengthAdjust="spacing" textLength="174" x="191.5" y="159.7935">HttpStatus: 202 ACCEPTED</text><path d="M12.5,179.8594 L96,179.8594 L96,186.9922 L86,196.9922 L9,196.9922 L9,183.3594 A3.5,3.5 0 0 1 12.5,179.8594 " fill="#EEEEEE" style="stroke:#696969;stroke-width:1.5;"/><rect fill="none" height="1293.5156" rx="3.5" ry="3.5" style="stroke:#696969;stroke-width:1.0;" width="1733.5" x="9" y="179.8594"/><text fill="#454645" font-family="sans-serif" font-size="13" font-weight="bold" lengthAdjust="spacing" textLength="42" x="24" y="192.9263">async</text><line style="stroke:#454645;stroke-width:1.0;" x1="382.5" x2="424.5" y1="218.125" y2="218.125"/><line style="stroke:#454645;stroke-width:1.0;" x1="424.5" x2="424.5" y1="218.125" y2="231.125"/><line style="stroke:#454645;stroke-width:1.0;" x1="383.5" x2="424.5" y1="231.125" y2="231.125"/><polygon fill="#454645" points="393.5,227.125,383.5,231.125,393.5,235.125,389.5,231.125" style="stroke:#454645;stroke-width:1.0;"/><text fill="#000000" font-family="sans-serif" font-size="13" lengthAdjust="spacing" textLength="143" x="389.5" y="213.0591">Validate request body</text><path d="M22.5,246.125 L83,246.125 L83,253.2578 L73,263.2578 L19,263.2578 L19,249.625 A3.5,3.5 0 0 1 22.5,246.125 " fill="#EEEEEE" style="stroke:#696969;stroke-width:1.5;"/><rect fill="none" height="139.5313" rx="3.5" ry="3.5" style="stroke:#696969;stroke-width:1.0;" width="1629.5" x="19" y="246.125"/><text fill="#454645" font-family="sans-serif" font-size="13" font-weight="bold" lengthAdjust="spacing" textLength="19" x="34" y="259.1919">alt</text><text fill="#696969" font-family="sans-serif" font-size="11" font-weight="bold" lengthAdjust="spacing" textLength="154" x="98" y="258.3354">[request validation fails]</text><line style="stroke:#454645;stroke-width:1.0;" x1="382.5" x2="424.5" y1="284.3906" y2="284.3906"/><line style="stroke:#454645;stroke-width:1.0;" x1="424.5" x2="424.5" y1="284.3906" y2="297.3906"/><line style="stroke:#454645;stroke-width:1.0;" x1="383.5" x2="424.5" y1="297.3906" y2="297.3906"/><polygon fill="#454645" points="393.5,293.3906,383.5,297.3906,393.5,301.3906,389.5,297.3906" style="stroke:#454645;stroke-width:1.0;"/><text fill="#000000" font-family="sans-serif" font-size="13" lengthAdjust="spacing" textLength="163" x="389.5" y="279.3247">Request validation failed</text><polygon fill="#454645" points="1544.5,333.0898,1554.5,337.0898,1544.5,341.0898,1548.5,337.0898" style="stroke:#454645;stroke-width:1.0;"/><line style="stroke:#454645;stroke-width:1.0;" x1="382.5" x2="1550.5" y1="337.0898" y2="337.0898"/><text fill="#000000" font-family="sans-serif" font-size="13" lengthAdjust="spacing" textLength="231" x="389.5" y="332.0239">call handleError HandleErrorMethod</text><path d="M29,313.8906 L29,346.8906 A3.5,3.5 0 0 0 32.5,350.3906 L363.5,350.3906 A3.5,3.5 0 0 0 367,346.8906 L367,320.3906 L357,310.3906 L32.5,310.3906 A3.5,3.5 0 0 0 29,313.8906 " fill="#7FFFD4" style="stroke:#454645;stroke-width:1.5;"/><path d="M357,310.3906 L357,318.6406 A1.75,1.75 0 0 0 358.75,320.3906 L367,320.3906 L357,310.3906 " fill="#7FFFD4" style="stroke:#454645;stroke-width:1.5;"/><text fill="#454645" font-family="sans-serif" font-size="13" lengthAdjust="spacing" textLength="317" x="35" y="327.4575">This will be marked as unrecoverable right away</text><text fill="#454645" font-family="sans-serif" font-size="13" lengthAdjust="spacing" textLength="210" x="35" y="342.5903">and require manual intervention</text><line style="stroke:#454645;stroke-width:1.0;" x1="382.5" x2="424.5" y1="413.7891" y2="413.7891"/><line style="stroke:#454645;stroke-width:1.0;" x1="424.5" x2="424.5" y1="413.7891" y2="426.7891"/><line style="stroke:#454645;stroke-width:1.0;" x1="383.5" x2="424.5" y1="426.7891" y2="426.7891"/><polygon fill="#454645" points="393.5,422.7891,383.5,426.7891,393.5,430.7891,389.5,426.7891" style="stroke:#454645;stroke-width:1.0;"/><text fill="#000000" font-family="sans-serif" font-size="13" lengthAdjust="spacing" textLength="194" x="389.5" y="408.7231">Request validation successful</text><path d="M119.5,441.7891 L180,441.7891 L180,448.9219 L170,458.9219 L116,458.9219 L116,445.2891 A3.5,3.5 0 0 1 119.5,441.7891 " fill="#EEEEEE" style="stroke:#696969;stroke-width:1.5;"/><rect fill="none" height="198.7969" rx="3.5" ry="3.5" style="stroke:#696969;stroke-width:1.0;" width="1616.5" x="116" y="441.7891"/><text fill="#454645" font-family="sans-serif" font-size="13" font-weight="bold" lengthAdjust="spacing" textLength="19" x="131" y="454.856">alt</text><text fill="#696969" font-family="sans-serif" font-size="11" font-weight="bold" lengthAdjust="spacing" textLength="134" x="195" y="453.9995">[record doesn't exist]</text><polygon fill="#454645" points="747.5,476.0547,757.5,480.0547,747.5,484.0547,751.5,480.0547" style="stroke:#454645;stroke-width:1.0;"/><line style="stroke:#454645;stroke-width:1.0;" x1="382.5" x2="753.5" y1="480.0547" y2="480.0547"/><text fill="#000000" font-family="sans-serif" font-size="13" lengthAdjust="spacing" textLength="277" x="389.5" y="474.9888">Search record based on serverGeneratedId</text><polygon fill="#454645" points="393.5,505.1875,383.5,509.1875,393.5,513.1875,389.5,509.1875" style="stroke:#454645;stroke-width:1.0;"/><line style="stroke:#454645;stroke-width:1.0;" x1="387.5" x2="763.5" y1="509.1875" y2="509.1875"/><text fill="#000000" font-family="sans-serif" font-size="13" lengthAdjust="spacing" textLength="43" x="399.5" y="504.1216">0 rows</text><polygon fill="#454645" points="1668.5,534.3203,1678.5,538.3203,1668.5,542.3203,1672.5,538.3203" style="stroke:#454645;stroke-width:1.0;"/><line style="stroke:#454645;stroke-width:1.0;" x1="382.5" x2="1674.5" y1="538.3203" y2="538.3203"/><text fill="#000000" font-family="sans-serif" font-size="13" lengthAdjust="spacing" textLength="277" x="389.5" y="533.2544">Search record based on serverGeneratedId</text><polygon fill="#454645" points="393.5,563.4531,383.5,567.4531,393.5,571.4531,389.5,567.4531" style="stroke:#454645;stroke-width:1.0;"/><line style="stroke:#454645;stroke-width:1.0;" x1="387.5" x2="1684.5" y1="567.4531" y2="567.4531"/><text fill="#000000" font-family="sans-serif" font-size="13" lengthAdjust="spacing" textLength="36" x="399.5" y="562.3872">0 row</text><polygon fill="#454645" points="1544.5,595.5859,1554.5,599.5859,1544.5,603.5859,1548.5,599.5859" style="stroke:#454645;stroke-width:1.0;"/><line style="stroke:#454645;stroke-width:1.0;" x1="382.5" x2="1550.5" y1="599.5859" y2="599.5859"/><text fill="#000000" font-family="sans-serif" font-size="13" lengthAdjust="spacing" textLength="231" x="389.5" y="594.52">call handleError HandleErrorMethod</text><path d="M126,583.9531 L126,601.9531 A3.5,3.5 0 0 0 129.5,605.4531 L363.5,605.4531 A3.5,3.5 0 0 0 367,601.9531 L367,590.4531 L357,580.4531 L129.5,580.4531 A3.5,3.5 0 0 0 126,583.9531 " fill="#7FFFD4" style="stroke:#454645;stroke-width:1.5;"/><path d="M357,580.4531 L357,588.7031 A1.75,1.75 0 0 0 358.75,590.4531 L367,590.4531 L357,580.4531 " fill="#7FFFD4" style="stroke:#454645;stroke-width:1.5;"/><text fill="#454645" font-family="sans-serif" font-size="13" lengthAdjust="spacing" textLength="220" x="132" y="597.52">Error Code: RECORD_NOT_FOUND</text><path d="M300.5,654.5859 L361,654.5859 L361,661.7188 L351,671.7188 L297,671.7188 L297,658.0859 A3.5,3.5 0 0 1 300.5,654.5859 " fill="#EEEEEE" style="stroke:#696969;stroke-width:1.5;"/><rect fill="none" height="192.7969" rx="3.5" ry="3.5" style="stroke:#696969;stroke-width:1.0;" width="1435.5" x="297" y="654.5859"/><text fill="#454645" font-family="sans-serif" font-size="13" font-weight="bold" lengthAdjust="spacing" textLength="19" x="312" y="667.6528">alt</text><text fill="#696969" font-family="sans-serif" font-size="11" font-weight="bold" lengthAdjust="spacing" textLength="197" x="376" y="666.7964">[record doesn't exists in cache]</text><polygon fill="#454645" points="747.5,688.8516,757.5,692.8516,747.5,696.8516,751.5,692.8516" style="stroke:#454645;stroke-width:1.0;"/><line style="stroke:#454645;stroke-width:1.0;" x1="382.5" x2="753.5" y1="692.8516" y2="692.8516"/><text fill="#000000" font-family="sans-serif" font-size="13" lengthAdjust="spacing" textLength="277" x="389.5" y="687.7856">Search record based on serverGeneratedId</text><polygon fill="#454645" points="393.5,717.9844,383.5,721.9844,393.5,725.9844,389.5,721.9844" style="stroke:#454645;stroke-width:1.0;"/><line style="stroke:#454645;stroke-width:1.0;" x1="387.5" x2="763.5" y1="721.9844" y2="721.9844"/><text fill="#000000" font-family="sans-serif" font-size="13" lengthAdjust="spacing" textLength="43" x="399.5" y="716.9185">0 rows</text><polygon fill="#454645" points="1668.5,747.1172,1678.5,751.1172,1668.5,755.1172,1672.5,751.1172" style="stroke:#454645;stroke-width:1.0;"/><line style="stroke:#454645;stroke-width:1.0;" x1="382.5" x2="1674.5" y1="751.1172" y2="751.1172"/><text fill="#000000" font-family="sans-serif" font-size="13" lengthAdjust="spacing" textLength="277" x="389.5" y="746.0513">Search record based on serverGeneratedId</text><polygon fill="#454645" points="393.5,776.25,383.5,780.25,393.5,784.25,389.5,780.25" style="stroke:#454645;stroke-width:1.0;"/><line style="stroke:#454645;stroke-width:1.0;" x1="387.5" x2="1684.5" y1="780.25" y2="780.25"/><text fill="#000000" font-family="sans-serif" font-size="13" lengthAdjust="spacing" textLength="36" x="399.5" y="775.1841">1 row</text><polygon fill="#454645" points="747.5,805.3828,757.5,809.3828,747.5,813.3828,751.5,809.3828" style="stroke:#454645;stroke-width:1.0;"/><line style="stroke:#454645;stroke-width:1.0;" x1="382.5" x2="753.5" y1="809.3828" y2="809.3828"/><text fill="#000000" font-family="sans-serif" font-size="13" lengthAdjust="spacing" textLength="53" x="389.5" y="804.3169">1 record</text><polygon fill="#454645" points="747.5,871.5156,757.5,875.5156,747.5,879.5156,751.5,875.5156" style="stroke:#454645;stroke-width:1.0;"/><line style="stroke:#454645;stroke-width:1.0;" x1="382.5" x2="753.5" y1="875.5156" y2="875.5156"/><text fill="#000000" font-family="sans-serif" font-size="13" lengthAdjust="spacing" textLength="161" x="389.5" y="870.4497">Fetch the existing record</text><polygon fill="#454645" points="393.5,900.6484,383.5,904.6484,393.5,908.6484,389.5,904.6484" style="stroke:#454645;stroke-width:1.0;"/><line style="stroke:#454645;stroke-width:1.0;" x1="387.5" x2="763.5" y1="904.6484" y2="904.6484"/><text fill="#000000" font-family="sans-serif" font-size="13" lengthAdjust="spacing" textLength="36" x="399.5" y="899.5825">1 row</text><path d="M167.5,919.6484 L228,919.6484 L228,926.7813 L218,936.7813 L164,936.7813 L164,923.1484 A3.5,3.5 0 0 1 167.5,919.6484 " fill="#EEEEEE" style="stroke:#696969;stroke-width:1.5;"/><rect fill="none" height="166.5313" rx="3.5" ry="3.5" style="stroke:#696969;stroke-width:1.0;" width="1484.5" x="164" y="919.6484"/><text fill="#454645" font-family="sans-serif" font-size="13" font-weight="bold" lengthAdjust="spacing" textLength="19" x="179" y="932.7153">alt</text><text fill="#696969" font-family="sans-serif" font-size="11" font-weight="bold" lengthAdjust="spacing" textLength="141" x="243" y="931.8589">[incorrect rowVersion]</text><line style="stroke:#454645;stroke-width:1.0;" x1="382.5" x2="424.5" y1="957.9141" y2="957.9141"/><line style="stroke:#454645;stroke-width:1.0;" x1="424.5" x2="424.5" y1="957.9141" y2="970.9141"/><line style="stroke:#454645;stroke-width:1.0;" x1="383.5" x2="424.5" y1="970.9141" y2="970.9141"/><polygon fill="#454645" points="393.5,966.9141,383.5,970.9141,393.5,974.9141,389.5,970.9141" style="stroke:#454645;stroke-width:1.0;"/><text fill="#000000" font-family="sans-serif" font-size="13" lengthAdjust="spacing" textLength="297" x="389.5" y="952.8481">Compare rowVersion between request and db</text><line style="stroke:#454645;stroke-width:1.0;" x1="382.5" x2="424.5" y1="1000.0469" y2="1000.0469"/><line style="stroke:#454645;stroke-width:1.0;" x1="424.5" x2="424.5" y1="1000.0469" y2="1013.0469"/><line style="stroke:#454645;stroke-width:1.0;" x1="383.5" x2="424.5" y1="1013.0469" y2="1013.0469"/><polygon fill="#454645" points="393.5,1009.0469,383.5,1013.0469,393.5,1017.0469,389.5,1013.0469" style="stroke:#454645;stroke-width:1.0;"/><text fill="#000000" font-family="sans-serif" font-size="13" lengthAdjust="spacing" textLength="323" x="389.5" y="994.981">Incorrect rowVersion [request: should be +1 only]</text><polygon fill="#454645" points="1544.5,1041.1797,1554.5,1045.1797,1544.5,1049.1797,1548.5,1045.1797" style="stroke:#454645;stroke-width:1.0;"/><line style="stroke:#454645;stroke-width:1.0;" x1="382.5" x2="1550.5" y1="1045.1797" y2="1045.1797"/><text fill="#000000" font-family="sans-serif" font-size="13" lengthAdjust="spacing" textLength="231" x="389.5" y="1040.1138">call handleError HandleErrorMethod</text><path d="M174,1029.5469 L174,1047.5469 A3.5,3.5 0 0 0 177.5,1051.0469 L363.5,1051.0469 A3.5,3.5 0 0 0 367,1047.5469 L367,1036.0469 L357,1026.0469 L177.5,1026.0469 A3.5,3.5 0 0 0 174,1029.5469 " fill="#7FFFD4" style="stroke:#454645;stroke-width:1.5;"/><path d="M357,1026.0469 L357,1034.2969 A1.75,1.75 0 0 0 358.75,1036.0469 L367,1036.0469 L357,1026.0469 " fill="#7FFFD4" style="stroke:#454645;stroke-width:1.5;"/><text fill="#454645" font-family="sans-serif" font-size="13" lengthAdjust="spacing" textLength="172" x="180" y="1043.1138">Error Code: BAD_REQUEST</text><line style="stroke:#454645;stroke-width:1.0;" x1="382.5" x2="424.5" y1="1114.3125" y2="1114.3125"/><line style="stroke:#454645;stroke-width:1.0;" x1="424.5" x2="424.5" y1="1114.3125" y2="1127.3125"/><line style="stroke:#454645;stroke-width:1.0;" x1="383.5" x2="424.5" y1="1127.3125" y2="1127.3125"/><polygon fill="#454645" points="393.5,1123.3125,383.5,1127.3125,393.5,1131.3125,389.5,1127.3125" style="stroke:#454645;stroke-width:1.0;"/><text fill="#000000" font-family="sans-serif" font-size="13" lengthAdjust="spacing" textLength="297" x="389.5" y="1109.2466">Compare rowVersion between request and db</text><line style="stroke:#454645;stroke-width:1.0;" x1="382.5" x2="424.5" y1="1156.4453" y2="1156.4453"/><line style="stroke:#454645;stroke-width:1.0;" x1="424.5" x2="424.5" y1="1156.4453" y2="1169.4453"/><line style="stroke:#454645;stroke-width:1.0;" x1="383.5" x2="424.5" y1="1169.4453" y2="1169.4453"/><polygon fill="#454645" points="393.5,1165.4453,383.5,1169.4453,393.5,1173.4453,389.5,1169.4453" style="stroke:#454645;stroke-width:1.0;"/><text fill="#000000" font-family="sans-serif" font-size="13" lengthAdjust="spacing" textLength="297" x="389.5" y="1151.3794">rowVersion in request = rowVersion in db + 1</text><polygon fill="#454645" points="836.5,1194.5781,846.5,1198.5781,836.5,1202.5781,840.5,1198.5781" style="stroke:#454645;stroke-width:1.0;"/><line style="stroke:#454645;stroke-width:1.0;" x1="382.5" x2="842.5" y1="1198.5781" y2="1198.5781"/><text fill="#000000" font-family="sans-serif" font-size="13" lengthAdjust="spacing" textLength="191" x="389.5" y="1193.5122">Individual Data /update_topic</text><polygon fill="#454645" points="747.5,1223.7109,757.5,1227.7109,747.5,1231.7109,751.5,1227.7109" style="stroke:#454645;stroke-width:1.0;"/><line style="stroke:#454645;stroke-width:1.0;" x1="382.5" x2="753.5" y1="1227.7109" y2="1227.7109"/><text fill="#000000" font-family="sans-serif" font-size="13" lengthAdjust="spacing" textLength="358" x="389.5" y="1222.645">Update new record in cache against serverGeneratedId</text><path d="M817,1272.7109 L900.5,1272.7109 L900.5,1279.8438 L890.5,1289.8438 L813.5,1289.8438 L813.5,1276.2109 A3.5,3.5 0 0 1 817,1272.7109 " fill="#EEEEEE" style="stroke:#696969;stroke-width:1.5;"/><rect fill="none" height="193.6641" rx="3.5" ry="3.5" style="stroke:#696969;stroke-width:1.0;" width="919" x="813.5" y="1272.7109"/><text fill="#454645" font-family="sans-serif" font-size="13" font-weight="bold" lengthAdjust="spacing" textLength="42" x="828.5" y="1285.7778">async</text><polygon fill="#454645" points="869.5,1306.9766,859.5,1310.9766,869.5,1314.9766,865.5,1310.9766" style="stroke:#454645;stroke-width:1.0;"/><line style="stroke:#454645;stroke-width:1.0;" x1="863.5" x2="1040.5" y1="1310.9766" y2="1310.9766"/><text fill="#000000" font-family="sans-serif" font-size="13" lengthAdjust="spacing" textLength="164" x="875.5" y="1305.9106">Consume Individual Data</text><polygon fill="#454645" points="869.5,1336.1094,859.5,1340.1094,869.5,1344.1094,865.5,1340.1094" style="stroke:#454645;stroke-width:1.0;"/><line style="stroke:#454645;stroke-width:1.0;" x1="863.5" x2="1175" y1="1340.1094" y2="1340.1094"/><text fill="#000000" font-family="sans-serif" font-size="13" lengthAdjust="spacing" textLength="164" x="875.5" y="1335.0435">Consume Individual Data</text><polygon fill="#454645" points="1402.5,1365.2422,1412.5,1369.2422,1402.5,1373.2422,1406.5,1369.2422" style="stroke:#454645;stroke-width:1.0;"/><line style="stroke:#454645;stroke-width:1.0;" x1="1186" x2="1408.5" y1="1369.2422" y2="1369.2422"/><text fill="#000000" font-family="sans-serif" font-size="13" lengthAdjust="spacing" textLength="137" x="1193" y="1364.1763">Store Individual Data</text><polygon fill="#454645" points="1668.5,1424.375,1678.5,1428.375,1668.5,1432.375,1672.5,1428.375" style="stroke:#454645;stroke-width:1.0;"/><line style="stroke:#454645;stroke-width:1.0;" x1="1051.5" x2="1674.5" y1="1428.375" y2="1428.375"/><text fill="#000000" font-family="sans-serif" font-size="13" lengthAdjust="spacing" textLength="150" x="1058.5" y="1423.3091">Update Individual Data</text><!--SRC=[tLPDRzim3BtxLt2d7OeYJOy1Dg1pqWyCQxiaxMKO0bbYOY6Ad4boqlpxKOxjo8xxjLs6-HA7UYJ5noTQJZg5SAE5t4YHCmMdy2LNItXO2-Om-k1IN25iP6AOTj6Q6IUvNDCxn4eY_J0Bl64_n1hZGbfdTXvZ6vWn2cbZnbFqQuP7ltBC4Rwo-P9voxA1laTZAH2Q2PgDv8NFsjXsLdng8AHuQY16ncJXEZO3Z1Ipz6U2pF2qM5UDzMkcXS8Yo3TqQIOy9iM8Q689imZ3weNi8eaud7u62mFeoPgGtgRVIuZTtYpVqykuanjw8Ngin_C1N3ktdZZcSZk0yxDpk8ZZqVrqD8okJ9QlAVXEymZeAHm8zCYKzC708B5e7IIPs1K8fbnjtEnHCjCmPrBP0X266NS3KJIHAGw0CwKWFV1np4tjKsoZAfBO2kq2drlH6TaKpbt3wfzfAYri9ULF45RCBB7eGwuDyco3XYMaPYCNAGbpotP7_hJHWX9flBlsWfUQbBKXALF93JmIrkyaAlz4hz1bSyxHsdck0lPvPWI83At-w02VICPDFWsrlDHS2VOQ4k3Z-MsPAzHKbaDnSs2rvitmscPukRCpCDdsqD-0vG1Tv1R9t-GcZTSvaZ1tL-e0_2SowX9AjtowfBEF7cU2aev7yTruEBkzcyukxnvkXz6BtNwkXpHTDEsV1ud_msxstzfDNtQ_pFfYMSVRRvmh7-SI7LL0dvqzqr8lmi1jzvgdmrwFS_WkIaqnA93pk4V_GGbEUtMeusn58ny328qPjqNKzHpr0wHTFddUT8I77wNJ06oQvKhucNNIfuQetSz_v3XykHZEngFl3wF9D7hJt7iVHPLNW9O7uAUMdOHt0ls3ut8GNapyznLw-m_dp6LhoPkAM3PrjB_0WCPjTHog8mjimQIc_Dt7egsUffxQfltHNBI-pVwX6qfPH9nfcw-mNSnnE_sbfZBIzUMzxlx6qt97HKF1PUODtgYwjDHj3JELTVhnKtB-QgfmsE0hregJIeZ1qZ8Yusy0]--></g></svg>