<?xml version="1.0" encoding="UTF-8" standalone="no"?><svg xmlns="http://www.w3.org/2000/svg" xmlns:xlink="http://www.w3.org/1999/xlink" contentStyleType="text/css" height="1141px" preserveAspectRatio="none" style="width:1865px;height:1141px;background:#FFFFFF;" version="1.1" viewBox="0 0 1865 1141" width="1865px" zoomAndPan="magnify"><defs/><g><text fill="#000000" font-family="sans-serif" font-size="14" font-weight="bold" lengthAdjust="spacing" textLength="187" x="840.25" y="27.9951">Individual - Bulk Create</text><rect fill="#FFFFFF" height="702.4609" style="stroke:#696969;stroke-width:1.0;" width="10" x="366.5" y="135.7266"/><rect fill="#FFFFFF" height="30" style="stroke:#696969;stroke-width:1.0;" width="10" x="754.5" y="793.1875"/><rect fill="#FFFFFF" height="29.1328" style="stroke:#696969;stroke-width:1.0;" width="10" x="869" y="455.9219"/><rect fill="#FFFFFF" height="29.1328" style="stroke:#696969;stroke-width:1.0;" width="10" x="869" y="663.6563"/><rect fill="#FFFFFF" height="288.7969" style="stroke:#696969;stroke-width:1.0;" width="10" x="964.5" y="764.0547"/><rect fill="#FFFFFF" height="147.3984" style="stroke:#696969;stroke-width:1.0;" width="10" x="1157.5" y="883.4531"/><rect fill="#FFFFFF" height="59.1328" style="stroke:#696969;stroke-width:1.0;" width="10" x="1292" y="912.5859"/><rect fill="#FFFFFF" height="30" style="stroke:#696969;stroke-width:1.0;" width="10" x="1530.5" y="941.7188"/><rect fill="#FFFFFF" height="30" style="stroke:#696969;stroke-width:1.0;" width="10" x="1672.5" y="312.957"/><rect fill="#FFFFFF" height="30" style="stroke:#696969;stroke-width:1.0;" width="10" x="1672.5" y="539.8867"/><rect fill="#FFFFFF" height="30" style="stroke:#696969;stroke-width:1.0;" width="10" x="1796.5" y="1000.8516"/><rect fill="none" height="139.5313" rx="3.5" ry="3.5" style="stroke:#696969;stroke-width:1.0;" width="1755.5" x="9" y="221.9922"/><rect fill="none" height="628.1953" rx="3.5" ry="3.5" style="stroke:#696969;stroke-width:1.0;" width="1804.5" x="54" y="417.6563"/><rect fill="none" height="205.7969" rx="3.5" ry="3.5" style="stroke:#696969;stroke-width:1.0;" width="718.5" x="291" y="625.3906"/><rect fill="none" height="193.6641" rx="3.5" ry="3.5" style="stroke:#696969;stroke-width:1.0;" width="919" x="929.5" y="845.1875"/><line style="stroke:#696969;stroke-width:0.5;stroke-dasharray:5.0,5.0;" x1="175" x2="175" y1="104.5938" y2="1062.8516"/><line style="stroke:#696969;stroke-width:0.5;stroke-dasharray:5.0,5.0;" x1="371" x2="371" y1="104.5938" y2="1062.8516"/><line style="stroke:#696969;stroke-width:0.5;stroke-dasharray:5.0,5.0;" x1="759.5" x2="759.5" y1="104.5938" y2="1062.8516"/><line style="stroke:#696969;stroke-width:0.5;stroke-dasharray:5.0,5.0;" x1="873.5" x2="873.5" y1="104.5938" y2="1062.8516"/><line style="stroke:#696969;stroke-width:0.5;stroke-dasharray:5.0,5.0;" x1="969.5" x2="969.5" y1="104.5938" y2="1062.8516"/><line style="stroke:#696969;stroke-width:0.5;stroke-dasharray:5.0,5.0;" x1="1162.5" x2="1162.5" y1="104.5938" y2="1062.8516"/><line style="stroke:#696969;stroke-width:0.5;stroke-dasharray:5.0,5.0;" x1="1296.5" x2="1296.5" y1="104.5938" y2="1062.8516"/><line style="stroke:#696969;stroke-width:0.5;stroke-dasharray:5.0,5.0;" x1="1418.5" x2="1418.5" y1="104.5938" y2="1062.8516"/><line style="stroke:#696969;stroke-width:0.5;stroke-dasharray:5.0,5.0;" x1="1535.5" x2="1535.5" y1="104.5938" y2="1062.8516"/><line style="stroke:#696969;stroke-width:0.5;stroke-dasharray:5.0,5.0;" x1="1677.5" x2="1677.5" y1="104.5938" y2="1062.8516"/><line style="stroke:#696969;stroke-width:0.5;stroke-dasharray:5.0,5.0;" x1="1801.5" x2="1801.5" y1="104.5938" y2="1062.8516"/><rect fill="#FF6347" height="30.2969" rx="3.5" ry="3.5" style="stroke:#454645;stroke-width:1.5;" width="55" x="148" y="73.2969"/><text fill="#FFFFFF" font-family="sans-serif" font-size="14" lengthAdjust="spacing" textLength="41" x="155" y="93.292">Client</text><rect fill="#FF6347" height="30.2969" rx="3.5" ry="3.5" style="stroke:#454645;stroke-width:1.5;" width="55" x="148" y="1061.8516"/><text fill="#FFFFFF" font-family="sans-serif" font-size="14" lengthAdjust="spacing" textLength="41" x="155" y="1081.8467">Client</text><rect fill="#FF6347" height="30.2969" rx="3.5" ry="3.5" style="stroke:#454645;stroke-width:1.5;" width="141" x="301" y="73.2969"/><text fill="#FFFFFF" font-family="sans-serif" font-size="14" lengthAdjust="spacing" textLength="127" x="308" y="93.292">IndividualRegistry</text><rect fill="#FF6347" height="30.2969" rx="3.5" ry="3.5" style="stroke:#454645;stroke-width:1.5;" width="141" x="301" y="1061.8516"/><text fill="#FFFFFF" font-family="sans-serif" font-size="14" lengthAdjust="spacing" textLength="127" x="308" y="1081.8467">IndividualRegistry</text><rect fill="#FF6347" height="30.2969" rx="3.5" ry="3.5" style="stroke:#454645;stroke-width:1.5;" width="98" x="710.5" y="73.2969"/><text fill="#FFFFFF" font-family="sans-serif" font-size="14" lengthAdjust="spacing" textLength="84" x="717.5" y="93.292">RedisCache</text><rect fill="#FF6347" height="30.2969" rx="3.5" ry="3.5" style="stroke:#454645;stroke-width:1.5;" width="98" x="710.5" y="1061.8516"/><text fill="#FFFFFF" font-family="sans-serif" font-size="14" lengthAdjust="spacing" textLength="84" x="717.5" y="1081.8467">RedisCache</text><rect fill="#FF6347" height="30.2969" rx="3.5" ry="3.5" style="stroke:#454645;stroke-width:1.5;" width="111" x="818.5" y="73.2969"/><text fill="#FFFFFF" font-family="sans-serif" font-size="14" lengthAdjust="spacing" textLength="97" x="825.5" y="93.292">IDGenService</text><rect fill="#FF6347" height="30.2969" rx="3.5" ry="3.5" style="stroke:#454645;stroke-width:1.5;" width="111" x="818.5" y="1061.8516"/><text fill="#FFFFFF" font-family="sans-serif" font-size="14" lengthAdjust="spacing" textLength="97" x="825.5" y="1081.8467">IDGenService</text><path d="M944.5,78.2969 L994.5,78.2969 C999.5,78.2969 999.5,91.4453 999.5,91.4453 C999.5,91.4453 999.5,104.5938 994.5,104.5938 L944.5,104.5938 C939.5,104.5938 939.5,91.4453 939.5,91.4453 C939.5,91.4453 939.5,78.2969 944.5,78.2969 " fill="#FF6347" style="stroke:#454645;stroke-width:1.5;"/><path d="M994.5,78.2969 C989.5,78.2969 989.5,91.4453 989.5,91.4453 C989.5,104.5938 994.5,104.5938 994.5,104.5938 " fill="none" style="stroke:#454645;stroke-width:1.5;"/><text fill="#FFFFFF" font-family="sans-serif" font-size="14" lengthAdjust="spacing" textLength="40" x="944.5" y="96.292">Kafka</text><path d="M944.5,1061.8516 L994.5,1061.8516 C999.5,1061.8516 999.5,1075 999.5,1075 C999.5,1075 999.5,1088.1484 994.5,1088.1484 L944.5,1088.1484 C939.5,1088.1484 939.5,1075 939.5,1075 C939.5,1075 939.5,1061.8516 944.5,1061.8516 " fill="#FF6347" style="stroke:#454645;stroke-width:1.5;"/><path d="M994.5,1061.8516 C989.5,1061.8516 989.5,1075 989.5,1075 C989.5,1088.1484 994.5,1088.1484 994.5,1088.1484 " fill="none" style="stroke:#454645;stroke-width:1.5;"/><text fill="#FFFFFF" font-family="sans-serif" font-size="14" lengthAdjust="spacing" textLength="40" x="944.5" y="1079.8467">Kafka</text><rect fill="#FF6347" height="30.2969" rx="3.5" ry="3.5" style="stroke:#454645;stroke-width:1.5;" width="128" x="1098.5" y="73.2969"/><text fill="#FFFFFF" font-family="sans-serif" font-size="14" lengthAdjust="spacing" textLength="114" x="1105.5" y="93.292">PersisterService</text><rect fill="#FF6347" height="30.2969" rx="3.5" ry="3.5" style="stroke:#454645;stroke-width:1.5;" width="128" x="1098.5" y="1061.8516"/><text fill="#FFFFFF" font-family="sans-serif" font-size="14" lengthAdjust="spacing" textLength="114" x="1105.5" y="1081.8467">PersisterService</text><rect fill="#FF6347" height="30.2969" rx="3.5" ry="3.5" style="stroke:#454645;stroke-width:1.5;" width="121" x="1236.5" y="73.2969"/><text fill="#FFFFFF" font-family="sans-serif" font-size="14" lengthAdjust="spacing" textLength="107" x="1243.5" y="93.292">IndexerService</text><rect fill="#FF6347" height="30.2969" rx="3.5" ry="3.5" style="stroke:#454645;stroke-width:1.5;" width="121" x="1236.5" y="1061.8516"/><text fill="#FFFFFF" font-family="sans-serif" font-size="14" lengthAdjust="spacing" textLength="107" x="1243.5" y="1081.8467">IndexerService</text><rect fill="#FF6347" height="30.2969" rx="3.5" ry="3.5" style="stroke:#454645;stroke-width:1.5;" width="103" x="1367.5" y="73.2969"/><text fill="#FFFFFF" font-family="sans-serif" font-size="14" lengthAdjust="spacing" textLength="89" x="1374.5" y="93.292">ErrorService</text><rect fill="#FF6347" height="30.2969" rx="3.5" ry="3.5" style="stroke:#454645;stroke-width:1.5;" width="103" x="1367.5" y="1061.8516"/><text fill="#FFFFFF" font-family="sans-serif" font-size="14" lengthAdjust="spacing" textLength="89" x="1374.5" y="1081.8467">ErrorService</text><rect fill="#FF6347" height="30.2969" rx="3.5" ry="3.5" style="stroke:#454645;stroke-width:1.5;" width="110" x="1480.5" y="73.2969"/><text fill="#FFFFFF" font-family="sans-serif" font-size="14" lengthAdjust="spacing" textLength="96" x="1487.5" y="93.292">ElasticSearch</text><rect fill="#FF6347" height="30.2969" rx="3.5" ry="3.5" style="stroke:#454645;stroke-width:1.5;" width="110" x="1480.5" y="1061.8516"/><text fill="#FFFFFF" font-family="sans-serif" font-size="14" lengthAdjust="spacing" textLength="96" x="1487.5" y="1081.8467">ElasticSearch</text><rect fill="#FF6347" height="30.2969" rx="3.5" ry="3.5" style="stroke:#454645;stroke-width:1.5;" width="154" x="1600.5" y="73.2969"/><text fill="#FFFFFF" font-family="sans-serif" font-size="14" lengthAdjust="spacing" textLength="140" x="1607.5" y="93.292">HandleErrorMethod</text><rect fill="#FF6347" height="30.2969" rx="3.5" ry="3.5" style="stroke:#454645;stroke-width:1.5;" width="154" x="1600.5" y="1061.8516"/><text fill="#FFFFFF" font-family="sans-serif" font-size="14" lengthAdjust="spacing" textLength="140" x="1607.5" y="1081.8467">HandleErrorMethod</text><text fill="#454645" font-family="sans-serif" font-size="14" lengthAdjust="spacing" textLength="68" x="1764.5" y="101.292">Database</text><path d="M1783.5,52.2969 C1783.5,42.2969 1801.5,42.2969 1801.5,42.2969 C1801.5,42.2969 1819.5,42.2969 1819.5,52.2969 L1819.5,78.2969 C1819.5,88.2969 1801.5,88.2969 1801.5,88.2969 C1801.5,88.2969 1783.5,88.2969 1783.5,78.2969 L1783.5,52.2969 " fill="#00FFFF" style="stroke:#454645;stroke-width:1.5;"/><path d="M1783.5,52.2969 C1783.5,62.2969 1801.5,62.2969 1801.5,62.2969 C1801.5,62.2969 1819.5,62.2969 1819.5,52.2969 " fill="none" style="stroke:#454645;stroke-width:1.5;"/><text fill="#454645" font-family="sans-serif" font-size="14" lengthAdjust="spacing" textLength="68" x="1764.5" y="1074.8467">Database</text><path d="M1783.5,1088.1484 C1783.5,1078.1484 1801.5,1078.1484 1801.5,1078.1484 C1801.5,1078.1484 1819.5,1078.1484 1819.5,1088.1484 L1819.5,1114.1484 C1819.5,1124.1484 1801.5,1124.1484 1801.5,1124.1484 C1801.5,1124.1484 1783.5,1124.1484 1783.5,1114.1484 L1783.5,1088.1484 " fill="#00FFFF" style="stroke:#454645;stroke-width:1.5;"/><path d="M1783.5,1088.1484 C1783.5,1098.1484 1801.5,1098.1484 1801.5,1098.1484 C1801.5,1098.1484 1819.5,1098.1484 1819.5,1088.1484 " fill="none" style="stroke:#454645;stroke-width:1.5;"/><rect fill="#FFFFFF" height="702.4609" style="stroke:#696969;stroke-width:1.0;" width="10" x="366.5" y="135.7266"/><rect fill="#FFFFFF" height="30" style="stroke:#696969;stroke-width:1.0;" width="10" x="754.5" y="793.1875"/><rect fill="#FFFFFF" height="29.1328" style="stroke:#696969;stroke-width:1.0;" width="10" x="869" y="455.9219"/><rect fill="#FFFFFF" height="29.1328" style="stroke:#696969;stroke-width:1.0;" width="10" x="869" y="663.6563"/><rect fill="#FFFFFF" height="288.7969" style="stroke:#696969;stroke-width:1.0;" width="10" x="964.5" y="764.0547"/><rect fill="#FFFFFF" height="147.3984" style="stroke:#696969;stroke-width:1.0;" width="10" x="1157.5" y="883.4531"/><rect fill="#FFFFFF" height="59.1328" style="stroke:#696969;stroke-width:1.0;" width="10" x="1292" y="912.5859"/><rect fill="#FFFFFF" height="30" style="stroke:#696969;stroke-width:1.0;" width="10" x="1530.5" y="941.7188"/><rect fill="#FFFFFF" height="30" style="stroke:#696969;stroke-width:1.0;" width="10" x="1672.5" y="312.957"/><rect fill="#FFFFFF" height="30" style="stroke:#696969;stroke-width:1.0;" width="10" x="1672.5" y="539.8867"/><rect fill="#FFFFFF" height="30" style="stroke:#696969;stroke-width:1.0;" width="10" x="1796.5" y="1000.8516"/><polygon fill="#454645" points="354.5,131.7266,364.5,135.7266,354.5,139.7266,358.5,135.7266" style="stroke:#454645;stroke-width:1.0;"/><line style="stroke:#454645;stroke-width:1.0;" x1="175.5" x2="360.5" y1="135.7266" y2="135.7266"/><text fill="#000000" font-family="sans-serif" font-size="13" lengthAdjust="spacing" textLength="172" x="182.5" y="130.6606">/individual/v1/bulk/_create</text><polygon fill="#454645" points="186.5,160.8594,176.5,164.8594,186.5,168.8594,182.5,164.8594" style="stroke:#454645;stroke-width:1.0;"/><line style="stroke:#454645;stroke-width:1.0;" x1="180.5" x2="365.5" y1="164.8594" y2="164.8594"/><text fill="#000000" font-family="sans-serif" font-size="13" lengthAdjust="spacing" textLength="164" x="192.5" y="159.7935">HttpStatus: 202 accepted</text><line style="stroke:#454645;stroke-width:1.0;" x1="376.5" x2="418.5" y1="193.9922" y2="193.9922"/><line style="stroke:#454645;stroke-width:1.0;" x1="418.5" x2="418.5" y1="193.9922" y2="206.9922"/><line style="stroke:#454645;stroke-width:1.0;" x1="377.5" x2="418.5" y1="206.9922" y2="206.9922"/><polygon fill="#454645" points="387.5,202.9922,377.5,206.9922,387.5,210.9922,383.5,206.9922" style="stroke:#454645;stroke-width:1.0;"/><text fill="#000000" font-family="sans-serif" font-size="13" lengthAdjust="spacing" textLength="143" x="383.5" y="188.9263">Validate request body</text><path d="M12.5,221.9922 L73,221.9922 L73,229.125 L63,239.125 L9,239.125 L9,225.4922 A3.5,3.5 0 0 1 12.5,221.9922 " fill="#EEEEEE" style="stroke:#696969;stroke-width:1.5;"/><rect fill="none" height="139.5313" rx="3.5" ry="3.5" style="stroke:#696969;stroke-width:1.0;" width="1755.5" x="9" y="221.9922"/><text fill="#454645" font-family="sans-serif" font-size="13" font-weight="bold" lengthAdjust="spacing" textLength="19" x="24" y="235.0591">alt</text><text fill="#696969" font-family="sans-serif" font-size="11" font-weight="bold" lengthAdjust="spacing" textLength="154" x="88" y="234.2026">[request validation fails]</text><line style="stroke:#454645;stroke-width:1.0;" x1="376.5" x2="418.5" y1="260.2578" y2="260.2578"/><line style="stroke:#454645;stroke-width:1.0;" x1="418.5" x2="418.5" y1="260.2578" y2="273.2578"/><line style="stroke:#454645;stroke-width:1.0;" x1="377.5" x2="418.5" y1="273.2578" y2="273.2578"/><polygon fill="#454645" points="387.5,269.2578,377.5,273.2578,387.5,277.2578,383.5,273.2578" style="stroke:#454645;stroke-width:1.0;"/><text fill="#000000" font-family="sans-serif" font-size="13" lengthAdjust="spacing" textLength="163" x="383.5" y="255.1919">Request validation failed</text><polygon fill="#454645" points="1660.5,308.957,1670.5,312.957,1660.5,316.957,1664.5,312.957" style="stroke:#454645;stroke-width:1.0;"/><line style="stroke:#454645;stroke-width:1.0;" x1="376.5" x2="1666.5" y1="312.957" y2="312.957"/><text fill="#000000" font-family="sans-serif" font-size="13" lengthAdjust="spacing" textLength="231" x="383.5" y="307.8911">call handleError HandleErrorMethod</text><path d="M19,289.7578 L19,322.7578 A3.5,3.5 0 0 0 22.5,326.2578 L357.5,326.2578 A3.5,3.5 0 0 0 361,322.7578 L361,296.2578 L351,286.2578 L22.5,286.2578 A3.5,3.5 0 0 0 19,289.7578 " fill="#7FFFD4" style="stroke:#454645;stroke-width:1.5;"/><path d="M351,286.2578 L351,294.5078 A1.75,1.75 0 0 0 352.75,296.2578 L361,296.2578 L351,286.2578 " fill="#7FFFD4" style="stroke:#454645;stroke-width:1.5;"/><text fill="#454645" font-family="sans-serif" font-size="13" lengthAdjust="spacing" textLength="317" x="25" y="303.3247">This will be marked as unrecoverable right away</text><text fill="#454645" font-family="sans-serif" font-size="13" lengthAdjust="spacing" textLength="210" x="25" y="318.4575">and require manual intervention</text><line style="stroke:#454645;stroke-width:1.0;" x1="376.5" x2="418.5" y1="389.6563" y2="389.6563"/><line style="stroke:#454645;stroke-width:1.0;" x1="418.5" x2="418.5" y1="389.6563" y2="402.6563"/><line style="stroke:#454645;stroke-width:1.0;" x1="377.5" x2="418.5" y1="402.6563" y2="402.6563"/><polygon fill="#454645" points="387.5,398.6563,377.5,402.6563,387.5,406.6563,383.5,402.6563" style="stroke:#454645;stroke-width:1.0;"/><text fill="#000000" font-family="sans-serif" font-size="13" lengthAdjust="spacing" textLength="194" x="383.5" y="384.5903">Request validation successful</text><path d="M57.5,417.6563 L118,417.6563 L118,424.7891 L108,434.7891 L54,434.7891 L54,421.1563 A3.5,3.5 0 0 1 57.5,417.6563 " fill="#EEEEEE" style="stroke:#696969;stroke-width:1.5;"/><rect fill="none" height="628.1953" rx="3.5" ry="3.5" style="stroke:#696969;stroke-width:1.0;" width="1804.5" x="54" y="417.6563"/><text fill="#454645" font-family="sans-serif" font-size="13" font-weight="bold" lengthAdjust="spacing" textLength="19" x="69" y="430.7231">alt</text><text fill="#696969" font-family="sans-serif" font-size="11" font-weight="bold" lengthAdjust="spacing" textLength="124" x="133" y="429.8667">[id generation fails]</text><polygon fill="#454645" points="857,451.9219,867,455.9219,857,459.9219,861,455.9219" style="stroke:#454645;stroke-width:1.0;"/><line style="stroke:#454645;stroke-width:1.0;" x1="376.5" x2="863" y1="455.9219" y2="455.9219"/><text fill="#000000" font-family="sans-serif" font-size="13" lengthAdjust="spacing" textLength="85" x="383.5" y="450.856">/id/_generate</text><polygon fill="#454645" points="387.5,481.0547,377.5,485.0547,387.5,489.0547,383.5,485.0547" style="stroke:#454645;stroke-width:1.0;"/><line style="stroke:#454645;stroke-width:1.0;" x1="381.5" x2="873" y1="485.0547" y2="485.0547"/><text fill="#000000" font-family="sans-serif" font-size="13" lengthAdjust="spacing" textLength="101" x="393.5" y="479.9888">HttpStatus: 400</text><polygon fill="#454645" points="1660.5,535.8867,1670.5,539.8867,1660.5,543.8867,1664.5,539.8867" style="stroke:#454645;stroke-width:1.0;"/><line style="stroke:#454645;stroke-width:1.0;" x1="376.5" x2="1666.5" y1="539.8867" y2="539.8867"/><text fill="#000000" font-family="sans-serif" font-size="13" lengthAdjust="spacing" textLength="231" x="383.5" y="534.8208">call handleError HandleErrorMethod</text><path d="M64,501.5547 L64,564.5547 A3.5,3.5 0 0 0 67.5,568.0547 L357.5,568.0547 A3.5,3.5 0 0 0 361,564.5547 L361,508.0547 L351,498.0547 L67.5,498.0547 A3.5,3.5 0 0 0 64,501.5547 " fill="#7FFFD4" style="stroke:#454645;stroke-width:1.5;"/><path d="M351,498.0547 L351,506.3047 A1.75,1.75 0 0 0 352.75,508.0547 L361,508.0547 L351,498.0547 " fill="#7FFFD4" style="stroke:#454645;stroke-width:1.5;"/><text fill="#454645" font-family="sans-serif" font-size="13" lengthAdjust="spacing" textLength="256" x="86" y="515.1216">This will be marked as recoverable and</text><text fill="#454645" font-family="sans-serif" font-size="13" lengthAdjust="spacing" textLength="124" x="86" y="530.2544">will be retried later</text><text fill="#454645" font-family="sans-serif" font-size="13" lengthAdjust="spacing" textLength="55" x="70" y="545.3872">note left</text><text fill="#454645" font-family="sans-serif" font-size="13" lengthAdjust="spacing" textLength="235" x="78" y="560.52">Error Code: ID_GENERATION_FAILED</text><line style="stroke:#696969;stroke-width:1.0;stroke-dasharray:2.0,2.0;" x1="54" x2="1858.5" y1="604.5859" y2="604.5859"/><text fill="#696969" font-family="sans-serif" font-size="11" font-weight="bold" lengthAdjust="spacing" textLength="164" x="59" y="614.7964">[id generation successful]</text><path d="M294.5,625.3906 L376,625.3906 L376,632.5234 L366,642.5234 L291,642.5234 L291,628.8906 A3.5,3.5 0 0 1 294.5,625.3906 " fill="#EEEEEE" style="stroke:#696969;stroke-width:1.5;"/><rect fill="none" height="205.7969" rx="3.5" ry="3.5" style="stroke:#696969;stroke-width:1.0;" width="718.5" x="291" y="625.3906"/><text fill="#454645" font-family="sans-serif" font-size="13" font-weight="bold" lengthAdjust="spacing" textLength="40" x="306" y="638.4575">idgen</text><polygon fill="#454645" points="857,659.6563,867,663.6563,857,667.6563,861,663.6563" style="stroke:#454645;stroke-width:1.0;"/><line style="stroke:#454645;stroke-width:1.0;" x1="376.5" x2="863" y1="663.6563" y2="663.6563"/><text fill="#000000" font-family="sans-serif" font-size="13" lengthAdjust="spacing" textLength="78" x="383.5" y="658.5903">Generate ID</text><polygon fill="#454645" points="387.5,688.7891,377.5,692.7891,387.5,696.7891,383.5,692.7891" style="stroke:#454645;stroke-width:1.0;"/><line style="stroke:#454645;stroke-width:1.0;" x1="381.5" x2="873" y1="692.7891" y2="692.7891"/><text fill="#000000" font-family="sans-serif" font-size="13" lengthAdjust="spacing" textLength="86" x="393.5" y="687.7231">Generated ID</text><line style="stroke:#454645;stroke-width:1.0;" x1="376.5" x2="418.5" y1="721.9219" y2="721.9219"/><line style="stroke:#454645;stroke-width:1.0;" x1="418.5" x2="418.5" y1="721.9219" y2="734.9219"/><line style="stroke:#454645;stroke-width:1.0;" x1="377.5" x2="418.5" y1="734.9219" y2="734.9219"/><polygon fill="#454645" points="387.5,730.9219,377.5,734.9219,387.5,738.9219,383.5,734.9219" style="stroke:#454645;stroke-width:1.0;"/><text fill="#000000" font-family="sans-serif" font-size="13" lengthAdjust="spacing" textLength="254" x="383.5" y="716.856">Update generated ID in Individual Data</text><polygon fill="#454645" points="952.5,760.0547,962.5,764.0547,952.5,768.0547,956.5,764.0547" style="stroke:#454645;stroke-width:1.0;"/><line style="stroke:#454645;stroke-width:1.0;" x1="376.5" x2="958.5" y1="764.0547" y2="764.0547"/><text fill="#000000" font-family="sans-serif" font-size="13" lengthAdjust="spacing" textLength="190" x="383.5" y="758.9888">Individual Data /persist_topic</text><polygon fill="#454645" points="742.5,789.1875,752.5,793.1875,742.5,797.1875,746.5,793.1875" style="stroke:#454645;stroke-width:1.0;"/><line style="stroke:#454645;stroke-width:1.0;" x1="376.5" x2="748.5" y1="793.1875" y2="793.1875"/><text fill="#000000" font-family="sans-serif" font-size="13" lengthAdjust="spacing" textLength="359" x="383.5" y="788.1216">Put Individual Data against serverGeneratedId in cache</text><path d="M933,845.1875 L1016.5,845.1875 L1016.5,852.3203 L1006.5,862.3203 L929.5,862.3203 L929.5,848.6875 A3.5,3.5 0 0 1 933,845.1875 " fill="#EEEEEE" style="stroke:#696969;stroke-width:1.5;"/><rect fill="none" height="193.6641" rx="3.5" ry="3.5" style="stroke:#696969;stroke-width:1.0;" width="919" x="929.5" y="845.1875"/><text fill="#454645" font-family="sans-serif" font-size="13" font-weight="bold" lengthAdjust="spacing" textLength="42" x="944.5" y="858.2544">async</text><polygon fill="#454645" points="985.5,879.4531,975.5,883.4531,985.5,887.4531,981.5,883.4531" style="stroke:#454645;stroke-width:1.0;"/><line style="stroke:#454645;stroke-width:1.0;" x1="979.5" x2="1156.5" y1="883.4531" y2="883.4531"/><text fill="#000000" font-family="sans-serif" font-size="13" lengthAdjust="spacing" textLength="164" x="991.5" y="878.3872">Consume Individual Data</text><polygon fill="#454645" points="985.5,908.5859,975.5,912.5859,985.5,916.5859,981.5,912.5859" style="stroke:#454645;stroke-width:1.0;"/><line style="stroke:#454645;stroke-width:1.0;" x1="979.5" x2="1291" y1="912.5859" y2="912.5859"/><text fill="#000000" font-family="sans-serif" font-size="13" lengthAdjust="spacing" textLength="164" x="991.5" y="907.52">Consume Individual Data</text><polygon fill="#454645" points="1518.5,937.7188,1528.5,941.7188,1518.5,945.7188,1522.5,941.7188" style="stroke:#454645;stroke-width:1.0;"/><line style="stroke:#454645;stroke-width:1.0;" x1="1302" x2="1524.5" y1="941.7188" y2="941.7188"/><text fill="#000000" font-family="sans-serif" font-size="13" lengthAdjust="spacing" textLength="137" x="1309" y="936.6528">Store Individual Data</text><polygon fill="#454645" points="1784.5,996.8516,1794.5,1000.8516,1784.5,1004.8516,1788.5,1000.8516" style="stroke:#454645;stroke-width:1.0;"/><line style="stroke:#454645;stroke-width:1.0;" x1="1167.5" x2="1790.5" y1="1000.8516" y2="1000.8516"/><text fill="#000000" font-family="sans-serif" font-size="13" lengthAdjust="spacing" textLength="147" x="1174.5" y="995.7856">Persist Individual Data</text><!--SRC=[jLLDRzim3BtxLt0_e4XMxEJ3W2v9ss1RLoJThW4jCR5WLVOasKt-_IX_nNQARZtCbqZKUnJvI35UUKsmDb9LIfQeuGg-b3g3XINq57tmAJqJL2gnQ7nKeFLAg8BNiD2A-0STY97zx6j31-MyFGMC6s4s99LRe4WfdDc9W-KTcItPIedwMCa3cUXtIIN1Lznd68pPYF98rl5LP0UqmhffN7GS8PGyZX0hQ_FXEOqTh3Gwtcm9hKZhSpqwlqSZDTLElfDFSnamAKKIFIRe29RTWkqoYGHSVGO7CSnKBzci-ZXBMF_PJZG5Y51uLV6A5NI186AuzxxOUlIbY-5wVWqe11MUP0DWuo_KIWQE9PRDUKXoUOfG-zvGDGYL6zYZqYu2_ZhwvdKGNz2ZKef1eDQGdfE-5A36zmcm564lQMenEQyrxNsz2zzJgXoyAFQV43oZpQWMipIMH5wHnOIRrgf3olttWYVeYHn1dQEoWMT2Gol3VL5ngt8UDOuO4wwCU16zaRChMLVdzgMEQksK16v4ldmWsrcHkaj3BULiry9ed7_Jny5KhzgBXyNyD9zF9Mf8_q7uzoa_r3retECxg2Ll5MCrkxUl-cv2NUIICrWlTtUhXzNcvcdzus5tUxF-jbfEQgCTJHGVrEDWyxAuqAOjmLshFj_oBmNeuBB3NwW_V1i_Y_fX7GOaxh3X00sl_4p9ukaPp8fcMkryNYWn3Z4xCos_zCVINz3nWCfmfxhGrRQFVYr372BCrB5BAwPPiIMq_i3YMaNHdKm3v-dPXh_8ZIkVwTKKUmTXs3R27jz32nDuG2CTmzRdzYyidhkJZ2ujdUSs3vd4tP_4sxvvBayyNLf2ia70YOZP7m00]--></g></svg>