<?xml version="1.0" encoding="UTF-8" standalone="no"?><svg xmlns="http://www.w3.org/2000/svg" xmlns:xlink="http://www.w3.org/1999/xlink" contentStyleType="text/css" height="1213px" preserveAspectRatio="none" style="width:2339px;height:1213px;background:#FFFFFF;" version="1.1" viewBox="0 0 2339 1213" width="2339px" zoomAndPan="magnify"><defs/><g><text fill="#000000" font-family="sans-serif" font-size="14" font-weight="bold" lengthAdjust="spacing" textLength="269" x="1036.5" y="27.9951">Household Member - Bulk Update</text><rect fill="#FFFFFF" height="766.9219" style="stroke:#696969;stroke-width:1.0;" width="10" x="627.5" y="135.7266"/><rect fill="#FFFFFF" height="30" style="stroke:#696969;stroke-width:1.0;" width="10" x="1132.5" y="872.6484"/><rect fill="#FFFFFF" height="141.5313" style="stroke:#696969;stroke-width:1.0;" width="10" x="1221.5" y="843.5156"/><rect fill="#FFFFFF" height="147.3984" style="stroke:#696969;stroke-width:1.0;" width="10" x="1476.5" y="955.9141"/><rect fill="#FFFFFF" height="59.1328" style="stroke:#696969;stroke-width:1.0;" width="10" x="1611" y="985.0469"/><rect fill="#FFFFFF" height="30" style="stroke:#696969;stroke-width:1.0;" width="10" x="1849.5" y="1014.1797"/><rect fill="#FFFFFF" height="29.1328" style="stroke:#696969;stroke-width:1.0;" width="10" x="1951.5" y="434.9219"/><rect fill="#FFFFFF" height="29.1328" style="stroke:#696969;stroke-width:1.0;" width="10" x="1951.5" y="550.4531"/><rect fill="#FFFFFF" height="30" style="stroke:#696969;stroke-width:1.0;" width="10" x="1951.5" y="1073.3125"/><rect fill="none" height="94.3984" rx="3.5" ry="3.5" style="stroke:#696969;stroke-width:1.0;" width="810.5" x="9" y="192.8594"/><rect fill="none" height="745.7891" rx="3.5" ry="3.5" style="stroke:#696969;stroke-width:1.0;" width="2055" x="278" y="372.5234"/><rect fill="none" height="125.6641" rx="3.5" ry="3.5" style="stroke:#696969;stroke-width:1.0;" width="2035" x="288" y="396.6563"/><rect fill="none" height="136.5313" rx="3.5" ry="3.5" style="stroke:#696969;stroke-width:1.0;" width="1748.5" x="419" y="594.5859"/><rect fill="none" height="193.6641" rx="3.5" ry="3.5" style="stroke:#696969;stroke-width:1.0;" width="817" x="1186.5" y="917.6484"/><line style="stroke:#696969;stroke-width:0.5;stroke-dasharray:5.0,5.0;" x1="321" x2="321" y1="104.5938" y2="1135.3125"/><line style="stroke:#696969;stroke-width:0.5;stroke-dasharray:5.0,5.0;" x1="632.5" x2="632.5" y1="104.5938" y2="1135.3125"/><line style="stroke:#696969;stroke-width:0.5;stroke-dasharray:5.0,5.0;" x1="1137.5" x2="1137.5" y1="104.5938" y2="1135.3125"/><line style="stroke:#696969;stroke-width:0.5;stroke-dasharray:5.0,5.0;" x1="1226.5" x2="1226.5" y1="104.5938" y2="1135.3125"/><line style="stroke:#696969;stroke-width:0.5;stroke-dasharray:5.0,5.0;" x1="1481.5" x2="1481.5" y1="104.5938" y2="1135.3125"/><line style="stroke:#696969;stroke-width:0.5;stroke-dasharray:5.0,5.0;" x1="1615.5" x2="1615.5" y1="104.5938" y2="1135.3125"/><line style="stroke:#696969;stroke-width:0.5;stroke-dasharray:5.0,5.0;" x1="1737.5" x2="1737.5" y1="104.5938" y2="1135.3125"/><line style="stroke:#696969;stroke-width:0.5;stroke-dasharray:5.0,5.0;" x1="1854.5" x2="1854.5" y1="104.5938" y2="1135.3125"/><line style="stroke:#696969;stroke-width:0.5;stroke-dasharray:5.0,5.0;" x1="1956.5" x2="1956.5" y1="104.5938" y2="1135.3125"/><line style="stroke:#696969;stroke-width:0.5;stroke-dasharray:5.0,5.0;" x1="2080.5" x2="2080.5" y1="104.5938" y2="1135.3125"/><rect fill="#FF6347" height="30.2969" rx="3.5" ry="3.5" style="stroke:#454645;stroke-width:1.5;" width="55" x="294" y="73.2969"/><text fill="#FFFFFF" font-family="sans-serif" font-size="14" lengthAdjust="spacing" textLength="41" x="301" y="93.292">Client</text><rect fill="#FF6347" height="30.2969" rx="3.5" ry="3.5" style="stroke:#454645;stroke-width:1.5;" width="55" x="294" y="1134.3125"/><text fill="#FFFFFF" font-family="sans-serif" font-size="14" lengthAdjust="spacing" textLength="41" x="301" y="1154.3076">Client</text><rect fill="#FF6347" height="30.2969" rx="3.5" ry="3.5" style="stroke:#454645;stroke-width:1.5;" width="148" x="558.5" y="73.2969"/><text fill="#FFFFFF" font-family="sans-serif" font-size="14" lengthAdjust="spacing" textLength="134" x="565.5" y="93.292">HouseholdRegistry</text><rect fill="#FF6347" height="30.2969" rx="3.5" ry="3.5" style="stroke:#454645;stroke-width:1.5;" width="148" x="558.5" y="1134.3125"/><text fill="#FFFFFF" font-family="sans-serif" font-size="14" lengthAdjust="spacing" textLength="134" x="565.5" y="1154.3076">HouseholdRegistry</text><rect fill="#FF6347" height="30.2969" rx="3.5" ry="3.5" style="stroke:#454645;stroke-width:1.5;" width="98" x="1088.5" y="73.2969"/><text fill="#FFFFFF" font-family="sans-serif" font-size="14" lengthAdjust="spacing" textLength="84" x="1095.5" y="93.292">RedisCache</text><rect fill="#FF6347" height="30.2969" rx="3.5" ry="3.5" style="stroke:#454645;stroke-width:1.5;" width="98" x="1088.5" y="1134.3125"/><text fill="#FFFFFF" font-family="sans-serif" font-size="14" lengthAdjust="spacing" textLength="84" x="1095.5" y="1154.3076">RedisCache</text><path d="M1201.5,78.2969 L1251.5,78.2969 C1256.5,78.2969 1256.5,91.4453 1256.5,91.4453 C1256.5,91.4453 1256.5,104.5938 1251.5,104.5938 L1201.5,104.5938 C1196.5,104.5938 1196.5,91.4453 1196.5,91.4453 C1196.5,91.4453 1196.5,78.2969 1201.5,78.2969 " fill="#FF6347" style="stroke:#454645;stroke-width:1.5;"/><path d="M1251.5,78.2969 C1246.5,78.2969 1246.5,91.4453 1246.5,91.4453 C1246.5,104.5938 1251.5,104.5938 1251.5,104.5938 " fill="none" style="stroke:#454645;stroke-width:1.5;"/><text fill="#FFFFFF" font-family="sans-serif" font-size="14" lengthAdjust="spacing" textLength="40" x="1201.5" y="96.292">Kafka</text><path d="M1201.5,1134.3125 L1251.5,1134.3125 C1256.5,1134.3125 1256.5,1147.4609 1256.5,1147.4609 C1256.5,1147.4609 1256.5,1160.6094 1251.5,1160.6094 L1201.5,1160.6094 C1196.5,1160.6094 1196.5,1147.4609 1196.5,1147.4609 C1196.5,1147.4609 1196.5,1134.3125 1201.5,1134.3125 " fill="#FF6347" style="stroke:#454645;stroke-width:1.5;"/><path d="M1251.5,1134.3125 C1246.5,1134.3125 1246.5,1147.4609 1246.5,1147.4609 C1246.5,1160.6094 1251.5,1160.6094 1251.5,1160.6094 " fill="none" style="stroke:#454645;stroke-width:1.5;"/><text fill="#FFFFFF" font-family="sans-serif" font-size="14" lengthAdjust="spacing" textLength="40" x="1201.5" y="1152.3076">Kafka</text><rect fill="#FF6347" height="30.2969" rx="3.5" ry="3.5" style="stroke:#454645;stroke-width:1.5;" width="128" x="1417.5" y="73.2969"/><text fill="#FFFFFF" font-family="sans-serif" font-size="14" lengthAdjust="spacing" textLength="114" x="1424.5" y="93.292">PersisterService</text><rect fill="#FF6347" height="30.2969" rx="3.5" ry="3.5" style="stroke:#454645;stroke-width:1.5;" width="128" x="1417.5" y="1134.3125"/><text fill="#FFFFFF" font-family="sans-serif" font-size="14" lengthAdjust="spacing" textLength="114" x="1424.5" y="1154.3076">PersisterService</text><rect fill="#FF6347" height="30.2969" rx="3.5" ry="3.5" style="stroke:#454645;stroke-width:1.5;" width="121" x="1555.5" y="73.2969"/><text fill="#FFFFFF" font-family="sans-serif" font-size="14" lengthAdjust="spacing" textLength="107" x="1562.5" y="93.292">IndexerService</text><rect fill="#FF6347" height="30.2969" rx="3.5" ry="3.5" style="stroke:#454645;stroke-width:1.5;" width="121" x="1555.5" y="1134.3125"/><text fill="#FFFFFF" font-family="sans-serif" font-size="14" lengthAdjust="spacing" textLength="107" x="1562.5" y="1154.3076">IndexerService</text><rect fill="#FF6347" height="30.2969" rx="3.5" ry="3.5" style="stroke:#454645;stroke-width:1.5;" width="103" x="1686.5" y="73.2969"/><text fill="#FFFFFF" font-family="sans-serif" font-size="14" lengthAdjust="spacing" textLength="89" x="1693.5" y="93.292">ErrorService</text><rect fill="#FF6347" height="30.2969" rx="3.5" ry="3.5" style="stroke:#454645;stroke-width:1.5;" width="103" x="1686.5" y="1134.3125"/><text fill="#FFFFFF" font-family="sans-serif" font-size="14" lengthAdjust="spacing" textLength="89" x="1693.5" y="1154.3076">ErrorService</text><rect fill="#FF6347" height="30.2969" rx="3.5" ry="3.5" style="stroke:#454645;stroke-width:1.5;" width="110" x="1799.5" y="73.2969"/><text fill="#FFFFFF" font-family="sans-serif" font-size="14" lengthAdjust="spacing" textLength="96" x="1806.5" y="93.292">ElasticSearch</text><rect fill="#FF6347" height="30.2969" rx="3.5" ry="3.5" style="stroke:#454645;stroke-width:1.5;" width="110" x="1799.5" y="1134.3125"/><text fill="#FFFFFF" font-family="sans-serif" font-size="14" lengthAdjust="spacing" textLength="96" x="1806.5" y="1154.3076">ElasticSearch</text><text fill="#454645" font-family="sans-serif" font-size="14" lengthAdjust="spacing" textLength="68" x="1919.5" y="101.292">Database</text><path d="M1938.5,52.2969 C1938.5,42.2969 1956.5,42.2969 1956.5,42.2969 C1956.5,42.2969 1974.5,42.2969 1974.5,52.2969 L1974.5,78.2969 C1974.5,88.2969 1956.5,88.2969 1956.5,88.2969 C1956.5,88.2969 1938.5,88.2969 1938.5,78.2969 L1938.5,52.2969 " fill="#00FFFF" style="stroke:#454645;stroke-width:1.5;"/><path d="M1938.5,52.2969 C1938.5,62.2969 1956.5,62.2969 1956.5,62.2969 C1956.5,62.2969 1974.5,62.2969 1974.5,52.2969 " fill="none" style="stroke:#454645;stroke-width:1.5;"/><text fill="#454645" font-family="sans-serif" font-size="14" lengthAdjust="spacing" textLength="68" x="1919.5" y="1147.3076">Database</text><path d="M1938.5,1160.6094 C1938.5,1150.6094 1956.5,1150.6094 1956.5,1150.6094 C1956.5,1150.6094 1974.5,1150.6094 1974.5,1160.6094 L1974.5,1186.6094 C1974.5,1196.6094 1956.5,1196.6094 1956.5,1196.6094 C1956.5,1196.6094 1938.5,1196.6094 1938.5,1186.6094 L1938.5,1160.6094 " fill="#00FFFF" style="stroke:#454645;stroke-width:1.5;"/><path d="M1938.5,1160.6094 C1938.5,1170.6094 1956.5,1170.6094 1956.5,1170.6094 C1956.5,1170.6094 1974.5,1170.6094 1974.5,1160.6094 " fill="none" style="stroke:#454645;stroke-width:1.5;"/><rect fill="#FF6347" height="30.2969" rx="3.5" ry="3.5" style="stroke:#454645;stroke-width:1.5;" width="154" x="2003.5" y="73.2969"/><text fill="#FFFFFF" font-family="sans-serif" font-size="14" lengthAdjust="spacing" textLength="140" x="2010.5" y="93.292">HandleErrorMethod</text><rect fill="#FF6347" height="30.2969" rx="3.5" ry="3.5" style="stroke:#454645;stroke-width:1.5;" width="154" x="2003.5" y="1134.3125"/><text fill="#FFFFFF" font-family="sans-serif" font-size="14" lengthAdjust="spacing" textLength="140" x="2010.5" y="1154.3076">HandleErrorMethod</text><rect fill="#FFFFFF" height="766.9219" style="stroke:#696969;stroke-width:1.0;" width="10" x="627.5" y="135.7266"/><rect fill="#FFFFFF" height="30" style="stroke:#696969;stroke-width:1.0;" width="10" x="1132.5" y="872.6484"/><rect fill="#FFFFFF" height="141.5313" style="stroke:#696969;stroke-width:1.0;" width="10" x="1221.5" y="843.5156"/><rect fill="#FFFFFF" height="147.3984" style="stroke:#696969;stroke-width:1.0;" width="10" x="1476.5" y="955.9141"/><rect fill="#FFFFFF" height="59.1328" style="stroke:#696969;stroke-width:1.0;" width="10" x="1611" y="985.0469"/><rect fill="#FFFFFF" height="30" style="stroke:#696969;stroke-width:1.0;" width="10" x="1849.5" y="1014.1797"/><rect fill="#FFFFFF" height="29.1328" style="stroke:#696969;stroke-width:1.0;" width="10" x="1951.5" y="434.9219"/><rect fill="#FFFFFF" height="29.1328" style="stroke:#696969;stroke-width:1.0;" width="10" x="1951.5" y="550.4531"/><rect fill="#FFFFFF" height="30" style="stroke:#696969;stroke-width:1.0;" width="10" x="1951.5" y="1073.3125"/><polygon fill="#454645" points="615.5,131.7266,625.5,135.7266,615.5,139.7266,619.5,135.7266" style="stroke:#454645;stroke-width:1.0;"/><line style="stroke:#454645;stroke-width:1.0;" x1="321.5" x2="621.5" y1="135.7266" y2="135.7266"/><text fill="#000000" font-family="sans-serif" font-size="13" lengthAdjust="spacing" textLength="238" x="328.5" y="130.6606">/household/member/v1/bulk/_update</text><line style="stroke:#454645;stroke-width:1.0;" x1="637.5" x2="679.5" y1="164.8594" y2="164.8594"/><line style="stroke:#454645;stroke-width:1.0;" x1="679.5" x2="679.5" y1="164.8594" y2="177.8594"/><line style="stroke:#454645;stroke-width:1.0;" x1="638.5" x2="679.5" y1="177.8594" y2="177.8594"/><polygon fill="#454645" points="648.5,173.8594,638.5,177.8594,648.5,181.8594,644.5,177.8594" style="stroke:#454645;stroke-width:1.0;"/><text fill="#000000" font-family="sans-serif" font-size="13" lengthAdjust="spacing" textLength="143" x="644.5" y="159.7935">Validate request body</text><path d="M12.5,192.8594 L73,192.8594 L73,199.9922 L63,209.9922 L9,209.9922 L9,196.3594 A3.5,3.5 0 0 1 12.5,192.8594 " fill="#EEEEEE" style="stroke:#696969;stroke-width:1.5;"/><rect fill="none" height="94.3984" rx="3.5" ry="3.5" style="stroke:#696969;stroke-width:1.0;" width="810.5" x="9" y="192.8594"/><text fill="#454645" font-family="sans-serif" font-size="13" font-weight="bold" lengthAdjust="spacing" textLength="19" x="24" y="205.9263">alt</text><text fill="#696969" font-family="sans-serif" font-size="11" font-weight="bold" lengthAdjust="spacing" textLength="154" x="88" y="205.0698">[request validation fails]</text><line style="stroke:#454645;stroke-width:1.0;" x1="637.5" x2="679.5" y1="231.125" y2="231.125"/><line style="stroke:#454645;stroke-width:1.0;" x1="679.5" x2="679.5" y1="231.125" y2="244.125"/><line style="stroke:#454645;stroke-width:1.0;" x1="638.5" x2="679.5" y1="244.125" y2="244.125"/><polygon fill="#454645" points="648.5,240.125,638.5,244.125,648.5,248.125,644.5,244.125" style="stroke:#454645;stroke-width:1.0;"/><text fill="#000000" font-family="sans-serif" font-size="13" lengthAdjust="spacing" textLength="163" x="644.5" y="226.0591">Request validation failed</text><polygon fill="#454645" points="332.5,272.2578,322.5,276.2578,332.5,280.2578,328.5,276.2578" style="stroke:#454645;stroke-width:1.0;"/><line style="stroke:#454645;stroke-width:1.0;" x1="326.5" x2="626.5" y1="276.2578" y2="276.2578"/><text fill="#000000" font-family="sans-serif" font-size="13" lengthAdjust="spacing" textLength="282" x="338.5" y="271.1919">HttpStatus: 400 with appropriate error code</text><path d="M19,260.625 L19,278.625 A3.5,3.5 0 0 0 22.5,282.125 L312.5,282.125 A3.5,3.5 0 0 0 316,278.625 L316,267.125 L306,257.125 L22.5,257.125 A3.5,3.5 0 0 0 19,260.625 " fill="#7FFFD4" style="stroke:#454645;stroke-width:1.5;"/><path d="M306,257.125 L306,265.375 A1.75,1.75 0 0 0 307.75,267.125 L316,267.125 L306,257.125 " fill="#7FFFD4" style="stroke:#454645;stroke-width:1.5;"/><text fill="#454645" font-family="sans-serif" font-size="13" lengthAdjust="spacing" textLength="276" x="25" y="274.1919">Error Code: REQUEST_VALIDATION_FAILED</text><line style="stroke:#454645;stroke-width:1.0;" x1="637.5" x2="679.5" y1="315.3906" y2="315.3906"/><line style="stroke:#454645;stroke-width:1.0;" x1="679.5" x2="679.5" y1="315.3906" y2="328.3906"/><line style="stroke:#454645;stroke-width:1.0;" x1="638.5" x2="679.5" y1="328.3906" y2="328.3906"/><polygon fill="#454645" points="648.5,324.3906,638.5,328.3906,648.5,332.3906,644.5,328.3906" style="stroke:#454645;stroke-width:1.0;"/><text fill="#000000" font-family="sans-serif" font-size="13" lengthAdjust="spacing" textLength="194" x="644.5" y="310.3247">Request validation successful</text><polygon fill="#454645" points="332.5,353.5234,322.5,357.5234,332.5,361.5234,328.5,357.5234" style="stroke:#454645;stroke-width:1.0;"/><line style="stroke:#454645;stroke-width:1.0;" x1="326.5" x2="626.5" y1="357.5234" y2="357.5234"/><text fill="#000000" font-family="sans-serif" font-size="13" lengthAdjust="spacing" textLength="174" x="338.5" y="352.4575">HttpStatus: 202 ACCEPTED</text><path d="M281.5,372.5234 L354,372.5234 L354,379.6563 L344,389.6563 L278,389.6563 L278,376.0234 A3.5,3.5 0 0 1 281.5,372.5234 " fill="#EEEEEE" style="stroke:#696969;stroke-width:1.5;"/><rect fill="none" height="745.7891" rx="3.5" ry="3.5" style="stroke:#696969;stroke-width:1.0;" width="2055" x="278" y="372.5234"/><text fill="#454645" font-family="sans-serif" font-size="13" font-weight="bold" lengthAdjust="spacing" textLength="31" x="293" y="385.5903">loop</text><text fill="#696969" font-family="sans-serif" font-size="11" font-weight="bold" lengthAdjust="spacing" textLength="114" x="369" y="384.7339">[for each member]</text><path d="M291.5,396.6563 L352,396.6563 L352,403.7891 L342,413.7891 L288,413.7891 L288,400.1563 A3.5,3.5 0 0 1 291.5,396.6563 " fill="#EEEEEE" style="stroke:#696969;stroke-width:1.5;"/><rect fill="none" height="125.6641" rx="3.5" ry="3.5" style="stroke:#696969;stroke-width:1.0;" width="2035" x="288" y="396.6563"/><text fill="#454645" font-family="sans-serif" font-size="13" font-weight="bold" lengthAdjust="spacing" textLength="19" x="303" y="409.7231">alt</text><text fill="#696969" font-family="sans-serif" font-size="11" font-weight="bold" lengthAdjust="spacing" textLength="192" x="367" y="408.8667">[mapping record doesn't exist]</text><polygon fill="#454645" points="1939.5,430.9219,1949.5,434.9219,1939.5,438.9219,1943.5,434.9219" style="stroke:#454645;stroke-width:1.0;"/><line style="stroke:#454645;stroke-width:1.0;" x1="637.5" x2="1945.5" y1="434.9219" y2="434.9219"/><text fill="#000000" font-family="sans-serif" font-size="13" lengthAdjust="spacing" textLength="674" x="644.5" y="429.856">Get Individual/Household mapping using household and individual clientReferenceId/serverGeneratedId</text><polygon fill="#454645" points="648.5,460.0547,638.5,464.0547,648.5,468.0547,644.5,464.0547" style="stroke:#454645;stroke-width:1.0;"/><line style="stroke:#454645;stroke-width:1.0;" x1="642.5" x2="1955.5" y1="464.0547" y2="464.0547"/><text fill="#000000" font-family="sans-serif" font-size="13" lengthAdjust="spacing" textLength="43" x="654.5" y="458.9888">0 rows</text><polygon fill="#454645" points="2068.5,510.3203,2078.5,514.3203,2068.5,518.3203,2072.5,514.3203" style="stroke:#454645;stroke-width:1.0;"/><line style="stroke:#454645;stroke-width:1.0;" x1="637.5" x2="2074.5" y1="514.3203" y2="514.3203"/><text fill="#000000" font-family="sans-serif" font-size="13" lengthAdjust="spacing" textLength="231" x="644.5" y="509.2544">call handleError HandleErrorMethod</text><path d="M298,480.5547 L298,513.5547 A3.5,3.5 0 0 0 301.5,517.0547 L618.5,517.0547 A3.5,3.5 0 0 0 622,513.5547 L622,487.0547 L612,477.0547 L301.5,477.0547 A3.5,3.5 0 0 0 298,480.5547 " fill="#7FFFD4" style="stroke:#454645;stroke-width:1.5;"/><path d="M612,477.0547 L612,485.3047 A1.75,1.75 0 0 0 613.75,487.0547 L622,487.0547 L612,477.0547 " fill="#7FFFD4" style="stroke:#454645;stroke-width:1.5;"/><text fill="#454645" font-family="sans-serif" font-size="13" lengthAdjust="spacing" textLength="303" x="304" y="494.1216">This will be marked as recoverable and will be</text><text fill="#454645" font-family="sans-serif" font-size="13" lengthAdjust="spacing" textLength="77" x="304" y="509.2544">retried later</text><path d="M384,488.1211 L384,506.1211 A3.5,3.5 0 0 0 387.5,509.6211 L618.5,509.6211 A3.5,3.5 0 0 0 622,506.1211 L622,494.6211 L612,484.6211 L387.5,484.6211 A3.5,3.5 0 0 0 384,488.1211 " fill="#7FFFD4" style="stroke:#454645;stroke-width:1.5;"/><path d="M612,484.6211 L612,492.8711 A1.75,1.75 0 0 0 613.75,494.6211 L622,494.6211 L612,484.6211 " fill="#7FFFD4" style="stroke:#454645;stroke-width:1.5;"/><text fill="#454645" font-family="sans-serif" font-size="13" lengthAdjust="spacing" textLength="217" x="390" y="501.688">Error Code: DEPENDENCY_ERROR</text><polygon fill="#454645" points="1939.5,546.4531,1949.5,550.4531,1939.5,554.4531,1943.5,550.4531" style="stroke:#454645;stroke-width:1.0;"/><line style="stroke:#454645;stroke-width:1.0;" x1="637.5" x2="1945.5" y1="550.4531" y2="550.4531"/><text fill="#000000" font-family="sans-serif" font-size="13" lengthAdjust="spacing" textLength="674" x="644.5" y="545.3872">Get Individual/Household mapping using household and individual clientReferenceId/serverGeneratedId</text><polygon fill="#454645" points="648.5,575.5859,638.5,579.5859,648.5,583.5859,644.5,579.5859" style="stroke:#454645;stroke-width:1.0;"/><line style="stroke:#454645;stroke-width:1.0;" x1="642.5" x2="1955.5" y1="579.5859" y2="579.5859"/><text fill="#000000" font-family="sans-serif" font-size="13" lengthAdjust="spacing" textLength="36" x="654.5" y="574.52">1 row</text><path d="M422.5,594.5859 L483,594.5859 L483,601.7188 L473,611.7188 L419,611.7188 L419,598.0859 A3.5,3.5 0 0 1 422.5,594.5859 " fill="#EEEEEE" style="stroke:#696969;stroke-width:1.5;"/><rect fill="none" height="136.5313" rx="3.5" ry="3.5" style="stroke:#696969;stroke-width:1.0;" width="1748.5" x="419" y="594.5859"/><text fill="#454645" font-family="sans-serif" font-size="13" font-weight="bold" lengthAdjust="spacing" textLength="19" x="434" y="607.6528">alt</text><text fill="#696969" font-family="sans-serif" font-size="11" font-weight="bold" lengthAdjust="spacing" textLength="141" x="498" y="606.7964">[incorrect rowVersion]</text><line style="stroke:#454645;stroke-width:1.0;" x1="637.5" x2="679.5" y1="632.8516" y2="632.8516"/><line style="stroke:#454645;stroke-width:1.0;" x1="679.5" x2="679.5" y1="632.8516" y2="645.8516"/><line style="stroke:#454645;stroke-width:1.0;" x1="638.5" x2="679.5" y1="645.8516" y2="645.8516"/><polygon fill="#454645" points="648.5,641.8516,638.5,645.8516,648.5,649.8516,644.5,645.8516" style="stroke:#454645;stroke-width:1.0;"/><text fill="#000000" font-family="sans-serif" font-size="13" lengthAdjust="spacing" textLength="297" x="644.5" y="627.7856">Compare rowVersion between request and db</text><line style="stroke:#454645;stroke-width:1.0;" x1="637.5" x2="679.5" y1="674.9844" y2="674.9844"/><line style="stroke:#454645;stroke-width:1.0;" x1="679.5" x2="679.5" y1="674.9844" y2="687.9844"/><line style="stroke:#454645;stroke-width:1.0;" x1="638.5" x2="679.5" y1="687.9844" y2="687.9844"/><polygon fill="#454645" points="648.5,683.9844,638.5,687.9844,648.5,691.9844,644.5,687.9844" style="stroke:#454645;stroke-width:1.0;"/><text fill="#000000" font-family="sans-serif" font-size="13" lengthAdjust="spacing" textLength="323" x="644.5" y="669.9185">Incorrect rowVersion [request: should be +1 only]</text><polygon fill="#454645" points="2068.5,716.1172,2078.5,720.1172,2068.5,724.1172,2072.5,720.1172" style="stroke:#454645;stroke-width:1.0;"/><line style="stroke:#454645;stroke-width:1.0;" x1="637.5" x2="2074.5" y1="720.1172" y2="720.1172"/><text fill="#000000" font-family="sans-serif" font-size="13" lengthAdjust="spacing" textLength="171" x="644.5" y="715.0513">Call to HandleErrorMethod</text><path d="M429,704.4844 L429,722.4844 A3.5,3.5 0 0 0 432.5,725.9844 L618.5,725.9844 A3.5,3.5 0 0 0 622,722.4844 L622,710.9844 L612,700.9844 L432.5,700.9844 A3.5,3.5 0 0 0 429,704.4844 " fill="#7FFFD4" style="stroke:#454645;stroke-width:1.5;"/><path d="M612,700.9844 L612,709.2344 A1.75,1.75 0 0 0 613.75,710.9844 L622,710.9844 L612,700.9844 " fill="#7FFFD4" style="stroke:#454645;stroke-width:1.5;"/><text fill="#454645" font-family="sans-serif" font-size="13" lengthAdjust="spacing" textLength="172" x="435" y="718.0513">Error Code: BAD_REQUEST</text><line style="stroke:#454645;stroke-width:1.0;" x1="637.5" x2="679.5" y1="759.25" y2="759.25"/><line style="stroke:#454645;stroke-width:1.0;" x1="679.5" x2="679.5" y1="759.25" y2="772.25"/><line style="stroke:#454645;stroke-width:1.0;" x1="638.5" x2="679.5" y1="772.25" y2="772.25"/><polygon fill="#454645" points="648.5,768.25,638.5,772.25,648.5,776.25,644.5,772.25" style="stroke:#454645;stroke-width:1.0;"/><text fill="#000000" font-family="sans-serif" font-size="13" lengthAdjust="spacing" textLength="297" x="644.5" y="754.1841">Compare rowVersion between request and db</text><line style="stroke:#454645;stroke-width:1.0;" x1="637.5" x2="679.5" y1="801.3828" y2="801.3828"/><line style="stroke:#454645;stroke-width:1.0;" x1="679.5" x2="679.5" y1="801.3828" y2="814.3828"/><line style="stroke:#454645;stroke-width:1.0;" x1="638.5" x2="679.5" y1="814.3828" y2="814.3828"/><polygon fill="#454645" points="648.5,810.3828,638.5,814.3828,648.5,818.3828,644.5,814.3828" style="stroke:#454645;stroke-width:1.0;"/><text fill="#000000" font-family="sans-serif" font-size="13" lengthAdjust="spacing" textLength="297" x="644.5" y="796.3169">rowVersion in request = rowVersion in db + 1</text><polygon fill="#454645" points="1209.5,839.5156,1219.5,843.5156,1209.5,847.5156,1213.5,843.5156" style="stroke:#454645;stroke-width:1.0;"/><line style="stroke:#454645;stroke-width:1.0;" x1="637.5" x2="1215.5" y1="843.5156" y2="843.5156"/><text fill="#000000" font-family="sans-serif" font-size="13" lengthAdjust="spacing" textLength="253" x="644.5" y="838.4497">Household Member Data /update_topic</text><polygon fill="#454645" points="1120.5,868.6484,1130.5,872.6484,1120.5,876.6484,1124.5,872.6484" style="stroke:#454645;stroke-width:1.0;"/><line style="stroke:#454645;stroke-width:1.0;" x1="637.5" x2="1126.5" y1="872.6484" y2="872.6484"/><text fill="#000000" font-family="sans-serif" font-size="13" lengthAdjust="spacing" textLength="476" x="644.5" y="867.5825">Update new record in cache against clientReferenceId/serverGeneratedId</text><path d="M1190,917.6484 L1273.5,917.6484 L1273.5,924.7813 L1263.5,934.7813 L1186.5,934.7813 L1186.5,921.1484 A3.5,3.5 0 0 1 1190,917.6484 " fill="#EEEEEE" style="stroke:#696969;stroke-width:1.5;"/><rect fill="none" height="193.6641" rx="3.5" ry="3.5" style="stroke:#696969;stroke-width:1.0;" width="817" x="1186.5" y="917.6484"/><text fill="#454645" font-family="sans-serif" font-size="13" font-weight="bold" lengthAdjust="spacing" textLength="42" x="1201.5" y="930.7153">async</text><polygon fill="#454645" points="1242.5,951.9141,1232.5,955.9141,1242.5,959.9141,1238.5,955.9141" style="stroke:#454645;stroke-width:1.0;"/><line style="stroke:#454645;stroke-width:1.0;" x1="1236.5" x2="1475.5" y1="955.9141" y2="955.9141"/><text fill="#000000" font-family="sans-serif" font-size="13" lengthAdjust="spacing" textLength="226" x="1248.5" y="950.8481">Consume Household Member Data</text><polygon fill="#454645" points="1237.5,981.0469,1227.5,985.0469,1237.5,989.0469,1233.5,985.0469" style="stroke:#454645;stroke-width:1.0;"/><line style="stroke:#454645;stroke-width:1.0;" x1="1231.5" x2="1610" y1="985.0469" y2="985.0469"/><text fill="#000000" font-family="sans-serif" font-size="13" lengthAdjust="spacing" textLength="226" x="1243.5" y="979.981">Consume Household Member Data</text><polygon fill="#454645" points="1837.5,1010.1797,1847.5,1014.1797,1837.5,1018.1797,1841.5,1014.1797" style="stroke:#454645;stroke-width:1.0;"/><line style="stroke:#454645;stroke-width:1.0;" x1="1621" x2="1843.5" y1="1014.1797" y2="1014.1797"/><text fill="#000000" font-family="sans-serif" font-size="13" lengthAdjust="spacing" textLength="199" x="1628" y="1009.1138">Store Household Member Data</text><polygon fill="#454645" points="1939.5,1069.3125,1949.5,1073.3125,1939.5,1077.3125,1943.5,1073.3125" style="stroke:#454645;stroke-width:1.0;"/><line style="stroke:#454645;stroke-width:1.0;" x1="1486.5" x2="1945.5" y1="1073.3125" y2="1073.3125"/><text fill="#000000" font-family="sans-serif" font-size="13" lengthAdjust="spacing" textLength="212" x="1493.5" y="1068.2466">Update Household Member Data</text><!--SRC=[lLLDRzim3BthLt2d7OeYRR5JW0r87QyDrgybRO5X609POceXYkH9Sjh- -r6oazXjLdIN1KWYKIH5laUAGGMDS6vhZwNL4YvnLQ23GpYjzHBkAia3iW-Xn1N2MXMEcy0gxe8Igg8rP5eX_N4FeYVVUfpYW_B1FKSLtrEPebG-uwB4UEO4-rrZZV2DBvOyIfOzxHjqdXoXcw5RAv5iAjVtE34IdteQIZxrD7BdRFSS-mvopJrjPiYTADEvPeG0BxX766yM99T5FrjkfCRa_193QMNKAP4n0OTVmCCG1kK6aC4gGJnO7myAmdWmhnkGkGXgJGj2oIUh8TnphU8PE2HiV832ocV6TTWAres6iWOMN6dFW3uRy-b-9PGxBJ64yn2gMU2X9ejFHqVmg0AbNbNELax5op6c1S9AJ7R6aapZ8gGTD912HiTqO_xzBf_Tpkz75vFnw7PoVJN_EffSvEEaYqOcQqOBzaQGlXO2lL_Kcld3Boz2F3awWL6MvJUtv5LRMy62haSg8sY0JVYiA05b7WWdOPq4QT6RZm7mYKg8jRdBOWXdcAf6hPMikHxi-c3ZeFRnTqiU4D6WjWOWKlbFSO4EZS2977WgBdHdQD0HU78ImTvIIsK3zDEcVWJEFaRA9FOrKdWbuIcurb3kYkjreR7NXDoMoXEBP5aWvU6McCenGa6HyOBwFMRHQhH63eDJfAWf2CSwNBrD-3Y_oQ_6-LNsOvvFfzTJje_b_mLq5yGjoCSHPDP7E5Q8CbGPX4c8v_VnSR6crpsPNL6BO-UOq0gFY6RRVJ76HDZEQhB7BVni3ORWAK5AZeWvE0PhzFEldNKaF8k41xkNvxUPE1sDvstx_RtPtf_JngAZgNPAdr_82Uq3E6wCbiFNuoG-dJ1e7hfvi9KIExAMZPcZFc_63HXyt3Gk-HRDX7ZWoj3D_rG7D5CwnDEkk_NimTcwejPuDY91HkEaJI2pnjSht9z8qjswYJCe2cZIlDku4yMoxotEguutr4EO1UlU5GdDgXVENqis_jjKOsUseB_ZWhRKNxvMFKc48rOSVVy0]--></g></svg>