<?xml version="1.0" encoding="UTF-8" standalone="no"?><svg xmlns="http://www.w3.org/2000/svg" xmlns:xlink="http://www.w3.org/1999/xlink" contentStyleType="text/css" height="1779px" preserveAspectRatio="none" style="width:2092px;height:1779px;background:#FFFFFF;" version="1.1" viewBox="0 0 2092 1779" width="2092px" zoomAndPan="magnify"><defs/><g><text fill="#000000" font-family="sans-serif" font-size="14" font-weight="bold" lengthAdjust="spacing" textLength="265" x="915" y="27.9951">Household Member - Bulk Create</text><rect fill="#FFFFFF" height="1314.3125" style="stroke:#696969;stroke-width:1.0;" width="10" x="466.5" y="135.7266"/><rect fill="#FFFFFF" height="29.1328" style="stroke:#696969;stroke-width:1.0;" width="10" x="901.5" y="848.5156"/><rect fill="#FFFFFF" height="29.1328" style="stroke:#696969;stroke-width:1.0;" width="10" x="1031" y="504.1875"/><rect fill="#FFFFFF" height="29.1328" style="stroke:#696969;stroke-width:1.0;" width="10" x="1031" y="606.5859"/><rect fill="#FFFFFF" height="30" style="stroke:#696969;stroke-width:1.0;" width="10" x="1031" y="723.1172"/><rect fill="#FFFFFF" height="30" style="stroke:#696969;stroke-width:1.0;" width="10" x="1031" y="1420.0391"/><rect fill="#FFFFFF" height="311.0625" style="stroke:#696969;stroke-width:1.0;" width="10" x="1120" y="1372.7734"/><rect fill="#FFFFFF" height="147.3984" style="stroke:#696969;stroke-width:1.0;" width="10" x="1375" y="1521.4375"/><rect fill="#FFFFFF" height="59.1328" style="stroke:#696969;stroke-width:1.0;" width="10" x="1509.5" y="1550.5703"/><rect fill="#FFFFFF" height="30" style="stroke:#696969;stroke-width:1.0;" width="10" x="1748" y="1579.7031"/><rect fill="#FFFFFF" height="29.1328" style="stroke:#696969;stroke-width:1.0;" width="10" x="1850" y="664.8516"/><rect fill="#FFFFFF" height="124.5313" style="stroke:#696969;stroke-width:1.0;" width="10" x="1850" y="979.1797"/><rect fill="#FFFFFF" height="29.1328" style="stroke:#696969;stroke-width:1.0;" width="10" x="1850" y="1199.1094"/><rect fill="#FFFFFF" height="30" style="stroke:#696969;stroke-width:1.0;" width="10" x="1850" y="1638.8359"/><rect fill="#FFFFFF" height="30" style="stroke:#696969;stroke-width:1.0;" width="10" x="1974" y="312.957"/><rect fill="none" height="139.5313" rx="3.5" ry="3.5" style="stroke:#696969;stroke-width:1.0;" width="1953" x="113" y="221.9922"/><rect fill="none" height="1266.1797" rx="3.5" ry="3.5" style="stroke:#696969;stroke-width:1.0;" width="2077" x="9" y="417.6563"/><rect fill="none" height="354.4609" rx="3.5" ry="3.5" style="stroke:#696969;stroke-width:1.0;" width="1906" x="170" y="441.7891"/><rect fill="none" height="110.5313" rx="3.5" ry="3.5" style="stroke:#696969;stroke-width:1.0;" width="1886" x="180" y="465.9219"/><rect fill="none" height="140.7969" rx="3.5" ry="3.5" style="stroke:#696969;stroke-width:1.0;" width="1939" x="127" y="810.25"/><rect fill="none" height="81.3984" rx="3.5" ry="3.5" style="stroke:#696969;stroke-width:1.0;" width="2047" x="19" y="994.1797"/><rect fill="none" height="183.7969" rx="3.5" ry="3.5" style="stroke:#696969;stroke-width:1.0;" width="1828" x="248" y="1160.8438"/><rect fill="none" height="94.3984" rx="3.5" ry="3.5" style="stroke:#696969;stroke-width:1.0;" width="1808" x="258" y="1243.2422"/><rect fill="none" height="193.6641" rx="3.5" ry="3.5" style="stroke:#696969;stroke-width:1.0;" width="817" x="1085" y="1483.1719"/><line style="stroke:#696969;stroke-width:0.5;stroke-dasharray:5.0,5.0;" x1="213" x2="213" y1="104.5938" y2="1700.8359"/><line style="stroke:#696969;stroke-width:0.5;stroke-dasharray:5.0,5.0;" x1="471.5" x2="471.5" y1="104.5938" y2="1700.8359"/><line style="stroke:#696969;stroke-width:0.5;stroke-dasharray:5.0,5.0;" x1="906" x2="906" y1="104.5938" y2="1700.8359"/><line style="stroke:#696969;stroke-width:0.5;stroke-dasharray:5.0,5.0;" x1="1036" x2="1036" y1="104.5938" y2="1700.8359"/><line style="stroke:#696969;stroke-width:0.5;stroke-dasharray:5.0,5.0;" x1="1125" x2="1125" y1="104.5938" y2="1700.8359"/><line style="stroke:#696969;stroke-width:0.5;stroke-dasharray:5.0,5.0;" x1="1380" x2="1380" y1="104.5938" y2="1700.8359"/><line style="stroke:#696969;stroke-width:0.5;stroke-dasharray:5.0,5.0;" x1="1514" x2="1514" y1="104.5938" y2="1700.8359"/><line style="stroke:#696969;stroke-width:0.5;stroke-dasharray:5.0,5.0;" x1="1636" x2="1636" y1="104.5938" y2="1700.8359"/><line style="stroke:#696969;stroke-width:0.5;stroke-dasharray:5.0,5.0;" x1="1753" x2="1753" y1="104.5938" y2="1700.8359"/><line style="stroke:#696969;stroke-width:0.5;stroke-dasharray:5.0,5.0;" x1="1855" x2="1855" y1="104.5938" y2="1700.8359"/><line style="stroke:#696969;stroke-width:0.5;stroke-dasharray:5.0,5.0;" x1="1979" x2="1979" y1="104.5938" y2="1700.8359"/><rect fill="#FF6347" height="30.2969" rx="3.5" ry="3.5" style="stroke:#454645;stroke-width:1.5;" width="55" x="186" y="73.2969"/><text fill="#FFFFFF" font-family="sans-serif" font-size="14" lengthAdjust="spacing" textLength="41" x="193" y="93.292">Client</text><rect fill="#FF6347" height="30.2969" rx="3.5" ry="3.5" style="stroke:#454645;stroke-width:1.5;" width="55" x="186" y="1699.8359"/><text fill="#FFFFFF" font-family="sans-serif" font-size="14" lengthAdjust="spacing" textLength="41" x="193" y="1719.8311">Client</text><rect fill="#FF6347" height="30.2969" rx="3.5" ry="3.5" style="stroke:#454645;stroke-width:1.5;" width="148" x="397.5" y="73.2969"/><text fill="#FFFFFF" font-family="sans-serif" font-size="14" lengthAdjust="spacing" textLength="134" x="404.5" y="93.292">HouseholdRegistry</text><rect fill="#FF6347" height="30.2969" rx="3.5" ry="3.5" style="stroke:#454645;stroke-width:1.5;" width="148" x="397.5" y="1699.8359"/><text fill="#FFFFFF" font-family="sans-serif" font-size="14" lengthAdjust="spacing" textLength="134" x="404.5" y="1719.8311">HouseholdRegistry</text><rect fill="#FF6347" height="30.2969" rx="3.5" ry="3.5" style="stroke:#454645;stroke-width:1.5;" width="141" x="836" y="73.2969"/><text fill="#FFFFFF" font-family="sans-serif" font-size="14" lengthAdjust="spacing" textLength="127" x="843" y="93.292">IndividualRegistry</text><rect fill="#FF6347" height="30.2969" rx="3.5" ry="3.5" style="stroke:#454645;stroke-width:1.5;" width="141" x="836" y="1699.8359"/><text fill="#FFFFFF" font-family="sans-serif" font-size="14" lengthAdjust="spacing" textLength="127" x="843" y="1719.8311">IndividualRegistry</text><rect fill="#FF6347" height="30.2969" rx="3.5" ry="3.5" style="stroke:#454645;stroke-width:1.5;" width="98" x="987" y="73.2969"/><text fill="#FFFFFF" font-family="sans-serif" font-size="14" lengthAdjust="spacing" textLength="84" x="994" y="93.292">RedisCache</text><rect fill="#FF6347" height="30.2969" rx="3.5" ry="3.5" style="stroke:#454645;stroke-width:1.5;" width="98" x="987" y="1699.8359"/><text fill="#FFFFFF" font-family="sans-serif" font-size="14" lengthAdjust="spacing" textLength="84" x="994" y="1719.8311">RedisCache</text><path d="M1100,78.2969 L1150,78.2969 C1155,78.2969 1155,91.4453 1155,91.4453 C1155,91.4453 1155,104.5938 1150,104.5938 L1100,104.5938 C1095,104.5938 1095,91.4453 1095,91.4453 C1095,91.4453 1095,78.2969 1100,78.2969 " fill="#FF6347" style="stroke:#454645;stroke-width:1.5;"/><path d="M1150,78.2969 C1145,78.2969 1145,91.4453 1145,91.4453 C1145,104.5938 1150,104.5938 1150,104.5938 " fill="none" style="stroke:#454645;stroke-width:1.5;"/><text fill="#FFFFFF" font-family="sans-serif" font-size="14" lengthAdjust="spacing" textLength="40" x="1100" y="96.292">Kafka</text><path d="M1100,1699.8359 L1150,1699.8359 C1155,1699.8359 1155,1712.9844 1155,1712.9844 C1155,1712.9844 1155,1726.1328 1150,1726.1328 L1100,1726.1328 C1095,1726.1328 1095,1712.9844 1095,1712.9844 C1095,1712.9844 1095,1699.8359 1100,1699.8359 " fill="#FF6347" style="stroke:#454645;stroke-width:1.5;"/><path d="M1150,1699.8359 C1145,1699.8359 1145,1712.9844 1145,1712.9844 C1145,1726.1328 1150,1726.1328 1150,1726.1328 " fill="none" style="stroke:#454645;stroke-width:1.5;"/><text fill="#FFFFFF" font-family="sans-serif" font-size="14" lengthAdjust="spacing" textLength="40" x="1100" y="1717.8311">Kafka</text><rect fill="#FF6347" height="30.2969" rx="3.5" ry="3.5" style="stroke:#454645;stroke-width:1.5;" width="128" x="1316" y="73.2969"/><text fill="#FFFFFF" font-family="sans-serif" font-size="14" lengthAdjust="spacing" textLength="114" x="1323" y="93.292">PersisterService</text><rect fill="#FF6347" height="30.2969" rx="3.5" ry="3.5" style="stroke:#454645;stroke-width:1.5;" width="128" x="1316" y="1699.8359"/><text fill="#FFFFFF" font-family="sans-serif" font-size="14" lengthAdjust="spacing" textLength="114" x="1323" y="1719.8311">PersisterService</text><rect fill="#FF6347" height="30.2969" rx="3.5" ry="3.5" style="stroke:#454645;stroke-width:1.5;" width="121" x="1454" y="73.2969"/><text fill="#FFFFFF" font-family="sans-serif" font-size="14" lengthAdjust="spacing" textLength="107" x="1461" y="93.292">IndexerService</text><rect fill="#FF6347" height="30.2969" rx="3.5" ry="3.5" style="stroke:#454645;stroke-width:1.5;" width="121" x="1454" y="1699.8359"/><text fill="#FFFFFF" font-family="sans-serif" font-size="14" lengthAdjust="spacing" textLength="107" x="1461" y="1719.8311">IndexerService</text><rect fill="#FF6347" height="30.2969" rx="3.5" ry="3.5" style="stroke:#454645;stroke-width:1.5;" width="103" x="1585" y="73.2969"/><text fill="#FFFFFF" font-family="sans-serif" font-size="14" lengthAdjust="spacing" textLength="89" x="1592" y="93.292">ErrorService</text><rect fill="#FF6347" height="30.2969" rx="3.5" ry="3.5" style="stroke:#454645;stroke-width:1.5;" width="103" x="1585" y="1699.8359"/><text fill="#FFFFFF" font-family="sans-serif" font-size="14" lengthAdjust="spacing" textLength="89" x="1592" y="1719.8311">ErrorService</text><rect fill="#FF6347" height="30.2969" rx="3.5" ry="3.5" style="stroke:#454645;stroke-width:1.5;" width="110" x="1698" y="73.2969"/><text fill="#FFFFFF" font-family="sans-serif" font-size="14" lengthAdjust="spacing" textLength="96" x="1705" y="93.292">ElasticSearch</text><rect fill="#FF6347" height="30.2969" rx="3.5" ry="3.5" style="stroke:#454645;stroke-width:1.5;" width="110" x="1698" y="1699.8359"/><text fill="#FFFFFF" font-family="sans-serif" font-size="14" lengthAdjust="spacing" textLength="96" x="1705" y="1719.8311">ElasticSearch</text><text fill="#454645" font-family="sans-serif" font-size="14" lengthAdjust="spacing" textLength="68" x="1818" y="101.292">Database</text><path d="M1837,52.2969 C1837,42.2969 1855,42.2969 1855,42.2969 C1855,42.2969 1873,42.2969 1873,52.2969 L1873,78.2969 C1873,88.2969 1855,88.2969 1855,88.2969 C1855,88.2969 1837,88.2969 1837,78.2969 L1837,52.2969 " fill="#00FFFF" style="stroke:#454645;stroke-width:1.5;"/><path d="M1837,52.2969 C1837,62.2969 1855,62.2969 1855,62.2969 C1855,62.2969 1873,62.2969 1873,52.2969 " fill="none" style="stroke:#454645;stroke-width:1.5;"/><text fill="#454645" font-family="sans-serif" font-size="14" lengthAdjust="spacing" textLength="68" x="1818" y="1712.8311">Database</text><path d="M1837,1726.1328 C1837,1716.1328 1855,1716.1328 1855,1716.1328 C1855,1716.1328 1873,1716.1328 1873,1726.1328 L1873,1752.1328 C1873,1762.1328 1855,1762.1328 1855,1762.1328 C1855,1762.1328 1837,1762.1328 1837,1752.1328 L1837,1726.1328 " fill="#00FFFF" style="stroke:#454645;stroke-width:1.5;"/><path d="M1837,1726.1328 C1837,1736.1328 1855,1736.1328 1855,1736.1328 C1855,1736.1328 1873,1736.1328 1873,1726.1328 " fill="none" style="stroke:#454645;stroke-width:1.5;"/><rect fill="#FF6347" height="30.2969" rx="3.5" ry="3.5" style="stroke:#454645;stroke-width:1.5;" width="154" x="1902" y="73.2969"/><text fill="#FFFFFF" font-family="sans-serif" font-size="14" lengthAdjust="spacing" textLength="140" x="1909" y="93.292">HandleErrorMethod</text><rect fill="#FF6347" height="30.2969" rx="3.5" ry="3.5" style="stroke:#454645;stroke-width:1.5;" width="154" x="1902" y="1699.8359"/><text fill="#FFFFFF" font-family="sans-serif" font-size="14" lengthAdjust="spacing" textLength="140" x="1909" y="1719.8311">HandleErrorMethod</text><rect fill="#FFFFFF" height="1314.3125" style="stroke:#696969;stroke-width:1.0;" width="10" x="466.5" y="135.7266"/><rect fill="#FFFFFF" height="29.1328" style="stroke:#696969;stroke-width:1.0;" width="10" x="901.5" y="848.5156"/><rect fill="#FFFFFF" height="29.1328" style="stroke:#696969;stroke-width:1.0;" width="10" x="1031" y="504.1875"/><rect fill="#FFFFFF" height="29.1328" style="stroke:#696969;stroke-width:1.0;" width="10" x="1031" y="606.5859"/><rect fill="#FFFFFF" height="30" style="stroke:#696969;stroke-width:1.0;" width="10" x="1031" y="723.1172"/><rect fill="#FFFFFF" height="30" style="stroke:#696969;stroke-width:1.0;" width="10" x="1031" y="1420.0391"/><rect fill="#FFFFFF" height="311.0625" style="stroke:#696969;stroke-width:1.0;" width="10" x="1120" y="1372.7734"/><rect fill="#FFFFFF" height="147.3984" style="stroke:#696969;stroke-width:1.0;" width="10" x="1375" y="1521.4375"/><rect fill="#FFFFFF" height="59.1328" style="stroke:#696969;stroke-width:1.0;" width="10" x="1509.5" y="1550.5703"/><rect fill="#FFFFFF" height="30" style="stroke:#696969;stroke-width:1.0;" width="10" x="1748" y="1579.7031"/><rect fill="#FFFFFF" height="29.1328" style="stroke:#696969;stroke-width:1.0;" width="10" x="1850" y="664.8516"/><rect fill="#FFFFFF" height="124.5313" style="stroke:#696969;stroke-width:1.0;" width="10" x="1850" y="979.1797"/><rect fill="#FFFFFF" height="29.1328" style="stroke:#696969;stroke-width:1.0;" width="10" x="1850" y="1199.1094"/><rect fill="#FFFFFF" height="30" style="stroke:#696969;stroke-width:1.0;" width="10" x="1850" y="1638.8359"/><rect fill="#FFFFFF" height="30" style="stroke:#696969;stroke-width:1.0;" width="10" x="1974" y="312.957"/><polygon fill="#454645" points="454.5,131.7266,464.5,135.7266,454.5,139.7266,458.5,135.7266" style="stroke:#454645;stroke-width:1.0;"/><line style="stroke:#454645;stroke-width:1.0;" x1="213.5" x2="460.5" y1="135.7266" y2="135.7266"/><text fill="#000000" font-family="sans-serif" font-size="13" lengthAdjust="spacing" textLength="234" x="220.5" y="130.6606">/household/member/v1/bulk/_create</text><polygon fill="#454645" points="224.5,160.8594,214.5,164.8594,224.5,168.8594,220.5,164.8594" style="stroke:#454645;stroke-width:1.0;"/><line style="stroke:#454645;stroke-width:1.0;" x1="218.5" x2="465.5" y1="164.8594" y2="164.8594"/><text fill="#000000" font-family="sans-serif" font-size="13" lengthAdjust="spacing" textLength="164" x="230.5" y="159.7935">HttpStatus: 202 accepted</text><line style="stroke:#454645;stroke-width:1.0;" x1="476.5" x2="518.5" y1="193.9922" y2="193.9922"/><line style="stroke:#454645;stroke-width:1.0;" x1="518.5" x2="518.5" y1="193.9922" y2="206.9922"/><line style="stroke:#454645;stroke-width:1.0;" x1="477.5" x2="518.5" y1="206.9922" y2="206.9922"/><polygon fill="#454645" points="487.5,202.9922,477.5,206.9922,487.5,210.9922,483.5,206.9922" style="stroke:#454645;stroke-width:1.0;"/><text fill="#000000" font-family="sans-serif" font-size="13" lengthAdjust="spacing" textLength="143" x="483.5" y="188.9263">Validate request body</text><path d="M116.5,221.9922 L177,221.9922 L177,229.125 L167,239.125 L113,239.125 L113,225.4922 A3.5,3.5 0 0 1 116.5,221.9922 " fill="#EEEEEE" style="stroke:#696969;stroke-width:1.5;"/><rect fill="none" height="139.5313" rx="3.5" ry="3.5" style="stroke:#696969;stroke-width:1.0;" width="1953" x="113" y="221.9922"/><text fill="#454645" font-family="sans-serif" font-size="13" font-weight="bold" lengthAdjust="spacing" textLength="19" x="128" y="235.0591">alt</text><text fill="#696969" font-family="sans-serif" font-size="11" font-weight="bold" lengthAdjust="spacing" textLength="154" x="192" y="234.2026">[request validation fails]</text><line style="stroke:#454645;stroke-width:1.0;" x1="476.5" x2="518.5" y1="260.2578" y2="260.2578"/><line style="stroke:#454645;stroke-width:1.0;" x1="518.5" x2="518.5" y1="260.2578" y2="273.2578"/><line style="stroke:#454645;stroke-width:1.0;" x1="477.5" x2="518.5" y1="273.2578" y2="273.2578"/><polygon fill="#454645" points="487.5,269.2578,477.5,273.2578,487.5,277.2578,483.5,273.2578" style="stroke:#454645;stroke-width:1.0;"/><text fill="#000000" font-family="sans-serif" font-size="13" lengthAdjust="spacing" textLength="163" x="483.5" y="255.1919">Request validation failed</text><polygon fill="#454645" points="1962,308.957,1972,312.957,1962,316.957,1966,312.957" style="stroke:#454645;stroke-width:1.0;"/><line style="stroke:#454645;stroke-width:1.0;" x1="476.5" x2="1968" y1="312.957" y2="312.957"/><text fill="#000000" font-family="sans-serif" font-size="13" lengthAdjust="spacing" textLength="231" x="483.5" y="307.8911">call handleError HandleErrorMethod</text><path d="M123,289.7578 L123,322.7578 A3.5,3.5 0 0 0 126.5,326.2578 L457.5,326.2578 A3.5,3.5 0 0 0 461,322.7578 L461,296.2578 L451,286.2578 L126.5,286.2578 A3.5,3.5 0 0 0 123,289.7578 " fill="#7FFFD4" style="stroke:#454645;stroke-width:1.5;"/><path d="M451,286.2578 L451,294.5078 A1.75,1.75 0 0 0 452.75,296.2578 L461,296.2578 L451,286.2578 " fill="#7FFFD4" style="stroke:#454645;stroke-width:1.5;"/><text fill="#454645" font-family="sans-serif" font-size="13" lengthAdjust="spacing" textLength="317" x="129" y="303.3247">This will be marked as unrecoverable right away</text><text fill="#454645" font-family="sans-serif" font-size="13" lengthAdjust="spacing" textLength="210" x="129" y="318.4575">and require manual intervention</text><line style="stroke:#454645;stroke-width:1.0;" x1="476.5" x2="518.5" y1="389.6563" y2="389.6563"/><line style="stroke:#454645;stroke-width:1.0;" x1="518.5" x2="518.5" y1="389.6563" y2="402.6563"/><line style="stroke:#454645;stroke-width:1.0;" x1="477.5" x2="518.5" y1="402.6563" y2="402.6563"/><polygon fill="#454645" points="487.5,398.6563,477.5,402.6563,487.5,406.6563,483.5,402.6563" style="stroke:#454645;stroke-width:1.0;"/><text fill="#000000" font-family="sans-serif" font-size="13" lengthAdjust="spacing" textLength="194" x="483.5" y="384.5903">Request validation successful</text><path d="M12.5,417.6563 L85,417.6563 L85,424.7891 L75,434.7891 L9,434.7891 L9,421.1563 A3.5,3.5 0 0 1 12.5,417.6563 " fill="#EEEEEE" style="stroke:#696969;stroke-width:1.5;"/><rect fill="none" height="1266.1797" rx="3.5" ry="3.5" style="stroke:#696969;stroke-width:1.0;" width="2077" x="9" y="417.6563"/><text fill="#454645" font-family="sans-serif" font-size="13" font-weight="bold" lengthAdjust="spacing" textLength="31" x="24" y="430.7231">loop</text><text fill="#696969" font-family="sans-serif" font-size="11" font-weight="bold" lengthAdjust="spacing" textLength="184" x="100" y="429.8667">[for each household member]</text><path d="M173.5,441.7891 L234,441.7891 L234,448.9219 L224,458.9219 L170,458.9219 L170,445.2891 A3.5,3.5 0 0 1 173.5,441.7891 " fill="#EEEEEE" style="stroke:#696969;stroke-width:1.5;"/><rect fill="none" height="354.4609" rx="3.5" ry="3.5" style="stroke:#696969;stroke-width:1.0;" width="1906" x="170" y="441.7891"/><text fill="#454645" font-family="sans-serif" font-size="13" font-weight="bold" lengthAdjust="spacing" textLength="19" x="185" y="454.856">alt</text><text fill="#696969" font-family="sans-serif" font-size="11" font-weight="bold" lengthAdjust="spacing" textLength="263" x="249" y="453.9995">[household member record already exists]</text><path d="M183.5,465.9219 L244,465.9219 L244,473.0547 L234,483.0547 L180,483.0547 L180,469.4219 A3.5,3.5 0 0 1 183.5,465.9219 " fill="#EEEEEE" style="stroke:#696969;stroke-width:1.5;"/><rect fill="none" height="110.5313" rx="3.5" ry="3.5" style="stroke:#696969;stroke-width:1.0;" width="1886" x="180" y="465.9219"/><text fill="#454645" font-family="sans-serif" font-size="13" font-weight="bold" lengthAdjust="spacing" textLength="19" x="195" y="478.9888">alt</text><text fill="#696969" font-family="sans-serif" font-size="11" font-weight="bold" lengthAdjust="spacing" textLength="147" x="259" y="478.1323">[record found in cache]</text><polygon fill="#454645" points="1019,500.1875,1029,504.1875,1019,508.1875,1023,504.1875" style="stroke:#454645;stroke-width:1.0;"/><line style="stroke:#454645;stroke-width:1.0;" x1="476.5" x2="1025" y1="504.1875" y2="504.1875"/><text fill="#000000" font-family="sans-serif" font-size="13" lengthAdjust="spacing" textLength="393" x="483.5" y="499.1216">Check using household clientReferenceId/serverGeneratedId</text><polygon fill="#454645" points="487.5,529.3203,477.5,533.3203,487.5,537.3203,483.5,533.3203" style="stroke:#454645;stroke-width:1.0;"/><line style="stroke:#454645;stroke-width:1.0;" x1="481.5" x2="1035" y1="533.3203" y2="533.3203"/><text fill="#000000" font-family="sans-serif" font-size="13" lengthAdjust="spacing" textLength="36" x="493.5" y="528.2544">1 row</text><polygon fill="#454645" points="1967,561.4531,1977,565.4531,1967,569.4531,1971,565.4531" style="stroke:#454645;stroke-width:1.0;"/><line style="stroke:#454645;stroke-width:1.0;" x1="476.5" x2="1973" y1="565.4531" y2="565.4531"/><text fill="#000000" font-family="sans-serif" font-size="13" lengthAdjust="spacing" textLength="231" x="483.5" y="560.3872">call handleError HandleErrorMethod</text><path d="M190,549.8203 L190,567.8203 A3.5,3.5 0 0 0 193.5,571.3203 L457.5,571.3203 A3.5,3.5 0 0 0 461,567.8203 L461,556.3203 L451,546.3203 L193.5,546.3203 A3.5,3.5 0 0 0 190,549.8203 " fill="#7FFFD4" style="stroke:#454645;stroke-width:1.5;"/><path d="M451,546.3203 L451,554.5703 A1.75,1.75 0 0 0 452.75,556.3203 L461,556.3203 L451,546.3203 " fill="#7FFFD4" style="stroke:#454645;stroke-width:1.5;"/><text fill="#454645" font-family="sans-serif" font-size="13" lengthAdjust="spacing" textLength="250" x="196" y="563.3872">Error Code: RECORD_ALREADY_EXISTS</text><line style="stroke:#696969;stroke-width:1.0;stroke-dasharray:2.0,2.0;" x1="170" x2="2076" y1="584.4531" y2="584.4531"/><polygon fill="#454645" points="1019,602.5859,1029,606.5859,1019,610.5859,1023,606.5859" style="stroke:#454645;stroke-width:1.0;"/><line style="stroke:#454645;stroke-width:1.0;" x1="476.5" x2="1025" y1="606.5859" y2="606.5859"/><text fill="#000000" font-family="sans-serif" font-size="13" lengthAdjust="spacing" textLength="393" x="483.5" y="601.52">Check using household clientReferenceId/serverGeneratedId</text><polygon fill="#454645" points="487.5,631.7188,477.5,635.7188,487.5,639.7188,483.5,635.7188" style="stroke:#454645;stroke-width:1.0;"/><line style="stroke:#454645;stroke-width:1.0;" x1="481.5" x2="1035" y1="635.7188" y2="635.7188"/><text fill="#000000" font-family="sans-serif" font-size="13" lengthAdjust="spacing" textLength="43" x="493.5" y="630.6528">0 rows</text><polygon fill="#454645" points="1838,660.8516,1848,664.8516,1838,668.8516,1842,664.8516" style="stroke:#454645;stroke-width:1.0;"/><line style="stroke:#454645;stroke-width:1.0;" x1="476.5" x2="1844" y1="664.8516" y2="664.8516"/><text fill="#000000" font-family="sans-serif" font-size="13" lengthAdjust="spacing" textLength="194" x="483.5" y="659.7856">Check if record already exists</text><polygon fill="#454645" points="487.5,689.9844,477.5,693.9844,487.5,697.9844,483.5,693.9844" style="stroke:#454645;stroke-width:1.0;"/><line style="stroke:#454645;stroke-width:1.0;" x1="481.5" x2="1854" y1="693.9844" y2="693.9844"/><text fill="#000000" font-family="sans-serif" font-size="13" lengthAdjust="spacing" textLength="36" x="493.5" y="688.9185">1 row</text><polygon fill="#454645" points="1019,719.1172,1029,723.1172,1019,727.1172,1023,723.1172" style="stroke:#454645;stroke-width:1.0;"/><line style="stroke:#454645;stroke-width:1.0;" x1="476.5" x2="1025" y1="723.1172" y2="723.1172"/><text fill="#000000" font-family="sans-serif" font-size="13" lengthAdjust="spacing" textLength="465" x="483.5" y="718.0513">Put data in cache using household clientReferenceId/serverGeneratedId</text><polygon fill="#454645" points="1967,781.25,1977,785.25,1967,789.25,1971,785.25" style="stroke:#454645;stroke-width:1.0;"/><line style="stroke:#454645;stroke-width:1.0;" x1="476.5" x2="1973" y1="785.25" y2="785.25"/><text fill="#000000" font-family="sans-serif" font-size="13" lengthAdjust="spacing" textLength="231" x="483.5" y="780.1841">call handleError HandleErrorMethod</text><path d="M190,769.6172 L190,787.6172 A3.5,3.5 0 0 0 193.5,791.1172 L457.5,791.1172 A3.5,3.5 0 0 0 461,787.6172 L461,776.1172 L451,766.1172 L193.5,766.1172 A3.5,3.5 0 0 0 190,769.6172 " fill="#7FFFD4" style="stroke:#454645;stroke-width:1.5;"/><path d="M451,766.1172 L451,774.3672 A1.75,1.75 0 0 0 452.75,776.1172 L461,776.1172 L451,766.1172 " fill="#7FFFD4" style="stroke:#454645;stroke-width:1.5;"/><text fill="#454645" font-family="sans-serif" font-size="13" lengthAdjust="spacing" textLength="250" x="196" y="783.1841">Error Code: RECORD_ALREADY_EXISTS</text><path d="M130.5,810.25 L191,810.25 L191,817.3828 L181,827.3828 L127,827.3828 L127,813.75 A3.5,3.5 0 0 1 130.5,810.25 " fill="#EEEEEE" style="stroke:#696969;stroke-width:1.5;"/><rect fill="none" height="140.7969" rx="3.5" ry="3.5" style="stroke:#696969;stroke-width:1.0;" width="1939" x="127" y="810.25"/><text fill="#454645" font-family="sans-serif" font-size="13" font-weight="bold" lengthAdjust="spacing" textLength="19" x="142" y="823.3169">alt</text><text fill="#696969" font-family="sans-serif" font-size="11" font-weight="bold" lengthAdjust="spacing" textLength="156" x="206" y="822.4604">[individual doesn't exist]</text><polygon fill="#454645" points="889.5,844.5156,899.5,848.5156,889.5,852.5156,893.5,848.5156" style="stroke:#454645;stroke-width:1.0;"/><line style="stroke:#454645;stroke-width:1.0;" x1="476.5" x2="895.5" y1="848.5156" y2="848.5156"/><text fill="#000000" font-family="sans-serif" font-size="13" lengthAdjust="spacing" textLength="142" x="483.5" y="843.4497">/individual/v1/_search</text><polygon fill="#454645" points="487.5,873.6484,477.5,877.6484,487.5,881.6484,483.5,877.6484" style="stroke:#454645;stroke-width:1.0;"/><line style="stroke:#454645;stroke-width:1.0;" x1="481.5" x2="905.5" y1="877.6484" y2="877.6484"/><text fill="#000000" font-family="sans-serif" font-size="13" lengthAdjust="spacing" textLength="43" x="493.5" y="872.5825">0 rows</text><polygon fill="#454645" points="1967,920.9141,1977,924.9141,1967,928.9141,1971,924.9141" style="stroke:#454645;stroke-width:1.0;"/><line style="stroke:#454645;stroke-width:1.0;" x1="476.5" x2="1973" y1="924.9141" y2="924.9141"/><text fill="#000000" font-family="sans-serif" font-size="13" lengthAdjust="spacing" textLength="231" x="483.5" y="919.8481">call handleError HandleErrorMethod</text><path d="M137,894.1484 L137,942.1484 A3.5,3.5 0 0 0 140.5,945.6484 L457.5,945.6484 A3.5,3.5 0 0 0 461,942.1484 L461,900.6484 L451,890.6484 L140.5,890.6484 A3.5,3.5 0 0 0 137,894.1484 " fill="#7FFFD4" style="stroke:#454645;stroke-width:1.5;"/><path d="M451,890.6484 L451,898.8984 A1.75,1.75 0 0 0 452.75,900.6484 L461,900.6484 L451,890.6484 " fill="#7FFFD4" style="stroke:#454645;stroke-width:1.5;"/><text fill="#454645" font-family="sans-serif" font-size="13" lengthAdjust="spacing" textLength="303" x="143" y="907.7153">This will be marked as recoverable and will be</text><text fill="#454645" font-family="sans-serif" font-size="13" lengthAdjust="spacing" textLength="77" x="143" y="922.8481">retried later</text><text fill="#454645" font-family="sans-serif" font-size="13" lengthAdjust="spacing" textLength="217" x="143" y="937.981">Error Code: DEPENDENCY_ERROR</text><polygon fill="#454645" points="1838,975.1797,1848,979.1797,1838,983.1797,1842,979.1797" style="stroke:#454645;stroke-width:1.0;"/><line style="stroke:#454645;stroke-width:1.0;" x1="476.5" x2="1844" y1="979.1797" y2="979.1797"/><text fill="#000000" font-family="sans-serif" font-size="13" lengthAdjust="spacing" textLength="575" x="483.5" y="974.1138">Get Individual/Household mapping using individual clientReferenceId/serverGeneratedId</text><path d="M22.5,994.1797 L83,994.1797 L83,1001.3125 L73,1011.3125 L19,1011.3125 L19,997.6797 A3.5,3.5 0 0 1 22.5,994.1797 " fill="#EEEEEE" style="stroke:#696969;stroke-width:1.5;"/><rect fill="none" height="81.3984" rx="3.5" ry="3.5" style="stroke:#696969;stroke-width:1.0;" width="2047" x="19" y="994.1797"/><text fill="#454645" font-family="sans-serif" font-size="13" font-weight="bold" lengthAdjust="spacing" textLength="19" x="34" y="1007.2466">alt</text><text fill="#696969" font-family="sans-serif" font-size="11" font-weight="bold" lengthAdjust="spacing" textLength="91" x="98" y="1006.3901">[record found]</text><polygon fill="#454645" points="487.5,1028.4453,477.5,1032.4453,487.5,1036.4453,483.5,1032.4453" style="stroke:#454645;stroke-width:1.0;"/><line style="stroke:#454645;stroke-width:1.0;" x1="481.5" x2="1849" y1="1032.4453" y2="1032.4453"/><text fill="#000000" font-family="sans-serif" font-size="13" lengthAdjust="spacing" textLength="36" x="493.5" y="1027.3794">1 row</text><polygon fill="#454645" points="1967,1060.5781,1977,1064.5781,1967,1068.5781,1971,1064.5781" style="stroke:#454645;stroke-width:1.0;"/><line style="stroke:#454645;stroke-width:1.0;" x1="476.5" x2="1973" y1="1064.5781" y2="1064.5781"/><text fill="#000000" font-family="sans-serif" font-size="13" lengthAdjust="spacing" textLength="231" x="483.5" y="1059.5122">call handleError HandleErrorMethod</text><path d="M29,1048.9453 L29,1066.9453 A3.5,3.5 0 0 0 32.5,1070.4453 L457.5,1070.4453 A3.5,3.5 0 0 0 461,1066.9453 L461,1055.4453 L451,1045.4453 L32.5,1045.4453 A3.5,3.5 0 0 0 29,1048.9453 " fill="#7FFFD4" style="stroke:#454645;stroke-width:1.5;"/><path d="M451,1045.4453 L451,1053.6953 A1.75,1.75 0 0 0 452.75,1055.4453 L461,1055.4453 L451,1045.4453 " fill="#7FFFD4" style="stroke:#454645;stroke-width:1.5;"/><text fill="#454645" font-family="sans-serif" font-size="13" lengthAdjust="spacing" textLength="411" x="35" y="1062.5122">Ensures that the individual is not already linked to a household</text><polygon fill="#454645" points="487.5,1099.7109,477.5,1103.7109,487.5,1107.7109,483.5,1103.7109" style="stroke:#454645;stroke-width:1.0;"/><line style="stroke:#454645;stroke-width:1.0;" x1="481.5" x2="1854" y1="1103.7109" y2="1103.7109"/><text fill="#000000" font-family="sans-serif" font-size="13" lengthAdjust="spacing" textLength="43" x="493.5" y="1098.645">0 rows</text><line style="stroke:#454645;stroke-width:1.0;" x1="476.5" x2="518.5" y1="1132.8438" y2="1132.8438"/><line style="stroke:#454645;stroke-width:1.0;" x1="518.5" x2="518.5" y1="1132.8438" y2="1145.8438"/><line style="stroke:#454645;stroke-width:1.0;" x1="477.5" x2="518.5" y1="1145.8438" y2="1145.8438"/><polygon fill="#454645" points="487.5,1141.8438,477.5,1145.8438,487.5,1149.8438,483.5,1145.8438" style="stroke:#454645;stroke-width:1.0;"/><text fill="#000000" font-family="sans-serif" font-size="13" lengthAdjust="spacing" textLength="300" x="483.5" y="1127.7778">Check if isHeadOfHousehold is true in request</text><path d="M251.5,1160.8438 L312,1160.8438 L312,1167.9766 L302,1177.9766 L248,1177.9766 L248,1164.3438 A3.5,3.5 0 0 1 251.5,1160.8438 " fill="#EEEEEE" style="stroke:#696969;stroke-width:1.5;"/><rect fill="none" height="183.7969" rx="3.5" ry="3.5" style="stroke:#696969;stroke-width:1.0;" width="1828" x="248" y="1160.8438"/><text fill="#454645" font-family="sans-serif" font-size="13" font-weight="bold" lengthAdjust="spacing" textLength="19" x="263" y="1173.9106">alt</text><text fill="#696969" font-family="sans-serif" font-size="11" font-weight="bold" lengthAdjust="spacing" textLength="213" x="327" y="1173.0542">[request isHeadOfHousehold true]</text><polygon fill="#454645" points="1838,1195.1094,1848,1199.1094,1838,1203.1094,1842,1199.1094" style="stroke:#454645;stroke-width:1.0;"/><line style="stroke:#454645;stroke-width:1.0;" x1="476.5" x2="1844" y1="1199.1094" y2="1199.1094"/><text fill="#000000" font-family="sans-serif" font-size="13" lengthAdjust="spacing" textLength="578" x="483.5" y="1194.0435">Get Individual/Household mapping using household clientReferenceId/serverGeneratedId</text><polygon fill="#454645" points="487.5,1224.2422,477.5,1228.2422,487.5,1232.2422,483.5,1228.2422" style="stroke:#454645;stroke-width:1.0;"/><line style="stroke:#454645;stroke-width:1.0;" x1="481.5" x2="1854" y1="1228.2422" y2="1228.2422"/><text fill="#000000" font-family="sans-serif" font-size="13" lengthAdjust="spacing" textLength="66" x="493.5" y="1223.1763">1-n row(s)</text><path d="M261.5,1243.2422 L322,1243.2422 L322,1250.375 L312,1260.375 L258,1260.375 L258,1246.7422 A3.5,3.5 0 0 1 261.5,1243.2422 " fill="#EEEEEE" style="stroke:#696969;stroke-width:1.5;"/><rect fill="none" height="94.3984" rx="3.5" ry="3.5" style="stroke:#696969;stroke-width:1.0;" width="1808" x="258" y="1243.2422"/><text fill="#454645" font-family="sans-serif" font-size="13" font-weight="bold" lengthAdjust="spacing" textLength="19" x="273" y="1256.3091">alt</text><text fill="#696969" font-family="sans-serif" font-size="11" font-weight="bold" lengthAdjust="spacing" textLength="278" x="337" y="1255.4526">[record with isHeadOfHousehold true found]</text><line style="stroke:#454645;stroke-width:1.0;" x1="476.5" x2="518.5" y1="1281.5078" y2="1281.5078"/><line style="stroke:#454645;stroke-width:1.0;" x1="518.5" x2="518.5" y1="1281.5078" y2="1294.5078"/><line style="stroke:#454645;stroke-width:1.0;" x1="477.5" x2="518.5" y1="1294.5078" y2="1294.5078"/><polygon fill="#454645" points="487.5,1290.5078,477.5,1294.5078,487.5,1298.5078,483.5,1294.5078" style="stroke:#454645;stroke-width:1.0;"/><text fill="#000000" font-family="sans-serif" font-size="13" lengthAdjust="spacing" textLength="411" x="483.5" y="1276.4419">Check if there is already a record with isHeadOfHousehold true</text><polygon fill="#454645" points="1967,1322.6406,1977,1326.6406,1967,1330.6406,1971,1326.6406" style="stroke:#454645;stroke-width:1.0;"/><line style="stroke:#454645;stroke-width:1.0;" x1="476.5" x2="1973" y1="1326.6406" y2="1326.6406"/><text fill="#000000" font-family="sans-serif" font-size="13" lengthAdjust="spacing" textLength="231" x="483.5" y="1321.5747">call handleError HandleErrorMethod</text><path d="M268,1311.0078 L268,1329.0078 A3.5,3.5 0 0 0 271.5,1332.5078 L457.5,1332.5078 A3.5,3.5 0 0 0 461,1329.0078 L461,1317.5078 L451,1307.5078 L271.5,1307.5078 A3.5,3.5 0 0 0 268,1311.0078 " fill="#7FFFD4" style="stroke:#454645;stroke-width:1.5;"/><path d="M451,1307.5078 L451,1315.7578 A1.75,1.75 0 0 0 452.75,1317.5078 L461,1317.5078 L451,1307.5078 " fill="#7FFFD4" style="stroke:#454645;stroke-width:1.5;"/><text fill="#454645" font-family="sans-serif" font-size="13" lengthAdjust="spacing" textLength="172" x="274" y="1324.5747">Error Code: BAD_REQUEST</text><polygon fill="#454645" points="1108,1368.7734,1118,1372.7734,1108,1376.7734,1112,1372.7734" style="stroke:#454645;stroke-width:1.0;"/><line style="stroke:#454645;stroke-width:1.0;" x1="476.5" x2="1114" y1="1372.7734" y2="1372.7734"/><text fill="#000000" font-family="sans-serif" font-size="13" lengthAdjust="spacing" textLength="252" x="483.5" y="1367.7075">Household Member Data /persist_topic</text><polygon fill="#454645" points="1019,1416.0391,1029,1420.0391,1019,1424.0391,1023,1420.0391" style="stroke:#454645;stroke-width:1.0;"/><line style="stroke:#454645;stroke-width:1.0;" x1="476.5" x2="1025" y1="1420.0391" y2="1420.0391"/><text fill="#000000" font-family="sans-serif" font-size="13" lengthAdjust="spacing" textLength="460" x="483.5" y="1414.9731">Invalidate household cache using clientReferenceId/serverGeneratedId</text><path d="M56,1389.2734 L56,1437.2734 A3.5,3.5 0 0 0 59.5,1440.7734 L457.5,1440.7734 A3.5,3.5 0 0 0 461,1437.2734 L461,1395.7734 L451,1385.7734 L59.5,1385.7734 A3.5,3.5 0 0 0 56,1389.2734 " fill="#7FFFD4" style="stroke:#454645;stroke-width:1.5;"/><path d="M451,1385.7734 L451,1394.0234 A1.75,1.75 0 0 0 452.75,1395.7734 L461,1395.7734 L451,1385.7734 " fill="#7FFFD4" style="stroke:#454645;stroke-width:1.5;"/><text fill="#454645" font-family="sans-serif" font-size="13" lengthAdjust="spacing" textLength="375" x="62" y="1402.8403">The request does not have all the data required to update</text><text fill="#454645" font-family="sans-serif" font-size="13" lengthAdjust="spacing" textLength="384" x="62" y="1417.9731">the household cache for which this member is being added</text><text fill="#454645" font-family="sans-serif" font-size="13" lengthAdjust="spacing" textLength="203" x="62" y="1433.106">and hence is being invalidated.</text><path d="M1088.5,1483.1719 L1172,1483.1719 L1172,1490.3047 L1162,1500.3047 L1085,1500.3047 L1085,1486.6719 A3.5,3.5 0 0 1 1088.5,1483.1719 " fill="#EEEEEE" style="stroke:#696969;stroke-width:1.5;"/><rect fill="none" height="193.6641" rx="3.5" ry="3.5" style="stroke:#696969;stroke-width:1.0;" width="817" x="1085" y="1483.1719"/><text fill="#454645" font-family="sans-serif" font-size="13" font-weight="bold" lengthAdjust="spacing" textLength="42" x="1100" y="1496.2388">async</text><polygon fill="#454645" points="1141,1517.4375,1131,1521.4375,1141,1525.4375,1137,1521.4375" style="stroke:#454645;stroke-width:1.0;"/><line style="stroke:#454645;stroke-width:1.0;" x1="1135" x2="1374" y1="1521.4375" y2="1521.4375"/><text fill="#000000" font-family="sans-serif" font-size="13" lengthAdjust="spacing" textLength="226" x="1147" y="1516.3716">Consume Household Member Data</text><polygon fill="#454645" points="1141,1546.5703,1131,1550.5703,1141,1554.5703,1137,1550.5703" style="stroke:#454645;stroke-width:1.0;"/><line style="stroke:#454645;stroke-width:1.0;" x1="1135" x2="1508.5" y1="1550.5703" y2="1550.5703"/><text fill="#000000" font-family="sans-serif" font-size="13" lengthAdjust="spacing" textLength="226" x="1147" y="1545.5044">Consume Household Member Data</text><polygon fill="#454645" points="1736,1575.7031,1746,1579.7031,1736,1583.7031,1740,1579.7031" style="stroke:#454645;stroke-width:1.0;"/><line style="stroke:#454645;stroke-width:1.0;" x1="1519.5" x2="1742" y1="1579.7031" y2="1579.7031"/><text fill="#000000" font-family="sans-serif" font-size="13" lengthAdjust="spacing" textLength="199" x="1526.5" y="1574.6372">Store Household Member Data</text><polygon fill="#454645" points="1838,1634.8359,1848,1638.8359,1838,1642.8359,1842,1638.8359" style="stroke:#454645;stroke-width:1.0;"/><line style="stroke:#454645;stroke-width:1.0;" x1="1385" x2="1844" y1="1638.8359" y2="1638.8359"/><text fill="#000000" font-family="sans-serif" font-size="13" lengthAdjust="spacing" textLength="209" x="1392" y="1633.77">Persist Household Member Data</text><!--SRC=[hLTDSzis4BtZLsnFRG-E4Xrrw8mZSM9DczYbd4vpqe34oiG88ba0bAn_tmL8Wg2aUAGP-s2JorrWzxtzifLM8JnKZS6YKWA-uYv33NVmkL5Rc6la5jalji0TmbvccfUMrLnRcSkQdc6k9D8VRY0VoSE9ARv8O_NHgPYHoh8KSYz5mzL8PpfIIb58C-TvWUwZpjb_3JO8V_BDbZl9TgJzXDhGIQXNgFSozpQrFhiMNqSQKhoED1Ajg_WxZWz853VqiaAkyy9_LqnmopDk41Rz0yb5DeQ4bqAXF_mhsg8IJgT0biFT7s1W1fEY1ssoypHCzfyc6V4mMUSj4JotSayFXAHnLlaC7gojLvRRninW-d4AFC-njYXQ1HB-mvKKpaOZOMSiP9KuCiQL3P9zgoAh4ZPSAiE0VdhxzB8ItH2q2fn1pfM2OWZnF5ol7oAWmDsxm5D9MT6pmetrR-xdkP063fBEpn1sN6_HGzUK6lDgZvfdbC9QlXIKXmT-37RaW0zHQcTMKgA1B2avzfIn58RNGz9nDp9wOEoDc4r3m1gpQHHJLLN3Xa8atmi8f45BcaVsL0ZELKrkAo9I705VAKrRd5iY_DTDrP0xiYGmymwD3c5DJCyBpBVG65c-HEVdlW1JtA36CiUbc1WNeVw29I53YR0KtK41QAgYLgBpBjvFeAj39umO2OhUXrjelaGZj8K5yqhGGMaoVqmNw_k_qkH-yMET_BjSFQywtK1AzzB-LGRPEm9o6cK0uwC3mx3BMFZBHTPVBZTlCTlRKYFmfsLdS4SNT4eXkgV6Wcih8H_UBTAVH7KBl-ViNiVjkDnSwiim1K1KQCfVRGjXr8Ecr1e7DTSKryOttt5qD3cypVHD7dkj6_lMrLqfxack0NKQmKoZrP9K5JcZBwAtI9wIRulasvoGIzF7T0oSHovauHUCv-XacECxNjSkMzgSYK2-9cdYd3njJ-n27WSmhqFpGlAKfj5em1RSqY-C7IQKoI3KbvAbGzfMm8TIO2UP5JpiSc1SPdsN3oKipGET_RWPuADBhMwS7_sG70tCSmEdpQBsS2KnjnRpk5iCHDoLBj3VpE_ilAT431waBNxYV61tcFm17sA4HYXXqfF0hpZmdSeihepFzujrclpzFLazivCvuLWVHlXsThxIkiqC9dMx8QvjLSjyIFGj2trtMUxxZIbY9sh0rp0Ln_5S3BkNQt4-dGk-f_v0cBXizss-srHyQZUrkvzitTTJBzpcSIWahHxMjQ1kmQ2d39rxN0Y_cxdcKpW7XqyoX2O-i01UF0p6eo5-DUn5LqrDBUvOjaE35kiEwtb5zRl3ovYFcxJRnfs0TkxRZTsY7XcZci7ALlegMrhIJoR1kQG_lulCrN7t7yKrD_HJ7j-GkF1zWy8ezKZmFm00]--></g></svg>