<?xml version="1.0" encoding="UTF-8" standalone="no"?><svg xmlns="http://www.w3.org/2000/svg" xmlns:xlink="http://www.w3.org/1999/xlink" contentStyleType="text/css" height="1303px" preserveAspectRatio="none" style="width:1713px;height:1303px;background:#FFFFFF;" version="1.1" viewBox="0 0 1713 1303" width="1713px" zoomAndPan="magnify"><defs/><g><text fill="#000000" font-family="sans-serif" font-size="14" font-weight="bold" lengthAdjust="spacing" textLength="188" x="764.25" y="27.9951">Individual - Bulk Delete</text><rect fill="#FFFFFF" height="857.1875" style="stroke:#696969;stroke-width:1.0;" width="10" x="372.5" y="135.7266"/><rect fill="#FFFFFF" height="29.1328" style="stroke:#696969;stroke-width:1.0;" width="10" x="724.5" y="480.0547"/><rect fill="#FFFFFF" height="29.1328" style="stroke:#696969;stroke-width:1.0;" width="10" x="724.5" y="692.8516"/><rect fill="#FFFFFF" height="30" style="stroke:#696969;stroke-width:1.0;" width="10" x="724.5" y="809.3828"/><rect fill="#FFFFFF" height="29.1328" style="stroke:#696969;stroke-width:1.0;" width="10" x="724.5" y="875.5156"/><rect fill="#FFFFFF" height="30" style="stroke:#696969;stroke-width:1.0;" width="10" x="724.5" y="962.9141"/><rect fill="#FFFFFF" height="274.7969" style="stroke:#696969;stroke-width:1.0;" width="10" x="813.5" y="933.7813"/><rect fill="#FFFFFF" height="147.3984" style="stroke:#696969;stroke-width:1.0;" width="10" x="1006.5" y="1046.1797"/><rect fill="#FFFFFF" height="59.1328" style="stroke:#696969;stroke-width:1.0;" width="10" x="1141" y="1075.3125"/><rect fill="#FFFFFF" height="30" style="stroke:#696969;stroke-width:1.0;" width="10" x="1379.5" y="1104.4453"/><rect fill="#FFFFFF" height="30" style="stroke:#696969;stroke-width:1.0;" width="10" x="1521.5" y="337.0898"/><rect fill="#FFFFFF" height="30" style="stroke:#696969;stroke-width:1.0;" width="10" x="1521.5" y="599.5859"/><rect fill="#FFFFFF" height="29.1328" style="stroke:#696969;stroke-width:1.0;" width="10" x="1645.5" y="538.3203"/><rect fill="#FFFFFF" height="29.1328" style="stroke:#696969;stroke-width:1.0;" width="10" x="1645.5" y="751.1172"/><rect fill="#FFFFFF" height="30" style="stroke:#696969;stroke-width:1.0;" width="10" x="1645.5" y="1163.5781"/><rect fill="none" height="1028.7188" rx="3.5" ry="3.5" style="stroke:#696969;stroke-width:1.0;" width="1698.5" x="9" y="179.8594"/><rect fill="none" height="139.5313" rx="3.5" ry="3.5" style="stroke:#696969;stroke-width:1.0;" width="1594.5" x="19" y="246.125"/><rect fill="none" height="198.7969" rx="3.5" ry="3.5" style="stroke:#696969;stroke-width:1.0;" width="1581.5" x="116" y="441.7891"/><rect fill="none" height="192.7969" rx="3.5" ry="3.5" style="stroke:#696969;stroke-width:1.0;" width="1400.5" x="297" y="654.5859"/><rect fill="none" height="193.6641" rx="3.5" ry="3.5" style="stroke:#696969;stroke-width:1.0;" width="919" x="778.5" y="1007.9141"/><line style="stroke:#696969;stroke-width:0.5;stroke-dasharray:5.0,5.0;" x1="174" x2="174" y1="104.5938" y2="1225.5781"/><line style="stroke:#696969;stroke-width:0.5;stroke-dasharray:5.0,5.0;" x1="377" x2="377" y1="104.5938" y2="1225.5781"/><line style="stroke:#696969;stroke-width:0.5;stroke-dasharray:5.0,5.0;" x1="729.5" x2="729.5" y1="104.5938" y2="1225.5781"/><line style="stroke:#696969;stroke-width:0.5;stroke-dasharray:5.0,5.0;" x1="818.5" x2="818.5" y1="104.5938" y2="1225.5781"/><line style="stroke:#696969;stroke-width:0.5;stroke-dasharray:5.0,5.0;" x1="1011.5" x2="1011.5" y1="104.5938" y2="1225.5781"/><line style="stroke:#696969;stroke-width:0.5;stroke-dasharray:5.0,5.0;" x1="1145.5" x2="1145.5" y1="104.5938" y2="1225.5781"/><line style="stroke:#696969;stroke-width:0.5;stroke-dasharray:5.0,5.0;" x1="1267.5" x2="1267.5" y1="104.5938" y2="1225.5781"/><line style="stroke:#696969;stroke-width:0.5;stroke-dasharray:5.0,5.0;" x1="1384.5" x2="1384.5" y1="104.5938" y2="1225.5781"/><line style="stroke:#696969;stroke-width:0.5;stroke-dasharray:5.0,5.0;" x1="1526.5" x2="1526.5" y1="104.5938" y2="1225.5781"/><line style="stroke:#696969;stroke-width:0.5;stroke-dasharray:5.0,5.0;" x1="1650.5" x2="1650.5" y1="104.5938" y2="1225.5781"/><rect fill="#FF6347" height="30.2969" rx="3.5" ry="3.5" style="stroke:#454645;stroke-width:1.5;" width="55" x="147" y="73.2969"/><text fill="#FFFFFF" font-family="sans-serif" font-size="14" lengthAdjust="spacing" textLength="41" x="154" y="93.292">Client</text><rect fill="#FF6347" height="30.2969" rx="3.5" ry="3.5" style="stroke:#454645;stroke-width:1.5;" width="55" x="147" y="1224.5781"/><text fill="#FFFFFF" font-family="sans-serif" font-size="14" lengthAdjust="spacing" textLength="41" x="154" y="1244.5732">Client</text><rect fill="#FF6347" height="30.2969" rx="3.5" ry="3.5" style="stroke:#454645;stroke-width:1.5;" width="141" x="307" y="73.2969"/><text fill="#FFFFFF" font-family="sans-serif" font-size="14" lengthAdjust="spacing" textLength="127" x="314" y="93.292">IndividualRegistry</text><rect fill="#FF6347" height="30.2969" rx="3.5" ry="3.5" style="stroke:#454645;stroke-width:1.5;" width="141" x="307" y="1224.5781"/><text fill="#FFFFFF" font-family="sans-serif" font-size="14" lengthAdjust="spacing" textLength="127" x="314" y="1244.5732">IndividualRegistry</text><rect fill="#FF6347" height="30.2969" rx="3.5" ry="3.5" style="stroke:#454645;stroke-width:1.5;" width="98" x="680.5" y="73.2969"/><text fill="#FFFFFF" font-family="sans-serif" font-size="14" lengthAdjust="spacing" textLength="84" x="687.5" y="93.292">RedisCache</text><rect fill="#FF6347" height="30.2969" rx="3.5" ry="3.5" style="stroke:#454645;stroke-width:1.5;" width="98" x="680.5" y="1224.5781"/><text fill="#FFFFFF" font-family="sans-serif" font-size="14" lengthAdjust="spacing" textLength="84" x="687.5" y="1244.5732">RedisCache</text><path d="M793.5,78.2969 L843.5,78.2969 C848.5,78.2969 848.5,91.4453 848.5,91.4453 C848.5,91.4453 848.5,104.5938 843.5,104.5938 L793.5,104.5938 C788.5,104.5938 788.5,91.4453 788.5,91.4453 C788.5,91.4453 788.5,78.2969 793.5,78.2969 " fill="#FF6347" style="stroke:#454645;stroke-width:1.5;"/><path d="M843.5,78.2969 C838.5,78.2969 838.5,91.4453 838.5,91.4453 C838.5,104.5938 843.5,104.5938 843.5,104.5938 " fill="none" style="stroke:#454645;stroke-width:1.5;"/><text fill="#FFFFFF" font-family="sans-serif" font-size="14" lengthAdjust="spacing" textLength="40" x="793.5" y="96.292">Kafka</text><path d="M793.5,1224.5781 L843.5,1224.5781 C848.5,1224.5781 848.5,1237.7266 848.5,1237.7266 C848.5,1237.7266 848.5,1250.875 843.5,1250.875 L793.5,1250.875 C788.5,1250.875 788.5,1237.7266 788.5,1237.7266 C788.5,1237.7266 788.5,1224.5781 793.5,1224.5781 " fill="#FF6347" style="stroke:#454645;stroke-width:1.5;"/><path d="M843.5,1224.5781 C838.5,1224.5781 838.5,1237.7266 838.5,1237.7266 C838.5,1250.875 843.5,1250.875 843.5,1250.875 " fill="none" style="stroke:#454645;stroke-width:1.5;"/><text fill="#FFFFFF" font-family="sans-serif" font-size="14" lengthAdjust="spacing" textLength="40" x="793.5" y="1242.5732">Kafka</text><rect fill="#FF6347" height="30.2969" rx="3.5" ry="3.5" style="stroke:#454645;stroke-width:1.5;" width="128" x="947.5" y="73.2969"/><text fill="#FFFFFF" font-family="sans-serif" font-size="14" lengthAdjust="spacing" textLength="114" x="954.5" y="93.292">PersisterService</text><rect fill="#FF6347" height="30.2969" rx="3.5" ry="3.5" style="stroke:#454645;stroke-width:1.5;" width="128" x="947.5" y="1224.5781"/><text fill="#FFFFFF" font-family="sans-serif" font-size="14" lengthAdjust="spacing" textLength="114" x="954.5" y="1244.5732">PersisterService</text><rect fill="#FF6347" height="30.2969" rx="3.5" ry="3.5" style="stroke:#454645;stroke-width:1.5;" width="121" x="1085.5" y="73.2969"/><text fill="#FFFFFF" font-family="sans-serif" font-size="14" lengthAdjust="spacing" textLength="107" x="1092.5" y="93.292">IndexerService</text><rect fill="#FF6347" height="30.2969" rx="3.5" ry="3.5" style="stroke:#454645;stroke-width:1.5;" width="121" x="1085.5" y="1224.5781"/><text fill="#FFFFFF" font-family="sans-serif" font-size="14" lengthAdjust="spacing" textLength="107" x="1092.5" y="1244.5732">IndexerService</text><rect fill="#FF6347" height="30.2969" rx="3.5" ry="3.5" style="stroke:#454645;stroke-width:1.5;" width="103" x="1216.5" y="73.2969"/><text fill="#FFFFFF" font-family="sans-serif" font-size="14" lengthAdjust="spacing" textLength="89" x="1223.5" y="93.292">ErrorService</text><rect fill="#FF6347" height="30.2969" rx="3.5" ry="3.5" style="stroke:#454645;stroke-width:1.5;" width="103" x="1216.5" y="1224.5781"/><text fill="#FFFFFF" font-family="sans-serif" font-size="14" lengthAdjust="spacing" textLength="89" x="1223.5" y="1244.5732">ErrorService</text><rect fill="#FF6347" height="30.2969" rx="3.5" ry="3.5" style="stroke:#454645;stroke-width:1.5;" width="110" x="1329.5" y="73.2969"/><text fill="#FFFFFF" font-family="sans-serif" font-size="14" lengthAdjust="spacing" textLength="96" x="1336.5" y="93.292">ElasticSearch</text><rect fill="#FF6347" height="30.2969" rx="3.5" ry="3.5" style="stroke:#454645;stroke-width:1.5;" width="110" x="1329.5" y="1224.5781"/><text fill="#FFFFFF" font-family="sans-serif" font-size="14" lengthAdjust="spacing" textLength="96" x="1336.5" y="1244.5732">ElasticSearch</text><rect fill="#FF6347" height="30.2969" rx="3.5" ry="3.5" style="stroke:#454645;stroke-width:1.5;" width="154" x="1449.5" y="73.2969"/><text fill="#FFFFFF" font-family="sans-serif" font-size="14" lengthAdjust="spacing" textLength="140" x="1456.5" y="93.292">HandleErrorMethod</text><rect fill="#FF6347" height="30.2969" rx="3.5" ry="3.5" style="stroke:#454645;stroke-width:1.5;" width="154" x="1449.5" y="1224.5781"/><text fill="#FFFFFF" font-family="sans-serif" font-size="14" lengthAdjust="spacing" textLength="140" x="1456.5" y="1244.5732">HandleErrorMethod</text><text fill="#454645" font-family="sans-serif" font-size="14" lengthAdjust="spacing" textLength="68" x="1613.5" y="101.292">Database</text><path d="M1632.5,52.2969 C1632.5,42.2969 1650.5,42.2969 1650.5,42.2969 C1650.5,42.2969 1668.5,42.2969 1668.5,52.2969 L1668.5,78.2969 C1668.5,88.2969 1650.5,88.2969 1650.5,88.2969 C1650.5,88.2969 1632.5,88.2969 1632.5,78.2969 L1632.5,52.2969 " fill="#00FFFF" style="stroke:#454645;stroke-width:1.5;"/><path d="M1632.5,52.2969 C1632.5,62.2969 1650.5,62.2969 1650.5,62.2969 C1650.5,62.2969 1668.5,62.2969 1668.5,52.2969 " fill="none" style="stroke:#454645;stroke-width:1.5;"/><text fill="#454645" font-family="sans-serif" font-size="14" lengthAdjust="spacing" textLength="68" x="1613.5" y="1237.5732">Database</text><path d="M1632.5,1250.875 C1632.5,1240.875 1650.5,1240.875 1650.5,1240.875 C1650.5,1240.875 1668.5,1240.875 1668.5,1250.875 L1668.5,1276.875 C1668.5,1286.875 1650.5,1286.875 1650.5,1286.875 C1650.5,1286.875 1632.5,1286.875 1632.5,1276.875 L1632.5,1250.875 " fill="#00FFFF" style="stroke:#454645;stroke-width:1.5;"/><path d="M1632.5,1250.875 C1632.5,1260.875 1650.5,1260.875 1650.5,1260.875 C1650.5,1260.875 1668.5,1260.875 1668.5,1250.875 " fill="none" style="stroke:#454645;stroke-width:1.5;"/><rect fill="#FFFFFF" height="857.1875" style="stroke:#696969;stroke-width:1.0;" width="10" x="372.5" y="135.7266"/><rect fill="#FFFFFF" height="29.1328" style="stroke:#696969;stroke-width:1.0;" width="10" x="724.5" y="480.0547"/><rect fill="#FFFFFF" height="29.1328" style="stroke:#696969;stroke-width:1.0;" width="10" x="724.5" y="692.8516"/><rect fill="#FFFFFF" height="30" style="stroke:#696969;stroke-width:1.0;" width="10" x="724.5" y="809.3828"/><rect fill="#FFFFFF" height="29.1328" style="stroke:#696969;stroke-width:1.0;" width="10" x="724.5" y="875.5156"/><rect fill="#FFFFFF" height="30" style="stroke:#696969;stroke-width:1.0;" width="10" x="724.5" y="962.9141"/><rect fill="#FFFFFF" height="274.7969" style="stroke:#696969;stroke-width:1.0;" width="10" x="813.5" y="933.7813"/><rect fill="#FFFFFF" height="147.3984" style="stroke:#696969;stroke-width:1.0;" width="10" x="1006.5" y="1046.1797"/><rect fill="#FFFFFF" height="59.1328" style="stroke:#696969;stroke-width:1.0;" width="10" x="1141" y="1075.3125"/><rect fill="#FFFFFF" height="30" style="stroke:#696969;stroke-width:1.0;" width="10" x="1379.5" y="1104.4453"/><rect fill="#FFFFFF" height="30" style="stroke:#696969;stroke-width:1.0;" width="10" x="1521.5" y="337.0898"/><rect fill="#FFFFFF" height="30" style="stroke:#696969;stroke-width:1.0;" width="10" x="1521.5" y="599.5859"/><rect fill="#FFFFFF" height="29.1328" style="stroke:#696969;stroke-width:1.0;" width="10" x="1645.5" y="538.3203"/><rect fill="#FFFFFF" height="29.1328" style="stroke:#696969;stroke-width:1.0;" width="10" x="1645.5" y="751.1172"/><rect fill="#FFFFFF" height="30" style="stroke:#696969;stroke-width:1.0;" width="10" x="1645.5" y="1163.5781"/><polygon fill="#454645" points="360.5,131.7266,370.5,135.7266,360.5,139.7266,364.5,135.7266" style="stroke:#454645;stroke-width:1.0;"/><line style="stroke:#454645;stroke-width:1.0;" x1="174.5" x2="366.5" y1="135.7266" y2="135.7266"/><text fill="#000000" font-family="sans-serif" font-size="13" lengthAdjust="spacing" textLength="172" x="181.5" y="130.6606">/individual/v1/bulk/_delete</text><polygon fill="#454645" points="185.5,160.8594,175.5,164.8594,185.5,168.8594,181.5,164.8594" style="stroke:#454645;stroke-width:1.0;"/><line style="stroke:#454645;stroke-width:1.0;" x1="179.5" x2="371.5" y1="164.8594" y2="164.8594"/><text fill="#000000" font-family="sans-serif" font-size="13" lengthAdjust="spacing" textLength="174" x="191.5" y="159.7935">HttpStatus: 202 ACCEPTED</text><path d="M12.5,179.8594 L96,179.8594 L96,186.9922 L86,196.9922 L9,196.9922 L9,183.3594 A3.5,3.5 0 0 1 12.5,179.8594 " fill="#EEEEEE" style="stroke:#696969;stroke-width:1.5;"/><rect fill="none" height="1028.7188" rx="3.5" ry="3.5" style="stroke:#696969;stroke-width:1.0;" width="1698.5" x="9" y="179.8594"/><text fill="#454645" font-family="sans-serif" font-size="13" font-weight="bold" lengthAdjust="spacing" textLength="42" x="24" y="192.9263">async</text><line style="stroke:#454645;stroke-width:1.0;" x1="382.5" x2="424.5" y1="218.125" y2="218.125"/><line style="stroke:#454645;stroke-width:1.0;" x1="424.5" x2="424.5" y1="218.125" y2="231.125"/><line style="stroke:#454645;stroke-width:1.0;" x1="383.5" x2="424.5" y1="231.125" y2="231.125"/><polygon fill="#454645" points="393.5,227.125,383.5,231.125,393.5,235.125,389.5,231.125" style="stroke:#454645;stroke-width:1.0;"/><text fill="#000000" font-family="sans-serif" font-size="13" lengthAdjust="spacing" textLength="143" x="389.5" y="213.0591">Validate request body</text><path d="M22.5,246.125 L83,246.125 L83,253.2578 L73,263.2578 L19,263.2578 L19,249.625 A3.5,3.5 0 0 1 22.5,246.125 " fill="#EEEEEE" style="stroke:#696969;stroke-width:1.5;"/><rect fill="none" height="139.5313" rx="3.5" ry="3.5" style="stroke:#696969;stroke-width:1.0;" width="1594.5" x="19" y="246.125"/><text fill="#454645" font-family="sans-serif" font-size="13" font-weight="bold" lengthAdjust="spacing" textLength="19" x="34" y="259.1919">alt</text><text fill="#696969" font-family="sans-serif" font-size="11" font-weight="bold" lengthAdjust="spacing" textLength="154" x="98" y="258.3354">[request validation fails]</text><line style="stroke:#454645;stroke-width:1.0;" x1="382.5" x2="424.5" y1="284.3906" y2="284.3906"/><line style="stroke:#454645;stroke-width:1.0;" x1="424.5" x2="424.5" y1="284.3906" y2="297.3906"/><line style="stroke:#454645;stroke-width:1.0;" x1="383.5" x2="424.5" y1="297.3906" y2="297.3906"/><polygon fill="#454645" points="393.5,293.3906,383.5,297.3906,393.5,301.3906,389.5,297.3906" style="stroke:#454645;stroke-width:1.0;"/><text fill="#000000" font-family="sans-serif" font-size="13" lengthAdjust="spacing" textLength="163" x="389.5" y="279.3247">Request validation failed</text><polygon fill="#454645" points="1509.5,333.0898,1519.5,337.0898,1509.5,341.0898,1513.5,337.0898" style="stroke:#454645;stroke-width:1.0;"/><line style="stroke:#454645;stroke-width:1.0;" x1="382.5" x2="1515.5" y1="337.0898" y2="337.0898"/><text fill="#000000" font-family="sans-serif" font-size="13" lengthAdjust="spacing" textLength="231" x="389.5" y="332.0239">call handleError HandleErrorMethod</text><path d="M29,313.8906 L29,346.8906 A3.5,3.5 0 0 0 32.5,350.3906 L363.5,350.3906 A3.5,3.5 0 0 0 367,346.8906 L367,320.3906 L357,310.3906 L32.5,310.3906 A3.5,3.5 0 0 0 29,313.8906 " fill="#7FFFD4" style="stroke:#454645;stroke-width:1.5;"/><path d="M357,310.3906 L357,318.6406 A1.75,1.75 0 0 0 358.75,320.3906 L367,320.3906 L357,310.3906 " fill="#7FFFD4" style="stroke:#454645;stroke-width:1.5;"/><text fill="#454645" font-family="sans-serif" font-size="13" lengthAdjust="spacing" textLength="317" x="35" y="327.4575">This will be marked as unrecoverable right away</text><text fill="#454645" font-family="sans-serif" font-size="13" lengthAdjust="spacing" textLength="210" x="35" y="342.5903">and require manual intervention</text><line style="stroke:#454645;stroke-width:1.0;" x1="382.5" x2="424.5" y1="413.7891" y2="413.7891"/><line style="stroke:#454645;stroke-width:1.0;" x1="424.5" x2="424.5" y1="413.7891" y2="426.7891"/><line style="stroke:#454645;stroke-width:1.0;" x1="383.5" x2="424.5" y1="426.7891" y2="426.7891"/><polygon fill="#454645" points="393.5,422.7891,383.5,426.7891,393.5,430.7891,389.5,426.7891" style="stroke:#454645;stroke-width:1.0;"/><text fill="#000000" font-family="sans-serif" font-size="13" lengthAdjust="spacing" textLength="194" x="389.5" y="408.7231">Request validation successful</text><path d="M119.5,441.7891 L180,441.7891 L180,448.9219 L170,458.9219 L116,458.9219 L116,445.2891 A3.5,3.5 0 0 1 119.5,441.7891 " fill="#EEEEEE" style="stroke:#696969;stroke-width:1.5;"/><rect fill="none" height="198.7969" rx="3.5" ry="3.5" style="stroke:#696969;stroke-width:1.0;" width="1581.5" x="116" y="441.7891"/><text fill="#454645" font-family="sans-serif" font-size="13" font-weight="bold" lengthAdjust="spacing" textLength="19" x="131" y="454.856">alt</text><text fill="#696969" font-family="sans-serif" font-size="11" font-weight="bold" lengthAdjust="spacing" textLength="134" x="195" y="453.9995">[record doesn't exist]</text><polygon fill="#454645" points="712.5,476.0547,722.5,480.0547,712.5,484.0547,716.5,480.0547" style="stroke:#454645;stroke-width:1.0;"/><line style="stroke:#454645;stroke-width:1.0;" x1="382.5" x2="718.5" y1="480.0547" y2="480.0547"/><text fill="#000000" font-family="sans-serif" font-size="13" lengthAdjust="spacing" textLength="277" x="389.5" y="474.9888">Search record based on serverGeneratedId</text><polygon fill="#454645" points="393.5,505.1875,383.5,509.1875,393.5,513.1875,389.5,509.1875" style="stroke:#454645;stroke-width:1.0;"/><line style="stroke:#454645;stroke-width:1.0;" x1="387.5" x2="728.5" y1="509.1875" y2="509.1875"/><text fill="#000000" font-family="sans-serif" font-size="13" lengthAdjust="spacing" textLength="43" x="399.5" y="504.1216">0 rows</text><polygon fill="#454645" points="1633.5,534.3203,1643.5,538.3203,1633.5,542.3203,1637.5,538.3203" style="stroke:#454645;stroke-width:1.0;"/><line style="stroke:#454645;stroke-width:1.0;" x1="382.5" x2="1639.5" y1="538.3203" y2="538.3203"/><text fill="#000000" font-family="sans-serif" font-size="13" lengthAdjust="spacing" textLength="277" x="389.5" y="533.2544">Search record based on serverGeneratedId</text><polygon fill="#454645" points="393.5,563.4531,383.5,567.4531,393.5,571.4531,389.5,567.4531" style="stroke:#454645;stroke-width:1.0;"/><line style="stroke:#454645;stroke-width:1.0;" x1="387.5" x2="1649.5" y1="567.4531" y2="567.4531"/><text fill="#000000" font-family="sans-serif" font-size="13" lengthAdjust="spacing" textLength="36" x="399.5" y="562.3872">0 row</text><polygon fill="#454645" points="1509.5,595.5859,1519.5,599.5859,1509.5,603.5859,1513.5,599.5859" style="stroke:#454645;stroke-width:1.0;"/><line style="stroke:#454645;stroke-width:1.0;" x1="382.5" x2="1515.5" y1="599.5859" y2="599.5859"/><text fill="#000000" font-family="sans-serif" font-size="13" lengthAdjust="spacing" textLength="231" x="389.5" y="594.52">call handleError HandleErrorMethod</text><path d="M126,583.9531 L126,601.9531 A3.5,3.5 0 0 0 129.5,605.4531 L363.5,605.4531 A3.5,3.5 0 0 0 367,601.9531 L367,590.4531 L357,580.4531 L129.5,580.4531 A3.5,3.5 0 0 0 126,583.9531 " fill="#7FFFD4" style="stroke:#454645;stroke-width:1.5;"/><path d="M357,580.4531 L357,588.7031 A1.75,1.75 0 0 0 358.75,590.4531 L367,590.4531 L357,580.4531 " fill="#7FFFD4" style="stroke:#454645;stroke-width:1.5;"/><text fill="#454645" font-family="sans-serif" font-size="13" lengthAdjust="spacing" textLength="220" x="132" y="597.52">Error Code: RECORD_NOT_FOUND</text><path d="M300.5,654.5859 L361,654.5859 L361,661.7188 L351,671.7188 L297,671.7188 L297,658.0859 A3.5,3.5 0 0 1 300.5,654.5859 " fill="#EEEEEE" style="stroke:#696969;stroke-width:1.5;"/><rect fill="none" height="192.7969" rx="3.5" ry="3.5" style="stroke:#696969;stroke-width:1.0;" width="1400.5" x="297" y="654.5859"/><text fill="#454645" font-family="sans-serif" font-size="13" font-weight="bold" lengthAdjust="spacing" textLength="19" x="312" y="667.6528">alt</text><text fill="#696969" font-family="sans-serif" font-size="11" font-weight="bold" lengthAdjust="spacing" textLength="197" x="376" y="666.7964">[record doesn't exists in cache]</text><polygon fill="#454645" points="712.5,688.8516,722.5,692.8516,712.5,696.8516,716.5,692.8516" style="stroke:#454645;stroke-width:1.0;"/><line style="stroke:#454645;stroke-width:1.0;" x1="382.5" x2="718.5" y1="692.8516" y2="692.8516"/><text fill="#000000" font-family="sans-serif" font-size="13" lengthAdjust="spacing" textLength="277" x="389.5" y="687.7856">Search record based on serverGeneratedId</text><polygon fill="#454645" points="393.5,717.9844,383.5,721.9844,393.5,725.9844,389.5,721.9844" style="stroke:#454645;stroke-width:1.0;"/><line style="stroke:#454645;stroke-width:1.0;" x1="387.5" x2="728.5" y1="721.9844" y2="721.9844"/><text fill="#000000" font-family="sans-serif" font-size="13" lengthAdjust="spacing" textLength="43" x="399.5" y="716.9185">0 rows</text><polygon fill="#454645" points="1633.5,747.1172,1643.5,751.1172,1633.5,755.1172,1637.5,751.1172" style="stroke:#454645;stroke-width:1.0;"/><line style="stroke:#454645;stroke-width:1.0;" x1="382.5" x2="1639.5" y1="751.1172" y2="751.1172"/><text fill="#000000" font-family="sans-serif" font-size="13" lengthAdjust="spacing" textLength="277" x="389.5" y="746.0513">Search record based on serverGeneratedId</text><polygon fill="#454645" points="393.5,776.25,383.5,780.25,393.5,784.25,389.5,780.25" style="stroke:#454645;stroke-width:1.0;"/><line style="stroke:#454645;stroke-width:1.0;" x1="387.5" x2="1649.5" y1="780.25" y2="780.25"/><text fill="#000000" font-family="sans-serif" font-size="13" lengthAdjust="spacing" textLength="36" x="399.5" y="775.1841">1 row</text><polygon fill="#454645" points="712.5,805.3828,722.5,809.3828,712.5,813.3828,716.5,809.3828" style="stroke:#454645;stroke-width:1.0;"/><line style="stroke:#454645;stroke-width:1.0;" x1="382.5" x2="718.5" y1="809.3828" y2="809.3828"/><text fill="#000000" font-family="sans-serif" font-size="13" lengthAdjust="spacing" textLength="53" x="389.5" y="804.3169">1 record</text><polygon fill="#454645" points="712.5,871.5156,722.5,875.5156,712.5,879.5156,716.5,875.5156" style="stroke:#454645;stroke-width:1.0;"/><line style="stroke:#454645;stroke-width:1.0;" x1="382.5" x2="718.5" y1="875.5156" y2="875.5156"/><text fill="#000000" font-family="sans-serif" font-size="13" lengthAdjust="spacing" textLength="161" x="389.5" y="870.4497">Fetch the existing record</text><polygon fill="#454645" points="393.5,900.6484,383.5,904.6484,393.5,908.6484,389.5,904.6484" style="stroke:#454645;stroke-width:1.0;"/><line style="stroke:#454645;stroke-width:1.0;" x1="387.5" x2="728.5" y1="904.6484" y2="904.6484"/><text fill="#000000" font-family="sans-serif" font-size="13" lengthAdjust="spacing" textLength="36" x="399.5" y="899.5825">1 row</text><polygon fill="#454645" points="801.5,929.7813,811.5,933.7813,801.5,937.7813,805.5,933.7813" style="stroke:#454645;stroke-width:1.0;"/><line style="stroke:#454645;stroke-width:1.0;" x1="382.5" x2="807.5" y1="933.7813" y2="933.7813"/><text fill="#000000" font-family="sans-serif" font-size="13" lengthAdjust="spacing" textLength="187" x="389.5" y="928.7153">Individual Data /delete_topic</text><polygon fill="#454645" points="712.5,958.9141,722.5,962.9141,712.5,966.9141,716.5,962.9141" style="stroke:#454645;stroke-width:1.0;"/><line style="stroke:#454645;stroke-width:1.0;" x1="382.5" x2="718.5" y1="962.9141" y2="962.9141"/><text fill="#000000" font-family="sans-serif" font-size="13" lengthAdjust="spacing" textLength="323" x="389.5" y="957.8481">Delete record in cache against serverGeneratedId</text><path d="M782,1007.9141 L865.5,1007.9141 L865.5,1015.0469 L855.5,1025.0469 L778.5,1025.0469 L778.5,1011.4141 A3.5,3.5 0 0 1 782,1007.9141 " fill="#EEEEEE" style="stroke:#696969;stroke-width:1.5;"/><rect fill="none" height="193.6641" rx="3.5" ry="3.5" style="stroke:#696969;stroke-width:1.0;" width="919" x="778.5" y="1007.9141"/><text fill="#454645" font-family="sans-serif" font-size="13" font-weight="bold" lengthAdjust="spacing" textLength="42" x="793.5" y="1020.981">async</text><polygon fill="#454645" points="834.5,1042.1797,824.5,1046.1797,834.5,1050.1797,830.5,1046.1797" style="stroke:#454645;stroke-width:1.0;"/><line style="stroke:#454645;stroke-width:1.0;" x1="828.5" x2="1005.5" y1="1046.1797" y2="1046.1797"/><text fill="#000000" font-family="sans-serif" font-size="13" lengthAdjust="spacing" textLength="164" x="840.5" y="1041.1138">Consume Individual Data</text><polygon fill="#454645" points="834.5,1071.3125,824.5,1075.3125,834.5,1079.3125,830.5,1075.3125" style="stroke:#454645;stroke-width:1.0;"/><line style="stroke:#454645;stroke-width:1.0;" x1="828.5" x2="1140" y1="1075.3125" y2="1075.3125"/><text fill="#000000" font-family="sans-serif" font-size="13" lengthAdjust="spacing" textLength="164" x="840.5" y="1070.2466">Consume Individual Data</text><polygon fill="#454645" points="1367.5,1100.4453,1377.5,1104.4453,1367.5,1108.4453,1371.5,1104.4453" style="stroke:#454645;stroke-width:1.0;"/><line style="stroke:#454645;stroke-width:1.0;" x1="1151" x2="1373.5" y1="1104.4453" y2="1104.4453"/><text fill="#000000" font-family="sans-serif" font-size="13" lengthAdjust="spacing" textLength="137" x="1158" y="1099.3794">Store Individual Data</text><polygon fill="#454645" points="1633.5,1159.5781,1643.5,1163.5781,1633.5,1167.5781,1637.5,1163.5781" style="stroke:#454645;stroke-width:1.0;"/><line style="stroke:#454645;stroke-width:1.0;" x1="1016.5" x2="1639.5" y1="1163.5781" y2="1163.5781"/><text fill="#000000" font-family="sans-serif" font-size="13" lengthAdjust="spacing" textLength="174" x="1023.5" y="1158.5122">Soft delete Individual Data</text><!--SRC=[tLN9Rjim4BthAwQddW8dEVfGe9MT1KMJm4bxDIXoR15YI9UabFZlEzHcKLQszbPTB0tVR6-UELvwXN2jXQoaA9c24_XMgW8MgD1Zyidd-8XGoSmoxPCTirvokQDtI9L4-c4EU6G_n5hXLZflzm7Z8imAXNGfupc6CykJtoMM2D_Pfc31KaJeExIE0g6zHrj9Nllih1jdnUS88SLpX5XQQuRd60TOAkReunwPvNbzhgBpAwQ5mZh83_Iv4G6JOoAOPnbp28lkXUmYIpYSV047SvZ9df1PTJRBYDtPMZJqCkvbnJmIFIxW-HoklD_TU-PBDuVpqtFucgRBkuVb8hcqfjnHyBtc2T1JEn3e5rDIX1WMYKNd8JDYNoEOyhsnQb3IQDWmgLmD68PPJGDHnCWSvy2PKf0V-3ZcflUfo-YQ9BQ6Te4ldMX3DeKR7rd3yv1B1q-IycS8ZymMMC-Xr1QvgT2oZDHivJOdOJwn_P4_5LfJ8crmrq7mKfEoAf8ojHpXaR2XagJzIDwWovMSetERKWtOvyOA40QT_km1dqd6CP-MHjvghWK73Ga8yK9PzX8rjULHN1zOxNcplBTPtbPs2jOy7UOxO7c0hdEBx5zoayRx7DamzrJg0VXlP3Gbb6dvJ4cdYPuQGKbNo_HsjLZVt3wiBsv_tYoILwVzqWpfTj5KFnya_W-dUVRUQOQspzgihxPrN7xqlmfnBj1J1xHs6gQbtWu3ZzrxdWwr7kUeOnVpuPOBbpNCcbjuxSrEyZXy4HVLRCEErsxsmBPCQhe4flaTbn4NDZOrCzwEBldmqAfh6qYDTkKZZXivfZninyv8U_2Zxc5rZjnHaRgyiU_mHZKrxsdhC5FRPwrZi_7GJEVjV4FfuXlMZfXETeEZ8Y7Z7m00]--></g></svg>