<?xml version="1.0" encoding="UTF-8" standalone="no"?><svg xmlns="http://www.w3.org/2000/svg" xmlns:xlink="http://www.w3.org/1999/xlink" contentStyleType="text/css" height="1020px" preserveAspectRatio="none" style="width:2023px;height:1020px;background:#FFFFFF;" version="1.1" viewBox="0 0 2023 1020" width="2023px" zoomAndPan="magnify"><defs/><g><text fill="#000000" font-family="sans-serif" font-size="14" font-weight="bold" lengthAdjust="spacing" textLength="154" x="935.75" y="27.9951">Household - Create</text><rect fill="#FFFFFF" height="566.9297" style="stroke:#696969;stroke-width:1.0;" width="10" x="627.5" y="135.7266"/><rect fill="#FFFFFF" height="30" style="stroke:#696969;stroke-width:1.0;" width="10" x="1138.5" y="672.6563"/><rect fill="#FFFFFF" height="281.7969" style="stroke:#696969;stroke-width:1.0;" width="10" x="1227.5" y="643.5234"/><rect fill="#FFFFFF" height="147.3984" style="stroke:#696969;stroke-width:1.0;" width="10" x="1425.5" y="755.9219"/><rect fill="#FFFFFF" height="59.1328" style="stroke:#696969;stroke-width:1.0;" width="10" x="1560" y="785.0547"/><rect fill="#FFFFFF" height="30" style="stroke:#696969;stroke-width:1.0;" width="10" x="1798.5" y="814.1875"/><rect fill="#FFFFFF" height="30" style="stroke:#696969;stroke-width:1.0;" width="10" x="1900.5" y="873.3203"/><rect fill="#FFFFFF" height="29.1328" style="stroke:#696969;stroke-width:1.0;" width="10" x="1974.5" y="381.6563"/><rect fill="#FFFFFF" height="29.1328" style="stroke:#696969;stroke-width:1.0;" width="10" x="1974.5" y="489.8594"/><rect fill="none" height="94.3984" rx="3.5" ry="3.5" style="stroke:#696969;stroke-width:1.0;" width="810.5" x="9" y="192.8594"/><rect fill="none" height="581.9297" rx="3.5" ry="3.5" style="stroke:#696969;stroke-width:1.0;" width="1966.5" x="50" y="343.3906"/><rect fill="none" height="355.1953" rx="3.5" ry="3.5" style="stroke:#696969;stroke-width:1.0;" width="1414" x="548.5" y="563.125"/><rect fill="none" height="193.6641" rx="3.5" ry="3.5" style="stroke:#696969;stroke-width:1.0;" width="760" x="1192.5" y="717.6563"/><line style="stroke:#696969;stroke-width:0.5;stroke-dasharray:5.0,5.0;" x1="321" x2="321" y1="104.5938" y2="942.3203"/><line style="stroke:#696969;stroke-width:0.5;stroke-dasharray:5.0,5.0;" x1="632.5" x2="632.5" y1="104.5938" y2="942.3203"/><line style="stroke:#696969;stroke-width:0.5;stroke-dasharray:5.0,5.0;" x1="915" x2="915" y1="104.5938" y2="942.3203"/><line style="stroke:#696969;stroke-width:0.5;stroke-dasharray:5.0,5.0;" x1="1143.5" x2="1143.5" y1="104.5938" y2="942.3203"/><line style="stroke:#696969;stroke-width:0.5;stroke-dasharray:5.0,5.0;" x1="1232.5" x2="1232.5" y1="104.5938" y2="942.3203"/><line style="stroke:#696969;stroke-width:0.5;stroke-dasharray:5.0,5.0;" x1="1430.5" x2="1430.5" y1="104.5938" y2="942.3203"/><line style="stroke:#696969;stroke-width:0.5;stroke-dasharray:5.0,5.0;" x1="1564.5" x2="1564.5" y1="104.5938" y2="942.3203"/><line style="stroke:#696969;stroke-width:0.5;stroke-dasharray:5.0,5.0;" x1="1686.5" x2="1686.5" y1="104.5938" y2="942.3203"/><line style="stroke:#696969;stroke-width:0.5;stroke-dasharray:5.0,5.0;" x1="1803.5" x2="1803.5" y1="104.5938" y2="942.3203"/><line style="stroke:#696969;stroke-width:0.5;stroke-dasharray:5.0,5.0;" x1="1905.5" x2="1905.5" y1="104.5938" y2="942.3203"/><line style="stroke:#696969;stroke-width:0.5;stroke-dasharray:5.0,5.0;" x1="1979.5" x2="1979.5" y1="104.5938" y2="942.3203"/><rect fill="#FF6347" height="30.2969" rx="3.5" ry="3.5" style="stroke:#454645;stroke-width:1.5;" width="55" x="294" y="73.2969"/><text fill="#FFFFFF" font-family="sans-serif" font-size="14" lengthAdjust="spacing" textLength="41" x="301" y="93.292">Client</text><rect fill="#FF6347" height="30.2969" rx="3.5" ry="3.5" style="stroke:#454645;stroke-width:1.5;" width="55" x="294" y="941.3203"/><text fill="#FFFFFF" font-family="sans-serif" font-size="14" lengthAdjust="spacing" textLength="41" x="301" y="961.3154">Client</text><rect fill="#FF6347" height="30.2969" rx="3.5" ry="3.5" style="stroke:#454645;stroke-width:1.5;" width="148" x="558.5" y="73.2969"/><text fill="#FFFFFF" font-family="sans-serif" font-size="14" lengthAdjust="spacing" textLength="134" x="565.5" y="93.292">HouseholdRegistry</text><rect fill="#FF6347" height="30.2969" rx="3.5" ry="3.5" style="stroke:#454645;stroke-width:1.5;" width="148" x="558.5" y="941.3203"/><text fill="#FFFFFF" font-family="sans-serif" font-size="14" lengthAdjust="spacing" textLength="134" x="565.5" y="961.3154">HouseholdRegistry</text><rect fill="#FF6347" height="30.2969" rx="3.5" ry="3.5" style="stroke:#454645;stroke-width:1.5;" width="141" x="845" y="73.2969"/><text fill="#FFFFFF" font-family="sans-serif" font-size="14" lengthAdjust="spacing" textLength="127" x="852" y="93.292">IndividualRegistry</text><rect fill="#FF6347" height="30.2969" rx="3.5" ry="3.5" style="stroke:#454645;stroke-width:1.5;" width="141" x="845" y="941.3203"/><text fill="#FFFFFF" font-family="sans-serif" font-size="14" lengthAdjust="spacing" textLength="127" x="852" y="961.3154">IndividualRegistry</text><rect fill="#FF6347" height="30.2969" rx="3.5" ry="3.5" style="stroke:#454645;stroke-width:1.5;" width="98" x="1094.5" y="73.2969"/><text fill="#FFFFFF" font-family="sans-serif" font-size="14" lengthAdjust="spacing" textLength="84" x="1101.5" y="93.292">RedisCache</text><rect fill="#FF6347" height="30.2969" rx="3.5" ry="3.5" style="stroke:#454645;stroke-width:1.5;" width="98" x="1094.5" y="941.3203"/><text fill="#FFFFFF" font-family="sans-serif" font-size="14" lengthAdjust="spacing" textLength="84" x="1101.5" y="961.3154">RedisCache</text><path d="M1207.5,78.2969 L1257.5,78.2969 C1262.5,78.2969 1262.5,91.4453 1262.5,91.4453 C1262.5,91.4453 1262.5,104.5938 1257.5,104.5938 L1207.5,104.5938 C1202.5,104.5938 1202.5,91.4453 1202.5,91.4453 C1202.5,91.4453 1202.5,78.2969 1207.5,78.2969 " fill="#FF6347" style="stroke:#454645;stroke-width:1.5;"/><path d="M1257.5,78.2969 C1252.5,78.2969 1252.5,91.4453 1252.5,91.4453 C1252.5,104.5938 1257.5,104.5938 1257.5,104.5938 " fill="none" style="stroke:#454645;stroke-width:1.5;"/><text fill="#FFFFFF" font-family="sans-serif" font-size="14" lengthAdjust="spacing" textLength="40" x="1207.5" y="96.292">Kafka</text><path d="M1207.5,941.3203 L1257.5,941.3203 C1262.5,941.3203 1262.5,954.4688 1262.5,954.4688 C1262.5,954.4688 1262.5,967.6172 1257.5,967.6172 L1207.5,967.6172 C1202.5,967.6172 1202.5,954.4688 1202.5,954.4688 C1202.5,954.4688 1202.5,941.3203 1207.5,941.3203 " fill="#FF6347" style="stroke:#454645;stroke-width:1.5;"/><path d="M1257.5,941.3203 C1252.5,941.3203 1252.5,954.4688 1252.5,954.4688 C1252.5,967.6172 1257.5,967.6172 1257.5,967.6172 " fill="none" style="stroke:#454645;stroke-width:1.5;"/><text fill="#FFFFFF" font-family="sans-serif" font-size="14" lengthAdjust="spacing" textLength="40" x="1207.5" y="959.3154">Kafka</text><rect fill="#FF6347" height="30.2969" rx="3.5" ry="3.5" style="stroke:#454645;stroke-width:1.5;" width="128" x="1366.5" y="73.2969"/><text fill="#FFFFFF" font-family="sans-serif" font-size="14" lengthAdjust="spacing" textLength="114" x="1373.5" y="93.292">PersisterService</text><rect fill="#FF6347" height="30.2969" rx="3.5" ry="3.5" style="stroke:#454645;stroke-width:1.5;" width="128" x="1366.5" y="941.3203"/><text fill="#FFFFFF" font-family="sans-serif" font-size="14" lengthAdjust="spacing" textLength="114" x="1373.5" y="961.3154">PersisterService</text><rect fill="#FF6347" height="30.2969" rx="3.5" ry="3.5" style="stroke:#454645;stroke-width:1.5;" width="121" x="1504.5" y="73.2969"/><text fill="#FFFFFF" font-family="sans-serif" font-size="14" lengthAdjust="spacing" textLength="107" x="1511.5" y="93.292">IndexerService</text><rect fill="#FF6347" height="30.2969" rx="3.5" ry="3.5" style="stroke:#454645;stroke-width:1.5;" width="121" x="1504.5" y="941.3203"/><text fill="#FFFFFF" font-family="sans-serif" font-size="14" lengthAdjust="spacing" textLength="107" x="1511.5" y="961.3154">IndexerService</text><rect fill="#FF6347" height="30.2969" rx="3.5" ry="3.5" style="stroke:#454645;stroke-width:1.5;" width="103" x="1635.5" y="73.2969"/><text fill="#FFFFFF" font-family="sans-serif" font-size="14" lengthAdjust="spacing" textLength="89" x="1642.5" y="93.292">ErrorService</text><rect fill="#FF6347" height="30.2969" rx="3.5" ry="3.5" style="stroke:#454645;stroke-width:1.5;" width="103" x="1635.5" y="941.3203"/><text fill="#FFFFFF" font-family="sans-serif" font-size="14" lengthAdjust="spacing" textLength="89" x="1642.5" y="961.3154">ErrorService</text><rect fill="#FF6347" height="30.2969" rx="3.5" ry="3.5" style="stroke:#454645;stroke-width:1.5;" width="110" x="1748.5" y="73.2969"/><text fill="#FFFFFF" font-family="sans-serif" font-size="14" lengthAdjust="spacing" textLength="96" x="1755.5" y="93.292">ElasticSearch</text><rect fill="#FF6347" height="30.2969" rx="3.5" ry="3.5" style="stroke:#454645;stroke-width:1.5;" width="110" x="1748.5" y="941.3203"/><text fill="#FFFFFF" font-family="sans-serif" font-size="14" lengthAdjust="spacing" textLength="96" x="1755.5" y="961.3154">ElasticSearch</text><text fill="#454645" font-family="sans-serif" font-size="14" lengthAdjust="spacing" textLength="68" x="1868.5" y="101.292">Database</text><path d="M1887.5,52.2969 C1887.5,42.2969 1905.5,42.2969 1905.5,42.2969 C1905.5,42.2969 1923.5,42.2969 1923.5,52.2969 L1923.5,78.2969 C1923.5,88.2969 1905.5,88.2969 1905.5,88.2969 C1905.5,88.2969 1887.5,88.2969 1887.5,78.2969 L1887.5,52.2969 " fill="#00FFFF" style="stroke:#454645;stroke-width:1.5;"/><path d="M1887.5,52.2969 C1887.5,62.2969 1905.5,62.2969 1905.5,62.2969 C1905.5,62.2969 1923.5,62.2969 1923.5,52.2969 " fill="none" style="stroke:#454645;stroke-width:1.5;"/><text fill="#454645" font-family="sans-serif" font-size="14" lengthAdjust="spacing" textLength="68" x="1868.5" y="954.3154">Database</text><path d="M1887.5,967.6172 C1887.5,957.6172 1905.5,957.6172 1905.5,957.6172 C1905.5,957.6172 1923.5,957.6172 1923.5,967.6172 L1923.5,993.6172 C1923.5,1003.6172 1905.5,1003.6172 1905.5,1003.6172 C1905.5,1003.6172 1887.5,1003.6172 1887.5,993.6172 L1887.5,967.6172 " fill="#00FFFF" style="stroke:#454645;stroke-width:1.5;"/><path d="M1887.5,967.6172 C1887.5,977.6172 1905.5,977.6172 1905.5,977.6172 C1905.5,977.6172 1923.5,977.6172 1923.5,967.6172 " fill="none" style="stroke:#454645;stroke-width:1.5;"/><rect fill="#FF6347" height="30.2969" rx="3.5" ry="3.5" style="stroke:#454645;stroke-width:1.5;" width="54" x="1952.5" y="73.2969"/><text fill="#FFFFFF" font-family="sans-serif" font-size="14" lengthAdjust="spacing" textLength="40" x="1959.5" y="93.292">idgen</text><rect fill="#FF6347" height="30.2969" rx="3.5" ry="3.5" style="stroke:#454645;stroke-width:1.5;" width="54" x="1952.5" y="941.3203"/><text fill="#FFFFFF" font-family="sans-serif" font-size="14" lengthAdjust="spacing" textLength="40" x="1959.5" y="961.3154">idgen</text><rect fill="#FFFFFF" height="566.9297" style="stroke:#696969;stroke-width:1.0;" width="10" x="627.5" y="135.7266"/><rect fill="#FFFFFF" height="30" style="stroke:#696969;stroke-width:1.0;" width="10" x="1138.5" y="672.6563"/><rect fill="#FFFFFF" height="281.7969" style="stroke:#696969;stroke-width:1.0;" width="10" x="1227.5" y="643.5234"/><rect fill="#FFFFFF" height="147.3984" style="stroke:#696969;stroke-width:1.0;" width="10" x="1425.5" y="755.9219"/><rect fill="#FFFFFF" height="59.1328" style="stroke:#696969;stroke-width:1.0;" width="10" x="1560" y="785.0547"/><rect fill="#FFFFFF" height="30" style="stroke:#696969;stroke-width:1.0;" width="10" x="1798.5" y="814.1875"/><rect fill="#FFFFFF" height="30" style="stroke:#696969;stroke-width:1.0;" width="10" x="1900.5" y="873.3203"/><rect fill="#FFFFFF" height="29.1328" style="stroke:#696969;stroke-width:1.0;" width="10" x="1974.5" y="381.6563"/><rect fill="#FFFFFF" height="29.1328" style="stroke:#696969;stroke-width:1.0;" width="10" x="1974.5" y="489.8594"/><polygon fill="#454645" points="615.5,131.7266,625.5,135.7266,615.5,139.7266,619.5,135.7266" style="stroke:#454645;stroke-width:1.0;"/><line style="stroke:#454645;stroke-width:1.0;" x1="321.5" x2="621.5" y1="135.7266" y2="135.7266"/><text fill="#000000" font-family="sans-serif" font-size="13" lengthAdjust="spacing" textLength="143" x="328.5" y="130.6606">/household/v1/_create</text><line style="stroke:#454645;stroke-width:1.0;" x1="637.5" x2="679.5" y1="164.8594" y2="164.8594"/><line style="stroke:#454645;stroke-width:1.0;" x1="679.5" x2="679.5" y1="164.8594" y2="177.8594"/><line style="stroke:#454645;stroke-width:1.0;" x1="638.5" x2="679.5" y1="177.8594" y2="177.8594"/><polygon fill="#454645" points="648.5,173.8594,638.5,177.8594,648.5,181.8594,644.5,177.8594" style="stroke:#454645;stroke-width:1.0;"/><text fill="#000000" font-family="sans-serif" font-size="13" lengthAdjust="spacing" textLength="143" x="644.5" y="159.7935">Validate request body</text><path d="M12.5,192.8594 L73,192.8594 L73,199.9922 L63,209.9922 L9,209.9922 L9,196.3594 A3.5,3.5 0 0 1 12.5,192.8594 " fill="#EEEEEE" style="stroke:#696969;stroke-width:1.5;"/><rect fill="none" height="94.3984" rx="3.5" ry="3.5" style="stroke:#696969;stroke-width:1.0;" width="810.5" x="9" y="192.8594"/><text fill="#454645" font-family="sans-serif" font-size="13" font-weight="bold" lengthAdjust="spacing" textLength="19" x="24" y="205.9263">alt</text><text fill="#696969" font-family="sans-serif" font-size="11" font-weight="bold" lengthAdjust="spacing" textLength="154" x="88" y="205.0698">[request validation fails]</text><line style="stroke:#454645;stroke-width:1.0;" x1="637.5" x2="679.5" y1="231.125" y2="231.125"/><line style="stroke:#454645;stroke-width:1.0;" x1="679.5" x2="679.5" y1="231.125" y2="244.125"/><line style="stroke:#454645;stroke-width:1.0;" x1="638.5" x2="679.5" y1="244.125" y2="244.125"/><polygon fill="#454645" points="648.5,240.125,638.5,244.125,648.5,248.125,644.5,244.125" style="stroke:#454645;stroke-width:1.0;"/><text fill="#000000" font-family="sans-serif" font-size="13" lengthAdjust="spacing" textLength="163" x="644.5" y="226.0591">Request validation failed</text><polygon fill="#454645" points="332.5,272.2578,322.5,276.2578,332.5,280.2578,328.5,276.2578" style="stroke:#454645;stroke-width:1.0;"/><line style="stroke:#454645;stroke-width:1.0;" x1="326.5" x2="626.5" y1="276.2578" y2="276.2578"/><text fill="#000000" font-family="sans-serif" font-size="13" lengthAdjust="spacing" textLength="282" x="338.5" y="271.1919">HttpStatus: 400 with appropriate error code</text><path d="M19,260.625 L19,278.625 A3.5,3.5 0 0 0 22.5,282.125 L312.5,282.125 A3.5,3.5 0 0 0 316,278.625 L316,267.125 L306,257.125 L22.5,257.125 A3.5,3.5 0 0 0 19,260.625 " fill="#7FFFD4" style="stroke:#454645;stroke-width:1.5;"/><path d="M306,257.125 L306,265.375 A1.75,1.75 0 0 0 307.75,267.125 L316,267.125 L306,257.125 " fill="#7FFFD4" style="stroke:#454645;stroke-width:1.5;"/><text fill="#454645" font-family="sans-serif" font-size="13" lengthAdjust="spacing" textLength="276" x="25" y="274.1919">Error Code: REQUEST_VALIDATION_FAILED</text><line style="stroke:#454645;stroke-width:1.0;" x1="637.5" x2="679.5" y1="315.3906" y2="315.3906"/><line style="stroke:#454645;stroke-width:1.0;" x1="679.5" x2="679.5" y1="315.3906" y2="328.3906"/><line style="stroke:#454645;stroke-width:1.0;" x1="638.5" x2="679.5" y1="328.3906" y2="328.3906"/><polygon fill="#454645" points="648.5,324.3906,638.5,328.3906,648.5,332.3906,644.5,328.3906" style="stroke:#454645;stroke-width:1.0;"/><text fill="#000000" font-family="sans-serif" font-size="13" lengthAdjust="spacing" textLength="194" x="644.5" y="310.3247">Request validation successful</text><path d="M53.5,343.3906 L114,343.3906 L114,350.5234 L104,360.5234 L50,360.5234 L50,346.8906 A3.5,3.5 0 0 1 53.5,343.3906 " fill="#EEEEEE" style="stroke:#696969;stroke-width:1.5;"/><rect fill="none" height="581.9297" rx="3.5" ry="3.5" style="stroke:#696969;stroke-width:1.0;" width="1966.5" x="50" y="343.3906"/><text fill="#454645" font-family="sans-serif" font-size="13" font-weight="bold" lengthAdjust="spacing" textLength="19" x="65" y="356.4575">alt</text><text fill="#696969" font-family="sans-serif" font-size="11" font-weight="bold" lengthAdjust="spacing" textLength="124" x="129" y="355.6011">[id generation fails]</text><polygon fill="#454645" points="1962.5,377.6563,1972.5,381.6563,1962.5,385.6563,1966.5,381.6563" style="stroke:#454645;stroke-width:1.0;"/><line style="stroke:#454645;stroke-width:1.0;" x1="637.5" x2="1968.5" y1="381.6563" y2="381.6563"/><text fill="#000000" font-family="sans-serif" font-size="13" lengthAdjust="spacing" textLength="85" x="644.5" y="376.5903">/id/_generate</text><polygon fill="#454645" points="648.5,406.7891,638.5,410.7891,648.5,414.7891,644.5,410.7891" style="stroke:#454645;stroke-width:1.0;"/><line style="stroke:#454645;stroke-width:1.0;" x1="642.5" x2="1978.5" y1="410.7891" y2="410.7891"/><text fill="#000000" font-family="sans-serif" font-size="13" lengthAdjust="spacing" textLength="101" x="654.5" y="405.7231">HttpStatus: 400</text><polygon fill="#454645" points="332.5,438.9219,322.5,442.9219,332.5,446.9219,328.5,442.9219" style="stroke:#454645;stroke-width:1.0;"/><line style="stroke:#454645;stroke-width:1.0;" x1="326.5" x2="626.5" y1="442.9219" y2="442.9219"/><text fill="#000000" font-family="sans-serif" font-size="13" lengthAdjust="spacing" textLength="282" x="338.5" y="437.856">HttpStatus: 500 with appropriate error code</text><path d="M60,427.2891 L60,445.2891 A3.5,3.5 0 0 0 63.5,448.7891 L312.5,448.7891 A3.5,3.5 0 0 0 316,445.2891 L316,433.7891 L306,423.7891 L63.5,423.7891 A3.5,3.5 0 0 0 60,427.2891 " fill="#7FFFD4" style="stroke:#454645;stroke-width:1.5;"/><path d="M306,423.7891 L306,432.0391 A1.75,1.75 0 0 0 307.75,433.7891 L316,433.7891 L306,423.7891 " fill="#7FFFD4" style="stroke:#454645;stroke-width:1.5;"/><text fill="#454645" font-family="sans-serif" font-size="13" lengthAdjust="spacing" textLength="235" x="66" y="440.856">Error Code: ID_GENERATION_FAILED</text><line style="stroke:#696969;stroke-width:1.0;stroke-dasharray:2.0,2.0;" x1="50" x2="2016.5" y1="454.9219" y2="454.9219"/><text fill="#696969" font-family="sans-serif" font-size="11" font-weight="bold" lengthAdjust="spacing" textLength="120" x="55" y="465.1323">[id gen successful]</text><polygon fill="#454645" points="1962.5,485.8594,1972.5,489.8594,1962.5,493.8594,1966.5,489.8594" style="stroke:#454645;stroke-width:1.0;"/><line style="stroke:#454645;stroke-width:1.0;" x1="637.5" x2="1968.5" y1="489.8594" y2="489.8594"/><text fill="#000000" font-family="sans-serif" font-size="13" lengthAdjust="spacing" textLength="78" x="644.5" y="484.7935">Generate ID</text><polygon fill="#454645" points="648.5,514.9922,638.5,518.9922,648.5,522.9922,644.5,518.9922" style="stroke:#454645;stroke-width:1.0;"/><line style="stroke:#454645;stroke-width:1.0;" x1="642.5" x2="1978.5" y1="518.9922" y2="518.9922"/><text fill="#000000" font-family="sans-serif" font-size="13" lengthAdjust="spacing" textLength="86" x="654.5" y="513.9263">Generated ID</text><polygon fill="#454645" points="332.5,544.125,322.5,548.125,332.5,552.125,328.5,548.125" style="stroke:#454645;stroke-width:1.0;"/><line style="stroke:#454645;stroke-width:1.0;" x1="326.5" x2="626.5" y1="548.125" y2="548.125"/><text fill="#000000" font-family="sans-serif" font-size="13" lengthAdjust="spacing" textLength="174" x="338.5" y="543.0591">HttpStatus: 202 ACCEPTED</text><path d="M552,563.125 L635.5,563.125 L635.5,570.2578 L625.5,580.2578 L548.5,580.2578 L548.5,566.625 A3.5,3.5 0 0 1 552,563.125 " fill="#EEEEEE" style="stroke:#696969;stroke-width:1.5;"/><rect fill="none" height="355.1953" rx="3.5" ry="3.5" style="stroke:#696969;stroke-width:1.0;" width="1414" x="548.5" y="563.125"/><text fill="#454645" font-family="sans-serif" font-size="13" font-weight="bold" lengthAdjust="spacing" textLength="42" x="563.5" y="576.1919">async</text><line style="stroke:#454645;stroke-width:1.0;" x1="637.5" x2="679.5" y1="601.3906" y2="601.3906"/><line style="stroke:#454645;stroke-width:1.0;" x1="679.5" x2="679.5" y1="601.3906" y2="614.3906"/><line style="stroke:#454645;stroke-width:1.0;" x1="638.5" x2="679.5" y1="614.3906" y2="614.3906"/><polygon fill="#454645" points="648.5,610.3906,638.5,614.3906,648.5,618.3906,644.5,614.3906" style="stroke:#454645;stroke-width:1.0;"/><text fill="#000000" font-family="sans-serif" font-size="13" lengthAdjust="spacing" textLength="259" x="644.5" y="596.3247">Update generated ID in Household Data</text><polygon fill="#454645" points="1215.5,639.5234,1225.5,643.5234,1215.5,647.5234,1219.5,643.5234" style="stroke:#454645;stroke-width:1.0;"/><line style="stroke:#454645;stroke-width:1.0;" x1="637.5" x2="1221.5" y1="643.5234" y2="643.5234"/><text fill="#000000" font-family="sans-serif" font-size="13" lengthAdjust="spacing" textLength="195" x="644.5" y="638.4575">Household Data /persist_topic</text><polygon fill="#454645" points="1126.5,668.6563,1136.5,672.6563,1126.5,676.6563,1130.5,672.6563" style="stroke:#454645;stroke-width:1.0;"/><line style="stroke:#454645;stroke-width:1.0;" x1="637.5" x2="1132.5" y1="672.6563" y2="672.6563"/><text fill="#000000" font-family="sans-serif" font-size="13" lengthAdjust="spacing" textLength="482" x="644.5" y="667.5903">Put Household Data against clientReferenceId/serverGeneratedId in cache</text><path d="M1196,717.6563 L1279.5,717.6563 L1279.5,724.7891 L1269.5,734.7891 L1192.5,734.7891 L1192.5,721.1563 A3.5,3.5 0 0 1 1196,717.6563 " fill="#EEEEEE" style="stroke:#696969;stroke-width:1.5;"/><rect fill="none" height="193.6641" rx="3.5" ry="3.5" style="stroke:#696969;stroke-width:1.0;" width="760" x="1192.5" y="717.6563"/><text fill="#454645" font-family="sans-serif" font-size="13" font-weight="bold" lengthAdjust="spacing" textLength="42" x="1207.5" y="730.7231">async</text><polygon fill="#454645" points="1248.5,751.9219,1238.5,755.9219,1248.5,759.9219,1244.5,755.9219" style="stroke:#454645;stroke-width:1.0;"/><line style="stroke:#454645;stroke-width:1.0;" x1="1242.5" x2="1424.5" y1="755.9219" y2="755.9219"/><text fill="#000000" font-family="sans-serif" font-size="13" lengthAdjust="spacing" textLength="169" x="1254.5" y="750.856">Consume Household Data</text><polygon fill="#454645" points="1248.5,781.0547,1238.5,785.0547,1248.5,789.0547,1244.5,785.0547" style="stroke:#454645;stroke-width:1.0;"/><line style="stroke:#454645;stroke-width:1.0;" x1="1242.5" x2="1559" y1="785.0547" y2="785.0547"/><text fill="#000000" font-family="sans-serif" font-size="13" lengthAdjust="spacing" textLength="169" x="1254.5" y="779.9888">Consume Household Data</text><polygon fill="#454645" points="1786.5,810.1875,1796.5,814.1875,1786.5,818.1875,1790.5,814.1875" style="stroke:#454645;stroke-width:1.0;"/><line style="stroke:#454645;stroke-width:1.0;" x1="1570" x2="1792.5" y1="814.1875" y2="814.1875"/><text fill="#000000" font-family="sans-serif" font-size="13" lengthAdjust="spacing" textLength="142" x="1577" y="809.1216">Store Household Data</text><polygon fill="#454645" points="1888.5,869.3203,1898.5,873.3203,1888.5,877.3203,1892.5,873.3203" style="stroke:#454645;stroke-width:1.0;"/><line style="stroke:#454645;stroke-width:1.0;" x1="1435.5" x2="1894.5" y1="873.3203" y2="873.3203"/><text fill="#000000" font-family="sans-serif" font-size="13" lengthAdjust="spacing" textLength="152" x="1442.5" y="868.2544">Persist Household Data</text><!--SRC=[fLPDZzis4BthLqnFJWw1DqPxyQ60QoiRey5cOsy254LWqEJO9imLLP9oTlzzXzGN9SiROwE3JGqVPpXlXezoqYc4ZxgmUD1Am3kO6sGEaz_S0HyHJd9hMEQId1adkSnf37CbaVwO1TwnDrvMk9VMcMSFiHt8CXFo94N1L0SpwO1MAAITCtv0Fsbuyb-11SBVR7TatdBieE_HMFA4Petc97bOavkpiFZKGKZnr46ankXu7hiEKiKilQoH6Nu8yoeHpB4jimYBUa1siKqulFiJB4nXVAW96P_UZpUy99Pn9qyq86PiG4xX6rDIU9D1IjKws6hnd33b6iEfH4YTmOv9PHEWfrw-6WQXQ55y2X-TozUEkO9M_7vp0p-aeqpotEZSI1ySFGN0jS2mBjDaKxXpuGrAXc1EqnGn_V8rNJziliq-BHUpX-Ndkys7sV9JkWXOp4HOdT0WILxOfIquHsjtXKgIaKzNDktnnhu5eREH0toYwiA_IkiSQ0rJAe8jXGVAh2RgUp9gcPbG2Lfeg84D1In1RI4crQf9jTKRCFg7BOq2pt4UTfn6fyPt08m3WHkdSybBO4lX2AhduI0jKKz9R14UcJcY24sEN9_Gi2qTHaRqLOXsdK5d964LRSIKveRcRZR7ydrlT96Jw-UCjrwmtlfSPxPun5uABR3nXhOrHbGS-px5TbgVn4ky-EG68j296OfmmLplnxVMwBNjVQauSOilqllqRf7UpV_PfAlLvrMVyx21d_PPftUQ_dhl-oiPzLghuV4MOw4SjtG-KZuosqDX_MyR4dXGv1Nkq636SId6bgGCpIrcr5GEnL9SVOA-HxlsHV3diWxiszG8sEcYf5ziknaDLF2LzJchJboRlsQBJIL1pJJriw5MT0Vcw0TZTkZ4aJlAcmHOF8EIcJzrJWE3Hg6zdsvnWnu9s9SK3YYl53JdIo_6cmfLAcV3G404KnXLNFMOI7eTtYuQekwFNrJkvM9pczwbgnT4Mrci4ey5kfzstLhayPgacqwiyLTdFBcPm6m-J-yVgft6obQVtFgI-Pg7UtGVHVEztPEvpge18SzB8Qka_4onZbq7XZPyNvp97jipcP4QNdCsQOlSV- -Snp9j_8WniWwPRMCSuiW_z67qyWqGWnk__dCgdg2FfrTuyPzS0rvGJM7jjBdE2QgEFRuPBixq0rSaNBwoXaEJdbq8S7acPiwBIltVkKh9y3y0]--></g></svg>