<?xml version="1.0" encoding="UTF-8" standalone="no"?><svg xmlns="http://www.w3.org/2000/svg" xmlns:xlink="http://www.w3.org/1999/xlink" contentStyleType="text/css" height="1685px" preserveAspectRatio="none" style="width:2209px;height:1685px;background:#FFFFFF;" version="1.1" viewBox="0 0 2209 1685" width="2209px" zoomAndPan="magnify"><defs/><g><text fill="#000000" font-family="sans-serif" font-size="14" font-weight="bold" lengthAdjust="spacing" textLength="225" x="993.5" y="27.9951">Household Member - Create</text><rect fill="#FFFFFF" height="1246.0469" style="stroke:#696969;stroke-width:1.0;" width="10" x="762.5" y="135.7266"/><rect fill="#FFFFFF" height="29.1328" style="stroke:#696969;stroke-width:1.0;" width="10" x="1197.5" y="748.1172"/><rect fill="#FFFFFF" height="29.1328" style="stroke:#696969;stroke-width:1.0;" width="10" x="1327" y="405.7891"/><rect fill="#FFFFFF" height="29.1328" style="stroke:#696969;stroke-width:1.0;" width="10" x="1327" y="506.1875"/><rect fill="#FFFFFF" height="30" style="stroke:#696969;stroke-width:1.0;" width="10" x="1327" y="622.7188"/><rect fill="#FFFFFF" height="30" style="stroke:#696969;stroke-width:1.0;" width="10" x="1327" y="1304.5078"/><rect fill="#FFFFFF" height="821.1875" style="stroke:#696969;stroke-width:1.0;" width="10" x="1416" y="777.25"/><rect fill="#FFFFFF" height="340.1953" style="stroke:#696969;stroke-width:1.0;" width="10" x="1421" y="1257.2422"/><rect fill="#FFFFFF" height="147.3984" style="stroke:#696969;stroke-width:1.0;" width="10" x="1676" y="1435.0391"/><rect fill="#FFFFFF" height="59.1328" style="stroke:#696969;stroke-width:1.0;" width="10" x="1810.5" y="1464.1719"/><rect fill="#FFFFFF" height="30" style="stroke:#696969;stroke-width:1.0;" width="10" x="2049" y="1493.3047"/><rect fill="#FFFFFF" height="29.1328" style="stroke:#696969;stroke-width:1.0;" width="10" x="2151" y="564.4531"/><rect fill="#FFFFFF" height="139.6641" style="stroke:#696969;stroke-width:1.0;" width="10" x="2151" y="848.5156"/><rect fill="#FFFFFF" height="29.1328" style="stroke:#696969;stroke-width:1.0;" width="10" x="2151" y="1083.5781"/><rect fill="#FFFFFF" height="30" style="stroke:#696969;stroke-width:1.0;" width="10" x="2151" y="1552.4375"/><rect fill="none" height="94.3984" rx="3.5" ry="3.5" style="stroke:#696969;stroke-width:1.0;" width="810.5" x="144" y="192.8594"/><rect fill="none" height="352.4609" rx="3.5" ry="3.5" style="stroke:#696969;stroke-width:1.0;" width="2043" x="160" y="343.3906"/><rect fill="none" height="110.5313" rx="3.5" ry="3.5" style="stroke:#696969;stroke-width:1.0;" width="1221" x="170" y="367.5234"/><rect fill="none" height="110.5313" rx="3.5" ry="3.5" style="stroke:#696969;stroke-width:1.0;" width="1080" x="203" y="709.8516"/><rect fill="none" height="96.5313" rx="3.5" ry="3.5" style="stroke:#696969;stroke-width:1.0;" width="2194" x="9" y="863.5156"/><rect fill="none" height="183.7969" rx="3.5" ry="3.5" style="stroke:#696969;stroke-width:1.0;" width="1965" x="238" y="1045.3125"/><rect fill="none" height="94.3984" rx="3.5" ry="3.5" style="stroke:#696969;stroke-width:1.0;" width="954.5" x="248" y="1127.7109"/><rect fill="none" height="193.6641" rx="3.5" ry="3.5" style="stroke:#696969;stroke-width:1.0;" width="822" x="1381" y="1396.7734"/><line style="stroke:#696969;stroke-width:0.5;stroke-dasharray:5.0,5.0;" x1="456" x2="456" y1="104.5938" y2="1607.4375"/><line style="stroke:#696969;stroke-width:0.5;stroke-dasharray:5.0,5.0;" x1="767.5" x2="767.5" y1="104.5938" y2="1607.4375"/><line style="stroke:#696969;stroke-width:0.5;stroke-dasharray:5.0,5.0;" x1="1202" x2="1202" y1="104.5938" y2="1607.4375"/><line style="stroke:#696969;stroke-width:0.5;stroke-dasharray:5.0,5.0;" x1="1332" x2="1332" y1="104.5938" y2="1607.4375"/><line style="stroke:#696969;stroke-width:0.5;stroke-dasharray:5.0,5.0;" x1="1421" x2="1421" y1="104.5938" y2="1607.4375"/><line style="stroke:#696969;stroke-width:0.5;stroke-dasharray:5.0,5.0;" x1="1681" x2="1681" y1="104.5938" y2="1607.4375"/><line style="stroke:#696969;stroke-width:0.5;stroke-dasharray:5.0,5.0;" x1="1815" x2="1815" y1="104.5938" y2="1607.4375"/><line style="stroke:#696969;stroke-width:0.5;stroke-dasharray:5.0,5.0;" x1="1937" x2="1937" y1="104.5938" y2="1607.4375"/><line style="stroke:#696969;stroke-width:0.5;stroke-dasharray:5.0,5.0;" x1="2054" x2="2054" y1="104.5938" y2="1607.4375"/><line style="stroke:#696969;stroke-width:0.5;stroke-dasharray:5.0,5.0;" x1="2156" x2="2156" y1="104.5938" y2="1607.4375"/><rect fill="#FF6347" height="30.2969" rx="3.5" ry="3.5" style="stroke:#454645;stroke-width:1.5;" width="55" x="429" y="73.2969"/><text fill="#FFFFFF" font-family="sans-serif" font-size="14" lengthAdjust="spacing" textLength="41" x="436" y="93.292">Client</text><rect fill="#FF6347" height="30.2969" rx="3.5" ry="3.5" style="stroke:#454645;stroke-width:1.5;" width="55" x="429" y="1606.4375"/><text fill="#FFFFFF" font-family="sans-serif" font-size="14" lengthAdjust="spacing" textLength="41" x="436" y="1626.4326">Client</text><rect fill="#FF6347" height="30.2969" rx="3.5" ry="3.5" style="stroke:#454645;stroke-width:1.5;" width="148" x="693.5" y="73.2969"/><text fill="#FFFFFF" font-family="sans-serif" font-size="14" lengthAdjust="spacing" textLength="134" x="700.5" y="93.292">HouseholdRegistry</text><rect fill="#FF6347" height="30.2969" rx="3.5" ry="3.5" style="stroke:#454645;stroke-width:1.5;" width="148" x="693.5" y="1606.4375"/><text fill="#FFFFFF" font-family="sans-serif" font-size="14" lengthAdjust="spacing" textLength="134" x="700.5" y="1626.4326">HouseholdRegistry</text><rect fill="#FF6347" height="30.2969" rx="3.5" ry="3.5" style="stroke:#454645;stroke-width:1.5;" width="141" x="1132" y="73.2969"/><text fill="#FFFFFF" font-family="sans-serif" font-size="14" lengthAdjust="spacing" textLength="127" x="1139" y="93.292">IndividualRegistry</text><rect fill="#FF6347" height="30.2969" rx="3.5" ry="3.5" style="stroke:#454645;stroke-width:1.5;" width="141" x="1132" y="1606.4375"/><text fill="#FFFFFF" font-family="sans-serif" font-size="14" lengthAdjust="spacing" textLength="127" x="1139" y="1626.4326">IndividualRegistry</text><rect fill="#FF6347" height="30.2969" rx="3.5" ry="3.5" style="stroke:#454645;stroke-width:1.5;" width="98" x="1283" y="73.2969"/><text fill="#FFFFFF" font-family="sans-serif" font-size="14" lengthAdjust="spacing" textLength="84" x="1290" y="93.292">RedisCache</text><rect fill="#FF6347" height="30.2969" rx="3.5" ry="3.5" style="stroke:#454645;stroke-width:1.5;" width="98" x="1283" y="1606.4375"/><text fill="#FFFFFF" font-family="sans-serif" font-size="14" lengthAdjust="spacing" textLength="84" x="1290" y="1626.4326">RedisCache</text><path d="M1396,78.2969 L1446,78.2969 C1451,78.2969 1451,91.4453 1451,91.4453 C1451,91.4453 1451,104.5938 1446,104.5938 L1396,104.5938 C1391,104.5938 1391,91.4453 1391,91.4453 C1391,91.4453 1391,78.2969 1396,78.2969 " fill="#FF6347" style="stroke:#454645;stroke-width:1.5;"/><path d="M1446,78.2969 C1441,78.2969 1441,91.4453 1441,91.4453 C1441,104.5938 1446,104.5938 1446,104.5938 " fill="none" style="stroke:#454645;stroke-width:1.5;"/><text fill="#FFFFFF" font-family="sans-serif" font-size="14" lengthAdjust="spacing" textLength="40" x="1396" y="96.292">Kafka</text><path d="M1396,1606.4375 L1446,1606.4375 C1451,1606.4375 1451,1619.5859 1451,1619.5859 C1451,1619.5859 1451,1632.7344 1446,1632.7344 L1396,1632.7344 C1391,1632.7344 1391,1619.5859 1391,1619.5859 C1391,1619.5859 1391,1606.4375 1396,1606.4375 " fill="#FF6347" style="stroke:#454645;stroke-width:1.5;"/><path d="M1446,1606.4375 C1441,1606.4375 1441,1619.5859 1441,1619.5859 C1441,1632.7344 1446,1632.7344 1446,1632.7344 " fill="none" style="stroke:#454645;stroke-width:1.5;"/><text fill="#FFFFFF" font-family="sans-serif" font-size="14" lengthAdjust="spacing" textLength="40" x="1396" y="1624.4326">Kafka</text><rect fill="#FF6347" height="30.2969" rx="3.5" ry="3.5" style="stroke:#454645;stroke-width:1.5;" width="128" x="1617" y="73.2969"/><text fill="#FFFFFF" font-family="sans-serif" font-size="14" lengthAdjust="spacing" textLength="114" x="1624" y="93.292">PersisterService</text><rect fill="#FF6347" height="30.2969" rx="3.5" ry="3.5" style="stroke:#454645;stroke-width:1.5;" width="128" x="1617" y="1606.4375"/><text fill="#FFFFFF" font-family="sans-serif" font-size="14" lengthAdjust="spacing" textLength="114" x="1624" y="1626.4326">PersisterService</text><rect fill="#FF6347" height="30.2969" rx="3.5" ry="3.5" style="stroke:#454645;stroke-width:1.5;" width="121" x="1755" y="73.2969"/><text fill="#FFFFFF" font-family="sans-serif" font-size="14" lengthAdjust="spacing" textLength="107" x="1762" y="93.292">IndexerService</text><rect fill="#FF6347" height="30.2969" rx="3.5" ry="3.5" style="stroke:#454645;stroke-width:1.5;" width="121" x="1755" y="1606.4375"/><text fill="#FFFFFF" font-family="sans-serif" font-size="14" lengthAdjust="spacing" textLength="107" x="1762" y="1626.4326">IndexerService</text><rect fill="#FF6347" height="30.2969" rx="3.5" ry="3.5" style="stroke:#454645;stroke-width:1.5;" width="103" x="1886" y="73.2969"/><text fill="#FFFFFF" font-family="sans-serif" font-size="14" lengthAdjust="spacing" textLength="89" x="1893" y="93.292">ErrorService</text><rect fill="#FF6347" height="30.2969" rx="3.5" ry="3.5" style="stroke:#454645;stroke-width:1.5;" width="103" x="1886" y="1606.4375"/><text fill="#FFFFFF" font-family="sans-serif" font-size="14" lengthAdjust="spacing" textLength="89" x="1893" y="1626.4326">ErrorService</text><rect fill="#FF6347" height="30.2969" rx="3.5" ry="3.5" style="stroke:#454645;stroke-width:1.5;" width="110" x="1999" y="73.2969"/><text fill="#FFFFFF" font-family="sans-serif" font-size="14" lengthAdjust="spacing" textLength="96" x="2006" y="93.292">ElasticSearch</text><rect fill="#FF6347" height="30.2969" rx="3.5" ry="3.5" style="stroke:#454645;stroke-width:1.5;" width="110" x="1999" y="1606.4375"/><text fill="#FFFFFF" font-family="sans-serif" font-size="14" lengthAdjust="spacing" textLength="96" x="2006" y="1626.4326">ElasticSearch</text><text fill="#454645" font-family="sans-serif" font-size="14" lengthAdjust="spacing" textLength="68" x="2119" y="101.292">Database</text><path d="M2138,52.2969 C2138,42.2969 2156,42.2969 2156,42.2969 C2156,42.2969 2174,42.2969 2174,52.2969 L2174,78.2969 C2174,88.2969 2156,88.2969 2156,88.2969 C2156,88.2969 2138,88.2969 2138,78.2969 L2138,52.2969 " fill="#00FFFF" style="stroke:#454645;stroke-width:1.5;"/><path d="M2138,52.2969 C2138,62.2969 2156,62.2969 2156,62.2969 C2156,62.2969 2174,62.2969 2174,52.2969 " fill="none" style="stroke:#454645;stroke-width:1.5;"/><text fill="#454645" font-family="sans-serif" font-size="14" lengthAdjust="spacing" textLength="68" x="2119" y="1619.4326">Database</text><path d="M2138,1632.7344 C2138,1622.7344 2156,1622.7344 2156,1622.7344 C2156,1622.7344 2174,1622.7344 2174,1632.7344 L2174,1658.7344 C2174,1668.7344 2156,1668.7344 2156,1668.7344 C2156,1668.7344 2138,1668.7344 2138,1658.7344 L2138,1632.7344 " fill="#00FFFF" style="stroke:#454645;stroke-width:1.5;"/><path d="M2138,1632.7344 C2138,1642.7344 2156,1642.7344 2156,1642.7344 C2156,1642.7344 2174,1642.7344 2174,1632.7344 " fill="none" style="stroke:#454645;stroke-width:1.5;"/><rect fill="#FFFFFF" height="1246.0469" style="stroke:#696969;stroke-width:1.0;" width="10" x="762.5" y="135.7266"/><rect fill="#FFFFFF" height="29.1328" style="stroke:#696969;stroke-width:1.0;" width="10" x="1197.5" y="748.1172"/><rect fill="#FFFFFF" height="29.1328" style="stroke:#696969;stroke-width:1.0;" width="10" x="1327" y="405.7891"/><rect fill="#FFFFFF" height="29.1328" style="stroke:#696969;stroke-width:1.0;" width="10" x="1327" y="506.1875"/><rect fill="#FFFFFF" height="30" style="stroke:#696969;stroke-width:1.0;" width="10" x="1327" y="622.7188"/><rect fill="#FFFFFF" height="30" style="stroke:#696969;stroke-width:1.0;" width="10" x="1327" y="1304.5078"/><rect fill="#FFFFFF" height="821.1875" style="stroke:#696969;stroke-width:1.0;" width="10" x="1416" y="777.25"/><rect fill="#FFFFFF" height="340.1953" style="stroke:#696969;stroke-width:1.0;" width="10" x="1421" y="1257.2422"/><rect fill="#FFFFFF" height="147.3984" style="stroke:#696969;stroke-width:1.0;" width="10" x="1676" y="1435.0391"/><rect fill="#FFFFFF" height="59.1328" style="stroke:#696969;stroke-width:1.0;" width="10" x="1810.5" y="1464.1719"/><rect fill="#FFFFFF" height="30" style="stroke:#696969;stroke-width:1.0;" width="10" x="2049" y="1493.3047"/><rect fill="#FFFFFF" height="29.1328" style="stroke:#696969;stroke-width:1.0;" width="10" x="2151" y="564.4531"/><rect fill="#FFFFFF" height="139.6641" style="stroke:#696969;stroke-width:1.0;" width="10" x="2151" y="848.5156"/><rect fill="#FFFFFF" height="29.1328" style="stroke:#696969;stroke-width:1.0;" width="10" x="2151" y="1083.5781"/><rect fill="#FFFFFF" height="30" style="stroke:#696969;stroke-width:1.0;" width="10" x="2151" y="1552.4375"/><polygon fill="#454645" points="750.5,131.7266,760.5,135.7266,750.5,139.7266,754.5,135.7266" style="stroke:#454645;stroke-width:1.0;"/><line style="stroke:#454645;stroke-width:1.0;" x1="456.5" x2="756.5" y1="135.7266" y2="135.7266"/><text fill="#000000" font-family="sans-serif" font-size="13" lengthAdjust="spacing" textLength="202" x="463.5" y="130.6606">/household/member/v1/_create</text><line style="stroke:#454645;stroke-width:1.0;" x1="772.5" x2="814.5" y1="164.8594" y2="164.8594"/><line style="stroke:#454645;stroke-width:1.0;" x1="814.5" x2="814.5" y1="164.8594" y2="177.8594"/><line style="stroke:#454645;stroke-width:1.0;" x1="773.5" x2="814.5" y1="177.8594" y2="177.8594"/><polygon fill="#454645" points="783.5,173.8594,773.5,177.8594,783.5,181.8594,779.5,177.8594" style="stroke:#454645;stroke-width:1.0;"/><text fill="#000000" font-family="sans-serif" font-size="13" lengthAdjust="spacing" textLength="143" x="779.5" y="159.7935">Validate request body</text><path d="M147.5,192.8594 L208,192.8594 L208,199.9922 L198,209.9922 L144,209.9922 L144,196.3594 A3.5,3.5 0 0 1 147.5,192.8594 " fill="#EEEEEE" style="stroke:#696969;stroke-width:1.5;"/><rect fill="none" height="94.3984" rx="3.5" ry="3.5" style="stroke:#696969;stroke-width:1.0;" width="810.5" x="144" y="192.8594"/><text fill="#454645" font-family="sans-serif" font-size="13" font-weight="bold" lengthAdjust="spacing" textLength="19" x="159" y="205.9263">alt</text><text fill="#696969" font-family="sans-serif" font-size="11" font-weight="bold" lengthAdjust="spacing" textLength="154" x="223" y="205.0698">[request validation fails]</text><line style="stroke:#454645;stroke-width:1.0;" x1="772.5" x2="814.5" y1="231.125" y2="231.125"/><line style="stroke:#454645;stroke-width:1.0;" x1="814.5" x2="814.5" y1="231.125" y2="244.125"/><line style="stroke:#454645;stroke-width:1.0;" x1="773.5" x2="814.5" y1="244.125" y2="244.125"/><polygon fill="#454645" points="783.5,240.125,773.5,244.125,783.5,248.125,779.5,244.125" style="stroke:#454645;stroke-width:1.0;"/><text fill="#000000" font-family="sans-serif" font-size="13" lengthAdjust="spacing" textLength="163" x="779.5" y="226.0591">Request validation failed</text><polygon fill="#454645" points="467.5,272.2578,457.5,276.2578,467.5,280.2578,463.5,276.2578" style="stroke:#454645;stroke-width:1.0;"/><line style="stroke:#454645;stroke-width:1.0;" x1="461.5" x2="761.5" y1="276.2578" y2="276.2578"/><text fill="#000000" font-family="sans-serif" font-size="13" lengthAdjust="spacing" textLength="282" x="473.5" y="271.1919">HttpStatus: 400 with appropriate error code</text><path d="M154,260.625 L154,278.625 A3.5,3.5 0 0 0 157.5,282.125 L447.5,282.125 A3.5,3.5 0 0 0 451,278.625 L451,267.125 L441,257.125 L157.5,257.125 A3.5,3.5 0 0 0 154,260.625 " fill="#7FFFD4" style="stroke:#454645;stroke-width:1.5;"/><path d="M441,257.125 L441,265.375 A1.75,1.75 0 0 0 442.75,267.125 L451,267.125 L441,257.125 " fill="#7FFFD4" style="stroke:#454645;stroke-width:1.5;"/><text fill="#454645" font-family="sans-serif" font-size="13" lengthAdjust="spacing" textLength="276" x="160" y="274.1919">Error Code: REQUEST_VALIDATION_FAILED</text><line style="stroke:#454645;stroke-width:1.0;" x1="772.5" x2="814.5" y1="315.3906" y2="315.3906"/><line style="stroke:#454645;stroke-width:1.0;" x1="814.5" x2="814.5" y1="315.3906" y2="328.3906"/><line style="stroke:#454645;stroke-width:1.0;" x1="773.5" x2="814.5" y1="328.3906" y2="328.3906"/><polygon fill="#454645" points="783.5,324.3906,773.5,328.3906,783.5,332.3906,779.5,328.3906" style="stroke:#454645;stroke-width:1.0;"/><text fill="#000000" font-family="sans-serif" font-size="13" lengthAdjust="spacing" textLength="194" x="779.5" y="310.3247">Request validation successful</text><path d="M163.5,343.3906 L224,343.3906 L224,350.5234 L214,360.5234 L160,360.5234 L160,346.8906 A3.5,3.5 0 0 1 163.5,343.3906 " fill="#EEEEEE" style="stroke:#696969;stroke-width:1.5;"/><rect fill="none" height="352.4609" rx="3.5" ry="3.5" style="stroke:#696969;stroke-width:1.0;" width="2043" x="160" y="343.3906"/><text fill="#454645" font-family="sans-serif" font-size="13" font-weight="bold" lengthAdjust="spacing" textLength="19" x="175" y="356.4575">alt</text><text fill="#696969" font-family="sans-serif" font-size="11" font-weight="bold" lengthAdjust="spacing" textLength="263" x="239" y="355.6011">[household member record already exists]</text><path d="M173.5,367.5234 L234,367.5234 L234,374.6563 L224,384.6563 L170,384.6563 L170,371.0234 A3.5,3.5 0 0 1 173.5,367.5234 " fill="#EEEEEE" style="stroke:#696969;stroke-width:1.5;"/><rect fill="none" height="110.5313" rx="3.5" ry="3.5" style="stroke:#696969;stroke-width:1.0;" width="1221" x="170" y="367.5234"/><text fill="#454645" font-family="sans-serif" font-size="13" font-weight="bold" lengthAdjust="spacing" textLength="19" x="185" y="380.5903">alt</text><text fill="#696969" font-family="sans-serif" font-size="11" font-weight="bold" lengthAdjust="spacing" textLength="147" x="249" y="379.7339">[record found in cache]</text><polygon fill="#454645" points="1315,401.7891,1325,405.7891,1315,409.7891,1319,405.7891" style="stroke:#454645;stroke-width:1.0;"/><line style="stroke:#454645;stroke-width:1.0;" x1="772.5" x2="1321" y1="405.7891" y2="405.7891"/><text fill="#000000" font-family="sans-serif" font-size="13" lengthAdjust="spacing" textLength="393" x="779.5" y="400.7231">Check using household clientReferenceId/serverGeneratedId</text><polygon fill="#454645" points="783.5,430.9219,773.5,434.9219,783.5,438.9219,779.5,434.9219" style="stroke:#454645;stroke-width:1.0;"/><line style="stroke:#454645;stroke-width:1.0;" x1="777.5" x2="1331" y1="434.9219" y2="434.9219"/><text fill="#000000" font-family="sans-serif" font-size="13" lengthAdjust="spacing" textLength="36" x="789.5" y="429.856">1 row</text><polygon fill="#454645" points="467.5,463.0547,457.5,467.0547,467.5,471.0547,463.5,467.0547" style="stroke:#454645;stroke-width:1.0;"/><line style="stroke:#454645;stroke-width:1.0;" x1="461.5" x2="761.5" y1="467.0547" y2="467.0547"/><text fill="#000000" font-family="sans-serif" font-size="13" lengthAdjust="spacing" textLength="282" x="473.5" y="461.9888">HttpStatus: 400 with appropriate error code</text><path d="M180,451.4219 L180,469.4219 A3.5,3.5 0 0 0 183.5,472.9219 L447.5,472.9219 A3.5,3.5 0 0 0 451,469.4219 L451,457.9219 L441,447.9219 L183.5,447.9219 A3.5,3.5 0 0 0 180,451.4219 " fill="#7FFFD4" style="stroke:#454645;stroke-width:1.5;"/><path d="M441,447.9219 L441,456.1719 A1.75,1.75 0 0 0 442.75,457.9219 L451,457.9219 L441,447.9219 " fill="#7FFFD4" style="stroke:#454645;stroke-width:1.5;"/><text fill="#454645" font-family="sans-serif" font-size="13" lengthAdjust="spacing" textLength="250" x="186" y="464.9888">Error Code: RECORD_ALREADY_EXISTS</text><polygon fill="#454645" points="1315,502.1875,1325,506.1875,1315,510.1875,1319,506.1875" style="stroke:#454645;stroke-width:1.0;"/><line style="stroke:#454645;stroke-width:1.0;" x1="772.5" x2="1321" y1="506.1875" y2="506.1875"/><text fill="#000000" font-family="sans-serif" font-size="13" lengthAdjust="spacing" textLength="393" x="779.5" y="501.1216">Check using household clientReferenceId/serverGeneratedId</text><polygon fill="#454645" points="783.5,531.3203,773.5,535.3203,783.5,539.3203,779.5,535.3203" style="stroke:#454645;stroke-width:1.0;"/><line style="stroke:#454645;stroke-width:1.0;" x1="777.5" x2="1331" y1="535.3203" y2="535.3203"/><text fill="#000000" font-family="sans-serif" font-size="13" lengthAdjust="spacing" textLength="43" x="789.5" y="530.2544">0 rows</text><polygon fill="#454645" points="2139,560.4531,2149,564.4531,2139,568.4531,2143,564.4531" style="stroke:#454645;stroke-width:1.0;"/><line style="stroke:#454645;stroke-width:1.0;" x1="772.5" x2="2145" y1="564.4531" y2="564.4531"/><text fill="#000000" font-family="sans-serif" font-size="13" lengthAdjust="spacing" textLength="194" x="779.5" y="559.3872">Check if record already exists</text><polygon fill="#454645" points="783.5,589.5859,773.5,593.5859,783.5,597.5859,779.5,593.5859" style="stroke:#454645;stroke-width:1.0;"/><line style="stroke:#454645;stroke-width:1.0;" x1="777.5" x2="2155" y1="593.5859" y2="593.5859"/><text fill="#000000" font-family="sans-serif" font-size="13" lengthAdjust="spacing" textLength="36" x="789.5" y="588.52">1 row</text><polygon fill="#454645" points="1315,618.7188,1325,622.7188,1315,626.7188,1319,622.7188" style="stroke:#454645;stroke-width:1.0;"/><line style="stroke:#454645;stroke-width:1.0;" x1="772.5" x2="1321" y1="622.7188" y2="622.7188"/><text fill="#000000" font-family="sans-serif" font-size="13" lengthAdjust="spacing" textLength="465" x="779.5" y="617.6528">Put data in cache using household clientReferenceId/serverGeneratedId</text><polygon fill="#454645" points="467.5,680.8516,457.5,684.8516,467.5,688.8516,463.5,684.8516" style="stroke:#454645;stroke-width:1.0;"/><line style="stroke:#454645;stroke-width:1.0;" x1="461.5" x2="761.5" y1="684.8516" y2="684.8516"/><text fill="#000000" font-family="sans-serif" font-size="13" lengthAdjust="spacing" textLength="282" x="473.5" y="679.7856">HttpStatus: 400 with appropriate error code</text><path d="M180,669.2188 L180,687.2188 A3.5,3.5 0 0 0 183.5,690.7188 L447.5,690.7188 A3.5,3.5 0 0 0 451,687.2188 L451,675.7188 L441,665.7188 L183.5,665.7188 A3.5,3.5 0 0 0 180,669.2188 " fill="#7FFFD4" style="stroke:#454645;stroke-width:1.5;"/><path d="M441,665.7188 L441,673.9688 A1.75,1.75 0 0 0 442.75,675.7188 L451,675.7188 L441,665.7188 " fill="#7FFFD4" style="stroke:#454645;stroke-width:1.5;"/><text fill="#454645" font-family="sans-serif" font-size="13" lengthAdjust="spacing" textLength="250" x="186" y="682.7856">Error Code: RECORD_ALREADY_EXISTS</text><path d="M206.5,709.8516 L267,709.8516 L267,716.9844 L257,726.9844 L203,726.9844 L203,713.3516 A3.5,3.5 0 0 1 206.5,709.8516 " fill="#EEEEEE" style="stroke:#696969;stroke-width:1.5;"/><rect fill="none" height="110.5313" rx="3.5" ry="3.5" style="stroke:#696969;stroke-width:1.0;" width="1080" x="203" y="709.8516"/><text fill="#454645" font-family="sans-serif" font-size="13" font-weight="bold" lengthAdjust="spacing" textLength="19" x="218" y="722.9185">alt</text><text fill="#696969" font-family="sans-serif" font-size="11" font-weight="bold" lengthAdjust="spacing" textLength="156" x="282" y="722.062">[individual doesn't exist]</text><polygon fill="#454645" points="1185.5,744.1172,1195.5,748.1172,1185.5,752.1172,1189.5,748.1172" style="stroke:#454645;stroke-width:1.0;"/><line style="stroke:#454645;stroke-width:1.0;" x1="772.5" x2="1191.5" y1="748.1172" y2="748.1172"/><text fill="#000000" font-family="sans-serif" font-size="13" lengthAdjust="spacing" textLength="142" x="779.5" y="743.0513">/individual/v1/_search</text><polygon fill="#454645" points="783.5,773.25,773.5,777.25,783.5,781.25,779.5,777.25" style="stroke:#454645;stroke-width:1.0;"/><line style="stroke:#454645;stroke-width:1.0;" x1="777.5" x2="1201.5" y1="777.25" y2="777.25"/><text fill="#000000" font-family="sans-serif" font-size="13" lengthAdjust="spacing" textLength="43" x="789.5" y="772.1841">0 rows</text><polygon fill="#454645" points="467.5,805.3828,457.5,809.3828,467.5,813.3828,463.5,809.3828" style="stroke:#454645;stroke-width:1.0;"/><line style="stroke:#454645;stroke-width:1.0;" x1="461.5" x2="761.5" y1="809.3828" y2="809.3828"/><text fill="#000000" font-family="sans-serif" font-size="13" lengthAdjust="spacing" textLength="282" x="473.5" y="804.3169">HttpStatus: 400 with appropriate error code</text><path d="M213,793.75 L213,811.75 A3.5,3.5 0 0 0 216.5,815.25 L447.5,815.25 A3.5,3.5 0 0 0 451,811.75 L451,800.25 L441,790.25 L216.5,790.25 A3.5,3.5 0 0 0 213,793.75 " fill="#7FFFD4" style="stroke:#454645;stroke-width:1.5;"/><path d="M441,790.25 L441,798.5 A1.75,1.75 0 0 0 442.75,800.25 L451,800.25 L441,790.25 " fill="#7FFFD4" style="stroke:#454645;stroke-width:1.5;"/><text fill="#454645" font-family="sans-serif" font-size="13" lengthAdjust="spacing" textLength="217" x="219" y="807.3169">Error Code: DEPENDENCY_ERROR</text><polygon fill="#454645" points="2139,844.5156,2149,848.5156,2139,852.5156,2143,848.5156" style="stroke:#454645;stroke-width:1.0;"/><line style="stroke:#454645;stroke-width:1.0;" x1="772.5" x2="2145" y1="848.5156" y2="848.5156"/><text fill="#000000" font-family="sans-serif" font-size="13" lengthAdjust="spacing" textLength="575" x="779.5" y="843.4497">Get Individual/Household mapping using individual clientReferenceId/serverGeneratedId</text><path d="M12.5,863.5156 L73,863.5156 L73,870.6484 L63,880.6484 L9,880.6484 L9,867.0156 A3.5,3.5 0 0 1 12.5,863.5156 " fill="#EEEEEE" style="stroke:#696969;stroke-width:1.5;"/><rect fill="none" height="96.5313" rx="3.5" ry="3.5" style="stroke:#696969;stroke-width:1.0;" width="2194" x="9" y="863.5156"/><text fill="#454645" font-family="sans-serif" font-size="13" font-weight="bold" lengthAdjust="spacing" textLength="19" x="24" y="876.5825">alt</text><text fill="#696969" font-family="sans-serif" font-size="11" font-weight="bold" lengthAdjust="spacing" textLength="91" x="88" y="875.7261">[record found]</text><polygon fill="#454645" points="783.5,897.7813,773.5,901.7813,783.5,905.7813,779.5,901.7813" style="stroke:#454645;stroke-width:1.0;"/><line style="stroke:#454645;stroke-width:1.0;" x1="777.5" x2="2150" y1="901.7813" y2="901.7813"/><text fill="#000000" font-family="sans-serif" font-size="13" lengthAdjust="spacing" textLength="36" x="789.5" y="896.7153">1 row</text><polygon fill="#454645" points="467.5,937.4805,457.5,941.4805,467.5,945.4805,463.5,941.4805" style="stroke:#454645;stroke-width:1.0;"/><line style="stroke:#454645;stroke-width:1.0;" x1="461.5" x2="761.5" y1="941.4805" y2="941.4805"/><text fill="#000000" font-family="sans-serif" font-size="13" lengthAdjust="spacing" textLength="282" x="473.5" y="936.4146">HttpStatus: 400 with appropriate error code</text><path d="M19,918.2813 L19,951.2813 A3.5,3.5 0 0 0 22.5,954.7813 L447.5,954.7813 A3.5,3.5 0 0 0 451,951.2813 L451,924.7813 L441,914.7813 L22.5,914.7813 A3.5,3.5 0 0 0 19,918.2813 " fill="#7FFFD4" style="stroke:#454645;stroke-width:1.5;"/><path d="M441,914.7813 L441,923.0313 A1.75,1.75 0 0 0 442.75,924.7813 L451,924.7813 L441,914.7813 " fill="#7FFFD4" style="stroke:#454645;stroke-width:1.5;"/><text fill="#454645" font-family="sans-serif" font-size="13" lengthAdjust="spacing" textLength="172" x="25" y="931.8481">Error Code: BAD_REQUEST</text><text fill="#454645" font-family="sans-serif" font-size="13" lengthAdjust="spacing" textLength="411" x="25" y="946.981">Ensures that the individual is not already linked to a household</text><polygon fill="#454645" points="783.5,984.1797,773.5,988.1797,783.5,992.1797,779.5,988.1797" style="stroke:#454645;stroke-width:1.0;"/><line style="stroke:#454645;stroke-width:1.0;" x1="777.5" x2="2155" y1="988.1797" y2="988.1797"/><text fill="#000000" font-family="sans-serif" font-size="13" lengthAdjust="spacing" textLength="43" x="789.5" y="983.1138">0 rows</text><line style="stroke:#454645;stroke-width:1.0;" x1="772.5" x2="814.5" y1="1017.3125" y2="1017.3125"/><line style="stroke:#454645;stroke-width:1.0;" x1="814.5" x2="814.5" y1="1017.3125" y2="1030.3125"/><line style="stroke:#454645;stroke-width:1.0;" x1="773.5" x2="814.5" y1="1030.3125" y2="1030.3125"/><polygon fill="#454645" points="783.5,1026.3125,773.5,1030.3125,783.5,1034.3125,779.5,1030.3125" style="stroke:#454645;stroke-width:1.0;"/><text fill="#000000" font-family="sans-serif" font-size="13" lengthAdjust="spacing" textLength="300" x="779.5" y="1012.2466">Check if isHeadOfHousehold is true in request</text><path d="M241.5,1045.3125 L302,1045.3125 L302,1052.4453 L292,1062.4453 L238,1062.4453 L238,1048.8125 A3.5,3.5 0 0 1 241.5,1045.3125 " fill="#EEEEEE" style="stroke:#696969;stroke-width:1.5;"/><rect fill="none" height="183.7969" rx="3.5" ry="3.5" style="stroke:#696969;stroke-width:1.0;" width="1965" x="238" y="1045.3125"/><text fill="#454645" font-family="sans-serif" font-size="13" font-weight="bold" lengthAdjust="spacing" textLength="19" x="253" y="1058.3794">alt</text><text fill="#696969" font-family="sans-serif" font-size="11" font-weight="bold" lengthAdjust="spacing" textLength="213" x="317" y="1057.5229">[request isHeadOfHousehold true]</text><polygon fill="#454645" points="2139,1079.5781,2149,1083.5781,2139,1087.5781,2143,1083.5781" style="stroke:#454645;stroke-width:1.0;"/><line style="stroke:#454645;stroke-width:1.0;" x1="772.5" x2="2145" y1="1083.5781" y2="1083.5781"/><text fill="#000000" font-family="sans-serif" font-size="13" lengthAdjust="spacing" textLength="578" x="779.5" y="1078.5122">Get Individual/Household mapping using household clientReferenceId/serverGeneratedId</text><polygon fill="#454645" points="783.5,1108.7109,773.5,1112.7109,783.5,1116.7109,779.5,1112.7109" style="stroke:#454645;stroke-width:1.0;"/><line style="stroke:#454645;stroke-width:1.0;" x1="777.5" x2="2155" y1="1112.7109" y2="1112.7109"/><text fill="#000000" font-family="sans-serif" font-size="13" lengthAdjust="spacing" textLength="66" x="789.5" y="1107.645">1-n row(s)</text><path d="M251.5,1127.7109 L312,1127.7109 L312,1134.8438 L302,1144.8438 L248,1144.8438 L248,1131.2109 A3.5,3.5 0 0 1 251.5,1127.7109 " fill="#EEEEEE" style="stroke:#696969;stroke-width:1.5;"/><rect fill="none" height="94.3984" rx="3.5" ry="3.5" style="stroke:#696969;stroke-width:1.0;" width="954.5" x="248" y="1127.7109"/><text fill="#454645" font-family="sans-serif" font-size="13" font-weight="bold" lengthAdjust="spacing" textLength="19" x="263" y="1140.7778">alt</text><text fill="#696969" font-family="sans-serif" font-size="11" font-weight="bold" lengthAdjust="spacing" textLength="278" x="327" y="1139.9214">[record with isHeadOfHousehold true found]</text><line style="stroke:#454645;stroke-width:1.0;" x1="772.5" x2="814.5" y1="1165.9766" y2="1165.9766"/><line style="stroke:#454645;stroke-width:1.0;" x1="814.5" x2="814.5" y1="1165.9766" y2="1178.9766"/><line style="stroke:#454645;stroke-width:1.0;" x1="773.5" x2="814.5" y1="1178.9766" y2="1178.9766"/><polygon fill="#454645" points="783.5,1174.9766,773.5,1178.9766,783.5,1182.9766,779.5,1178.9766" style="stroke:#454645;stroke-width:1.0;"/><text fill="#000000" font-family="sans-serif" font-size="13" lengthAdjust="spacing" textLength="411" x="779.5" y="1160.9106">Check if there is already a record with isHeadOfHousehold true</text><polygon fill="#454645" points="467.5,1207.1094,457.5,1211.1094,467.5,1215.1094,463.5,1211.1094" style="stroke:#454645;stroke-width:1.0;"/><line style="stroke:#454645;stroke-width:1.0;" x1="461.5" x2="761.5" y1="1211.1094" y2="1211.1094"/><text fill="#000000" font-family="sans-serif" font-size="13" lengthAdjust="spacing" textLength="282" x="473.5" y="1206.0435">HttpStatus: 400 with appropriate error code</text><path d="M258,1195.4766 L258,1213.4766 A3.5,3.5 0 0 0 261.5,1216.9766 L447.5,1216.9766 A3.5,3.5 0 0 0 451,1213.4766 L451,1201.9766 L441,1191.9766 L261.5,1191.9766 A3.5,3.5 0 0 0 258,1195.4766 " fill="#7FFFD4" style="stroke:#454645;stroke-width:1.5;"/><path d="M441,1191.9766 L441,1200.2266 A1.75,1.75 0 0 0 442.75,1201.9766 L451,1201.9766 L441,1191.9766 " fill="#7FFFD4" style="stroke:#454645;stroke-width:1.5;"/><text fill="#454645" font-family="sans-serif" font-size="13" lengthAdjust="spacing" textLength="172" x="264" y="1209.0435">Error Code: BAD_REQUEST</text><polygon fill="#454645" points="1409,1253.2422,1419,1257.2422,1409,1261.2422,1413,1257.2422" style="stroke:#454645;stroke-width:1.0;"/><line style="stroke:#454645;stroke-width:1.0;" x1="772.5" x2="1415" y1="1257.2422" y2="1257.2422"/><text fill="#000000" font-family="sans-serif" font-size="13" lengthAdjust="spacing" textLength="252" x="779.5" y="1252.1763">Household Member Data /persist_topic</text><polygon fill="#454645" points="1315,1300.5078,1325,1304.5078,1315,1308.5078,1319,1304.5078" style="stroke:#454645;stroke-width:1.0;"/><line style="stroke:#454645;stroke-width:1.0;" x1="772.5" x2="1321" y1="1304.5078" y2="1304.5078"/><text fill="#000000" font-family="sans-serif" font-size="13" lengthAdjust="spacing" textLength="460" x="779.5" y="1299.4419">Invalidate household cache using clientReferenceId/serverGeneratedId</text><path d="M352,1273.7422 L352,1321.7422 A3.5,3.5 0 0 0 355.5,1325.2422 L753.5,1325.2422 A3.5,3.5 0 0 0 757,1321.7422 L757,1280.2422 L747,1270.2422 L355.5,1270.2422 A3.5,3.5 0 0 0 352,1273.7422 " fill="#7FFFD4" style="stroke:#454645;stroke-width:1.5;"/><path d="M747,1270.2422 L747,1278.4922 A1.75,1.75 0 0 0 748.75,1280.2422 L757,1280.2422 L747,1270.2422 " fill="#7FFFD4" style="stroke:#454645;stroke-width:1.5;"/><text fill="#454645" font-family="sans-serif" font-size="13" lengthAdjust="spacing" textLength="375" x="358" y="1287.3091">The request does not have all the data required to update</text><text fill="#454645" font-family="sans-serif" font-size="13" lengthAdjust="spacing" textLength="384" x="358" y="1302.4419">the household cache for which this member is being added</text><text fill="#454645" font-family="sans-serif" font-size="13" lengthAdjust="spacing" textLength="203" x="358" y="1317.5747">and hence is being invalidated.</text><polygon fill="#454645" points="467.5,1377.7734,457.5,1381.7734,467.5,1385.7734,463.5,1381.7734" style="stroke:#454645;stroke-width:1.0;"/><line style="stroke:#454645;stroke-width:1.0;" x1="461.5" x2="766.5" y1="1381.7734" y2="1381.7734"/><text fill="#000000" font-family="sans-serif" font-size="13" lengthAdjust="spacing" textLength="174" x="473.5" y="1376.7075">HttpStatus: 202 ACCEPTED</text><path d="M1384.5,1396.7734 L1468,1396.7734 L1468,1403.9063 L1458,1413.9063 L1381,1413.9063 L1381,1400.2734 A3.5,3.5 0 0 1 1384.5,1396.7734 " fill="#EEEEEE" style="stroke:#696969;stroke-width:1.5;"/><rect fill="none" height="193.6641" rx="3.5" ry="3.5" style="stroke:#696969;stroke-width:1.0;" width="822" x="1381" y="1396.7734"/><text fill="#454645" font-family="sans-serif" font-size="13" font-weight="bold" lengthAdjust="spacing" textLength="42" x="1396" y="1409.8403">async</text><polygon fill="#454645" points="1442,1431.0391,1432,1435.0391,1442,1439.0391,1438,1435.0391" style="stroke:#454645;stroke-width:1.0;"/><line style="stroke:#454645;stroke-width:1.0;" x1="1436" x2="1675" y1="1435.0391" y2="1435.0391"/><text fill="#000000" font-family="sans-serif" font-size="13" lengthAdjust="spacing" textLength="226" x="1448" y="1429.9731">Consume Household Member Data</text><polygon fill="#454645" points="1442,1460.1719,1432,1464.1719,1442,1468.1719,1438,1464.1719" style="stroke:#454645;stroke-width:1.0;"/><line style="stroke:#454645;stroke-width:1.0;" x1="1436" x2="1809.5" y1="1464.1719" y2="1464.1719"/><text fill="#000000" font-family="sans-serif" font-size="13" lengthAdjust="spacing" textLength="226" x="1448" y="1459.106">Consume Household Member Data</text><polygon fill="#454645" points="2037,1489.3047,2047,1493.3047,2037,1497.3047,2041,1493.3047" style="stroke:#454645;stroke-width:1.0;"/><line style="stroke:#454645;stroke-width:1.0;" x1="1820.5" x2="2043" y1="1493.3047" y2="1493.3047"/><text fill="#000000" font-family="sans-serif" font-size="13" lengthAdjust="spacing" textLength="199" x="1827.5" y="1488.2388">Store Household Member Data</text><polygon fill="#454645" points="2139,1548.4375,2149,1552.4375,2139,1556.4375,2143,1552.4375" style="stroke:#454645;stroke-width:1.0;"/><line style="stroke:#454645;stroke-width:1.0;" x1="1686" x2="2145" y1="1552.4375" y2="1552.4375"/><text fill="#000000" font-family="sans-serif" font-size="13" lengthAdjust="spacing" textLength="209" x="1693" y="1547.3716">Persist Household Member Data</text><!--SRC=[jLPBR-Cs4BxpLqnFRG-fiqPFFXHmPNLZD4rIsrtidWoQ74M4PKabAIVvznrI4YLPhk5TP7DmgE4yEDyyhR8PmbrH6KoBJC9VUDYXXXk8D7ABx0URuW7Xg7QQvvQLN5ibL4bdY3A5z8yR40DwKBR2PsMiVdCiPi2opAKwAbdnRC0p7J2jK2eJSP6YkzI2_LjXXV0dJ_RSKVO3xYVKXZIXNgC-Ak5bIZqoYwy33YLV1nonraN_7eSAuemR-bWZroBrzncJtF8TDmYBza1qkMC2Rdu30pEOf2qWauD7TtByCDcA6bykh3hIWG0oNc06dtYcf2Df98-DXLqXtnZFR20SQmvLv91mbHa6zDUAhyupeUoun0pkh2tNbjkA97wzlOKNPScXijH5gPKpZWu948L4BvSNHCimiVuBQg0Wecko6F_zJxpUR3_DxvUB-MRv-B3zOxwyZnUU5tFffHaT6BlmIbC9WSOaLUQT3QX1ZHfvBmejWMU4d7m3VALmrwxNsFZRfAZ8dif1kCHf7kkDQl8wIb7ieJ8gV-xf5pwHLvYWnbpWKauCPG3gZvYZ9YpaKZQAGhGe6skA5er37q0NBmrHufZnMu4VGp-6FtfSBRRp-rKyNtpPnf-NwyswuGtWDn_i7U4uzJ50SUkWg2CpHi8RbxlMk4eknRMLfNBosdOZi7i66gRWtLDbmHLdo8Pty_H_l7g7ihesieEYSkclGaS5MQ39VxGraBtMCALMrB7v9cHy8nlwI5tOoqmlHhFX2j_xxmZ38dwA7nRnGqGGh5QFgp428Qa-Od-uJBgvTY3hBlXr2lJGkYO7-YbssclOcRJyDXWkjTZVvujjqsRRsznK6WtOb5lwmRvFoZXbeQ8obUzHWYs0TydFJY0CJZJn7XPMsxP3qIfpHxeVamvXCcfrvTxHpgd1p1eBE6xMQmXNnkvhotVO7xfOtUJEqP_CpspSHNf1zZ4x__YG0Dtm3VXGH3GwJDeWy2iKViSQEasWtc1mqUzcytustWRTPWEJijwmjhOebM2zoWyTTvaVszsb5wLUwxqcOdq_Dcct1RcsvjCwvKVQiRBCPxrly8v5wJh5gzBP9rbtU_gAXF1uIHNjRZQbs3IB1Prsw9x7fVHh4YTmKlV0xae5r-GlB83N7mF3eN0kYjFRASoZA7xQq6hKxwNiMHTLINlZMrwF4rfScrX41TNv0S_7PDY2tRRh2BJJVhsmMuHxmfZDO6qBVPKiBS4dqs5CQVKtdhbwRpRsQooqynylK9pxlf5rfFr_]--></g></svg>