<?xml version="1.0" encoding="UTF-8" standalone="no"?><svg xmlns="http://www.w3.org/2000/svg" xmlns:xlink="http://www.w3.org/1999/xlink" contentStyleType="text/css" height="1197px" preserveAspectRatio="none" style="width:1937px;height:1197px;background:#FFFFFF;" version="1.1" viewBox="0 0 1937 1197" width="1937px" zoomAndPan="magnify"><defs/><g><text fill="#000000" font-family="sans-serif" font-size="14" font-weight="bold" lengthAdjust="spacing" textLength="148" x="896.25" y="27.9951">Individual - Delete</text><rect fill="#FFFFFF" height="757.9219" style="stroke:#696969;stroke-width:1.0;" width="10" x="627.5" y="135.7266"/><rect fill="#FFFFFF" height="29.1328" style="stroke:#696969;stroke-width:1.0;" width="10" x="1122.5" y="381.6563"/><rect fill="#FFFFFF" height="29.1328" style="stroke:#696969;stroke-width:1.0;" width="10" x="1122.5" y="564.4531"/><rect fill="#FFFFFF" height="30" style="stroke:#696969;stroke-width:1.0;" width="10" x="1122.5" y="680.9844"/><rect fill="#FFFFFF" height="29.1328" style="stroke:#696969;stroke-width:1.0;" width="10" x="1122.5" y="747.1172"/><rect fill="#FFFFFF" height="30" style="stroke:#696969;stroke-width:1.0;" width="10" x="1122.5" y="834.5156"/><rect fill="#FFFFFF" height="303.9297" style="stroke:#696969;stroke-width:1.0;" width="10" x="1211.5" y="805.3828"/><rect fill="#FFFFFF" height="147.3984" style="stroke:#696969;stroke-width:1.0;" width="10" x="1404.5" y="946.9141"/><rect fill="#FFFFFF" height="59.1328" style="stroke:#696969;stroke-width:1.0;" width="10" x="1539" y="976.0469"/><rect fill="#FFFFFF" height="30" style="stroke:#696969;stroke-width:1.0;" width="10" x="1777.5" y="1005.1797"/><rect fill="#FFFFFF" height="29.1328" style="stroke:#696969;stroke-width:1.0;" width="10" x="1879.5" y="439.9219"/><rect fill="#FFFFFF" height="29.1328" style="stroke:#696969;stroke-width:1.0;" width="10" x="1879.5" y="622.7188"/><rect fill="#FFFFFF" height="30" style="stroke:#696969;stroke-width:1.0;" width="10" x="1879.5" y="1064.3125"/><rect fill="none" height="94.3984" rx="3.5" ry="3.5" style="stroke:#696969;stroke-width:1.0;" width="810.5" x="9" y="192.8594"/><rect fill="none" height="168.7969" rx="3.5" ry="3.5" style="stroke:#696969;stroke-width:1.0;" width="1866.5" x="65" y="343.3906"/><rect fill="none" height="192.7969" rx="3.5" ry="3.5" style="stroke:#696969;stroke-width:1.0;" width="1379.5" x="552" y="526.1875"/><rect fill="none" height="193.6641" rx="3.5" ry="3.5" style="stroke:#696969;stroke-width:1.0;" width="755" x="1176.5" y="908.6484"/><line style="stroke:#696969;stroke-width:0.5;stroke-dasharray:5.0,5.0;" x1="321" x2="321" y1="104.5938" y2="1119.3125"/><line style="stroke:#696969;stroke-width:0.5;stroke-dasharray:5.0,5.0;" x1="632" x2="632" y1="104.5938" y2="1119.3125"/><line style="stroke:#696969;stroke-width:0.5;stroke-dasharray:5.0,5.0;" x1="1127.5" x2="1127.5" y1="104.5938" y2="1119.3125"/><line style="stroke:#696969;stroke-width:0.5;stroke-dasharray:5.0,5.0;" x1="1216.5" x2="1216.5" y1="104.5938" y2="1119.3125"/><line style="stroke:#696969;stroke-width:0.5;stroke-dasharray:5.0,5.0;" x1="1409.5" x2="1409.5" y1="104.5938" y2="1119.3125"/><line style="stroke:#696969;stroke-width:0.5;stroke-dasharray:5.0,5.0;" x1="1543.5" x2="1543.5" y1="104.5938" y2="1119.3125"/><line style="stroke:#696969;stroke-width:0.5;stroke-dasharray:5.0,5.0;" x1="1665.5" x2="1665.5" y1="104.5938" y2="1119.3125"/><line style="stroke:#696969;stroke-width:0.5;stroke-dasharray:5.0,5.0;" x1="1782.5" x2="1782.5" y1="104.5938" y2="1119.3125"/><line style="stroke:#696969;stroke-width:0.5;stroke-dasharray:5.0,5.0;" x1="1884.5" x2="1884.5" y1="104.5938" y2="1119.3125"/><rect fill="#FF6347" height="30.2969" rx="3.5" ry="3.5" style="stroke:#454645;stroke-width:1.5;" width="55" x="294" y="73.2969"/><text fill="#FFFFFF" font-family="sans-serif" font-size="14" lengthAdjust="spacing" textLength="41" x="301" y="93.292">Client</text><rect fill="#FF6347" height="30.2969" rx="3.5" ry="3.5" style="stroke:#454645;stroke-width:1.5;" width="55" x="294" y="1118.3125"/><text fill="#FFFFFF" font-family="sans-serif" font-size="14" lengthAdjust="spacing" textLength="41" x="301" y="1138.3076">Client</text><rect fill="#FF6347" height="30.2969" rx="3.5" ry="3.5" style="stroke:#454645;stroke-width:1.5;" width="141" x="562" y="73.2969"/><text fill="#FFFFFF" font-family="sans-serif" font-size="14" lengthAdjust="spacing" textLength="127" x="569" y="93.292">IndividualRegistry</text><rect fill="#FF6347" height="30.2969" rx="3.5" ry="3.5" style="stroke:#454645;stroke-width:1.5;" width="141" x="562" y="1118.3125"/><text fill="#FFFFFF" font-family="sans-serif" font-size="14" lengthAdjust="spacing" textLength="127" x="569" y="1138.3076">IndividualRegistry</text><rect fill="#FF6347" height="30.2969" rx="3.5" ry="3.5" style="stroke:#454645;stroke-width:1.5;" width="98" x="1078.5" y="73.2969"/><text fill="#FFFFFF" font-family="sans-serif" font-size="14" lengthAdjust="spacing" textLength="84" x="1085.5" y="93.292">RedisCache</text><rect fill="#FF6347" height="30.2969" rx="3.5" ry="3.5" style="stroke:#454645;stroke-width:1.5;" width="98" x="1078.5" y="1118.3125"/><text fill="#FFFFFF" font-family="sans-serif" font-size="14" lengthAdjust="spacing" textLength="84" x="1085.5" y="1138.3076">RedisCache</text><path d="M1191.5,78.2969 L1241.5,78.2969 C1246.5,78.2969 1246.5,91.4453 1246.5,91.4453 C1246.5,91.4453 1246.5,104.5938 1241.5,104.5938 L1191.5,104.5938 C1186.5,104.5938 1186.5,91.4453 1186.5,91.4453 C1186.5,91.4453 1186.5,78.2969 1191.5,78.2969 " fill="#FF6347" style="stroke:#454645;stroke-width:1.5;"/><path d="M1241.5,78.2969 C1236.5,78.2969 1236.5,91.4453 1236.5,91.4453 C1236.5,104.5938 1241.5,104.5938 1241.5,104.5938 " fill="none" style="stroke:#454645;stroke-width:1.5;"/><text fill="#FFFFFF" font-family="sans-serif" font-size="14" lengthAdjust="spacing" textLength="40" x="1191.5" y="96.292">Kafka</text><path d="M1191.5,1118.3125 L1241.5,1118.3125 C1246.5,1118.3125 1246.5,1131.4609 1246.5,1131.4609 C1246.5,1131.4609 1246.5,1144.6094 1241.5,1144.6094 L1191.5,1144.6094 C1186.5,1144.6094 1186.5,1131.4609 1186.5,1131.4609 C1186.5,1131.4609 1186.5,1118.3125 1191.5,1118.3125 " fill="#FF6347" style="stroke:#454645;stroke-width:1.5;"/><path d="M1241.5,1118.3125 C1236.5,1118.3125 1236.5,1131.4609 1236.5,1131.4609 C1236.5,1144.6094 1241.5,1144.6094 1241.5,1144.6094 " fill="none" style="stroke:#454645;stroke-width:1.5;"/><text fill="#FFFFFF" font-family="sans-serif" font-size="14" lengthAdjust="spacing" textLength="40" x="1191.5" y="1136.3076">Kafka</text><rect fill="#FF6347" height="30.2969" rx="3.5" ry="3.5" style="stroke:#454645;stroke-width:1.5;" width="128" x="1345.5" y="73.2969"/><text fill="#FFFFFF" font-family="sans-serif" font-size="14" lengthAdjust="spacing" textLength="114" x="1352.5" y="93.292">PersisterService</text><rect fill="#FF6347" height="30.2969" rx="3.5" ry="3.5" style="stroke:#454645;stroke-width:1.5;" width="128" x="1345.5" y="1118.3125"/><text fill="#FFFFFF" font-family="sans-serif" font-size="14" lengthAdjust="spacing" textLength="114" x="1352.5" y="1138.3076">PersisterService</text><rect fill="#FF6347" height="30.2969" rx="3.5" ry="3.5" style="stroke:#454645;stroke-width:1.5;" width="121" x="1483.5" y="73.2969"/><text fill="#FFFFFF" font-family="sans-serif" font-size="14" lengthAdjust="spacing" textLength="107" x="1490.5" y="93.292">IndexerService</text><rect fill="#FF6347" height="30.2969" rx="3.5" ry="3.5" style="stroke:#454645;stroke-width:1.5;" width="121" x="1483.5" y="1118.3125"/><text fill="#FFFFFF" font-family="sans-serif" font-size="14" lengthAdjust="spacing" textLength="107" x="1490.5" y="1138.3076">IndexerService</text><rect fill="#FF6347" height="30.2969" rx="3.5" ry="3.5" style="stroke:#454645;stroke-width:1.5;" width="103" x="1614.5" y="73.2969"/><text fill="#FFFFFF" font-family="sans-serif" font-size="14" lengthAdjust="spacing" textLength="89" x="1621.5" y="93.292">ErrorService</text><rect fill="#FF6347" height="30.2969" rx="3.5" ry="3.5" style="stroke:#454645;stroke-width:1.5;" width="103" x="1614.5" y="1118.3125"/><text fill="#FFFFFF" font-family="sans-serif" font-size="14" lengthAdjust="spacing" textLength="89" x="1621.5" y="1138.3076">ErrorService</text><rect fill="#FF6347" height="30.2969" rx="3.5" ry="3.5" style="stroke:#454645;stroke-width:1.5;" width="110" x="1727.5" y="73.2969"/><text fill="#FFFFFF" font-family="sans-serif" font-size="14" lengthAdjust="spacing" textLength="96" x="1734.5" y="93.292">ElasticSearch</text><rect fill="#FF6347" height="30.2969" rx="3.5" ry="3.5" style="stroke:#454645;stroke-width:1.5;" width="110" x="1727.5" y="1118.3125"/><text fill="#FFFFFF" font-family="sans-serif" font-size="14" lengthAdjust="spacing" textLength="96" x="1734.5" y="1138.3076">ElasticSearch</text><text fill="#454645" font-family="sans-serif" font-size="14" lengthAdjust="spacing" textLength="68" x="1847.5" y="101.292">Database</text><path d="M1866.5,52.2969 C1866.5,42.2969 1884.5,42.2969 1884.5,42.2969 C1884.5,42.2969 1902.5,42.2969 1902.5,52.2969 L1902.5,78.2969 C1902.5,88.2969 1884.5,88.2969 1884.5,88.2969 C1884.5,88.2969 1866.5,88.2969 1866.5,78.2969 L1866.5,52.2969 " fill="#00FFFF" style="stroke:#454645;stroke-width:1.5;"/><path d="M1866.5,52.2969 C1866.5,62.2969 1884.5,62.2969 1884.5,62.2969 C1884.5,62.2969 1902.5,62.2969 1902.5,52.2969 " fill="none" style="stroke:#454645;stroke-width:1.5;"/><text fill="#454645" font-family="sans-serif" font-size="14" lengthAdjust="spacing" textLength="68" x="1847.5" y="1131.3076">Database</text><path d="M1866.5,1144.6094 C1866.5,1134.6094 1884.5,1134.6094 1884.5,1134.6094 C1884.5,1134.6094 1902.5,1134.6094 1902.5,1144.6094 L1902.5,1170.6094 C1902.5,1180.6094 1884.5,1180.6094 1884.5,1180.6094 C1884.5,1180.6094 1866.5,1180.6094 1866.5,1170.6094 L1866.5,1144.6094 " fill="#00FFFF" style="stroke:#454645;stroke-width:1.5;"/><path d="M1866.5,1144.6094 C1866.5,1154.6094 1884.5,1154.6094 1884.5,1154.6094 C1884.5,1154.6094 1902.5,1154.6094 1902.5,1144.6094 " fill="none" style="stroke:#454645;stroke-width:1.5;"/><rect fill="#FFFFFF" height="757.9219" style="stroke:#696969;stroke-width:1.0;" width="10" x="627.5" y="135.7266"/><rect fill="#FFFFFF" height="29.1328" style="stroke:#696969;stroke-width:1.0;" width="10" x="1122.5" y="381.6563"/><rect fill="#FFFFFF" height="29.1328" style="stroke:#696969;stroke-width:1.0;" width="10" x="1122.5" y="564.4531"/><rect fill="#FFFFFF" height="30" style="stroke:#696969;stroke-width:1.0;" width="10" x="1122.5" y="680.9844"/><rect fill="#FFFFFF" height="29.1328" style="stroke:#696969;stroke-width:1.0;" width="10" x="1122.5" y="747.1172"/><rect fill="#FFFFFF" height="30" style="stroke:#696969;stroke-width:1.0;" width="10" x="1122.5" y="834.5156"/><rect fill="#FFFFFF" height="303.9297" style="stroke:#696969;stroke-width:1.0;" width="10" x="1211.5" y="805.3828"/><rect fill="#FFFFFF" height="147.3984" style="stroke:#696969;stroke-width:1.0;" width="10" x="1404.5" y="946.9141"/><rect fill="#FFFFFF" height="59.1328" style="stroke:#696969;stroke-width:1.0;" width="10" x="1539" y="976.0469"/><rect fill="#FFFFFF" height="30" style="stroke:#696969;stroke-width:1.0;" width="10" x="1777.5" y="1005.1797"/><rect fill="#FFFFFF" height="29.1328" style="stroke:#696969;stroke-width:1.0;" width="10" x="1879.5" y="439.9219"/><rect fill="#FFFFFF" height="29.1328" style="stroke:#696969;stroke-width:1.0;" width="10" x="1879.5" y="622.7188"/><rect fill="#FFFFFF" height="30" style="stroke:#696969;stroke-width:1.0;" width="10" x="1879.5" y="1064.3125"/><polygon fill="#454645" points="615.5,131.7266,625.5,135.7266,615.5,139.7266,619.5,135.7266" style="stroke:#454645;stroke-width:1.0;"/><line style="stroke:#454645;stroke-width:1.0;" x1="321.5" x2="621.5" y1="135.7266" y2="135.7266"/><text fill="#000000" font-family="sans-serif" font-size="13" lengthAdjust="spacing" textLength="140" x="328.5" y="130.6606">/individual/v1/_delete</text><line style="stroke:#454645;stroke-width:1.0;" x1="637.5" x2="679.5" y1="164.8594" y2="164.8594"/><line style="stroke:#454645;stroke-width:1.0;" x1="679.5" x2="679.5" y1="164.8594" y2="177.8594"/><line style="stroke:#454645;stroke-width:1.0;" x1="638.5" x2="679.5" y1="177.8594" y2="177.8594"/><polygon fill="#454645" points="648.5,173.8594,638.5,177.8594,648.5,181.8594,644.5,177.8594" style="stroke:#454645;stroke-width:1.0;"/><text fill="#000000" font-family="sans-serif" font-size="13" lengthAdjust="spacing" textLength="143" x="644.5" y="159.7935">Validate request body</text><path d="M12.5,192.8594 L73,192.8594 L73,199.9922 L63,209.9922 L9,209.9922 L9,196.3594 A3.5,3.5 0 0 1 12.5,192.8594 " fill="#EEEEEE" style="stroke:#696969;stroke-width:1.5;"/><rect fill="none" height="94.3984" rx="3.5" ry="3.5" style="stroke:#696969;stroke-width:1.0;" width="810.5" x="9" y="192.8594"/><text fill="#454645" font-family="sans-serif" font-size="13" font-weight="bold" lengthAdjust="spacing" textLength="19" x="24" y="205.9263">alt</text><text fill="#696969" font-family="sans-serif" font-size="11" font-weight="bold" lengthAdjust="spacing" textLength="154" x="88" y="205.0698">[request validation fails]</text><line style="stroke:#454645;stroke-width:1.0;" x1="637.5" x2="679.5" y1="231.125" y2="231.125"/><line style="stroke:#454645;stroke-width:1.0;" x1="679.5" x2="679.5" y1="231.125" y2="244.125"/><line style="stroke:#454645;stroke-width:1.0;" x1="638.5" x2="679.5" y1="244.125" y2="244.125"/><polygon fill="#454645" points="648.5,240.125,638.5,244.125,648.5,248.125,644.5,244.125" style="stroke:#454645;stroke-width:1.0;"/><text fill="#000000" font-family="sans-serif" font-size="13" lengthAdjust="spacing" textLength="163" x="644.5" y="226.0591">Request validation failed</text><polygon fill="#454645" points="332.5,272.2578,322.5,276.2578,332.5,280.2578,328.5,276.2578" style="stroke:#454645;stroke-width:1.0;"/><line style="stroke:#454645;stroke-width:1.0;" x1="326.5" x2="626.5" y1="276.2578" y2="276.2578"/><text fill="#000000" font-family="sans-serif" font-size="13" lengthAdjust="spacing" textLength="282" x="338.5" y="271.1919">HttpStatus: 400 with appropriate error code</text><path d="M19,260.625 L19,278.625 A3.5,3.5 0 0 0 22.5,282.125 L312.5,282.125 A3.5,3.5 0 0 0 316,278.625 L316,267.125 L306,257.125 L22.5,257.125 A3.5,3.5 0 0 0 19,260.625 " fill="#7FFFD4" style="stroke:#454645;stroke-width:1.5;"/><path d="M306,257.125 L306,265.375 A1.75,1.75 0 0 0 307.75,267.125 L316,267.125 L306,257.125 " fill="#7FFFD4" style="stroke:#454645;stroke-width:1.5;"/><text fill="#454645" font-family="sans-serif" font-size="13" lengthAdjust="spacing" textLength="276" x="25" y="274.1919">Error Code: REQUEST_VALIDATION_FAILED</text><line style="stroke:#454645;stroke-width:1.0;" x1="637.5" x2="679.5" y1="315.3906" y2="315.3906"/><line style="stroke:#454645;stroke-width:1.0;" x1="679.5" x2="679.5" y1="315.3906" y2="328.3906"/><line style="stroke:#454645;stroke-width:1.0;" x1="638.5" x2="679.5" y1="328.3906" y2="328.3906"/><polygon fill="#454645" points="648.5,324.3906,638.5,328.3906,648.5,332.3906,644.5,328.3906" style="stroke:#454645;stroke-width:1.0;"/><text fill="#000000" font-family="sans-serif" font-size="13" lengthAdjust="spacing" textLength="194" x="644.5" y="310.3247">Request validation successful</text><path d="M68.5,343.3906 L129,343.3906 L129,350.5234 L119,360.5234 L65,360.5234 L65,346.8906 A3.5,3.5 0 0 1 68.5,343.3906 " fill="#EEEEEE" style="stroke:#696969;stroke-width:1.5;"/><rect fill="none" height="168.7969" rx="3.5" ry="3.5" style="stroke:#696969;stroke-width:1.0;" width="1866.5" x="65" y="343.3906"/><text fill="#454645" font-family="sans-serif" font-size="13" font-weight="bold" lengthAdjust="spacing" textLength="19" x="80" y="356.4575">alt</text><text fill="#696969" font-family="sans-serif" font-size="11" font-weight="bold" lengthAdjust="spacing" textLength="134" x="144" y="355.6011">[record doesn't exist]</text><polygon fill="#454645" points="1110.5,377.6563,1120.5,381.6563,1110.5,385.6563,1114.5,381.6563" style="stroke:#454645;stroke-width:1.0;"/><line style="stroke:#454645;stroke-width:1.0;" x1="637.5" x2="1116.5" y1="381.6563" y2="381.6563"/><text fill="#000000" font-family="sans-serif" font-size="13" lengthAdjust="spacing" textLength="277" x="644.5" y="376.5903">Search record based on serverGeneratedId</text><polygon fill="#454645" points="648.5,406.7891,638.5,410.7891,648.5,414.7891,644.5,410.7891" style="stroke:#454645;stroke-width:1.0;"/><line style="stroke:#454645;stroke-width:1.0;" x1="642.5" x2="1126.5" y1="410.7891" y2="410.7891"/><text fill="#000000" font-family="sans-serif" font-size="13" lengthAdjust="spacing" textLength="43" x="654.5" y="405.7231">0 rows</text><polygon fill="#454645" points="1867.5,435.9219,1877.5,439.9219,1867.5,443.9219,1871.5,439.9219" style="stroke:#454645;stroke-width:1.0;"/><line style="stroke:#454645;stroke-width:1.0;" x1="637.5" x2="1873.5" y1="439.9219" y2="439.9219"/><text fill="#000000" font-family="sans-serif" font-size="13" lengthAdjust="spacing" textLength="277" x="644.5" y="434.856">Search record based on serverGeneratedId</text><polygon fill="#454645" points="648.5,465.0547,638.5,469.0547,648.5,473.0547,644.5,469.0547" style="stroke:#454645;stroke-width:1.0;"/><line style="stroke:#454645;stroke-width:1.0;" x1="642.5" x2="1883.5" y1="469.0547" y2="469.0547"/><text fill="#000000" font-family="sans-serif" font-size="13" lengthAdjust="spacing" textLength="36" x="654.5" y="463.9888">0 row</text><polygon fill="#454645" points="332.5,497.1875,322.5,501.1875,332.5,505.1875,328.5,501.1875" style="stroke:#454645;stroke-width:1.0;"/><line style="stroke:#454645;stroke-width:1.0;" x1="326.5" x2="626.5" y1="501.1875" y2="501.1875"/><text fill="#000000" font-family="sans-serif" font-size="13" lengthAdjust="spacing" textLength="282" x="338.5" y="496.1216">HttpStatus: 400 with appropriate error code</text><path d="M75,485.5547 L75,503.5547 A3.5,3.5 0 0 0 78.5,507.0547 L312.5,507.0547 A3.5,3.5 0 0 0 316,503.5547 L316,492.0547 L306,482.0547 L78.5,482.0547 A3.5,3.5 0 0 0 75,485.5547 " fill="#7FFFD4" style="stroke:#454645;stroke-width:1.5;"/><path d="M306,482.0547 L306,490.3047 A1.75,1.75 0 0 0 307.75,492.0547 L316,492.0547 L306,482.0547 " fill="#7FFFD4" style="stroke:#454645;stroke-width:1.5;"/><text fill="#454645" font-family="sans-serif" font-size="13" lengthAdjust="spacing" textLength="220" x="81" y="499.1216">Error Code: RECORD_NOT_FOUND</text><path d="M555.5,526.1875 L616,526.1875 L616,533.3203 L606,543.3203 L552,543.3203 L552,529.6875 A3.5,3.5 0 0 1 555.5,526.1875 " fill="#EEEEEE" style="stroke:#696969;stroke-width:1.5;"/><rect fill="none" height="192.7969" rx="3.5" ry="3.5" style="stroke:#696969;stroke-width:1.0;" width="1379.5" x="552" y="526.1875"/><text fill="#454645" font-family="sans-serif" font-size="13" font-weight="bold" lengthAdjust="spacing" textLength="19" x="567" y="539.2544">alt</text><text fill="#696969" font-family="sans-serif" font-size="11" font-weight="bold" lengthAdjust="spacing" textLength="197" x="631" y="538.3979">[record doesn't exists in cache]</text><polygon fill="#454645" points="1110.5,560.4531,1120.5,564.4531,1110.5,568.4531,1114.5,564.4531" style="stroke:#454645;stroke-width:1.0;"/><line style="stroke:#454645;stroke-width:1.0;" x1="637.5" x2="1116.5" y1="564.4531" y2="564.4531"/><text fill="#000000" font-family="sans-serif" font-size="13" lengthAdjust="spacing" textLength="395" x="644.5" y="559.3872">Search record based on clientReferenceId/serverGeneratedId</text><polygon fill="#454645" points="648.5,589.5859,638.5,593.5859,648.5,597.5859,644.5,593.5859" style="stroke:#454645;stroke-width:1.0;"/><line style="stroke:#454645;stroke-width:1.0;" x1="642.5" x2="1126.5" y1="593.5859" y2="593.5859"/><text fill="#000000" font-family="sans-serif" font-size="13" lengthAdjust="spacing" textLength="43" x="654.5" y="588.52">0 rows</text><polygon fill="#454645" points="1867.5,618.7188,1877.5,622.7188,1867.5,626.7188,1871.5,622.7188" style="stroke:#454645;stroke-width:1.0;"/><line style="stroke:#454645;stroke-width:1.0;" x1="637.5" x2="1873.5" y1="622.7188" y2="622.7188"/><text fill="#000000" font-family="sans-serif" font-size="13" lengthAdjust="spacing" textLength="395" x="644.5" y="617.6528">Search record based on clientReferenceId/serverGeneratedId</text><polygon fill="#454645" points="648.5,647.8516,638.5,651.8516,648.5,655.8516,644.5,651.8516" style="stroke:#454645;stroke-width:1.0;"/><line style="stroke:#454645;stroke-width:1.0;" x1="642.5" x2="1883.5" y1="651.8516" y2="651.8516"/><text fill="#000000" font-family="sans-serif" font-size="13" lengthAdjust="spacing" textLength="36" x="654.5" y="646.7856">1 row</text><polygon fill="#454645" points="1110.5,676.9844,1120.5,680.9844,1110.5,684.9844,1114.5,680.9844" style="stroke:#454645;stroke-width:1.0;"/><line style="stroke:#454645;stroke-width:1.0;" x1="637.5" x2="1116.5" y1="680.9844" y2="680.9844"/><text fill="#000000" font-family="sans-serif" font-size="13" lengthAdjust="spacing" textLength="53" x="644.5" y="675.9185">1 record</text><polygon fill="#454645" points="1110.5,743.1172,1120.5,747.1172,1110.5,751.1172,1114.5,747.1172" style="stroke:#454645;stroke-width:1.0;"/><line style="stroke:#454645;stroke-width:1.0;" x1="637.5" x2="1116.5" y1="747.1172" y2="747.1172"/><text fill="#000000" font-family="sans-serif" font-size="13" lengthAdjust="spacing" textLength="161" x="644.5" y="742.0513">Fetch the existing record</text><polygon fill="#454645" points="648.5,772.25,638.5,776.25,648.5,780.25,644.5,776.25" style="stroke:#454645;stroke-width:1.0;"/><line style="stroke:#454645;stroke-width:1.0;" x1="642.5" x2="1126.5" y1="776.25" y2="776.25"/><text fill="#000000" font-family="sans-serif" font-size="13" lengthAdjust="spacing" textLength="36" x="654.5" y="771.1841">1 row</text><polygon fill="#454645" points="1199.5,801.3828,1209.5,805.3828,1199.5,809.3828,1203.5,805.3828" style="stroke:#454645;stroke-width:1.0;"/><line style="stroke:#454645;stroke-width:1.0;" x1="637.5" x2="1205.5" y1="805.3828" y2="805.3828"/><text fill="#000000" font-family="sans-serif" font-size="13" lengthAdjust="spacing" textLength="187" x="644.5" y="800.3169">Individual Data /delete_topic</text><polygon fill="#454645" points="1110.5,830.5156,1120.5,834.5156,1110.5,838.5156,1114.5,834.5156" style="stroke:#454645;stroke-width:1.0;"/><line style="stroke:#454645;stroke-width:1.0;" x1="637.5" x2="1116.5" y1="834.5156" y2="834.5156"/><text fill="#000000" font-family="sans-serif" font-size="13" lengthAdjust="spacing" textLength="466" x="644.5" y="829.4497">Delete the record in cache against clientReferenceId/serverGeneratedId</text><polygon fill="#454645" points="332.5,889.6484,322.5,893.6484,332.5,897.6484,328.5,893.6484" style="stroke:#454645;stroke-width:1.0;"/><line style="stroke:#454645;stroke-width:1.0;" x1="326.5" x2="631.5" y1="893.6484" y2="893.6484"/><text fill="#000000" font-family="sans-serif" font-size="13" lengthAdjust="spacing" textLength="174" x="338.5" y="888.5825">HttpStatus: 202 ACCEPTED</text><path d="M1180,908.6484 L1263.5,908.6484 L1263.5,915.7813 L1253.5,925.7813 L1176.5,925.7813 L1176.5,912.1484 A3.5,3.5 0 0 1 1180,908.6484 " fill="#EEEEEE" style="stroke:#696969;stroke-width:1.5;"/><rect fill="none" height="193.6641" rx="3.5" ry="3.5" style="stroke:#696969;stroke-width:1.0;" width="755" x="1176.5" y="908.6484"/><text fill="#454645" font-family="sans-serif" font-size="13" font-weight="bold" lengthAdjust="spacing" textLength="42" x="1191.5" y="921.7153">async</text><polygon fill="#454645" points="1232.5,942.9141,1222.5,946.9141,1232.5,950.9141,1228.5,946.9141" style="stroke:#454645;stroke-width:1.0;"/><line style="stroke:#454645;stroke-width:1.0;" x1="1226.5" x2="1403.5" y1="946.9141" y2="946.9141"/><text fill="#000000" font-family="sans-serif" font-size="13" lengthAdjust="spacing" textLength="164" x="1238.5" y="941.8481">Consume Individual Data</text><polygon fill="#454645" points="1232.5,972.0469,1222.5,976.0469,1232.5,980.0469,1228.5,976.0469" style="stroke:#454645;stroke-width:1.0;"/><line style="stroke:#454645;stroke-width:1.0;" x1="1226.5" x2="1538" y1="976.0469" y2="976.0469"/><text fill="#000000" font-family="sans-serif" font-size="13" lengthAdjust="spacing" textLength="164" x="1238.5" y="970.981">Consume Individual Data</text><polygon fill="#454645" points="1765.5,1001.1797,1775.5,1005.1797,1765.5,1009.1797,1769.5,1005.1797" style="stroke:#454645;stroke-width:1.0;"/><line style="stroke:#454645;stroke-width:1.0;" x1="1549" x2="1771.5" y1="1005.1797" y2="1005.1797"/><text fill="#000000" font-family="sans-serif" font-size="13" lengthAdjust="spacing" textLength="137" x="1556" y="1000.1138">Store Individual Data</text><polygon fill="#454645" points="1867.5,1060.3125,1877.5,1064.3125,1867.5,1068.3125,1871.5,1064.3125" style="stroke:#454645;stroke-width:1.0;"/><line style="stroke:#454645;stroke-width:1.0;" x1="1414.5" x2="1873.5" y1="1064.3125" y2="1064.3125"/><text fill="#000000" font-family="sans-serif" font-size="13" lengthAdjust="spacing" textLength="176" x="1421.5" y="1059.2466">Soft Delete Individual Data</text><!--SRC=[lLHDSzem4BtxLsnFFMM0J4ySEiCOqpBDG0eaLqP82sXm95UI7VBlkv9ji1rAaiwqNB1MRp_UszKwwLA4gHAoa29dATp065Dq67roUtn2AEJ6CEMYZ1adkSpe6-9K8lqn2xnbFuTPu4vQPruynhOm2nJIneplqTyP7ltACKVumRO7vYs75leUZQL0Q9Pe2ic3JsPiDoiUMmWfZYr4OenktcCxG98oIuSbCiFtuJwD17Dimop2kFuWkzX476w-WeKXzEI9RAyOzDQYL8rn9mlca5ZR01t28qkby2Q3nDKws6Zn4h7KdGn5YP1QmPR9r4P0lzfzSHc4uepYG_ZkNBPqpENayQNVXsVfY4gM6PqPwPEZrm2u5XZyb2PRYbiNJb1A135TKyRavqEoNAqVHtVJyMWrdS_Maz7qBXa7B2eHlAE8lg8hLTgSSxHscwSLMQwD0A7HgiyEy4XzFLCmnA5gG0NqeWlmSQXnQBwXGaD4nBGaVXAQHiYV3QygwOFHpwM40hkea4ji_ZON3K28ksdcwgQgGF-cC_5yCLxFvglrPFumwpJ4z-DFIjEZKC3zitkNvZoyy0LkqQ3YE1Mz_zc53sVlzcNmLbyyzK6LzoAHTj6dIVT-4tHKCst7KbcfTdMWfij9YRAMThmGwp1ixbs_Pw1NRf6rqvdavt27S_9oEOVibMfrNu7jc5Jq1D-ZNhEO2wLrnlQsVmkZE4xkLxG36d0RxOpECrgDBwgKZNPpHItMokPFsANO5jklSc-WXVqHDx_V6swOqYGvRTxmegtUwUnhInsvuX5cL6zTBVlL-FKGuXMB9-o7gM4w_0O0]--></g></svg>