<?xml version="1.0" encoding="UTF-8" standalone="no"?><svg xmlns="http://www.w3.org/2000/svg" xmlns:xlink="http://www.w3.org/1999/xlink" contentStyleType="text/css" height="932px" preserveAspectRatio="none" style="width:1974px;height:932px;background:#FFFFFF;" version="1.1" viewBox="0 0 1974 932" width="1974px" zoomAndPan="magnify"><defs/><g><text fill="#000000" font-family="sans-serif" font-size="14" font-weight="bold" lengthAdjust="spacing" textLength="226" x="875.75" y="27.9951">Household Member - Delete</text><rect fill="#FFFFFF" height="492.8594" style="stroke:#696969;stroke-width:1.0;" width="10" x="627.5" y="135.7266"/><rect fill="#FFFFFF" height="30" style="stroke:#696969;stroke-width:1.0;" width="10" x="1097.5" y="569.4531"/><rect fill="#FFFFFF" height="170.6641" style="stroke:#696969;stroke-width:1.0;" width="10" x="1186.5" y="540.3203"/><rect fill="#FFFFFF" height="147.3984" style="stroke:#696969;stroke-width:1.0;" width="10" x="1441.5" y="681.8516"/><rect fill="#FFFFFF" height="59.1328" style="stroke:#696969;stroke-width:1.0;" width="10" x="1576" y="710.9844"/><rect fill="#FFFFFF" height="30" style="stroke:#696969;stroke-width:1.0;" width="10" x="1814.5" y="740.1172"/><rect fill="#FFFFFF" height="29.1328" style="stroke:#696969;stroke-width:1.0;" width="10" x="1916.5" y="381.6563"/><rect fill="#FFFFFF" height="29.1328" style="stroke:#696969;stroke-width:1.0;" width="10" x="1916.5" y="482.0547"/><rect fill="#FFFFFF" height="30" style="stroke:#696969;stroke-width:1.0;" width="10" x="1916.5" y="799.25"/><rect fill="none" height="94.3984" rx="3.5" ry="3.5" style="stroke:#696969;stroke-width:1.0;" width="810.5" x="9" y="192.8594"/><rect fill="none" height="110.5313" rx="3.5" ry="3.5" style="stroke:#696969;stroke-width:1.0;" width="1900.5" x="68" y="343.3906"/><rect fill="none" height="193.6641" rx="3.5" ry="3.5" style="stroke:#696969;stroke-width:1.0;" width="817" x="1151.5" y="643.5859"/><line style="stroke:#696969;stroke-width:0.5;stroke-dasharray:5.0,5.0;" x1="321" x2="321" y1="104.5938" y2="854.25"/><line style="stroke:#696969;stroke-width:0.5;stroke-dasharray:5.0,5.0;" x1="632.5" x2="632.5" y1="104.5938" y2="854.25"/><line style="stroke:#696969;stroke-width:0.5;stroke-dasharray:5.0,5.0;" x1="1102.5" x2="1102.5" y1="104.5938" y2="854.25"/><line style="stroke:#696969;stroke-width:0.5;stroke-dasharray:5.0,5.0;" x1="1191.5" x2="1191.5" y1="104.5938" y2="854.25"/><line style="stroke:#696969;stroke-width:0.5;stroke-dasharray:5.0,5.0;" x1="1446.5" x2="1446.5" y1="104.5938" y2="854.25"/><line style="stroke:#696969;stroke-width:0.5;stroke-dasharray:5.0,5.0;" x1="1580.5" x2="1580.5" y1="104.5938" y2="854.25"/><line style="stroke:#696969;stroke-width:0.5;stroke-dasharray:5.0,5.0;" x1="1702.5" x2="1702.5" y1="104.5938" y2="854.25"/><line style="stroke:#696969;stroke-width:0.5;stroke-dasharray:5.0,5.0;" x1="1819.5" x2="1819.5" y1="104.5938" y2="854.25"/><line style="stroke:#696969;stroke-width:0.5;stroke-dasharray:5.0,5.0;" x1="1921.5" x2="1921.5" y1="104.5938" y2="854.25"/><rect fill="#FF6347" height="30.2969" rx="3.5" ry="3.5" style="stroke:#454645;stroke-width:1.5;" width="55" x="294" y="73.2969"/><text fill="#FFFFFF" font-family="sans-serif" font-size="14" lengthAdjust="spacing" textLength="41" x="301" y="93.292">Client</text><rect fill="#FF6347" height="30.2969" rx="3.5" ry="3.5" style="stroke:#454645;stroke-width:1.5;" width="55" x="294" y="853.25"/><text fill="#FFFFFF" font-family="sans-serif" font-size="14" lengthAdjust="spacing" textLength="41" x="301" y="873.2451">Client</text><rect fill="#FF6347" height="30.2969" rx="3.5" ry="3.5" style="stroke:#454645;stroke-width:1.5;" width="148" x="558.5" y="73.2969"/><text fill="#FFFFFF" font-family="sans-serif" font-size="14" lengthAdjust="spacing" textLength="134" x="565.5" y="93.292">HouseholdRegistry</text><rect fill="#FF6347" height="30.2969" rx="3.5" ry="3.5" style="stroke:#454645;stroke-width:1.5;" width="148" x="558.5" y="853.25"/><text fill="#FFFFFF" font-family="sans-serif" font-size="14" lengthAdjust="spacing" textLength="134" x="565.5" y="873.2451">HouseholdRegistry</text><rect fill="#FF6347" height="30.2969" rx="3.5" ry="3.5" style="stroke:#454645;stroke-width:1.5;" width="98" x="1053.5" y="73.2969"/><text fill="#FFFFFF" font-family="sans-serif" font-size="14" lengthAdjust="spacing" textLength="84" x="1060.5" y="93.292">RedisCache</text><rect fill="#FF6347" height="30.2969" rx="3.5" ry="3.5" style="stroke:#454645;stroke-width:1.5;" width="98" x="1053.5" y="853.25"/><text fill="#FFFFFF" font-family="sans-serif" font-size="14" lengthAdjust="spacing" textLength="84" x="1060.5" y="873.2451">RedisCache</text><path d="M1166.5,78.2969 L1216.5,78.2969 C1221.5,78.2969 1221.5,91.4453 1221.5,91.4453 C1221.5,91.4453 1221.5,104.5938 1216.5,104.5938 L1166.5,104.5938 C1161.5,104.5938 1161.5,91.4453 1161.5,91.4453 C1161.5,91.4453 1161.5,78.2969 1166.5,78.2969 " fill="#FF6347" style="stroke:#454645;stroke-width:1.5;"/><path d="M1216.5,78.2969 C1211.5,78.2969 1211.5,91.4453 1211.5,91.4453 C1211.5,104.5938 1216.5,104.5938 1216.5,104.5938 " fill="none" style="stroke:#454645;stroke-width:1.5;"/><text fill="#FFFFFF" font-family="sans-serif" font-size="14" lengthAdjust="spacing" textLength="40" x="1166.5" y="96.292">Kafka</text><path d="M1166.5,853.25 L1216.5,853.25 C1221.5,853.25 1221.5,866.3984 1221.5,866.3984 C1221.5,866.3984 1221.5,879.5469 1216.5,879.5469 L1166.5,879.5469 C1161.5,879.5469 1161.5,866.3984 1161.5,866.3984 C1161.5,866.3984 1161.5,853.25 1166.5,853.25 " fill="#FF6347" style="stroke:#454645;stroke-width:1.5;"/><path d="M1216.5,853.25 C1211.5,853.25 1211.5,866.3984 1211.5,866.3984 C1211.5,879.5469 1216.5,879.5469 1216.5,879.5469 " fill="none" style="stroke:#454645;stroke-width:1.5;"/><text fill="#FFFFFF" font-family="sans-serif" font-size="14" lengthAdjust="spacing" textLength="40" x="1166.5" y="871.2451">Kafka</text><rect fill="#FF6347" height="30.2969" rx="3.5" ry="3.5" style="stroke:#454645;stroke-width:1.5;" width="128" x="1382.5" y="73.2969"/><text fill="#FFFFFF" font-family="sans-serif" font-size="14" lengthAdjust="spacing" textLength="114" x="1389.5" y="93.292">PersisterService</text><rect fill="#FF6347" height="30.2969" rx="3.5" ry="3.5" style="stroke:#454645;stroke-width:1.5;" width="128" x="1382.5" y="853.25"/><text fill="#FFFFFF" font-family="sans-serif" font-size="14" lengthAdjust="spacing" textLength="114" x="1389.5" y="873.2451">PersisterService</text><rect fill="#FF6347" height="30.2969" rx="3.5" ry="3.5" style="stroke:#454645;stroke-width:1.5;" width="121" x="1520.5" y="73.2969"/><text fill="#FFFFFF" font-family="sans-serif" font-size="14" lengthAdjust="spacing" textLength="107" x="1527.5" y="93.292">IndexerService</text><rect fill="#FF6347" height="30.2969" rx="3.5" ry="3.5" style="stroke:#454645;stroke-width:1.5;" width="121" x="1520.5" y="853.25"/><text fill="#FFFFFF" font-family="sans-serif" font-size="14" lengthAdjust="spacing" textLength="107" x="1527.5" y="873.2451">IndexerService</text><rect fill="#FF6347" height="30.2969" rx="3.5" ry="3.5" style="stroke:#454645;stroke-width:1.5;" width="103" x="1651.5" y="73.2969"/><text fill="#FFFFFF" font-family="sans-serif" font-size="14" lengthAdjust="spacing" textLength="89" x="1658.5" y="93.292">ErrorService</text><rect fill="#FF6347" height="30.2969" rx="3.5" ry="3.5" style="stroke:#454645;stroke-width:1.5;" width="103" x="1651.5" y="853.25"/><text fill="#FFFFFF" font-family="sans-serif" font-size="14" lengthAdjust="spacing" textLength="89" x="1658.5" y="873.2451">ErrorService</text><rect fill="#FF6347" height="30.2969" rx="3.5" ry="3.5" style="stroke:#454645;stroke-width:1.5;" width="110" x="1764.5" y="73.2969"/><text fill="#FFFFFF" font-family="sans-serif" font-size="14" lengthAdjust="spacing" textLength="96" x="1771.5" y="93.292">ElasticSearch</text><rect fill="#FF6347" height="30.2969" rx="3.5" ry="3.5" style="stroke:#454645;stroke-width:1.5;" width="110" x="1764.5" y="853.25"/><text fill="#FFFFFF" font-family="sans-serif" font-size="14" lengthAdjust="spacing" textLength="96" x="1771.5" y="873.2451">ElasticSearch</text><text fill="#454645" font-family="sans-serif" font-size="14" lengthAdjust="spacing" textLength="68" x="1884.5" y="101.292">Database</text><path d="M1903.5,52.2969 C1903.5,42.2969 1921.5,42.2969 1921.5,42.2969 C1921.5,42.2969 1939.5,42.2969 1939.5,52.2969 L1939.5,78.2969 C1939.5,88.2969 1921.5,88.2969 1921.5,88.2969 C1921.5,88.2969 1903.5,88.2969 1903.5,78.2969 L1903.5,52.2969 " fill="#00FFFF" style="stroke:#454645;stroke-width:1.5;"/><path d="M1903.5,52.2969 C1903.5,62.2969 1921.5,62.2969 1921.5,62.2969 C1921.5,62.2969 1939.5,62.2969 1939.5,52.2969 " fill="none" style="stroke:#454645;stroke-width:1.5;"/><text fill="#454645" font-family="sans-serif" font-size="14" lengthAdjust="spacing" textLength="68" x="1884.5" y="866.2451">Database</text><path d="M1903.5,879.5469 C1903.5,869.5469 1921.5,869.5469 1921.5,869.5469 C1921.5,869.5469 1939.5,869.5469 1939.5,879.5469 L1939.5,905.5469 C1939.5,915.5469 1921.5,915.5469 1921.5,915.5469 C1921.5,915.5469 1903.5,915.5469 1903.5,905.5469 L1903.5,879.5469 " fill="#00FFFF" style="stroke:#454645;stroke-width:1.5;"/><path d="M1903.5,879.5469 C1903.5,889.5469 1921.5,889.5469 1921.5,889.5469 C1921.5,889.5469 1939.5,889.5469 1939.5,879.5469 " fill="none" style="stroke:#454645;stroke-width:1.5;"/><rect fill="#FFFFFF" height="492.8594" style="stroke:#696969;stroke-width:1.0;" width="10" x="627.5" y="135.7266"/><rect fill="#FFFFFF" height="30" style="stroke:#696969;stroke-width:1.0;" width="10" x="1097.5" y="569.4531"/><rect fill="#FFFFFF" height="170.6641" style="stroke:#696969;stroke-width:1.0;" width="10" x="1186.5" y="540.3203"/><rect fill="#FFFFFF" height="147.3984" style="stroke:#696969;stroke-width:1.0;" width="10" x="1441.5" y="681.8516"/><rect fill="#FFFFFF" height="59.1328" style="stroke:#696969;stroke-width:1.0;" width="10" x="1576" y="710.9844"/><rect fill="#FFFFFF" height="30" style="stroke:#696969;stroke-width:1.0;" width="10" x="1814.5" y="740.1172"/><rect fill="#FFFFFF" height="29.1328" style="stroke:#696969;stroke-width:1.0;" width="10" x="1916.5" y="381.6563"/><rect fill="#FFFFFF" height="29.1328" style="stroke:#696969;stroke-width:1.0;" width="10" x="1916.5" y="482.0547"/><rect fill="#FFFFFF" height="30" style="stroke:#696969;stroke-width:1.0;" width="10" x="1916.5" y="799.25"/><polygon fill="#454645" points="615.5,131.7266,625.5,135.7266,615.5,139.7266,619.5,135.7266" style="stroke:#454645;stroke-width:1.0;"/><line style="stroke:#454645;stroke-width:1.0;" x1="321.5" x2="621.5" y1="135.7266" y2="135.7266"/><text fill="#000000" font-family="sans-serif" font-size="13" lengthAdjust="spacing" textLength="202" x="328.5" y="130.6606">/household/member/v1/_delete</text><line style="stroke:#454645;stroke-width:1.0;" x1="637.5" x2="679.5" y1="164.8594" y2="164.8594"/><line style="stroke:#454645;stroke-width:1.0;" x1="679.5" x2="679.5" y1="164.8594" y2="177.8594"/><line style="stroke:#454645;stroke-width:1.0;" x1="638.5" x2="679.5" y1="177.8594" y2="177.8594"/><polygon fill="#454645" points="648.5,173.8594,638.5,177.8594,648.5,181.8594,644.5,177.8594" style="stroke:#454645;stroke-width:1.0;"/><text fill="#000000" font-family="sans-serif" font-size="13" lengthAdjust="spacing" textLength="143" x="644.5" y="159.7935">Validate request body</text><path d="M12.5,192.8594 L73,192.8594 L73,199.9922 L63,209.9922 L9,209.9922 L9,196.3594 A3.5,3.5 0 0 1 12.5,192.8594 " fill="#EEEEEE" style="stroke:#696969;stroke-width:1.5;"/><rect fill="none" height="94.3984" rx="3.5" ry="3.5" style="stroke:#696969;stroke-width:1.0;" width="810.5" x="9" y="192.8594"/><text fill="#454645" font-family="sans-serif" font-size="13" font-weight="bold" lengthAdjust="spacing" textLength="19" x="24" y="205.9263">alt</text><text fill="#696969" font-family="sans-serif" font-size="11" font-weight="bold" lengthAdjust="spacing" textLength="154" x="88" y="205.0698">[request validation fails]</text><line style="stroke:#454645;stroke-width:1.0;" x1="637.5" x2="679.5" y1="231.125" y2="231.125"/><line style="stroke:#454645;stroke-width:1.0;" x1="679.5" x2="679.5" y1="231.125" y2="244.125"/><line style="stroke:#454645;stroke-width:1.0;" x1="638.5" x2="679.5" y1="244.125" y2="244.125"/><polygon fill="#454645" points="648.5,240.125,638.5,244.125,648.5,248.125,644.5,244.125" style="stroke:#454645;stroke-width:1.0;"/><text fill="#000000" font-family="sans-serif" font-size="13" lengthAdjust="spacing" textLength="163" x="644.5" y="226.0591">Request validation failed</text><polygon fill="#454645" points="332.5,272.2578,322.5,276.2578,332.5,280.2578,328.5,276.2578" style="stroke:#454645;stroke-width:1.0;"/><line style="stroke:#454645;stroke-width:1.0;" x1="326.5" x2="626.5" y1="276.2578" y2="276.2578"/><text fill="#000000" font-family="sans-serif" font-size="13" lengthAdjust="spacing" textLength="282" x="338.5" y="271.1919">HttpStatus: 400 with appropriate error code</text><path d="M19,260.625 L19,278.625 A3.5,3.5 0 0 0 22.5,282.125 L312.5,282.125 A3.5,3.5 0 0 0 316,278.625 L316,267.125 L306,257.125 L22.5,257.125 A3.5,3.5 0 0 0 19,260.625 " fill="#7FFFD4" style="stroke:#454645;stroke-width:1.5;"/><path d="M306,257.125 L306,265.375 A1.75,1.75 0 0 0 307.75,267.125 L316,267.125 L306,257.125 " fill="#7FFFD4" style="stroke:#454645;stroke-width:1.5;"/><text fill="#454645" font-family="sans-serif" font-size="13" lengthAdjust="spacing" textLength="276" x="25" y="274.1919">Error Code: REQUEST_VALIDATION_FAILED</text><line style="stroke:#454645;stroke-width:1.0;" x1="637.5" x2="679.5" y1="315.3906" y2="315.3906"/><line style="stroke:#454645;stroke-width:1.0;" x1="679.5" x2="679.5" y1="315.3906" y2="328.3906"/><line style="stroke:#454645;stroke-width:1.0;" x1="638.5" x2="679.5" y1="328.3906" y2="328.3906"/><polygon fill="#454645" points="648.5,324.3906,638.5,328.3906,648.5,332.3906,644.5,328.3906" style="stroke:#454645;stroke-width:1.0;"/><text fill="#000000" font-family="sans-serif" font-size="13" lengthAdjust="spacing" textLength="194" x="644.5" y="310.3247">Request validation successful</text><path d="M71.5,343.3906 L132,343.3906 L132,350.5234 L122,360.5234 L68,360.5234 L68,346.8906 A3.5,3.5 0 0 1 71.5,343.3906 " fill="#EEEEEE" style="stroke:#696969;stroke-width:1.5;"/><rect fill="none" height="110.5313" rx="3.5" ry="3.5" style="stroke:#696969;stroke-width:1.0;" width="1900.5" x="68" y="343.3906"/><text fill="#454645" font-family="sans-serif" font-size="13" font-weight="bold" lengthAdjust="spacing" textLength="19" x="83" y="356.4575">alt</text><text fill="#696969" font-family="sans-serif" font-size="11" font-weight="bold" lengthAdjust="spacing" textLength="192" x="147" y="355.6011">[mapping record doesn't exist]</text><polygon fill="#454645" points="1904.5,377.6563,1914.5,381.6563,1904.5,385.6563,1908.5,381.6563" style="stroke:#454645;stroke-width:1.0;"/><line style="stroke:#454645;stroke-width:1.0;" x1="637.5" x2="1910.5" y1="381.6563" y2="381.6563"/><text fill="#000000" font-family="sans-serif" font-size="13" lengthAdjust="spacing" textLength="674" x="644.5" y="376.5903">Get Individual/Household mapping using household and individual clientReferenceId/serverGeneratedId</text><polygon fill="#454645" points="648.5,406.7891,638.5,410.7891,648.5,414.7891,644.5,410.7891" style="stroke:#454645;stroke-width:1.0;"/><line style="stroke:#454645;stroke-width:1.0;" x1="642.5" x2="1920.5" y1="410.7891" y2="410.7891"/><text fill="#000000" font-family="sans-serif" font-size="13" lengthAdjust="spacing" textLength="43" x="654.5" y="405.7231">0 rows</text><polygon fill="#454645" points="332.5,438.9219,322.5,442.9219,332.5,446.9219,328.5,442.9219" style="stroke:#454645;stroke-width:1.0;"/><line style="stroke:#454645;stroke-width:1.0;" x1="326.5" x2="626.5" y1="442.9219" y2="442.9219"/><text fill="#000000" font-family="sans-serif" font-size="13" lengthAdjust="spacing" textLength="282" x="338.5" y="437.856">HttpStatus: 400 with appropriate error code</text><path d="M78,427.2891 L78,445.2891 A3.5,3.5 0 0 0 81.5,448.7891 L312.5,448.7891 A3.5,3.5 0 0 0 316,445.2891 L316,433.7891 L306,423.7891 L81.5,423.7891 A3.5,3.5 0 0 0 78,427.2891 " fill="#7FFFD4" style="stroke:#454645;stroke-width:1.5;"/><path d="M306,423.7891 L306,432.0391 A1.75,1.75 0 0 0 307.75,433.7891 L316,433.7891 L306,423.7891 " fill="#7FFFD4" style="stroke:#454645;stroke-width:1.5;"/><text fill="#454645" font-family="sans-serif" font-size="13" lengthAdjust="spacing" textLength="217" x="84" y="440.856">Error Code: DEPENDENCY_ERROR</text><polygon fill="#454645" points="1904.5,478.0547,1914.5,482.0547,1904.5,486.0547,1908.5,482.0547" style="stroke:#454645;stroke-width:1.0;"/><line style="stroke:#454645;stroke-width:1.0;" x1="637.5" x2="1910.5" y1="482.0547" y2="482.0547"/><text fill="#000000" font-family="sans-serif" font-size="13" lengthAdjust="spacing" textLength="674" x="644.5" y="476.9888">Get Individual/Household mapping using household and individual clientReferenceId/serverGeneratedId</text><polygon fill="#454645" points="648.5,507.1875,638.5,511.1875,648.5,515.1875,644.5,511.1875" style="stroke:#454645;stroke-width:1.0;"/><line style="stroke:#454645;stroke-width:1.0;" x1="642.5" x2="1920.5" y1="511.1875" y2="511.1875"/><text fill="#000000" font-family="sans-serif" font-size="13" lengthAdjust="spacing" textLength="36" x="654.5" y="506.1216">1 row</text><polygon fill="#454645" points="1174.5,536.3203,1184.5,540.3203,1174.5,544.3203,1178.5,540.3203" style="stroke:#454645;stroke-width:1.0;"/><line style="stroke:#454645;stroke-width:1.0;" x1="637.5" x2="1180.5" y1="540.3203" y2="540.3203"/><text fill="#000000" font-family="sans-serif" font-size="13" lengthAdjust="spacing" textLength="249" x="644.5" y="535.2544">Household Member Data /delete_topic</text><polygon fill="#454645" points="1085.5,565.4531,1095.5,569.4531,1085.5,573.4531,1089.5,569.4531" style="stroke:#454645;stroke-width:1.0;"/><line style="stroke:#454645;stroke-width:1.0;" x1="637.5" x2="1091.5" y1="569.4531" y2="569.4531"/><text fill="#000000" font-family="sans-serif" font-size="13" lengthAdjust="spacing" textLength="441" x="644.5" y="564.3872">Delete record in cache against clientReferenceId/serverGeneratedId</text><polygon fill="#454645" points="332.5,624.5859,322.5,628.5859,332.5,632.5859,328.5,628.5859" style="stroke:#454645;stroke-width:1.0;"/><line style="stroke:#454645;stroke-width:1.0;" x1="326.5" x2="631.5" y1="628.5859" y2="628.5859"/><text fill="#000000" font-family="sans-serif" font-size="13" lengthAdjust="spacing" textLength="174" x="338.5" y="623.52">HttpStatus: 202 ACCEPTED</text><path d="M1155,643.5859 L1238.5,643.5859 L1238.5,650.7188 L1228.5,660.7188 L1151.5,660.7188 L1151.5,647.0859 A3.5,3.5 0 0 1 1155,643.5859 " fill="#EEEEEE" style="stroke:#696969;stroke-width:1.5;"/><rect fill="none" height="193.6641" rx="3.5" ry="3.5" style="stroke:#696969;stroke-width:1.0;" width="817" x="1151.5" y="643.5859"/><text fill="#454645" font-family="sans-serif" font-size="13" font-weight="bold" lengthAdjust="spacing" textLength="42" x="1166.5" y="656.6528">async</text><polygon fill="#454645" points="1207.5,677.8516,1197.5,681.8516,1207.5,685.8516,1203.5,681.8516" style="stroke:#454645;stroke-width:1.0;"/><line style="stroke:#454645;stroke-width:1.0;" x1="1201.5" x2="1440.5" y1="681.8516" y2="681.8516"/><text fill="#000000" font-family="sans-serif" font-size="13" lengthAdjust="spacing" textLength="226" x="1213.5" y="676.7856">Consume Household Member Data</text><polygon fill="#454645" points="1202.5,706.9844,1192.5,710.9844,1202.5,714.9844,1198.5,710.9844" style="stroke:#454645;stroke-width:1.0;"/><line style="stroke:#454645;stroke-width:1.0;" x1="1196.5" x2="1575" y1="710.9844" y2="710.9844"/><text fill="#000000" font-family="sans-serif" font-size="13" lengthAdjust="spacing" textLength="226" x="1208.5" y="705.9185">Consume Household Member Data</text><polygon fill="#454645" points="1802.5,736.1172,1812.5,740.1172,1802.5,744.1172,1806.5,740.1172" style="stroke:#454645;stroke-width:1.0;"/><line style="stroke:#454645;stroke-width:1.0;" x1="1586" x2="1808.5" y1="740.1172" y2="740.1172"/><text fill="#000000" font-family="sans-serif" font-size="13" lengthAdjust="spacing" textLength="208" x="1593" y="735.0513">Delete Household Member Data</text><polygon fill="#454645" points="1904.5,795.25,1914.5,799.25,1904.5,803.25,1908.5,799.25" style="stroke:#454645;stroke-width:1.0;"/><line style="stroke:#454645;stroke-width:1.0;" x1="1451.5" x2="1910.5" y1="799.25" y2="799.25"/><text fill="#000000" font-family="sans-serif" font-size="13" lengthAdjust="spacing" textLength="208" x="1458.5" y="794.1841">Delete Household Member Data</text><!--SRC=[lLJ1RXen4BtxAwQddg8bKKySAg5bcw2c95ref9wGiGUmCFRMzfBmznrxOM4BYcWFvR3OupVZUM_64rJG20-szhYoMi8ttCpHmGqCKMD0zY6iS8EmLNF7JM0LTq49LT4QSgsG_hW7qR6tmKfSAX_SBa9y1rAYL3xdOeNnp0dsgyOQuIjVh7cqh3lePtIU0g6ReDigaNmgruquCXBVEWWbtpg8mZbxUexT08NcdZOJv4wiqhbcaWS-vnvXU5YGNSwPW9lFuA4FsUh0DTiauRBjRJQJZNHS1BNb0OcxJmvzUE5QoMXoI8nzWBcLEyPrQ0tR1g6iWGLNsZEWty6zl0n2UKI9FZo4K4q23pLvVEhru5K58bHLpbPEnSinAW72Ian-nf9DuoAa7JH2GKx7T6Fn_KSncSvU1e-ZuM0wUXhFlWn6ZyKmOT78vCremTv9qjT2eFUBMYUk6qf6cILn5jP9a1Qz-HW0twZ8RCz3pljmZwckQgjapNLsRD93WDh7Rri3u9IFQXr0f0OjSO4EZS2Hp3oL7zqz6dGaX1n5uTeoKM61FdiQFN3sDSeliOluDvdV4tbOF1VZOJ7EVywAidmgsILb_vSWfsHRCMwZ6AohHCfgtJ-V7V6nGDOyWbcmbHB7eEl6pP5-pO0vD84o89fviEJAKFlyLQuqGKwIezsb8jtrxc2GvyNpbDht1ExPqjcwehUzCoALXuRBdbnkZQytU9bamhPXuaIA1fexLpkVPB7kHelJwoGQwbQmArAXqVL7z7FBuO8zrzXUrr-G7iBvq-XOeXwnUty3]--></g></svg>