<?xml version="1.0" encoding="UTF-8" standalone="no"?><svg xmlns="http://www.w3.org/2000/svg" xmlns:xlink="http://www.w3.org/1999/xlink" contentStyleType="text/css" height="1167px" preserveAspectRatio="none" style="width:2009px;height:1167px;background:#FFFFFF;" version="1.1" viewBox="0 0 2009 1167" width="2009px" zoomAndPan="magnify"><defs/><g><text fill="#000000" font-family="sans-serif" font-size="14" font-weight="bold" lengthAdjust="spacing" textLength="229" x="891.75" y="27.9951">Household Member - Update</text><rect fill="#FFFFFF" height="727.6563" style="stroke:#696969;stroke-width:1.0;" width="10" x="627.5" y="135.7266"/><rect fill="#FFFFFF" height="30" style="stroke:#696969;stroke-width:1.0;" width="10" x="1132.5" y="804.25"/><rect fill="#FFFFFF" height="170.6641" style="stroke:#696969;stroke-width:1.0;" width="10" x="1221.5" y="775.1172"/><rect fill="#FFFFFF" height="147.3984" style="stroke:#696969;stroke-width:1.0;" width="10" x="1476.5" y="916.6484"/><rect fill="#FFFFFF" height="59.1328" style="stroke:#696969;stroke-width:1.0;" width="10" x="1611" y="945.7813"/><rect fill="#FFFFFF" height="30" style="stroke:#696969;stroke-width:1.0;" width="10" x="1849.5" y="974.9141"/><rect fill="#FFFFFF" height="29.1328" style="stroke:#696969;stroke-width:1.0;" width="10" x="1951.5" y="381.6563"/><rect fill="#FFFFFF" height="29.1328" style="stroke:#696969;stroke-width:1.0;" width="10" x="1951.5" y="482.0547"/><rect fill="#FFFFFF" height="30" style="stroke:#696969;stroke-width:1.0;" width="10" x="1951.5" y="1034.0469"/><rect fill="none" height="94.3984" rx="3.5" ry="3.5" style="stroke:#696969;stroke-width:1.0;" width="810.5" x="9" y="192.8594"/><rect fill="none" height="110.5313" rx="3.5" ry="3.5" style="stroke:#696969;stroke-width:1.0;" width="1935.5" x="68" y="343.3906"/><rect fill="none" height="136.5313" rx="3.5" ry="3.5" style="stroke:#696969;stroke-width:1.0;" width="866.5" x="113" y="526.1875"/><rect fill="none" height="193.6641" rx="3.5" ry="3.5" style="stroke:#696969;stroke-width:1.0;" width="817" x="1186.5" y="878.3828"/><line style="stroke:#696969;stroke-width:0.5;stroke-dasharray:5.0,5.0;" x1="321" x2="321" y1="104.5938" y2="1089.0469"/><line style="stroke:#696969;stroke-width:0.5;stroke-dasharray:5.0,5.0;" x1="632.5" x2="632.5" y1="104.5938" y2="1089.0469"/><line style="stroke:#696969;stroke-width:0.5;stroke-dasharray:5.0,5.0;" x1="1137.5" x2="1137.5" y1="104.5938" y2="1089.0469"/><line style="stroke:#696969;stroke-width:0.5;stroke-dasharray:5.0,5.0;" x1="1226.5" x2="1226.5" y1="104.5938" y2="1089.0469"/><line style="stroke:#696969;stroke-width:0.5;stroke-dasharray:5.0,5.0;" x1="1481.5" x2="1481.5" y1="104.5938" y2="1089.0469"/><line style="stroke:#696969;stroke-width:0.5;stroke-dasharray:5.0,5.0;" x1="1615.5" x2="1615.5" y1="104.5938" y2="1089.0469"/><line style="stroke:#696969;stroke-width:0.5;stroke-dasharray:5.0,5.0;" x1="1737.5" x2="1737.5" y1="104.5938" y2="1089.0469"/><line style="stroke:#696969;stroke-width:0.5;stroke-dasharray:5.0,5.0;" x1="1854.5" x2="1854.5" y1="104.5938" y2="1089.0469"/><line style="stroke:#696969;stroke-width:0.5;stroke-dasharray:5.0,5.0;" x1="1956.5" x2="1956.5" y1="104.5938" y2="1089.0469"/><rect fill="#FF6347" height="30.2969" rx="3.5" ry="3.5" style="stroke:#454645;stroke-width:1.5;" width="55" x="294" y="73.2969"/><text fill="#FFFFFF" font-family="sans-serif" font-size="14" lengthAdjust="spacing" textLength="41" x="301" y="93.292">Client</text><rect fill="#FF6347" height="30.2969" rx="3.5" ry="3.5" style="stroke:#454645;stroke-width:1.5;" width="55" x="294" y="1088.0469"/><text fill="#FFFFFF" font-family="sans-serif" font-size="14" lengthAdjust="spacing" textLength="41" x="301" y="1108.042">Client</text><rect fill="#FF6347" height="30.2969" rx="3.5" ry="3.5" style="stroke:#454645;stroke-width:1.5;" width="148" x="558.5" y="73.2969"/><text fill="#FFFFFF" font-family="sans-serif" font-size="14" lengthAdjust="spacing" textLength="134" x="565.5" y="93.292">HouseholdRegistry</text><rect fill="#FF6347" height="30.2969" rx="3.5" ry="3.5" style="stroke:#454645;stroke-width:1.5;" width="148" x="558.5" y="1088.0469"/><text fill="#FFFFFF" font-family="sans-serif" font-size="14" lengthAdjust="spacing" textLength="134" x="565.5" y="1108.042">HouseholdRegistry</text><rect fill="#FF6347" height="30.2969" rx="3.5" ry="3.5" style="stroke:#454645;stroke-width:1.5;" width="98" x="1088.5" y="73.2969"/><text fill="#FFFFFF" font-family="sans-serif" font-size="14" lengthAdjust="spacing" textLength="84" x="1095.5" y="93.292">RedisCache</text><rect fill="#FF6347" height="30.2969" rx="3.5" ry="3.5" style="stroke:#454645;stroke-width:1.5;" width="98" x="1088.5" y="1088.0469"/><text fill="#FFFFFF" font-family="sans-serif" font-size="14" lengthAdjust="spacing" textLength="84" x="1095.5" y="1108.042">RedisCache</text><path d="M1201.5,78.2969 L1251.5,78.2969 C1256.5,78.2969 1256.5,91.4453 1256.5,91.4453 C1256.5,91.4453 1256.5,104.5938 1251.5,104.5938 L1201.5,104.5938 C1196.5,104.5938 1196.5,91.4453 1196.5,91.4453 C1196.5,91.4453 1196.5,78.2969 1201.5,78.2969 " fill="#FF6347" style="stroke:#454645;stroke-width:1.5;"/><path d="M1251.5,78.2969 C1246.5,78.2969 1246.5,91.4453 1246.5,91.4453 C1246.5,104.5938 1251.5,104.5938 1251.5,104.5938 " fill="none" style="stroke:#454645;stroke-width:1.5;"/><text fill="#FFFFFF" font-family="sans-serif" font-size="14" lengthAdjust="spacing" textLength="40" x="1201.5" y="96.292">Kafka</text><path d="M1201.5,1088.0469 L1251.5,1088.0469 C1256.5,1088.0469 1256.5,1101.1953 1256.5,1101.1953 C1256.5,1101.1953 1256.5,1114.3438 1251.5,1114.3438 L1201.5,1114.3438 C1196.5,1114.3438 1196.5,1101.1953 1196.5,1101.1953 C1196.5,1101.1953 1196.5,1088.0469 1201.5,1088.0469 " fill="#FF6347" style="stroke:#454645;stroke-width:1.5;"/><path d="M1251.5,1088.0469 C1246.5,1088.0469 1246.5,1101.1953 1246.5,1101.1953 C1246.5,1114.3438 1251.5,1114.3438 1251.5,1114.3438 " fill="none" style="stroke:#454645;stroke-width:1.5;"/><text fill="#FFFFFF" font-family="sans-serif" font-size="14" lengthAdjust="spacing" textLength="40" x="1201.5" y="1106.042">Kafka</text><rect fill="#FF6347" height="30.2969" rx="3.5" ry="3.5" style="stroke:#454645;stroke-width:1.5;" width="128" x="1417.5" y="73.2969"/><text fill="#FFFFFF" font-family="sans-serif" font-size="14" lengthAdjust="spacing" textLength="114" x="1424.5" y="93.292">PersisterService</text><rect fill="#FF6347" height="30.2969" rx="3.5" ry="3.5" style="stroke:#454645;stroke-width:1.5;" width="128" x="1417.5" y="1088.0469"/><text fill="#FFFFFF" font-family="sans-serif" font-size="14" lengthAdjust="spacing" textLength="114" x="1424.5" y="1108.042">PersisterService</text><rect fill="#FF6347" height="30.2969" rx="3.5" ry="3.5" style="stroke:#454645;stroke-width:1.5;" width="121" x="1555.5" y="73.2969"/><text fill="#FFFFFF" font-family="sans-serif" font-size="14" lengthAdjust="spacing" textLength="107" x="1562.5" y="93.292">IndexerService</text><rect fill="#FF6347" height="30.2969" rx="3.5" ry="3.5" style="stroke:#454645;stroke-width:1.5;" width="121" x="1555.5" y="1088.0469"/><text fill="#FFFFFF" font-family="sans-serif" font-size="14" lengthAdjust="spacing" textLength="107" x="1562.5" y="1108.042">IndexerService</text><rect fill="#FF6347" height="30.2969" rx="3.5" ry="3.5" style="stroke:#454645;stroke-width:1.5;" width="103" x="1686.5" y="73.2969"/><text fill="#FFFFFF" font-family="sans-serif" font-size="14" lengthAdjust="spacing" textLength="89" x="1693.5" y="93.292">ErrorService</text><rect fill="#FF6347" height="30.2969" rx="3.5" ry="3.5" style="stroke:#454645;stroke-width:1.5;" width="103" x="1686.5" y="1088.0469"/><text fill="#FFFFFF" font-family="sans-serif" font-size="14" lengthAdjust="spacing" textLength="89" x="1693.5" y="1108.042">ErrorService</text><rect fill="#FF6347" height="30.2969" rx="3.5" ry="3.5" style="stroke:#454645;stroke-width:1.5;" width="110" x="1799.5" y="73.2969"/><text fill="#FFFFFF" font-family="sans-serif" font-size="14" lengthAdjust="spacing" textLength="96" x="1806.5" y="93.292">ElasticSearch</text><rect fill="#FF6347" height="30.2969" rx="3.5" ry="3.5" style="stroke:#454645;stroke-width:1.5;" width="110" x="1799.5" y="1088.0469"/><text fill="#FFFFFF" font-family="sans-serif" font-size="14" lengthAdjust="spacing" textLength="96" x="1806.5" y="1108.042">ElasticSearch</text><text fill="#454645" font-family="sans-serif" font-size="14" lengthAdjust="spacing" textLength="68" x="1919.5" y="101.292">Database</text><path d="M1938.5,52.2969 C1938.5,42.2969 1956.5,42.2969 1956.5,42.2969 C1956.5,42.2969 1974.5,42.2969 1974.5,52.2969 L1974.5,78.2969 C1974.5,88.2969 1956.5,88.2969 1956.5,88.2969 C1956.5,88.2969 1938.5,88.2969 1938.5,78.2969 L1938.5,52.2969 " fill="#00FFFF" style="stroke:#454645;stroke-width:1.5;"/><path d="M1938.5,52.2969 C1938.5,62.2969 1956.5,62.2969 1956.5,62.2969 C1956.5,62.2969 1974.5,62.2969 1974.5,52.2969 " fill="none" style="stroke:#454645;stroke-width:1.5;"/><text fill="#454645" font-family="sans-serif" font-size="14" lengthAdjust="spacing" textLength="68" x="1919.5" y="1101.042">Database</text><path d="M1938.5,1114.3438 C1938.5,1104.3438 1956.5,1104.3438 1956.5,1104.3438 C1956.5,1104.3438 1974.5,1104.3438 1974.5,1114.3438 L1974.5,1140.3438 C1974.5,1150.3438 1956.5,1150.3438 1956.5,1150.3438 C1956.5,1150.3438 1938.5,1150.3438 1938.5,1140.3438 L1938.5,1114.3438 " fill="#00FFFF" style="stroke:#454645;stroke-width:1.5;"/><path d="M1938.5,1114.3438 C1938.5,1124.3438 1956.5,1124.3438 1956.5,1124.3438 C1956.5,1124.3438 1974.5,1124.3438 1974.5,1114.3438 " fill="none" style="stroke:#454645;stroke-width:1.5;"/><rect fill="#FFFFFF" height="727.6563" style="stroke:#696969;stroke-width:1.0;" width="10" x="627.5" y="135.7266"/><rect fill="#FFFFFF" height="30" style="stroke:#696969;stroke-width:1.0;" width="10" x="1132.5" y="804.25"/><rect fill="#FFFFFF" height="170.6641" style="stroke:#696969;stroke-width:1.0;" width="10" x="1221.5" y="775.1172"/><rect fill="#FFFFFF" height="147.3984" style="stroke:#696969;stroke-width:1.0;" width="10" x="1476.5" y="916.6484"/><rect fill="#FFFFFF" height="59.1328" style="stroke:#696969;stroke-width:1.0;" width="10" x="1611" y="945.7813"/><rect fill="#FFFFFF" height="30" style="stroke:#696969;stroke-width:1.0;" width="10" x="1849.5" y="974.9141"/><rect fill="#FFFFFF" height="29.1328" style="stroke:#696969;stroke-width:1.0;" width="10" x="1951.5" y="381.6563"/><rect fill="#FFFFFF" height="29.1328" style="stroke:#696969;stroke-width:1.0;" width="10" x="1951.5" y="482.0547"/><rect fill="#FFFFFF" height="30" style="stroke:#696969;stroke-width:1.0;" width="10" x="1951.5" y="1034.0469"/><polygon fill="#454645" points="615.5,131.7266,625.5,135.7266,615.5,139.7266,619.5,135.7266" style="stroke:#454645;stroke-width:1.0;"/><line style="stroke:#454645;stroke-width:1.0;" x1="321.5" x2="621.5" y1="135.7266" y2="135.7266"/><text fill="#000000" font-family="sans-serif" font-size="13" lengthAdjust="spacing" textLength="206" x="328.5" y="130.6606">/household/member/v1/_update</text><line style="stroke:#454645;stroke-width:1.0;" x1="637.5" x2="679.5" y1="164.8594" y2="164.8594"/><line style="stroke:#454645;stroke-width:1.0;" x1="679.5" x2="679.5" y1="164.8594" y2="177.8594"/><line style="stroke:#454645;stroke-width:1.0;" x1="638.5" x2="679.5" y1="177.8594" y2="177.8594"/><polygon fill="#454645" points="648.5,173.8594,638.5,177.8594,648.5,181.8594,644.5,177.8594" style="stroke:#454645;stroke-width:1.0;"/><text fill="#000000" font-family="sans-serif" font-size="13" lengthAdjust="spacing" textLength="143" x="644.5" y="159.7935">Validate request body</text><path d="M12.5,192.8594 L73,192.8594 L73,199.9922 L63,209.9922 L9,209.9922 L9,196.3594 A3.5,3.5 0 0 1 12.5,192.8594 " fill="#EEEEEE" style="stroke:#696969;stroke-width:1.5;"/><rect fill="none" height="94.3984" rx="3.5" ry="3.5" style="stroke:#696969;stroke-width:1.0;" width="810.5" x="9" y="192.8594"/><text fill="#454645" font-family="sans-serif" font-size="13" font-weight="bold" lengthAdjust="spacing" textLength="19" x="24" y="205.9263">alt</text><text fill="#696969" font-family="sans-serif" font-size="11" font-weight="bold" lengthAdjust="spacing" textLength="154" x="88" y="205.0698">[request validation fails]</text><line style="stroke:#454645;stroke-width:1.0;" x1="637.5" x2="679.5" y1="231.125" y2="231.125"/><line style="stroke:#454645;stroke-width:1.0;" x1="679.5" x2="679.5" y1="231.125" y2="244.125"/><line style="stroke:#454645;stroke-width:1.0;" x1="638.5" x2="679.5" y1="244.125" y2="244.125"/><polygon fill="#454645" points="648.5,240.125,638.5,244.125,648.5,248.125,644.5,244.125" style="stroke:#454645;stroke-width:1.0;"/><text fill="#000000" font-family="sans-serif" font-size="13" lengthAdjust="spacing" textLength="163" x="644.5" y="226.0591">Request validation failed</text><polygon fill="#454645" points="332.5,272.2578,322.5,276.2578,332.5,280.2578,328.5,276.2578" style="stroke:#454645;stroke-width:1.0;"/><line style="stroke:#454645;stroke-width:1.0;" x1="326.5" x2="626.5" y1="276.2578" y2="276.2578"/><text fill="#000000" font-family="sans-serif" font-size="13" lengthAdjust="spacing" textLength="282" x="338.5" y="271.1919">HttpStatus: 400 with appropriate error code</text><path d="M19,260.625 L19,278.625 A3.5,3.5 0 0 0 22.5,282.125 L312.5,282.125 A3.5,3.5 0 0 0 316,278.625 L316,267.125 L306,257.125 L22.5,257.125 A3.5,3.5 0 0 0 19,260.625 " fill="#7FFFD4" style="stroke:#454645;stroke-width:1.5;"/><path d="M306,257.125 L306,265.375 A1.75,1.75 0 0 0 307.75,267.125 L316,267.125 L306,257.125 " fill="#7FFFD4" style="stroke:#454645;stroke-width:1.5;"/><text fill="#454645" font-family="sans-serif" font-size="13" lengthAdjust="spacing" textLength="276" x="25" y="274.1919">Error Code: REQUEST_VALIDATION_FAILED</text><line style="stroke:#454645;stroke-width:1.0;" x1="637.5" x2="679.5" y1="315.3906" y2="315.3906"/><line style="stroke:#454645;stroke-width:1.0;" x1="679.5" x2="679.5" y1="315.3906" y2="328.3906"/><line style="stroke:#454645;stroke-width:1.0;" x1="638.5" x2="679.5" y1="328.3906" y2="328.3906"/><polygon fill="#454645" points="648.5,324.3906,638.5,328.3906,648.5,332.3906,644.5,328.3906" style="stroke:#454645;stroke-width:1.0;"/><text fill="#000000" font-family="sans-serif" font-size="13" lengthAdjust="spacing" textLength="194" x="644.5" y="310.3247">Request validation successful</text><path d="M71.5,343.3906 L132,343.3906 L132,350.5234 L122,360.5234 L68,360.5234 L68,346.8906 A3.5,3.5 0 0 1 71.5,343.3906 " fill="#EEEEEE" style="stroke:#696969;stroke-width:1.5;"/><rect fill="none" height="110.5313" rx="3.5" ry="3.5" style="stroke:#696969;stroke-width:1.0;" width="1935.5" x="68" y="343.3906"/><text fill="#454645" font-family="sans-serif" font-size="13" font-weight="bold" lengthAdjust="spacing" textLength="19" x="83" y="356.4575">alt</text><text fill="#696969" font-family="sans-serif" font-size="11" font-weight="bold" lengthAdjust="spacing" textLength="192" x="147" y="355.6011">[mapping record doesn't exist]</text><polygon fill="#454645" points="1939.5,377.6563,1949.5,381.6563,1939.5,385.6563,1943.5,381.6563" style="stroke:#454645;stroke-width:1.0;"/><line style="stroke:#454645;stroke-width:1.0;" x1="637.5" x2="1945.5" y1="381.6563" y2="381.6563"/><text fill="#000000" font-family="sans-serif" font-size="13" lengthAdjust="spacing" textLength="674" x="644.5" y="376.5903">Get Individual/Household mapping using household and individual clientReferenceId/serverGeneratedId</text><polygon fill="#454645" points="648.5,406.7891,638.5,410.7891,648.5,414.7891,644.5,410.7891" style="stroke:#454645;stroke-width:1.0;"/><line style="stroke:#454645;stroke-width:1.0;" x1="642.5" x2="1955.5" y1="410.7891" y2="410.7891"/><text fill="#000000" font-family="sans-serif" font-size="13" lengthAdjust="spacing" textLength="43" x="654.5" y="405.7231">0 rows</text><polygon fill="#454645" points="332.5,438.9219,322.5,442.9219,332.5,446.9219,328.5,442.9219" style="stroke:#454645;stroke-width:1.0;"/><line style="stroke:#454645;stroke-width:1.0;" x1="326.5" x2="626.5" y1="442.9219" y2="442.9219"/><text fill="#000000" font-family="sans-serif" font-size="13" lengthAdjust="spacing" textLength="282" x="338.5" y="437.856">HttpStatus: 400 with appropriate error code</text><path d="M78,427.2891 L78,445.2891 A3.5,3.5 0 0 0 81.5,448.7891 L312.5,448.7891 A3.5,3.5 0 0 0 316,445.2891 L316,433.7891 L306,423.7891 L81.5,423.7891 A3.5,3.5 0 0 0 78,427.2891 " fill="#7FFFD4" style="stroke:#454645;stroke-width:1.5;"/><path d="M306,423.7891 L306,432.0391 A1.75,1.75 0 0 0 307.75,433.7891 L316,433.7891 L306,423.7891 " fill="#7FFFD4" style="stroke:#454645;stroke-width:1.5;"/><text fill="#454645" font-family="sans-serif" font-size="13" lengthAdjust="spacing" textLength="217" x="84" y="440.856">Error Code: DEPENDENCY_ERROR</text><polygon fill="#454645" points="1939.5,478.0547,1949.5,482.0547,1939.5,486.0547,1943.5,482.0547" style="stroke:#454645;stroke-width:1.0;"/><line style="stroke:#454645;stroke-width:1.0;" x1="637.5" x2="1945.5" y1="482.0547" y2="482.0547"/><text fill="#000000" font-family="sans-serif" font-size="13" lengthAdjust="spacing" textLength="674" x="644.5" y="476.9888">Get Individual/Household mapping using household and individual clientReferenceId/serverGeneratedId</text><polygon fill="#454645" points="648.5,507.1875,638.5,511.1875,648.5,515.1875,644.5,511.1875" style="stroke:#454645;stroke-width:1.0;"/><line style="stroke:#454645;stroke-width:1.0;" x1="642.5" x2="1955.5" y1="511.1875" y2="511.1875"/><text fill="#000000" font-family="sans-serif" font-size="13" lengthAdjust="spacing" textLength="36" x="654.5" y="506.1216">1 row</text><path d="M116.5,526.1875 L177,526.1875 L177,533.3203 L167,543.3203 L113,543.3203 L113,529.6875 A3.5,3.5 0 0 1 116.5,526.1875 " fill="#EEEEEE" style="stroke:#696969;stroke-width:1.5;"/><rect fill="none" height="136.5313" rx="3.5" ry="3.5" style="stroke:#696969;stroke-width:1.0;" width="866.5" x="113" y="526.1875"/><text fill="#454645" font-family="sans-serif" font-size="13" font-weight="bold" lengthAdjust="spacing" textLength="19" x="128" y="539.2544">alt</text><text fill="#696969" font-family="sans-serif" font-size="11" font-weight="bold" lengthAdjust="spacing" textLength="141" x="192" y="538.3979">[incorrect rowVersion]</text><line style="stroke:#454645;stroke-width:1.0;" x1="637.5" x2="679.5" y1="564.4531" y2="564.4531"/><line style="stroke:#454645;stroke-width:1.0;" x1="679.5" x2="679.5" y1="564.4531" y2="577.4531"/><line style="stroke:#454645;stroke-width:1.0;" x1="638.5" x2="679.5" y1="577.4531" y2="577.4531"/><polygon fill="#454645" points="648.5,573.4531,638.5,577.4531,648.5,581.4531,644.5,577.4531" style="stroke:#454645;stroke-width:1.0;"/><text fill="#000000" font-family="sans-serif" font-size="13" lengthAdjust="spacing" textLength="297" x="644.5" y="559.3872">Compare rowVersion between request and db</text><line style="stroke:#454645;stroke-width:1.0;" x1="637.5" x2="679.5" y1="606.5859" y2="606.5859"/><line style="stroke:#454645;stroke-width:1.0;" x1="679.5" x2="679.5" y1="606.5859" y2="619.5859"/><line style="stroke:#454645;stroke-width:1.0;" x1="638.5" x2="679.5" y1="619.5859" y2="619.5859"/><polygon fill="#454645" points="648.5,615.5859,638.5,619.5859,648.5,623.5859,644.5,619.5859" style="stroke:#454645;stroke-width:1.0;"/><text fill="#000000" font-family="sans-serif" font-size="13" lengthAdjust="spacing" textLength="323" x="644.5" y="601.52">Incorrect rowVersion [request: should be +1 only]</text><polygon fill="#454645" points="332.5,647.7188,322.5,651.7188,332.5,655.7188,328.5,651.7188" style="stroke:#454645;stroke-width:1.0;"/><line style="stroke:#454645;stroke-width:1.0;" x1="326.5" x2="626.5" y1="651.7188" y2="651.7188"/><text fill="#000000" font-family="sans-serif" font-size="13" lengthAdjust="spacing" textLength="282" x="338.5" y="646.6528">HttpStatus: 400 with appropriate error code</text><path d="M123,636.0859 L123,654.0859 A3.5,3.5 0 0 0 126.5,657.5859 L312.5,657.5859 A3.5,3.5 0 0 0 316,654.0859 L316,642.5859 L306,632.5859 L126.5,632.5859 A3.5,3.5 0 0 0 123,636.0859 " fill="#7FFFD4" style="stroke:#454645;stroke-width:1.5;"/><path d="M306,632.5859 L306,640.8359 A1.75,1.75 0 0 0 307.75,642.5859 L316,642.5859 L306,632.5859 " fill="#7FFFD4" style="stroke:#454645;stroke-width:1.5;"/><text fill="#454645" font-family="sans-serif" font-size="13" lengthAdjust="spacing" textLength="172" x="129" y="649.6528">Error Code: BAD_REQUEST</text><line style="stroke:#454645;stroke-width:1.0;" x1="637.5" x2="679.5" y1="690.8516" y2="690.8516"/><line style="stroke:#454645;stroke-width:1.0;" x1="679.5" x2="679.5" y1="690.8516" y2="703.8516"/><line style="stroke:#454645;stroke-width:1.0;" x1="638.5" x2="679.5" y1="703.8516" y2="703.8516"/><polygon fill="#454645" points="648.5,699.8516,638.5,703.8516,648.5,707.8516,644.5,703.8516" style="stroke:#454645;stroke-width:1.0;"/><text fill="#000000" font-family="sans-serif" font-size="13" lengthAdjust="spacing" textLength="297" x="644.5" y="685.7856">Compare rowVersion between request and db</text><line style="stroke:#454645;stroke-width:1.0;" x1="637.5" x2="679.5" y1="732.9844" y2="732.9844"/><line style="stroke:#454645;stroke-width:1.0;" x1="679.5" x2="679.5" y1="732.9844" y2="745.9844"/><line style="stroke:#454645;stroke-width:1.0;" x1="638.5" x2="679.5" y1="745.9844" y2="745.9844"/><polygon fill="#454645" points="648.5,741.9844,638.5,745.9844,648.5,749.9844,644.5,745.9844" style="stroke:#454645;stroke-width:1.0;"/><text fill="#000000" font-family="sans-serif" font-size="13" lengthAdjust="spacing" textLength="297" x="644.5" y="727.9185">rowVersion in request = rowVersion in db + 1</text><polygon fill="#454645" points="1209.5,771.1172,1219.5,775.1172,1209.5,779.1172,1213.5,775.1172" style="stroke:#454645;stroke-width:1.0;"/><line style="stroke:#454645;stroke-width:1.0;" x1="637.5" x2="1215.5" y1="775.1172" y2="775.1172"/><text fill="#000000" font-family="sans-serif" font-size="13" lengthAdjust="spacing" textLength="253" x="644.5" y="770.0513">Household Member Data /update_topic</text><polygon fill="#454645" points="1120.5,800.25,1130.5,804.25,1120.5,808.25,1124.5,804.25" style="stroke:#454645;stroke-width:1.0;"/><line style="stroke:#454645;stroke-width:1.0;" x1="637.5" x2="1126.5" y1="804.25" y2="804.25"/><text fill="#000000" font-family="sans-serif" font-size="13" lengthAdjust="spacing" textLength="476" x="644.5" y="799.1841">Update new record in cache against clientReferenceId/serverGeneratedId</text><polygon fill="#454645" points="332.5,859.3828,322.5,863.3828,332.5,867.3828,328.5,863.3828" style="stroke:#454645;stroke-width:1.0;"/><line style="stroke:#454645;stroke-width:1.0;" x1="326.5" x2="631.5" y1="863.3828" y2="863.3828"/><text fill="#000000" font-family="sans-serif" font-size="13" lengthAdjust="spacing" textLength="174" x="338.5" y="858.3169">HttpStatus: 202 ACCEPTED</text><path d="M1190,878.3828 L1273.5,878.3828 L1273.5,885.5156 L1263.5,895.5156 L1186.5,895.5156 L1186.5,881.8828 A3.5,3.5 0 0 1 1190,878.3828 " fill="#EEEEEE" style="stroke:#696969;stroke-width:1.5;"/><rect fill="none" height="193.6641" rx="3.5" ry="3.5" style="stroke:#696969;stroke-width:1.0;" width="817" x="1186.5" y="878.3828"/><text fill="#454645" font-family="sans-serif" font-size="13" font-weight="bold" lengthAdjust="spacing" textLength="42" x="1201.5" y="891.4497">async</text><polygon fill="#454645" points="1242.5,912.6484,1232.5,916.6484,1242.5,920.6484,1238.5,916.6484" style="stroke:#454645;stroke-width:1.0;"/><line style="stroke:#454645;stroke-width:1.0;" x1="1236.5" x2="1475.5" y1="916.6484" y2="916.6484"/><text fill="#000000" font-family="sans-serif" font-size="13" lengthAdjust="spacing" textLength="226" x="1248.5" y="911.5825">Consume Household Member Data</text><polygon fill="#454645" points="1237.5,941.7813,1227.5,945.7813,1237.5,949.7813,1233.5,945.7813" style="stroke:#454645;stroke-width:1.0;"/><line style="stroke:#454645;stroke-width:1.0;" x1="1231.5" x2="1610" y1="945.7813" y2="945.7813"/><text fill="#000000" font-family="sans-serif" font-size="13" lengthAdjust="spacing" textLength="226" x="1243.5" y="940.7153">Consume Household Member Data</text><polygon fill="#454645" points="1837.5,970.9141,1847.5,974.9141,1837.5,978.9141,1841.5,974.9141" style="stroke:#454645;stroke-width:1.0;"/><line style="stroke:#454645;stroke-width:1.0;" x1="1621" x2="1843.5" y1="974.9141" y2="974.9141"/><text fill="#000000" font-family="sans-serif" font-size="13" lengthAdjust="spacing" textLength="199" x="1628" y="969.8481">Store Household Member Data</text><polygon fill="#454645" points="1939.5,1030.0469,1949.5,1034.0469,1939.5,1038.0469,1943.5,1034.0469" style="stroke:#454645;stroke-width:1.0;"/><line style="stroke:#454645;stroke-width:1.0;" x1="1486.5" x2="1945.5" y1="1034.0469" y2="1034.0469"/><text fill="#000000" font-family="sans-serif" font-size="13" lengthAdjust="spacing" textLength="212" x="1493.5" y="1028.981">Update Household Member Data</text><!--SRC=[lLLDRzim3BtxLt2d7Oh2IR5JW0t87AyDrhMTqnOOXY6G9IOHuaYU92VDln_bhzXjLcG3jXmScNoaz1ufsacN8Lpfmk9APmA-u2P50-Vma0lcC7ZZLhX1sChKCEM2d1adkSnf3L4caVwO1TwpjyaIN4hhpDv3R0-Ie90sOdo5tcTuyBF00k4pMwoPjwnxw3iqbXAXcQ7PIbx6vAQVSQe4FlKGKZpr4B4nkkl7Ve8uOvPUPiWCNvN-B205MCeimgHPa5sa0OVp3s1X1E6guHfkIk72xJ2S5vLqZ3kvfGLnjsN021vP9hqF319Zwo3LOX-mpBM6ROMGMi62oSm6GBycF3aEGd50yH5SEPVF77C5HRmR360d7H7ASwDp8_tcw9K0hWMMSKgJBSE5Az-W4WeYSjEEyTU7U7O_VnnVJoVZ- -djpVpJU7eTJqeiAb561xG8NZcaBJX7QnT5LdBTq66aMX9dheq0eT6gjmxmYOeSr3n4Ee9BBEigjr8KB0iFJTeaAAn_jZK0HkUHRG3mia4JNA11nN4gGalbHtE92Wq98QPUkBPCL5YWHqrZ04RllFm2-uY_a_araIVnNNmpYM-YR_CuIMwJu9Yo_qkGBjbMZA4N8-WhuIif5LMGokYy_z5VKwrw7Hlf3LqoxBWXHRT3L6t7-pEMmXwYfaVImlSwO0IM21Av5E5i25fb-n__hFy_ZYVp-WxylkDF9zb4T93o07h_p4xody6m2bgFNWvfFvKWhARDtEbSyaFrrbMO8JsgIGuATysDezoy6hvB9XNj_4UDGUEwqmdqTapuYy45ZACelhkdMT61ss1fT97J8DqhNafAaxmc66bbYmqU9rfYspH-_7i33VcJWpkdMFUp-Kz59njc8vWvRKuw2NqcdYL_QMdorrJzLQwBSi86zTruFePw5Yy7TUGl]--></g></svg>